<?xml version="1.0" encoding="UTF-8" standalone="no"?>
<svg
   xmlns:dc="http://purl.org/dc/elements/1.1/"
   xmlns:cc="http://creativecommons.org/ns#"
   xmlns:rdf="http://www.w3.org/1999/02/22-rdf-syntax-ns#"
   xmlns:svg="http://www.w3.org/2000/svg"
   xmlns="http://www.w3.org/2000/svg"
   viewBox="0 0 800 533.33331"
   height="533.33331"
   width="800"
   xml:space="preserve"
   version="1.1"
   id="svg2"><metadata
     id="metadata8"><rdf:RDF><cc:Work
         rdf:about=""><dc:format>image/svg+xml</dc:format><dc:type
           rdf:resource="http://purl.org/dc/dcmitype/StillImage" /></cc:Work></rdf:RDF></metadata><defs
     id="defs6"><clipPath
       id="clipPath18"
       clipPathUnits="userSpaceOnUse"><path
         id="path20"
         d="M 0,400 600,400 600,0 0,0 0,400 Z" /></clipPath></defs><g
     transform="matrix(1.3333333,0,0,-1.3333333,0,533.33333)"
     id="g10"><path
       id="path12"
       style="fill:#d02533;fill-opacity:1;fill-rule:nonzero;stroke:none"
       d="M 0,0 600,0 600,400 0,400 0,0 Z" /><g
       id="g14"><g
         clip-path="url(#clipPath18)"
         id="g16"><g
           transform="translate(337.875,315.7979)"
           id="g22"><path
             id="path24"
             style="fill:#1d1d1d;fill-opacity:1;fill-rule:nonzero;stroke:none"
             d="m 0,0 c -2.236,0.104 -0.2,-1.973 -1.274,-2.676 -1.325,-0.865 -4.582,3.601 -2.677,-1.5 1.069,-0.865 6.682,-0.468 7.701,0.601 1.018,1.017 0.204,2.819 -1.426,3.124 C 1.265,-0.148 0.515,-0.024 0,0 M 4,7.5 C 5.15,7.466 6.102,7.281 6.749,6.924 7.31,6.619 8.214,5.959 8.825,5.399 9.639,4.687 10.883,4.427 14.699,4.274 20.147,4.122 22.327,3.242 23.55,0.85 c 0.865,-1.68 0.862,-1.81 1.425,-3.225 -2.527,0.72 -5.551,1.754 -6.925,1.5 -1.883,-0.408 -3.926,-1.563 -3.926,-2.276 0,-0.254 0.613,-0.866 1.325,-1.374 2.11,-0.519 2.799,-0.519 6.525,0 4.887,0.763 5.246,0.918 6.876,2.75 0.916,1.069 2.236,2.535 2.95,3.35 1.425,1.577 3.462,1.824 4.175,0.45 C 36.688,0.752 34.848,-1.09 32.1,-3.076 29.707,-4.806 28.026,-6.018 23.699,-6.476 22.351,-6.628 12.059,-6.583 11.55,-6.875 11.04,-7.168 16.844,-9.649 22.624,-7.925 21.25,-10.726 15.5,-12.892 9.85,-13.4 c -6.312,-0.612 -10.645,-1.973 -15.125,-4.925 -4.734,-3.106 -7.213,-5.845 -9.35,-10.376 -2.189,-4.479 -2.955,-8.246 -2.7,-12.674 0.304,-5.447 2.89,-8.25 7.625,-8.25 3.258,0 4.547,0.611 6.124,2.8 1.018,1.526 1.149,2.222 1.201,8.025 0,5.446 0.208,6.668 1.125,8.449 1.833,3.615 4.437,5.302 12.175,8.05 3.868,1.375 9.054,3.356 11.599,4.475 5.091,2.138 5.303,2.087 6.526,-1.374 0.406,-1.172 1.117,-2.073 1.575,-2.176 1.477,-0.305 9.362,2.382 14.3,4.826 8.499,4.275 12.923,8.053 17.3,14.925 2.595,4.072 4.48,5.237 7.025,4.524 2.9,-0.814 4.523,-3.309 4.574,-7.024 0.052,-3.258 -1.526,-5.958 -5.649,-9.775 -6.974,-6.465 -20.001,-12.368 -31.25,-14.201 -3.716,-0.559 -5.5,-1.983 -5.5,-4.324 0,-3.411 3.714,-4.8 12.774,-4.85 8.5,0 13.856,2.103 19.25,7.6 3.462,3.613 4.687,4.165 6.926,3.3 1.12,-0.458 2.3,-2.892 2.3,-4.775 0,-3.869 -5.108,-10.083 -10.35,-12.475 -3.92,-1.833 -7.519,-2.455 -13.526,-2.201 -4.48,0.153 -6.157,0.526 -9.974,1.901 -7.636,2.799 -8.309,2.89 -9.224,1.974 -0.714,-0.712 -0.716,-0.922 0.048,-2.5 1.324,-2.544 6.324,-7.273 9.225,-8.749 6.923,-3.512 13.726,-2.746 23.601,2.65 5.039,2.748 7.698,2.842 9.174,0.449 0.56,-0.916 1.026,-2.286 1.026,-3.049 0,-1.935 -2.556,-4.687 -6.475,-6.826 -5.039,-2.85 -8.597,-3.749 -14.451,-3.749 -5.243,0 -8.552,0.797 -15.474,3.749 -3.513,1.476 -4.933,1.643 -5.85,0.625 -0.865,-1.12 0.643,-4.069 3.8,-7.224 4.733,-4.734 14.16,-8.312 20.575,-7.7 1.833,0.152 4.064,0.882 6.05,1.85 4.072,2.036 7.692,2.183 9.525,0.3 2.341,-2.291 1.416,-5.87 -2.301,-9.025 -2.443,-2.138 -4.979,-2.95 -8.95,-2.95 -4.479,0 -7.23,0.964 -16.75,5.8 -8.704,4.377 -10.74,5.05 -11.249,3.624 -0.611,-1.475 1.019,-3.967 5.6,-8.65 9.417,-9.518 14.769,-11.394 25,-8.849 7.227,1.832 9.707,0.588 9.3,-4.4 -0.305,-3.512 -1.467,-5.171 -4.775,-6.851 -2.138,-1.119 -3.152,-1.274 -7.326,-1.274 -3.919,0.051 -5.286,0.259 -7.373,1.175 -3.615,1.679 -11.572,7.105 -16.051,11.025 -5.498,4.835 -7.626,5.767 -7.626,3.374 0,-2.341 8.956,-14.662 14.3,-19.6 2.037,-1.882 5.093,-4.083 6.976,-5 3.104,-1.526 3.774,-1.675 7.999,-1.625 2.494,0 6.191,0.098 8.176,0.25 4.377,0.255 5.799,-0.598 5.799,-3.5 0,-2.697 -3.804,-6.304 -7.824,-7.475 -8.297,-2.444 -17.352,1.773 -28.55,13.176 -8.298,8.449 -9.486,7.928 -4.601,-2.15 5.193,-10.792 11.78,-18.469 18.551,-21.676 3.512,-1.628 4.413,-1.732 13.525,-1.326 4.021,0.205 5.849,-0.854 5.849,-3.348 0,-1.273 -0.45,-2.151 -1.874,-3.576 -5.192,-5.191 -13.796,-5.384 -22.55,-0.55 -4.937,2.75 -16.957,15.923 -23.626,25.95 -3.561,5.345 -4.477,6.009 -5.699,4.125 -0.764,-1.119 -0.808,-1.731 -0.35,-4.175 1.425,-7.532 5.028,-13.287 10.474,-16.85 3.513,-2.239 4.337,-3.562 3.675,-5.649 -0.813,-2.597 -5.796,-3.854 -8.849,-2.275 -3.615,1.832 -8.196,8.741 -12.675,19.074 -3.206,7.382 -3.423,7.65 -5,7.65 -4.123,0 -2.689,-8.673 2.349,-14.425 2.24,-2.545 2.604,-4.275 1.026,-5.7 -1.324,-1.221 -3.314,-0.763 -6.826,1.475 -3.256,2.088 -5.033,4.194 -7.425,8.826 -3.003,5.751 -4.244,4.263 -1.799,-2.151 3.41,-9.161 11.572,-17.297 23.024,-23.1 1.781,-0.865 3.201,-1.746 3.201,-1.899 0,-0.153 -1.028,-1.476 -2.3,-2.851 -1.273,-1.425 -2.276,-2.695 -2.276,-2.95 0,-0.508 6.954,-3.668 15.2,-6.825 l 7.4,-2.85 3.801,2.4 c 5.242,3.207 8.138,5.598 8.75,7.226 1.221,3.156 5.147,5.244 8.049,4.225 1.019,-0.357 2.241,-0.31 4.176,0.199 4.48,1.172 7.2,-2.398 7.9,-4.249 -1.549,-0.231 -0.806,-0.175 -1.901,-0.126 -4.58,0.205 -5.039,0.062 -7.025,-1.975 -2.087,-2.137 -4.885,-3.206 -7.124,-2.8 -1.019,0.205 -2.345,-0.362 -5.5,-2.449 -2.342,-1.476 -4.225,-2.846 -4.225,-3.051 0,-0.508 2.394,-0.511 9.824,0.1 5.294,0.408 6.176,0.605 7.55,1.726 2.088,1.782 4.485,2.142 6.777,1.075 1.016,-0.509 2.826,-0.924 4.098,-0.976 1.375,-0.05 2.81,-0.489 3.675,-1.099 1.477,-1.121 2.471,-1.697 3.15,-3.925 -2.763,0.046 -1.865,0.045 -3.849,0.3 -3.411,0.508 -3.782,0.466 -4.851,-0.5 -0.661,-0.56 -1.664,-1.344 -2.274,-1.651 -1.528,-0.763 -5.045,-0.69 -6.726,0.225 -1.068,0.51 -3.475,0.7 -9.024,0.751 -4.174,0.051 -7.821,0.051 -8.075,0 -0.305,0 1.359,-1.126 3.65,-2.501 3.919,-2.393 4.289,-2.474 7.649,-2.425 4.48,0.052 7.012,-1.274 7.726,-4.125 0.255,-1.017 0.72,-2.854 1.024,-3.974 0.713,-2.697 0.985,-3.115 -1,-7.776 -2.168,5.106 -1.438,3.559 -2.1,4.524 -1.069,1.58 -1.479,1.824 -4.025,2.026 -3.511,0.306 -5.151,1.377 -6.474,4.176 -0.866,1.934 -1.818,2.749 -6.5,5.649 -6.414,3.971 -6.023,3.96 -13.25,0.601 -3.562,-1.681 -4.89,-2.53 -5.499,-3.701 -1.07,-2.137 -3.356,-2.963 -5.902,-2.199 -2.391,0.711 -3.445,0.315 -5.075,-1.975 -0.686,-0.993 -0.732,-0.797 -1.749,-1.726 -0.285,1.428 -0.3,1.625 -0.3,3.05 0,2.088 0.252,2.502 2.951,5.251 3.156,3.155 5.084,4.015 7.374,3.15 1.069,-0.408 1.952,-0.272 4.7,0.999 3.054,1.375 4.227,2.5 2.649,2.5 -0.304,0 -5.25,1.837 -10.899,4.026 L 5.025,-165.176 3.5,-166.4 c -2.8,-2.189 -7.24,-4.226 -9.176,-4.226 -1.781,0 -1.989,0.143 -2.549,1.976 -0.867,2.901 -6.819,14.363 -10.025,19.249 -5.345,8.248 -8.283,10.397 -10.675,7.75 -0.764,-0.865 -0.976,-1.843 -0.926,-4.999 0.102,-9.315 5.403,-21.479 12.375,-28.352 3.665,-3.663 7.69,-5.66 12.576,-6.374 3.767,-0.508 6.299,-1.457 6.299,-2.425 0,-1.016 -2.496,-3.985 -4.075,-4.8 -1.373,-0.712 -2.697,-0.851 -5.599,-0.751 -3.513,0.154 -4.165,0.34 -7.526,2.376 -3.308,1.987 -3.812,2.163 -4.474,1.499 -0.662,-0.66 -0.709,-1.141 -0.201,-2.973 1.07,-3.971 3.909,-5.786 10.526,-6.601 6.77,-0.865 9.063,-2.919 6.824,-6.075 -1.477,-2.035 -4.012,-3.101 -7.524,-3.101 -3.971,0 -7.396,1.751 -11.925,6.026 -1.936,1.782 -3.72,3.104 -4.025,2.9 -0.712,-0.405 -0.665,-4.48 0.1,-6.974 0.712,-2.392 3.915,-6.162 5.85,-6.926 0.764,-0.304 2.721,-0.917 4.3,-1.324 5.547,-1.528 6.344,-3.679 2.425,-6.276 -2.546,-1.679 -6.77,-1.826 -9.875,-0.349 -2.037,0.917 -7.632,6.167 -8.7,8.049 -0.917,1.68 -1.881,0.445 -1.576,-2.05 0.204,-2.085 1.428,-4.431 4.176,-8.3 2.239,-3.053 1.467,-7.175 -2.351,-12.775 -2.534,-3.736 -4.912,-6.401 -6.024,-6.876 -0.219,0.095 -0.493,0.298 -0.8,0.551 l 0,208.026 c 0.264,-0.055 0.531,-0.097 0.8,-0.1 0.838,0.01 1.695,0.271 2.325,0.75 0.917,0.661 0.916,0.748 0.05,2.274 -1.069,1.986 -0.708,2.708 1.174,2.301 1.68,-0.357 3.196,0.315 4.875,2.25 1.528,1.679 1.532,1.868 -0.2,2.224 -3.104,0.662 -4.175,2.901 -1.324,2.901 2.29,0 7.375,3.323 7.324,4.8 -0.05,0.305 -1.004,1.015 -2.174,1.575 -2.647,1.272 -2.719,2.234 -0.275,3.1 2.393,0.814 6.318,3.456 6.675,4.524 0.254,0.509 -0.301,1.063 -1.726,1.776 -2.595,1.323 -6.049,4.483 -6.049,5.45 0,0.814 0.753,0.768 4.825,-0.3 1.12,-0.306 3.664,-0.551 5.7,-0.551 2.952,0 4.224,0.303 7.074,1.576 C -4.808,6.315 0.548,7.6 4,7.5" /></g><g
           transform="translate(261.3252,315.7979)"
           id="g26"><path
             id="path28"
             style="fill:#1d1d1d;fill-opacity:1;fill-rule:nonzero;stroke:none"
             d="m 0,0 c 2.235,0.104 0.199,-1.973 1.274,-2.676 1.324,-0.865 4.581,3.601 2.676,-1.5 -1.069,-0.865 -6.682,-0.468 -7.7,0.601 -1.018,1.017 -0.204,2.819 1.424,3.124 C -1.266,-0.148 -0.517,-0.024 0,0 M -4.001,7.5 C -5.151,7.466 -6.102,7.281 -6.75,6.924 -7.31,6.619 -8.215,5.959 -8.826,5.399 -9.64,4.687 -10.883,4.427 -14.7,4.274 -20.147,4.122 -22.329,3.242 -23.55,0.85 c -0.866,-1.68 -0.863,-1.81 -1.426,-3.225 2.527,0.72 5.552,1.754 6.925,1.5 1.884,-0.408 3.925,-1.563 3.925,-2.276 0,-0.254 -0.612,-0.866 -1.325,-1.374 -2.109,-0.519 -2.798,-0.519 -6.524,0 -4.887,0.763 -5.247,0.918 -6.875,2.75 -0.917,1.069 -2.238,2.535 -2.95,3.35 -1.426,1.577 -3.463,1.824 -4.176,0.45 -0.712,-1.273 1.127,-3.115 3.875,-5.101 2.393,-1.73 4.074,-2.942 8.401,-3.4 1.348,-0.152 11.64,-0.107 12.149,-0.399 0.509,-0.293 -5.294,-2.774 -11.074,-1.05 1.374,-2.801 7.125,-4.967 12.774,-5.475 6.312,-0.612 10.646,-1.973 15.125,-4.925 4.734,-3.106 7.213,-5.845 9.351,-10.376 2.188,-4.479 2.954,-8.246 2.699,-12.674 -0.305,-5.447 -2.891,-8.25 -7.624,-8.25 -3.259,0 -4.548,0.611 -6.126,2.8 -1.017,1.526 -1.149,2.222 -1.199,8.025 0,5.446 -0.209,6.668 -1.125,8.449 -1.833,3.615 -4.438,5.302 -12.175,8.05 -3.869,1.375 -9.055,3.356 -11.6,4.475 -5.091,2.138 -5.304,2.087 -6.526,-1.374 -0.407,-1.172 -1.116,-2.073 -1.574,-2.176 -1.477,-0.305 -9.363,2.382 -14.3,4.826 -8.501,4.275 -12.923,8.053 -17.3,14.925 -2.597,4.072 -4.48,5.237 -7.025,4.524 -2.902,-0.814 -4.525,-3.309 -4.575,-7.024 -0.051,-3.258 1.527,-5.958 5.649,-9.775 6.974,-6.465 20.002,-12.368 31.25,-14.201 3.716,-0.559 5.501,-1.983 5.501,-4.324 0,-3.411 -3.715,-4.8 -12.776,-4.85 -8.5,0 -13.854,2.103 -19.25,7.6 -3.461,3.613 -4.685,4.165 -6.924,3.3 -1.121,-0.458 -2.301,-2.892 -2.301,-4.775 0,-3.869 5.108,-10.083 10.351,-12.475 3.919,-1.833 7.518,-2.455 13.525,-2.201 4.479,0.153 6.157,0.526 9.974,1.901 7.636,2.799 8.309,2.89 9.225,1.974 0.713,-0.712 0.714,-0.922 -0.05,-2.5 -1.323,-2.544 -6.323,-7.273 -9.224,-8.749 -6.923,-3.512 -13.725,-2.746 -23.601,2.65 -5.039,2.748 -7.698,2.842 -9.174,0.449 -0.56,-0.916 -1.026,-2.286 -1.026,-3.049 0,-1.935 2.556,-4.687 6.476,-6.826 5.039,-2.85 8.596,-3.749 14.45,-3.749 5.242,0 8.552,0.797 15.474,3.749 3.512,1.476 4.934,1.643 5.851,0.625 0.865,-1.12 -0.645,-4.069 -3.801,-7.224 -4.733,-4.734 -14.161,-8.312 -20.574,-7.7 -1.833,0.152 -4.065,0.882 -6.051,1.85 -4.072,2.036 -7.692,2.183 -9.524,0.3 -2.342,-2.291 -1.416,-5.87 2.299,-9.025 2.444,-2.138 4.98,-2.95 8.951,-2.95 4.479,0 7.231,0.964 16.75,5.8 8.704,4.377 10.741,5.05 11.25,3.624 0.611,-1.475 -1.02,-3.967 -5.601,-8.65 -9.416,-9.518 -14.768,-11.394 -25,-8.849 -7.228,1.832 -9.706,0.588 -9.299,-4.4 0.305,-3.512 1.466,-5.171 4.775,-6.851 2.137,-1.119 3.151,-1.274 7.325,-1.274 3.919,0.051 5.287,0.259 7.375,1.175 3.613,1.679 11.571,7.105 16.05,11.025 5.497,4.835 7.625,5.767 7.625,3.374 0,-2.341 -8.956,-14.662 -14.3,-19.6 -2.036,-1.882 -5.092,-4.083 -6.975,-5 -3.105,-1.526 -3.776,-1.675 -8,-1.625 -2.495,0 -6.191,0.098 -8.176,0.25 -4.377,0.255 -5.799,-0.598 -5.799,-3.5 0,-2.697 3.803,-6.304 7.824,-7.475 8.297,-2.444 17.352,1.773 28.551,13.176 8.296,8.449 9.486,7.928 4.6,-2.15 -5.192,-10.792 -11.781,-18.469 -18.55,-21.676 -3.512,-1.628 -4.414,-1.732 -13.525,-1.326 -4.022,0.205 -5.851,-0.854 -5.851,-3.348 0,-1.273 0.451,-2.151 1.876,-3.576 5.192,-5.191 13.795,-5.384 22.55,-0.55 4.937,2.75 16.956,15.923 23.625,25.95 3.563,5.345 4.478,6.009 5.7,4.125 0.763,-1.119 0.807,-1.731 0.35,-4.175 -1.426,-7.532 -5.029,-13.287 -10.476,-16.85 -3.511,-2.239 -4.336,-3.562 -3.674,-5.649 0.814,-2.597 5.796,-3.854 8.85,-2.275 3.613,1.832 8.195,8.741 12.674,19.074 3.207,7.382 3.422,7.65 5,7.65 4.124,0 2.69,-8.673 -2.349,-14.425 -2.24,-2.545 -2.603,-4.275 -1.025,-5.7 1.323,-1.221 3.312,-0.763 6.825,1.475 3.257,2.088 5.032,4.194 7.424,8.826 3.003,5.751 4.244,4.263 1.8,-2.151 -3.41,-9.161 -11.572,-17.297 -23.024,-23.1 -1.782,-0.865 -3.2,-1.746 -3.2,-1.899 0,-0.153 1.027,-1.476 2.299,-2.851 1.273,-1.425 2.276,-2.695 2.276,-2.95 0,-0.508 -6.954,-3.668 -15.2,-6.825 l -7.4,-2.85 -3.801,2.4 c -5.243,3.207 -8.138,5.598 -8.75,7.226 -1.221,3.156 -5.148,5.244 -8.049,4.225 -1.018,-0.357 -2.241,-0.31 -4.175,0.199 -4.48,1.172 -7.2,-2.398 -7.9,-4.249 1.549,-0.231 0.805,-0.175 1.9,-0.126 4.581,0.205 5.039,0.062 7.025,-1.975 2.087,-2.137 4.884,-3.206 7.125,-2.8 1.018,0.205 2.343,-0.362 5.5,-2.449 2.341,-1.476 4.225,-2.846 4.225,-3.051 0,-0.508 -2.394,-0.511 -9.825,0.1 -5.294,0.408 -6.176,0.605 -7.55,1.726 -2.088,1.782 -4.485,2.142 -6.776,1.075 -1.017,-0.509 -2.827,-0.924 -4.099,-0.976 -1.375,-0.05 -2.81,-0.489 -3.675,-1.099 -1.477,-1.121 -2.471,-1.697 -3.151,-3.925 2.765,0.046 1.865,0.045 3.851,0.3 3.41,0.508 3.78,0.466 4.85,-0.5 0.661,-0.56 1.664,-1.344 2.274,-1.651 1.528,-0.763 5.046,-0.69 6.726,0.225 1.069,0.51 3.476,0.7 9.025,0.751 4.173,0.051 7.82,0.051 8.075,0 0.305,0 -1.36,-1.126 -3.65,-2.501 -3.92,-2.393 -4.291,-2.474 -7.65,-2.425 -4.48,0.052 -7.013,-1.274 -7.725,-4.125 -0.255,-1.017 -0.72,-2.854 -1.025,-3.974 -0.713,-2.697 -0.984,-3.115 1,-7.776 2.168,5.106 1.438,3.559 2.099,4.524 1.069,1.58 1.481,1.824 4.025,2.026 3.512,0.306 5.152,1.377 6.475,4.176 0.866,1.934 1.818,2.749 6.501,5.649 6.413,3.971 6.021,3.96 13.249,0.601 3.564,-1.681 4.889,-2.53 5.5,-3.701 1.069,-2.137 3.356,-2.963 5.901,-2.199 2.392,0.711 3.445,0.315 5.075,-1.975 0.686,-0.993 0.732,-0.797 1.749,-1.726 0.285,1.428 0.301,1.625 0.301,3.05 0,2.088 -0.253,2.502 -2.95,5.251 -3.156,3.155 -5.085,4.015 -7.376,3.15 -1.068,-0.408 -1.951,-0.272 -4.699,0.999 -3.054,1.375 -4.228,2.5 -2.651,2.5 0.306,0 5.251,1.837 10.9,4.026 l 10.275,3.974 1.526,-1.224 c 2.799,-2.189 7.24,-4.226 9.175,-4.226 1.781,0 1.99,0.143 2.549,1.976 0.866,2.901 6.819,14.363 10.025,19.249 5.345,8.248 8.283,10.397 10.675,7.75 0.764,-0.865 0.976,-1.843 0.926,-4.999 -0.102,-9.315 -5.402,-21.479 -12.375,-28.352 -3.665,-3.663 -7.689,-5.66 -12.576,-6.374 -3.766,-0.508 -6.299,-1.457 -6.299,-2.425 0,-1.016 2.497,-3.985 4.075,-4.8 1.374,-0.712 2.699,-0.851 5.6,-0.751 3.512,0.154 4.165,0.34 7.525,2.376 3.308,1.987 3.813,2.163 4.474,1.499 0.662,-0.66 0.709,-1.141 0.201,-2.973 -1.069,-3.971 -3.909,-5.786 -10.525,-6.601 -6.77,-0.865 -9.065,-2.919 -6.825,-6.075 1.476,-2.035 4.013,-3.101 7.525,-3.101 3.97,0 7.394,1.751 11.925,6.026 1.934,1.782 3.719,3.104 4.025,2.9 0.712,-0.405 0.663,-4.48 -0.1,-6.974 -0.713,-2.392 -3.916,-6.162 -5.851,-6.926 -0.763,-0.304 -2.722,-0.917 -4.299,-1.324 -5.548,-1.528 -6.345,-3.679 -2.426,-6.276 2.545,-1.679 6.771,-1.826 9.875,-0.349 2.036,0.917 7.632,6.167 8.701,8.049 0.916,1.68 1.88,0.445 1.575,-2.05 -0.204,-2.085 -1.427,-4.431 -4.176,-8.3 -2.239,-3.053 -1.467,-7.175 2.351,-12.775 2.534,-3.736 4.911,-6.401 6.024,-6.876 0.219,0.095 0.493,0.298 0.8,0.551 l 0,208.026 c -0.263,-0.055 -0.531,-0.097 -0.8,-0.1 -0.837,0.01 -1.694,0.271 -2.325,0.75 -0.915,0.661 -0.915,0.748 -0.049,2.274 1.068,1.986 0.707,2.708 -1.176,2.301 -1.68,-0.357 -3.195,0.315 -4.874,2.25 -1.527,1.679 -1.531,1.868 0.2,2.224 3.104,0.662 4.175,2.901 1.324,2.901 -2.29,0 -7.375,3.323 -7.325,4.8 0.051,0.305 1.005,1.015 2.176,1.575 2.646,1.272 2.718,2.234 0.275,3.1 -2.393,0.814 -6.319,3.456 -6.676,4.524 -0.254,0.509 0.301,1.063 1.725,1.776 C 24.146,-0.827 27.6,2.333 27.6,3.3 27.6,4.114 26.847,4.068 22.774,3 21.655,2.694 19.11,2.449 17.074,2.449 14.123,2.449 12.85,2.752 10,4.025 4.808,6.315 -0.548,7.6 -4.001,7.5" /></g></g></g></g></svg>