<?xml version="1.0" encoding="UTF-8" standalone="no"?>
<svg
   xmlns:dc="http://purl.org/dc/elements/1.1/"
   xmlns:cc="http://creativecommons.org/ns#"
   xmlns:rdf="http://www.w3.org/1999/02/22-rdf-syntax-ns#"
   xmlns:svg="http://www.w3.org/2000/svg"
   xmlns="http://www.w3.org/2000/svg"
   viewBox="0 0 800 533.33331"
   height="533.33331"
   width="800"
   xml:space="preserve"
   version="1.1"
   id="svg2"><metadata
     id="metadata8"><rdf:RDF><cc:Work
         rdf:about=""><dc:format>image/svg+xml</dc:format><dc:type
           rdf:resource="http://purl.org/dc/dcmitype/StillImage" /></cc:Work></rdf:RDF></metadata><defs
     id="defs6"><clipPath
       id="clipPath22"
       clipPathUnits="userSpaceOnUse"><path
         id="path24"
         d="M 0,400 600,400 600,0 0,0 0,400 Z" /></clipPath><clipPath
       id="clipPath94"
       clipPathUnits="userSpaceOnUse"><path
         id="path96"
         d="m 335.132,314.28 14.285,0 0,-13.786 -14.285,0 0,13.786 z" /></clipPath></defs><g
     transform="matrix(1.3333333,0,0,-1.3333333,0,533.33333)"
     id="g10"><path
       id="path12"
       style="fill:#ffffff;fill-opacity:1;fill-rule:nonzero;stroke:none"
       d="M 0,0 600,0 600,400 0,400 0,0 Z" /><path
       id="path14"
       style="fill:#cd2627;fill-opacity:1;fill-rule:nonzero;stroke:none"
       d="m 0,160.001 600,0 0,79.999 -600,0 0,-79.999 z" /><path
       id="path16"
       style="fill:#cd2627;fill-opacity:1;fill-rule:nonzero;stroke:none"
       d="m 268.1,0 79.799,0 0,400 -79.799,0 0,-400 z" /><g
       id="g18"><g
         clip-path="url(#clipPath22)"
         id="g20"><g
           transform="translate(337.2637,277.8252)"
           id="g26"><path
             id="path28"
             style="fill:#eceae4;fill-opacity:1;fill-rule:nonzero;stroke:none"
             d="m 0,0 c 2.562,4.017 1.03,6.61 -2.844,7.412 0,0 -12.357,-3.972 -25.704,-4.407 -13.347,-0.436 -29.203,3.365 -29.203,3.365 -2.844,-1.789 -2.149,-6.034 -0.74,-8.684 0,0 13.972,-4.654 29.878,-4.197 10.102,0.29 19.676,2.875 25.047,4.588 C -0.481,-0.94 0.001,-0.045 0,0" /></g><g
           transform="translate(337.2637,277.8252)"
           id="g30"><path
             id="path32"
             style="fill:none;stroke:#1d1d1d;stroke-width:0.32600001;stroke-linecap:butt;stroke-linejoin:miter;stroke-miterlimit:4;stroke-dasharray:none;stroke-opacity:1"
             d="m 0,0 c 2.562,4.017 1.03,6.61 -2.844,7.412 0,0 -12.357,-3.972 -25.704,-4.407 -13.347,-0.436 -29.203,3.365 -29.203,3.365 -2.844,-1.789 -2.149,-6.034 -0.74,-8.684 0,0 13.972,-4.654 29.878,-4.197 10.102,0.29 19.676,2.875 25.047,4.588 C -0.481,-0.94 0.001,-0.045 0,0 Z" /></g><g
           transform="translate(308,102.04)"
           id="g34"><path
             id="path36"
             style="fill:#ffffff;fill-opacity:1;fill-rule:nonzero;stroke:none"
             d="M 0,0 -25.649,53.421 -84.624,48.981 -51.3,97.96 -84.624,146.94 -25.649,142.499 0,195.92 25.649,142.499 84.624,146.94 51.301,97.96 84.624,48.981 25.649,53.421 0,0 Z" /></g><g
           transform="translate(308,102.04)"
           id="g38"><path
             id="path40"
             style="fill:none;stroke:#272424;stroke-width:1.15799999;stroke-linecap:butt;stroke-linejoin:miter;stroke-miterlimit:4;stroke-dasharray:none;stroke-opacity:1"
             d="M 0,0 -25.649,53.421 -84.624,48.981 -51.3,97.96 -84.624,146.94 -25.649,142.499 0,195.92 25.649,142.499 84.624,146.94 51.301,97.96 84.624,48.981 25.649,53.421 0,0 Z" /></g><g
           transform="translate(323.9502,174.666)"
           id="g42"><path
             id="path44"
             style="fill:#cd2627;fill-opacity:1;fill-rule:nonzero;stroke:none"
             d="m 0,0 c 2.068,2.037 5.392,4.297 7.238,9.207 1.73,4.593 2.568,13.025 4.144,17.3 2.06,7.327 6.214,14.471 1.272,13.982 C 7.948,40.023 6.427,35.467 4.644,32.131 3.818,30.888 3.02,27.937 2.661,26.425 2.437,25.484 2.407,24.443 1.52,24.004 c 1.287,11.129 -1.804,19.432 -2.857,35.931 -0.439,6.919 -1.567,13.871 -5.153,13.922 -2.7,0.039 -3.153,-3.544 -3.574,-6.221 0,3.78 0.138,11.758 -4.374,11.758 -5.481,0 -3.814,-11.136 -4.548,-16.776 -0.127,1.994 -0.198,6.293 -0.774,9.07 -0.218,1.049 -0.671,1.857 -1.203,2.326 -0.338,0.298 -0.81,0.458 -1.511,0.458 -4.941,0 -4.829,-6.944 -4.67,-13.874 0.067,-0.733 0.003,-4.051 0.063,-6.222 0,3.78 0.033,11.156 -3.887,10.837 -3.28,-0.267 -3.525,-8.571 -3.672,-12.981 0.213,-4.41 -1.311,-14.692 -1.843,-17.615 -0.145,-2.072 -0.962,-4.767 -1.307,-7.655 -0.741,-6.216 -0.036,-13.491 0.785,-17.218 1.632,-5.88 5.891,-8.519 5.678,-12.509 -0.215,-3.989 0,-11.024 0,-14.173 0,-3.151 2.728,-3.322 8.38,-2.102 9.239,1.997 14.286,-1.994 21.915,0.945 C -2,-9.379 0.215,-3.151 0,0" /></g><g
           transform="translate(323.9502,174.666)"
           id="g46"><path
             id="path48"
             style="fill:none;stroke:#272424;stroke-width:0.075;stroke-linecap:butt;stroke-linejoin:miter;stroke-miterlimit:4;stroke-dasharray:none;stroke-opacity:1"
             d="m 0,0 c 2.068,2.037 5.392,4.297 7.238,9.207 1.73,4.593 2.568,13.025 4.144,17.3 2.06,7.327 6.214,14.471 1.272,13.982 C 7.948,40.023 6.427,35.467 4.644,32.131 3.818,30.888 3.02,27.937 2.661,26.425 2.437,25.484 2.407,24.443 1.52,24.004 c 1.287,11.129 -1.804,19.432 -2.857,35.931 -0.439,6.919 -1.567,13.871 -5.153,13.922 -2.7,0.039 -3.153,-3.544 -3.574,-6.221 0,3.78 0.138,11.758 -4.374,11.758 -5.481,0 -3.814,-11.136 -4.548,-16.776 -0.127,1.994 -0.198,6.293 -0.774,9.07 -0.218,1.049 -0.671,1.857 -1.203,2.326 -0.338,0.298 -0.81,0.458 -1.511,0.458 -4.941,0 -4.829,-6.944 -4.67,-13.874 0.067,-0.733 0.003,-4.051 0.063,-6.222 0,3.78 0.033,11.156 -3.887,10.837 -3.28,-0.267 -3.525,-8.571 -3.672,-12.981 0.213,-4.41 -1.311,-14.692 -1.843,-17.615 -0.145,-2.072 -0.962,-4.767 -1.307,-7.655 -0.741,-6.216 -0.036,-13.491 0.785,-17.218 1.632,-5.88 5.891,-8.519 5.678,-12.509 -0.215,-3.989 0,-11.024 0,-14.173 0,-3.151 2.728,-3.322 8.38,-2.102 9.239,1.997 14.286,-1.994 21.915,0.945 C -2,-9.379 0.215,-3.151 0,0 Z" /></g><g
           transform="translate(318.793,190.1309)"
           id="g50"><path
             id="path52"
             style="fill:#cd2627;fill-opacity:1;fill-rule:nonzero;stroke:#272424;stroke-width:0.54100001;stroke-linecap:butt;stroke-linejoin:miter;stroke-miterlimit:4;stroke-dasharray:none;stroke-opacity:1"
             d="M 0,0 C 1.912,5.288 4.325,7.366 6.652,8.518" /></g><g
           transform="translate(322.2637,171.8936)"
           id="g54"><path
             id="path56"
             style="fill:#cd2627;fill-opacity:1;fill-rule:nonzero;stroke:#272424;stroke-width:0.54100001;stroke-linecap:butt;stroke-linejoin:miter;stroke-miterlimit:4;stroke-dasharray:none;stroke-opacity:1"
             d="M 0,0 C 0.166,1.083 0.844,1.941 1.785,2.868" /></g><g
           transform="translate(296.8662,230.3862)"
           id="g58"><path
             id="path60"
             style="fill:#cd2627;fill-opacity:1;fill-rule:nonzero;stroke:#272424;stroke-width:0.54100001;stroke-linecap:butt;stroke-linejoin:miter;stroke-miterlimit:4;stroke-dasharray:none;stroke-opacity:1"
             d="M 0,0 C 0.131,-4.678 0.413,-13.675 0.413,-15.826" /></g><g
           transform="translate(313.9551,243.1733)"
           id="g62"><path
             id="path64"
             style="fill:#cd2627;fill-opacity:1;fill-rule:nonzero;stroke:#272424;stroke-width:0.54100001;stroke-linecap:butt;stroke-linejoin:miter;stroke-miterlimit:4;stroke-dasharray:none;stroke-opacity:1"
             d="m 0,0 c -0.266,-2.488 0.035,-4.501 -0.021,-7.041 -0.037,-1.692 0.238,-4.803 0.455,-8.572 -0.056,-1.365 0.425,-8.159 -0.014,-10.679" /></g><g
           transform="translate(304.959,238.5103)"
           id="g66"><path
             id="path68"
             style="fill:#cd2627;fill-opacity:1;fill-rule:nonzero;stroke:#272424;stroke-width:0.54100001;stroke-linecap:butt;stroke-linejoin:miter;stroke-miterlimit:4;stroke-dasharray:none;stroke-opacity:1"
             d="m 0,0 c 0.09,-0.923 0.062,-2.039 0.106,-3.284 0.213,-5.99 0.077,-14.918 0.253,-19.265" /></g><g
           transform="translate(307.6162,298.1445)"
           id="g70"><path
             id="path72"
             style="fill:#b2302e;fill-opacity:1;fill-rule:nonzero;stroke:none"
             d="m 0,0 c 32.224,-5.326 31.073,-6.834 31.073,-6.834 l 8.408,25.203 c 0,0 0.886,4.97 -1.416,7.987 -2.301,3.018 -8.764,1.331 -8.764,1.331 0,0 -0.885,4.083 -3.717,5.059 C 22.751,33.722 12.215,28.93 8.941,27.864 5.666,26.8 3.984,25.735 -0.619,25.824 c -4.603,0.089 -12.836,4.17 -14.34,4.97 -1.506,0.798 -3.719,1.597 -5.754,1.508 -2.037,-0.089 -4.161,-0.621 -5.223,-2.041 -1.063,-1.42 -1.063,-3.195 -1.063,-3.195 0,0 -1.682,1.065 -4.337,1.065 -2.656,0 -4.161,-0.355 -5.4,-1.775 -1.239,-1.42 -2.833,-5.413 -2.833,-5.413 l 3.01,-6.834 0.177,-9.406 6.285,-9.94 L 0,0 Z" /></g><g
           transform="translate(307.6162,298.1445)"
           id="g74"><path
             id="path76"
             style="fill:none;stroke:#1d1d1d;stroke-width:0.815;stroke-linecap:butt;stroke-linejoin:miter;stroke-miterlimit:4;stroke-dasharray:none;stroke-opacity:1"
             d="m 0,0 c 32.224,-5.326 31.073,-6.834 31.073,-6.834 l 8.408,25.203 c 0,0 0.886,4.97 -1.416,7.987 -2.301,3.018 -8.764,1.331 -8.764,1.331 0,0 -0.885,4.083 -3.717,5.059 C 22.751,33.722 12.215,28.93 8.941,27.864 5.666,26.8 3.984,25.735 -0.619,25.824 c -4.603,0.089 -12.836,4.17 -14.34,4.97 -1.506,0.798 -3.719,1.597 -5.754,1.508 -2.037,-0.089 -4.161,-0.621 -5.223,-2.041 -1.063,-1.42 -1.063,-3.195 -1.063,-3.195 0,0 -1.682,1.065 -4.337,1.065 -2.656,0 -4.161,-0.355 -5.4,-1.775 -1.239,-1.42 -2.833,-5.413 -2.833,-5.413 l 3.01,-6.834 0.177,-9.406 6.285,-9.94 L 0,0 Z" /></g><g
           transform="translate(337.6543,283.9043)"
           id="g78"><path
             id="path80"
             style="fill:#eceae4;fill-opacity:1;fill-rule:nonzero;stroke:none"
             d="M 0,0 C 0,0 1.622,-1.939 1.559,-2.628 1.497,-3.315 0.812,-3.941 0.812,-3.941 c 0,0 0.499,-0.5 0.374,-1.251 -0.125,-0.751 -1.123,-0.813 -1.123,-0.813 0,0 0.187,-0.688 -0.437,-1.001 -0.626,-0.313 -3.183,-0.876 -3.183,-0.876 0,0 -12.481,3.565 -25.835,3.565 -13.353,0 -29.078,-4.316 -29.078,-4.316 0,0 -1.622,0.563 -1.684,1.627 -0.063,1.063 0.186,1.814 0.186,1.814 0,0 -0.888,-0.093 -1.123,0.688 -0.329,1.091 0.125,1.939 0.125,1.939 0,0 -0.619,-0.2 0.063,1.252 0.499,1.063 1.247,1.438 1.247,1.438 0,0 13.978,5.004 29.891,5.067 C -13.853,5.255 0,0.125 0,0" /></g><g
           transform="translate(337.6543,283.9043)"
           id="g82"><path
             id="path84"
             style="fill:none;stroke:#1d1d1d;stroke-width:0.32600001;stroke-linecap:butt;stroke-linejoin:miter;stroke-miterlimit:4;stroke-dasharray:none;stroke-opacity:1"
             d="M 0,0 C 0,0 1.622,-1.939 1.559,-2.628 1.497,-3.315 0.812,-3.941 0.812,-3.941 c 0,0 0.499,-0.5 0.374,-1.251 -0.125,-0.751 -1.123,-0.813 -1.123,-0.813 0,0 0.187,-0.688 -0.437,-1.001 -0.626,-0.313 -3.183,-0.876 -3.183,-0.876 0,0 -12.481,3.565 -25.835,3.565 -13.353,0 -29.078,-4.316 -29.078,-4.316 0,0 -1.622,0.563 -1.684,1.627 -0.063,1.063 0.186,1.814 0.186,1.814 0,0 -0.888,-0.093 -1.123,0.688 -0.329,1.091 0.125,1.939 0.125,1.939 0,0 -0.619,-0.2 0.063,1.252 0.499,1.063 1.247,1.438 1.247,1.438 0,0 13.978,5.004 29.891,5.067 C -13.853,5.255 0,0.125 0,0 Z" /></g><g
           transform="translate(271.6157,315.4204)"
           id="g86"><path
             id="path88"
             style="fill:none;stroke:#1d1d1d;stroke-width:0.71700001;stroke-linecap:butt;stroke-linejoin:miter;stroke-miterlimit:4;stroke-dasharray:none;stroke-opacity:1"
             d="M 0,0 C 0,0 -0.533,1.816 0.639,3.418 1.811,5.022 3.943,4.915 4.582,4.594 5.222,4.274 5.115,3.525 5.968,3.313 6.82,3.099 7.459,3.74 7.459,3.74" /></g><g
           id="g90"><g
             id="g92" /><g
             id="g98"><g
               style="opacity:0.94117701"
               id="g100"
               clip-path="url(#clipPath94)"><g
                 id="g102"
                 transform="translate(349.417,311.168)"><path
                   id="path104"
                   style="fill:#ffcd20;fill-opacity:1;fill-rule:nonzero;stroke:none"
                   d="m 0,0 -4.839,-10.038 -1.904,-0.335 c 0,0 -1.16,0.699 -4.473,0.469 -2.37,-0.167 -3.069,-0.77 -3.069,-0.77 l 4.305,10.005 c 0,0 0.334,-2.149 0.834,-3.413 0.633,-1.606 3.038,-3.112 3.038,-3.112 0,0 0.333,1.922 -0.3,4.249 -0.701,2.577 -2.338,6.057 -2.338,6.057 L 0,0 Z" /></g></g></g></g><g
           transform="translate(349.417,311.168)"
           id="g106"><path
             id="path108"
             style="fill:none;stroke:#1d1d1d;stroke-width:0.75;stroke-linecap:butt;stroke-linejoin:miter;stroke-miterlimit:4;stroke-dasharray:none;stroke-opacity:1"
             d="m 0,0 -4.839,-10.038 -1.904,-0.335 c 0,0 -1.16,0.699 -4.473,0.469 -2.37,-0.167 -3.069,-0.77 -3.069,-0.77 l 4.305,10.005 c 0,0 0.334,-2.149 0.834,-3.413 0.633,-1.606 3.038,-3.112 3.038,-3.112 0,0 0.333,1.922 -0.3,4.249 -0.701,2.577 -2.338,6.057 -2.338,6.057 L 0,0 Z" /></g><path
           id="path110"
           style="fill:#252427;fill-opacity:1;fill-rule:nonzero;stroke:#252427;stroke-width:0.73100001;stroke-linecap:butt;stroke-linejoin:round;stroke-miterlimit:4;stroke-dasharray:none;stroke-opacity:1"
           d="m 305.084,342.366 5.418,0 0,-23.078 -5.418,0 0,23.078 z" /><g
           transform="translate(271.8896,299.8042)"
           id="g112"><path
             id="path114"
             style="fill:#f6cb2d;fill-opacity:1;fill-rule:nonzero;stroke:none"
             d="m 0,0 3.479,-7.463 c 0,0 14.805,5.786 32.281,5.679 26.212,-0.163 33.655,-5.435 33.655,-5.435 l 3.883,9.246 -2.912,-1.703 -2.992,-1.866 -3.4,-1.297 -4.126,0.324 L 56.229,0.162 54.367,4.056 51.294,1.216 45.873,0 40.533,1.378 35.841,7.299 c 0,0 -3.496,-6.581 -7.928,-6.975 C 21.521,-0.244 17.8,3.406 17.8,3.406 c 0,0 -2.377,-5.353 -6.311,-6.326 C 5.259,-4.461 0.082,0 0,0" /></g><g
           transform="translate(271.8896,299.8042)"
           id="g116"><path
             id="path118"
             style="fill:none;stroke:#1d1d1d;stroke-width:0.61900002;stroke-linecap:butt;stroke-linejoin:miter;stroke-miterlimit:4;stroke-dasharray:none;stroke-opacity:1"
             d="m 0,0 3.479,-7.463 c 0,0 14.805,5.786 32.281,5.679 26.212,-0.163 33.655,-5.435 33.655,-5.435 l 3.883,9.246 -2.912,-1.703 -2.992,-1.866 -3.4,-1.297 -4.126,0.324 L 56.229,0.162 54.367,4.056 51.294,1.216 45.873,0 40.533,1.378 35.841,7.299 c 0,0 -3.496,-6.581 -7.928,-6.975 C 21.521,-0.244 17.8,3.406 17.8,3.406 c 0,0 -2.377,-5.353 -6.311,-6.326 C 5.259,-4.461 0.082,0 0,0 Z" /></g><g
           transform="translate(331.6455,345.2944)"
           id="g120"><path
             id="path122"
             style="fill:#efefee;fill-opacity:1;fill-rule:nonzero;stroke:#2c2c2d;stroke-width:2.24300003;stroke-linecap:butt;stroke-linejoin:round;stroke-miterlimit:4;stroke-dasharray:none;stroke-opacity:1"
             d="M 0,0 C 0,-1.568 -1.248,-2.84 -2.791,-2.843 -4.334,-2.846 -5.586,-1.58 -5.593,-0.011 -5.6,1.557 -4.356,2.833 -2.812,2.842 -1.27,2.853 -0.011,1.59 0,0.022" /></g><g
           transform="translate(327.5479,343.8345)"
           id="g124"><path
             id="path126"
             style="fill:#a6b1ba;fill-opacity:1;fill-rule:nonzero;stroke:none"
             d="M 0,0 C 0,0 2.259,0.039 2.489,0.96 2.72,1.882 2.336,3.073 2.336,3.073 c 0,0 1.073,-1.191 0.766,-2.113 C 2.796,0.039 2.496,-0.2 1.724,-0.384 1.199,-0.509 0.42,-0.307 0,0" /></g><g
           transform="translate(324.8506,342.1099)"
           id="g128"><path
             id="path130"
             style="fill:#efefee;fill-opacity:1;fill-rule:nonzero;stroke:#2c2c2d;stroke-width:2.24300003;stroke-linecap:butt;stroke-linejoin:round;stroke-miterlimit:4;stroke-dasharray:none;stroke-opacity:1"
             d="m 0,0 c 0,-1.568 -1.248,-2.84 -2.793,-2.843 -1.542,-0.003 -2.795,1.264 -2.802,2.832 -0.006,1.567 1.24,2.844 2.782,2.853 1.542,0.01 2.8,-1.252 2.813,-2.82" /></g><g
           transform="translate(320.751,340.6494)"
           id="g132"><path
             id="path134"
             style="fill:#a6b1ba;fill-opacity:1;fill-rule:nonzero;stroke:none"
             d="m 0,0 c 0,0 2.261,0.039 2.489,0.961 0.232,0.922 -0.153,2.113 -0.153,2.113 0,0 1.075,-1.191 0.766,-2.113 C 2.796,0.039 2.496,-0.2 1.724,-0.384 1.2,-0.509 0.421,-0.307 0,0" /></g><g
           transform="translate(339.5361,347.1621)"
           id="g136"><path
             id="path138"
             style="fill:#efefee;fill-opacity:1;fill-rule:nonzero;stroke:#2c2c2d;stroke-width:2.24300003;stroke-linecap:butt;stroke-linejoin:round;stroke-miterlimit:4;stroke-dasharray:none;stroke-opacity:1"
             d="M 0,0 C 0,-1.568 -1.247,-2.84 -2.79,-2.843 -4.334,-2.845 -5.588,-1.58 -5.593,-0.011 -5.6,1.556 -4.355,2.833 -2.813,2.842 -1.271,2.852 -0.011,1.59 0,0.022" /></g><g
           transform="translate(335.4365,345.7026)"
           id="g140"><path
             id="path142"
             style="fill:#a6b1ba;fill-opacity:1;fill-rule:nonzero;stroke:none"
             d="m 0,0 c 0,0 2.261,0.039 2.49,0.96 0.231,0.923 -0.152,2.113 -0.152,2.113 0,0 1.072,-1.19 0.766,-2.113 C 2.798,0.039 2.496,-0.2 1.725,-0.384 1.201,-0.51 0.422,-0.308 0,0" /></g><g
           transform="translate(348.4248,345.3687)"
           id="g144"><path
             id="path146"
             style="fill:#efefee;fill-opacity:1;fill-rule:nonzero;stroke:#2c2c2d;stroke-width:2.24300003;stroke-linecap:butt;stroke-linejoin:round;stroke-miterlimit:4;stroke-dasharray:none;stroke-opacity:1"
             d="m 0,0 c 0,-1.567 -1.25,-2.839 -2.792,-2.843 -1.543,-0.002 -2.797,1.264 -2.804,2.832 -0.005,1.568 1.24,2.845 2.783,2.854 1.542,0.01 2.8,-1.252 2.813,-2.821" /></g><g
           transform="translate(344.3242,343.9097)"
           id="g148"><path
             id="path150"
             style="fill:#a6b1ba;fill-opacity:1;fill-rule:nonzero;stroke:none"
             d="M 0,0 C 0,0 2.262,0.038 2.492,0.96 2.721,1.882 2.338,3.073 2.338,3.073 2.338,3.073 3.41,1.882 3.104,0.96 2.798,0.038 2.497,-0.2 1.723,-0.384 1.201,-0.509 0.422,-0.308 0,0" /></g><g
           transform="translate(355.2002,339.7739)"
           id="g152"><path
             id="path154"
             style="fill:#efefee;fill-opacity:1;fill-rule:nonzero;stroke:#2c2c2d;stroke-width:2.24300003;stroke-linecap:butt;stroke-linejoin:round;stroke-miterlimit:4;stroke-dasharray:none;stroke-opacity:1"
             d="m 0,0 c 0,-1.568 -1.25,-2.841 -2.794,-2.844 -1.542,-0.003 -2.797,1.264 -2.803,2.833 -0.004,1.568 1.239,2.844 2.783,2.853 C -1.271,2.851 -0.015,1.59 0,0.022" /></g><g
           transform="translate(351.0977,338.314)"
           id="g156"><path
             id="path158"
             style="fill:#a6b1ba;fill-opacity:1;fill-rule:nonzero;stroke:none"
             d="m 0,0 c 0,0 2.263,0.038 2.491,0.959 0.232,0.923 -0.153,2.114 -0.153,2.114 0,0 1.072,-1.191 0.766,-2.114 C 2.799,0.038 2.498,-0.2 1.726,-0.384 1.203,-0.509 0.422,-0.307 0,0" /></g><g
           transform="translate(358.125,330.5923)"
           id="g160"><path
             id="path162"
             style="fill:#efefee;fill-opacity:1;fill-rule:nonzero;stroke:#2c2c2d;stroke-width:2.24300003;stroke-linecap:butt;stroke-linejoin:round;stroke-miterlimit:4;stroke-dasharray:none;stroke-opacity:1"
             d="m 0,0 c 0,-1.568 -1.249,-2.841 -2.791,-2.844 -1.544,-0.002 -2.798,1.265 -2.804,2.833 -0.007,1.568 1.239,2.844 2.781,2.853 C -1.271,2.852 -0.013,1.59 0,0.022" /></g><g
           transform="translate(354.0254,329.1323)"
           id="g164"><path
             id="path166"
             style="fill:#a6b1ba;fill-opacity:1;fill-rule:nonzero;stroke:none"
             d="m 0,0 c 0,0 2.261,0.038 2.491,0.959 0.228,0.923 -0.153,2.114 -0.153,2.114 0,0 1.072,-1.191 0.766,-2.114 C 2.798,0.038 2.496,-0.2 1.725,-0.384 1.2,-0.509 0.421,-0.307 0,0" /></g><g
           transform="translate(357.042,321.3018)"
           id="g168"><path
             id="path170"
             style="fill:#efefee;fill-opacity:1;fill-rule:nonzero;stroke:#2c2c2d;stroke-width:2.24300003;stroke-linecap:butt;stroke-linejoin:round;stroke-miterlimit:4;stroke-dasharray:none;stroke-opacity:1"
             d="m 0,0 c 0,-1.568 -1.251,-2.839 -2.794,-2.842 -1.541,-0.004 -2.796,1.263 -2.803,2.83 -0.005,1.568 1.24,2.845 2.784,2.855 C -1.271,2.852 -0.014,1.59 0,0.022" /></g><g
           transform="translate(352.9404,319.8418)"
           id="g172"><path
             id="path174"
             style="fill:#a6b1ba;fill-opacity:1;fill-rule:nonzero;stroke:none"
             d="m 0,0 c 0,0 2.262,0.039 2.491,0.96 0.231,0.922 -0.153,2.114 -0.153,2.114 0,0 1.073,-1.192 0.766,-2.114 C 2.798,0.039 2.498,-0.2 1.726,-0.384 1.202,-0.509 0.423,-0.307 0,0" /></g><g
           transform="translate(352.9229,313.1519)"
           id="g176"><path
             id="path178"
             style="fill:#efefee;fill-opacity:1;fill-rule:nonzero;stroke:#2c2c2d;stroke-width:2.24300003;stroke-linecap:butt;stroke-linejoin:round;stroke-miterlimit:4;stroke-dasharray:none;stroke-opacity:1"
             d="M 0,0 C 0,-1.567 -1.249,-2.839 -2.792,-2.842 -4.334,-2.845 -5.59,-1.58 -5.595,-0.011 -5.6,1.558 -4.358,2.834 -2.814,2.843 -1.271,2.853 -0.013,1.59 0,0.022" /></g><g
           transform="translate(348.8223,311.6929)"
           id="g180"><path
             id="path182"
             style="fill:#a6b1ba;fill-opacity:1;fill-rule:nonzero;stroke:none"
             d="m 0,0 c 0,0 2.262,0.039 2.492,0.96 0.23,0.921 -0.154,2.113 -0.154,2.113 0,0 1.072,-1.192 0.766,-2.113 C 2.798,0.039 2.496,-0.2 1.726,-0.384 1.201,-0.509 0.421,-0.308 0,0" /></g><g
           transform="translate(318.2402,339.6641)"
           id="g184"><path
             id="path186"
             style="fill:#efefee;fill-opacity:1;fill-rule:nonzero;stroke:#2c2c2d;stroke-width:2.24300003;stroke-linecap:butt;stroke-linejoin:round;stroke-miterlimit:4;stroke-dasharray:none;stroke-opacity:1"
             d="m 0,0 c 0,-1.567 -1.25,-2.839 -2.793,-2.842 -1.542,-0.003 -2.798,1.264 -2.802,2.832 -0.007,1.568 1.237,2.844 2.781,2.854 1.542,0.009 2.8,-1.253 2.814,-2.821" /></g><g
           transform="translate(314.1387,338.2056)"
           id="g188"><path
             id="path190"
             style="fill:#a6b1ba;fill-opacity:1;fill-rule:nonzero;stroke:none"
             d="M 0,0 C 0,0 2.261,0.038 2.49,0.96 2.723,1.881 2.338,3.073 2.338,3.073 2.338,3.073 3.41,1.881 3.104,0.96 2.797,0.038 2.497,-0.2 1.725,-0.384 1.202,-0.51 0.422,-0.308 0,0" /></g><g
           transform="translate(309.7881,340.3916)"
           id="g192"><path
             id="path194"
             style="fill:#efefee;fill-opacity:1;fill-rule:nonzero;stroke:#2c2c2d;stroke-width:2.68199992;stroke-linecap:butt;stroke-linejoin:round;stroke-miterlimit:4;stroke-dasharray:none;stroke-opacity:1"
             d="m 0,0 c 0,-1.311 -1.045,-2.375 -2.334,-2.377 -1.292,-0.003 -2.34,1.057 -2.345,2.368 -0.005,1.311 1.035,2.378 2.325,2.386 C -1.062,2.385 -0.011,1.33 0,0.02" /></g><g
           transform="translate(306.3594,339.1714)"
           id="g196"><path
             id="path198"
             style="fill:#a6b1ba;fill-opacity:1;fill-rule:nonzero;stroke:none"
             d="M 0,0 C 0,0 1.891,0.032 2.083,0.803 2.275,1.574 1.954,2.57 1.954,2.57 c 0,0 0.897,-0.996 0.642,-1.767 C 2.34,0.032 2.088,-0.167 1.441,-0.321 1.003,-0.426 0.352,-0.258 0,0" /></g><g
           transform="translate(309.8154,337.4375)"
           id="g200"><path
             id="path202"
             style="fill:#efefee;fill-opacity:1;fill-rule:nonzero;stroke:#2c2c2d;stroke-width:2.68199992;stroke-linecap:butt;stroke-linejoin:round;stroke-miterlimit:4;stroke-dasharray:none;stroke-opacity:1"
             d="M 0,0 C 0,-1.311 -1.046,-2.375 -2.335,-2.378 -3.624,-2.38 -4.674,-1.32 -4.68,-0.009 -4.685,1.302 -3.644,2.369 -2.354,2.377 -1.063,2.385 -0.01,1.33 -0.001,0.019" /></g><g
           transform="translate(306.3857,336.2163)"
           id="g204"><path
             id="path206"
             style="fill:#a6b1ba;fill-opacity:1;fill-rule:nonzero;stroke:none"
             d="m 0,0 c 0,0 1.891,0.033 2.084,0.803 0.191,0.771 -0.13,1.767 -0.13,1.767 0,0 0.899,-0.996 0.643,-1.767 C 2.34,0.033 2.089,-0.167 1.442,-0.321 1.005,-0.426 0.354,-0.256 0,0" /></g><g
           transform="translate(309.9766,333.0913)"
           id="g208"><path
             id="path210"
             style="fill:#efefee;fill-opacity:1;fill-rule:nonzero;stroke:#2c2c2d;stroke-width:2.68199992;stroke-linecap:butt;stroke-linejoin:round;stroke-miterlimit:4;stroke-dasharray:none;stroke-opacity:1"
             d="m 0,0 c 0,-1.311 -1.044,-2.375 -2.334,-2.378 -1.29,-0.002 -2.339,1.057 -2.343,2.368 -0.006,1.311 1.034,2.379 2.324,2.387 C -1.062,2.385 -0.01,1.329 0,0.018" /></g><g
           transform="translate(306.5488,331.8706)"
           id="g212"><path
             id="path214"
             style="fill:#a6b1ba;fill-opacity:1;fill-rule:nonzero;stroke:none"
             d="M 0,0 C 0,0 1.891,0.031 2.083,0.802 2.274,1.573 1.955,2.57 1.955,2.57 c 0,0 0.897,-0.997 0.64,-1.768 C 2.34,0.031 2.089,-0.167 1.441,-0.321 1.004,-0.426 0.353,-0.257 0,0" /></g><g
           transform="translate(310.2197,328.4736)"
           id="g216"><path
             id="path218"
             style="fill:#efefee;fill-opacity:1;fill-rule:nonzero;stroke:#2c2c2d;stroke-width:2.48000002;stroke-linecap:butt;stroke-linejoin:round;stroke-miterlimit:4;stroke-dasharray:none;stroke-opacity:1"
             d="M 0,0 C 0,-1.418 -1.131,-2.568 -2.524,-2.571 -3.92,-2.575 -5.055,-1.429 -5.06,-0.011 -5.065,1.407 -3.94,2.562 -2.546,2.57 -1.149,2.579 -0.012,1.437 0,0.02" /></g><g
           transform="translate(306.5117,327.1528)"
           id="g220"><path
             id="path222"
             style="fill:#a6b1ba;fill-opacity:1;fill-rule:nonzero;stroke:none"
             d="m 0,0 c 0,0 2.044,0.035 2.252,0.869 0.209,0.834 -0.138,1.91 -0.138,1.91 0,0 0.969,-1.076 0.693,-1.91 C 2.53,0.035 2.257,-0.181 1.559,-0.348 1.086,-0.46 0.382,-0.277 0,0" /></g><g
           transform="translate(310.4893,322.2793)"
           id="g224"><path
             id="path226"
             style="fill:#efefee;fill-opacity:1;fill-rule:nonzero;stroke:#2c2c2d;stroke-width:2.24300003;stroke-linecap:butt;stroke-linejoin:round;stroke-miterlimit:4;stroke-dasharray:none;stroke-opacity:1"
             d="m 0,0 c 0,-1.567 -1.249,-2.839 -2.791,-2.842 -1.543,-0.004 -2.797,1.263 -2.803,2.831 -0.007,1.568 1.238,2.845 2.781,2.855 C -1.271,2.852 -0.011,1.591 0,0.023" /></g><g
           transform="translate(306.3896,320.8203)"
           id="g228"><path
             id="path230"
             style="fill:#a6b1ba;fill-opacity:1;fill-rule:nonzero;stroke:none"
             d="m 0,0 c 0,0 2.26,0.038 2.491,0.96 0.228,0.921 -0.153,2.113 -0.153,2.113 0,0 1.073,-1.192 0.766,-2.113 C 2.798,0.038 2.496,-0.201 1.725,-0.384 1.2,-0.51 0.421,-0.308 0,0" /></g><g
           transform="translate(310.209,309.5693)"
           id="g232"><path
             id="path234"
             style="fill:#efefee;fill-opacity:1;fill-rule:nonzero;stroke:#2c2c2d;stroke-width:2.38800001;stroke-linecap:butt;stroke-linejoin:round;stroke-miterlimit:4;stroke-dasharray:none;stroke-opacity:1"
             d="m 0,0 c 0,-1.473 -1.173,-2.667 -2.622,-2.671 -1.448,-0.001 -2.626,1.187 -2.632,2.66 -0.005,1.472 1.163,2.672 2.612,2.681 C -1.193,2.678 -0.011,1.494 0,0.02" /></g><g
           transform="translate(306.3594,308.1978)"
           id="g236"><path
             id="path238"
             style="fill:#a6b1ba;fill-opacity:1;fill-rule:nonzero;stroke:none"
             d="m 0,0 c 0,0 2.123,0.037 2.34,0.903 0.216,0.866 -0.147,1.984 -0.147,1.984 0,0 1.009,-1.118 0.72,-1.984 C 2.626,0.037 2.344,-0.187 1.618,-0.361 1.127,-0.478 0.395,-0.288 0,0" /></g><g
           transform="translate(302.6406,339.7402)"
           id="g240"><path
             id="path242"
             style="fill:#efefee;fill-opacity:1;fill-rule:nonzero;stroke:#2c2c2d;stroke-width:2.24300003;stroke-linecap:butt;stroke-linejoin:round;stroke-miterlimit:4;stroke-dasharray:none;stroke-opacity:1"
             d="m 0,0 c 0,-1.568 -1.248,-2.84 -2.792,-2.843 -1.543,-0.002 -2.797,1.263 -2.803,2.832 -0.007,1.567 1.238,2.844 2.782,2.853 C -1.271,2.852 -0.012,1.59 0,0.022" /></g><g
           transform="translate(298.54,338.2808)"
           id="g244"><path
             id="path246"
             style="fill:#a6b1ba;fill-opacity:1;fill-rule:nonzero;stroke:none"
             d="m 0,0 c 0,0 2.26,0.039 2.491,0.96 0.231,0.923 -0.154,2.113 -0.154,2.113 0,0 1.074,-1.19 0.767,-2.113 C 2.798,0.039 2.497,-0.2 1.725,-0.384 1.202,-0.51 0.421,-0.308 0,0" /></g><g
           transform="translate(295.7041,342.4824)"
           id="g248"><path
             id="path250"
             style="fill:#efefee;fill-opacity:1;fill-rule:nonzero;stroke:#2c2c2d;stroke-width:2.24300003;stroke-linecap:butt;stroke-linejoin:round;stroke-miterlimit:4;stroke-dasharray:none;stroke-opacity:1"
             d="M 0,0 C 0,-1.568 -1.248,-2.84 -2.791,-2.843 -4.333,-2.847 -5.587,-1.58 -5.594,-0.012 -5.6,1.556 -4.356,2.833 -2.813,2.843 -1.271,2.852 -0.012,1.59 0,0.022" /></g><g
           transform="translate(291.605,341.0225)"
           id="g252"><path
             id="path254"
             style="fill:#a6b1ba;fill-opacity:1;fill-rule:nonzero;stroke:none"
             d="m 0,0 c 0,0 2.261,0.038 2.491,0.96 0.23,0.922 -0.154,2.114 -0.154,2.114 0,0 1.073,-1.192 0.767,-2.114 C 2.797,0.038 2.497,-0.2 1.724,-0.384 1.201,-0.509 0.422,-0.308 0,0" /></g><g
           transform="translate(289.0625,345.6162)"
           id="g256"><path
             id="path258"
             style="fill:#efefee;fill-opacity:1;fill-rule:nonzero;stroke:#2c2c2d;stroke-width:2.24300003;stroke-linecap:butt;stroke-linejoin:round;stroke-miterlimit:4;stroke-dasharray:none;stroke-opacity:1"
             d="m 0,0 c 0,-1.568 -1.249,-2.84 -2.792,-2.843 -1.543,-0.004 -2.797,1.263 -2.803,2.831 -0.006,1.568 1.238,2.845 2.782,2.854 C -1.271,2.851 -0.012,1.59 0,0.022" /></g><g
           transform="translate(284.9619,344.1562)"
           id="g260"><path
             id="path262"
             style="fill:#a6b1ba;fill-opacity:1;fill-rule:nonzero;stroke:none"
             d="m 0,0 c 0,0 2.261,0.039 2.491,0.96 0.23,0.922 -0.153,2.113 -0.153,2.113 0,0 1.073,-1.191 0.766,-2.113 C 2.798,0.039 2.497,-0.2 1.725,-0.385 1.202,-0.509 0.422,-0.307 0,0" /></g><g
           transform="translate(281.4434,347.2808)"
           id="g264"><path
             id="path266"
             style="fill:#efefee;fill-opacity:1;fill-rule:nonzero;stroke:#2c2c2d;stroke-width:2.24300003;stroke-linecap:butt;stroke-linejoin:round;stroke-miterlimit:4;stroke-dasharray:none;stroke-opacity:1"
             d="m 0,0 c 0,-1.568 -1.249,-2.84 -2.791,-2.843 -1.544,-0.003 -2.797,1.263 -2.804,2.832 -0.007,1.568 1.239,2.844 2.781,2.854 C -1.271,2.852 -0.012,1.589 0,0.022" /></g><g
           transform="translate(277.3437,345.8208)"
           id="g268"><path
             id="path270"
             style="fill:#a6b1ba;fill-opacity:1;fill-rule:nonzero;stroke:none"
             d="M 0,0 C 0,0 2.26,0.039 2.49,0.96 2.72,1.882 2.336,3.073 2.336,3.073 2.336,3.073 3.41,1.882 3.104,0.96 2.796,0.039 2.496,-0.2 1.724,-0.384 1.2,-0.509 0.42,-0.307 0,0" /></g><g
           transform="translate(272.4565,345.1265)"
           id="g272"><path
             id="path274"
             style="fill:#efefee;fill-opacity:1;fill-rule:nonzero;stroke:#2c2c2d;stroke-width:2.24300003;stroke-linecap:butt;stroke-linejoin:round;stroke-miterlimit:4;stroke-dasharray:none;stroke-opacity:1"
             d="m 0,0 c 0,-1.568 -1.249,-2.84 -2.792,-2.843 -1.542,-0.004 -2.796,1.263 -2.803,2.831 -0.006,1.569 1.239,2.845 2.781,2.855 C -1.271,2.851 -0.012,1.589 0,0.022" /></g><g
           transform="translate(268.356,343.6665)"
           id="g276"><path
             id="path278"
             style="fill:#a6b1ba;fill-opacity:1;fill-rule:nonzero;stroke:none"
             d="m 0,0 c 0,0 2.261,0.039 2.491,0.96 0.23,0.923 -0.153,2.113 -0.153,2.113 0,0 1.073,-1.19 0.766,-2.113 C 2.797,0.039 2.497,-0.2 1.725,-0.384 1.201,-0.509 0.422,-0.307 0,0" /></g><g
           transform="translate(266.1069,338.7607)"
           id="g280"><path
             id="path282"
             style="fill:#efefee;fill-opacity:1;fill-rule:nonzero;stroke:#2c2c2d;stroke-width:2.24300003;stroke-linecap:butt;stroke-linejoin:round;stroke-miterlimit:4;stroke-dasharray:none;stroke-opacity:1"
             d="m 0,0 c 0,-1.568 -1.249,-2.839 -2.792,-2.843 -1.542,-0.003 -2.796,1.263 -2.803,2.831 -0.006,1.569 1.239,2.845 2.781,2.855 C -1.271,2.852 -0.012,1.591 0,0.022" /></g><g
           transform="translate(262.0063,337.3008)"
           id="g284"><path
             id="path286"
             style="fill:#a6b1ba;fill-opacity:1;fill-rule:nonzero;stroke:none"
             d="m 0,0 c 0,0 2.262,0.039 2.492,0.961 0.23,0.922 -0.154,2.113 -0.154,2.113 0,0 1.073,-1.191 0.766,-2.113 C 2.798,0.039 2.497,-0.2 1.725,-0.384 1.201,-0.509 0.421,-0.308 0,0" /></g><g
           transform="translate(263.4697,329.8501)"
           id="g288"><path
             id="path290"
             style="fill:#efefee;fill-opacity:1;fill-rule:nonzero;stroke:#2c2c2d;stroke-width:2.24300003;stroke-linecap:butt;stroke-linejoin:round;stroke-miterlimit:4;stroke-dasharray:none;stroke-opacity:1"
             d="m 0,0 c 0,-1.568 -1.249,-2.841 -2.792,-2.844 -1.543,-0.003 -2.796,1.265 -2.803,2.832 -0.006,1.568 1.239,2.845 2.781,2.854 C -1.271,2.851 -0.013,1.589 0,0.021" /></g><g
           transform="translate(259.3691,328.3892)"
           id="g292"><path
             id="path294"
             style="fill:#a6b1ba;fill-opacity:1;fill-rule:nonzero;stroke:none"
             d="m 0,0 c 0,0 2.262,0.04 2.491,0.961 0.231,0.922 -0.153,2.112 -0.153,2.112 0,0 1.073,-1.19 0.766,-2.112 C 2.798,0.04 2.497,-0.199 1.724,-0.384 1.201,-0.508 0.421,-0.307 0,0" /></g><g
           transform="translate(264.6421,320.5464)"
           id="g296"><path
             id="path298"
             style="fill:#efefee;fill-opacity:1;fill-rule:nonzero;stroke:#2c2c2d;stroke-width:2.24300003;stroke-linecap:butt;stroke-linejoin:round;stroke-miterlimit:4;stroke-dasharray:none;stroke-opacity:1"
             d="m 0,0 c 0,-1.568 -1.249,-2.839 -2.792,-2.842 -1.543,-0.003 -2.797,1.263 -2.803,2.831 -0.006,1.567 1.238,2.844 2.781,2.854 C -1.271,2.852 -0.013,1.59 0,0.023" /></g><g
           transform="translate(260.5415,319.0864)"
           id="g300"><path
             id="path302"
             style="fill:#a6b1ba;fill-opacity:1;fill-rule:nonzero;stroke:none"
             d="m 0,0 c 0,0 2.262,0.039 2.491,0.96 0.23,0.922 -0.153,2.114 -0.153,2.114 0,0 1.073,-1.192 0.766,-2.114 C 2.798,0.039 2.497,-0.2 1.724,-0.384 1.201,-0.509 0.421,-0.307 0,0" /></g><g
           transform="translate(268.939,312.125)"
           id="g304"><path
             id="path306"
             style="fill:#efefee;fill-opacity:1;fill-rule:nonzero;stroke:#2c2c2d;stroke-width:2.24300003;stroke-linecap:butt;stroke-linejoin:round;stroke-miterlimit:4;stroke-dasharray:none;stroke-opacity:1"
             d="M 0,0 C 0,-1.568 -1.249,-2.84 -2.791,-2.843 -4.333,-2.847 -5.587,-1.579 -5.594,-0.012 -5.6,1.556 -4.355,2.833 -2.813,2.843 -1.27,2.852 -0.011,1.589 0,0.022" /></g><g
           transform="translate(264.8394,310.6646)"
           id="g308"><path
             id="path310"
             style="fill:#a6b1ba;fill-opacity:1;fill-rule:nonzero;stroke:none"
             d="m 0,0 c 0,0 2.261,0.039 2.491,0.96 0.23,0.923 -0.153,2.114 -0.153,2.114 0,0 1.072,-1.191 0.766,-2.114 C 2.797,0.039 2.497,-0.2 1.725,-0.384 1.202,-0.509 0.422,-0.307 0,0" /></g><g
           transform="translate(273.7964,301.5146)"
           id="g312"><path
             id="path314"
             style="fill:#efefee;fill-opacity:1;fill-rule:nonzero;stroke:#2c2c2d;stroke-width:2.83200002;stroke-linecap:butt;stroke-linejoin:round;stroke-miterlimit:4;stroke-dasharray:none;stroke-opacity:1"
             d="m 0,0 c 0.404,-1.515 -0.024,-2.947 -0.958,-3.201 -0.934,-0.254 -2.021,0.765 -2.429,2.279 -0.409,1.514 0.015,2.949 0.948,3.21 0.932,0.259 2.02,-0.754 2.433,-2.267" /></g><g
           transform="translate(271.689,299.4365)"
           id="g316"><path
             id="path318"
             style="fill:#a6b1ba;fill-opacity:1;fill-rule:nonzero;stroke:none"
             d="M 0,0 C 0,0 1.36,0.405 1.261,1.333 1.162,2.262 0.623,3.349 0.623,3.349 c 0,0 0.957,-0.976 1.009,-1.916 C 1.685,0.493 1.564,0.213 1.143,-0.09 0.859,-0.295 0.334,-0.228 0,0" /></g><g
           transform="translate(346.0459,300.9727)"
           id="g320"><path
             id="path322"
             style="fill:#efefee;fill-opacity:1;fill-rule:nonzero;stroke:#2c2c2d;stroke-width:2.83200002;stroke-linecap:butt;stroke-linejoin:round;stroke-miterlimit:4;stroke-dasharray:none;stroke-opacity:1"
             d="m 0,0 c -0.377,-1.522 -1.441,-2.568 -2.382,-2.339 -0.938,0.23 -1.401,1.649 -1.029,3.171 0.371,1.523 1.433,2.576 2.377,2.352 0.94,-0.224 1.405,-1.638 1.038,-3.162" /></g><g
           transform="translate(343.1982,300.1733)"
           id="g324"><path
             id="path326"
             style="fill:#a6b1ba;fill-opacity:1;fill-rule:nonzero;stroke:none"
             d="m 0,0 c 0,0 1.388,-0.304 1.747,0.557 0.359,0.861 0.412,2.074 0.412,2.074 0,0 0.368,-1.317 -0.039,-2.167 C 1.713,-0.384 1.473,-0.571 0.958,-0.633 0.61,-0.675 0.184,-0.362 0,0" /></g><g
           transform="translate(305.2754,355.1567)"
           id="g328"><path
             id="path330"
             style="fill:#b4a294;fill-opacity:1;fill-rule:nonzero;stroke:none"
             d="m 0,0 0.201,-4.75 c 0,0 -5.616,-0.493 -5.845,-1.009 -1.091,-2.453 1.31,-5.761 1.31,-5.761 0,0 1.889,1.416 6.651,1.416 4.538,0 6.855,-1.112 6.855,-1.112 0,0 1.21,1.92 1.21,3.335 0,1.415 -0.503,2.829 -0.503,2.829 0,0 -2.32,0.302 -3.024,0.302 l -2.016,0 L 4.637,0.101 0,0 Z" /></g><g
           transform="translate(305.2754,355.1567)"
           id="g332"><path
             id="path334"
             style="fill:none;stroke:#1d1d1d;stroke-width:0.73100001;stroke-linecap:butt;stroke-linejoin:miter;stroke-miterlimit:4;stroke-dasharray:none;stroke-opacity:1"
             d="m 0,0 0.201,-4.75 c 0,0 -5.616,-0.493 -5.845,-1.009 -1.091,-2.453 1.31,-5.761 1.31,-5.761 0,0 1.889,1.416 6.651,1.416 4.538,0 6.855,-1.112 6.855,-1.112 0,0 1.21,1.92 1.21,3.335 0,1.415 -0.503,2.829 -0.503,2.829 0,0 -2.32,0.302 -3.024,0.302 l -2.016,0 L 4.637,0.101 0,0 Z" /></g><g
           transform="translate(313.2861,347.7891)"
           id="g336"><path
             id="path338"
             style="fill:#f0ddcc;fill-opacity:1;fill-rule:nonzero;stroke:#252427;stroke-width:0.373;stroke-linecap:butt;stroke-linejoin:round;stroke-miterlimit:4;stroke-dasharray:none;stroke-opacity:1"
             d="m 0,0 c 0,-0.533 -0.449,-0.965 -1.002,-0.966 -0.557,-0.001 -1.006,0.429 -1.009,0.963 -0.002,0.531 0.445,0.965 0.999,0.969 C -0.457,0.969 -0.005,0.541 0,0.008" /></g><g
           transform="translate(315.5996,347.2725)"
           id="g340"><path
             id="path342"
             style="fill:#f0ddcc;fill-opacity:1;fill-rule:nonzero;stroke:#252427;stroke-width:0.373;stroke-linecap:butt;stroke-linejoin:round;stroke-miterlimit:4;stroke-dasharray:none;stroke-opacity:1"
             d="m 0,0 c 0,-0.557 -0.467,-1.007 -1.046,-1.008 -0.578,-10e-4 -1.049,0.447 -1.051,1.004 -0.002,0.555 0.465,1.007 1.043,1.011 0.578,0.003 1.05,-0.444 1.054,-1" /></g><g
           transform="translate(310.9687,347.8262)"
           id="g344"><path
             id="path346"
             style="fill:#f0ddcc;fill-opacity:1;fill-rule:nonzero;stroke:#252427;stroke-width:0.373;stroke-linecap:butt;stroke-linejoin:round;stroke-miterlimit:4;stroke-dasharray:none;stroke-opacity:1"
             d="m 0,0 c 0,-0.533 -0.448,-0.965 -1.005,-0.966 -0.553,-0.001 -1.004,0.428 -1.007,0.962 -10e-4,0.532 0.446,0.966 0.999,0.969 C -0.458,0.969 -0.005,0.541 0,0.007" /></g><g
           transform="translate(306.3213,347.7734)"
           id="g348"><path
             id="path350"
             style="fill:#f0ddcc;fill-opacity:1;fill-rule:nonzero;stroke:#252427;stroke-width:0.373;stroke-linecap:butt;stroke-linejoin:round;stroke-miterlimit:4;stroke-dasharray:none;stroke-opacity:1"
             d="m 0,0 c 0,-0.554 -0.466,-1.004 -1.043,-1.005 -0.578,-0.001 -1.046,0.446 -1.049,1.002 -0.002,0.553 0.463,1.005 1.04,1.008 C -0.475,1.009 -0.005,0.562 0,0.008" /></g><g
           transform="translate(303.7422,347.6011)"
           id="g352"><path
             id="path354"
             style="fill:#f0ddcc;fill-opacity:1;fill-rule:nonzero;stroke:#252427;stroke-width:0.373;stroke-linecap:butt;stroke-linejoin:round;stroke-miterlimit:4;stroke-dasharray:none;stroke-opacity:1"
             d="m 0,0 c 0,-0.554 -0.467,-1.003 -1.044,-1.004 -0.575,-0.002 -1.045,0.446 -1.048,1 -0.002,0.554 0.464,1.006 1.04,1.009 C -0.476,1.009 -0.004,0.563 0,0.009" /></g><g
           transform="translate(308.4766,350.5093)"
           id="g356"><path
             id="path358"
             style="fill:#f0ddcc;fill-opacity:1;fill-rule:nonzero;stroke:#252427;stroke-width:0.373;stroke-linecap:butt;stroke-linejoin:round;stroke-miterlimit:4;stroke-dasharray:none;stroke-opacity:1"
             d="m 0,0 c 0,-0.468 -0.394,-0.848 -0.881,-0.849 -0.486,-0.001 -0.883,0.378 -0.885,0.845 -0.003,0.467 0.391,0.848 0.877,0.851 0.489,0.003 0.885,-0.373 0.888,-0.841" /></g><g
           transform="translate(308.4766,354.4502)"
           id="g360"><path
             id="path362"
             style="fill:#f0ddcc;fill-opacity:1;fill-rule:nonzero;stroke:#252427;stroke-width:0.373;stroke-linecap:butt;stroke-linejoin:round;stroke-miterlimit:4;stroke-dasharray:none;stroke-opacity:1"
             d="m 0,0 c 0,-0.469 -0.394,-0.848 -0.881,-0.849 -0.486,-0.001 -0.883,0.377 -0.885,0.845 -0.003,0.467 0.391,0.848 0.877,0.851 0.489,0.003 0.885,-0.373 0.888,-0.841" /></g><g
           transform="translate(308.4766,352.3276)"
           id="g364"><path
             id="path366"
             style="fill:#f0ddcc;fill-opacity:1;fill-rule:nonzero;stroke:#252427;stroke-width:0.373;stroke-linecap:butt;stroke-linejoin:round;stroke-miterlimit:4;stroke-dasharray:none;stroke-opacity:1"
             d="m 0,0 c 0,-0.468 -0.394,-0.847 -0.881,-0.848 -0.486,-0.001 -0.883,0.376 -0.885,0.845 -0.003,0.467 0.391,0.848 0.877,0.85 0.489,0.004 0.885,-0.372 0.888,-0.841" /></g><g
           transform="translate(301.1289,346.8975)"
           id="g368"><path
             id="path370"
             style="fill:#f0ddcc;fill-opacity:1;fill-rule:nonzero;stroke:#252427;stroke-width:0.373;stroke-linecap:butt;stroke-linejoin:round;stroke-miterlimit:4;stroke-dasharray:none;stroke-opacity:1"
             d="m 0,0 c 0,-0.536 -0.451,-0.969 -1.007,-0.97 -0.557,-0.002 -1.01,0.43 -1.012,0.966 -0.002,0.535 0.446,0.97 1.004,0.973 C -0.458,0.972 -0.004,0.542 0,0.007" /></g><g
           transform="translate(308.7021,348.0332)"
           id="g372"><path
             id="path374"
             style="fill:#93706c;fill-opacity:1;fill-rule:nonzero;stroke:#533b32;stroke-width:0.373;stroke-linecap:butt;stroke-linejoin:round;stroke-miterlimit:4;stroke-dasharray:none;stroke-opacity:1"
             d="m 0,0 c 0,-0.585 -0.495,-1.061 -1.106,-1.061 -0.612,-0.001 -1.109,0.472 -1.112,1.057 -0.002,0.585 0.491,1.062 1.102,1.065 C -0.503,1.064 -0.005,0.593 0,0.008" /></g><g
           transform="translate(309.7148,362.1255)"
           id="g376"><path
             id="path378"
             style="fill:#efefee;fill-opacity:1;fill-rule:nonzero;stroke:#2c2c2d;stroke-width:3.0309999;stroke-linecap:butt;stroke-linejoin:round;stroke-miterlimit:4;stroke-dasharray:none;stroke-opacity:1"
             d="m 0,0 c 0,-1.161 -0.925,-2.102 -2.067,-2.104 -1.141,-0.002 -2.07,0.936 -2.074,2.096 -0.005,1.16 0.916,2.105 2.058,2.112 C -0.941,2.111 -0.01,1.176 0,0.017" /></g><g
           transform="translate(306.6797,361.0449)"
           id="g380"><path
             id="path382"
             style="fill:#a6b1ba;fill-opacity:1;fill-rule:nonzero;stroke:none"
             d="m 0,0 c 0,0 1.674,0.029 1.844,0.711 0.171,0.683 -0.113,1.564 -0.113,1.564 0,0 0.792,-0.881 0.566,-1.564 C 2.071,0.029 1.848,-0.147 1.276,-0.285 0.89,-0.376 0.312,-0.228 0,0" /></g><g
           transform="translate(274.7231,291.5542)"
           id="g384"><path
             id="path386"
             style="fill:#ffcd20;fill-opacity:1;fill-rule:nonzero;stroke:none"
             d="m 0,0 c 0,0 1.846,-1.729 2.339,-3.272 0.493,-1.543 1.231,-5.679 1.231,-5.679 0,0 19.335,5.371 28.817,4.939 9.482,-0.433 31.339,-5.247 31.339,-5.247 0,0 0.369,2.345 0.801,4.814 0.431,2.47 2.216,5.185 2.216,5.185 0,0 -20.872,6.543 -34.049,5.926 C 19.518,6.049 12.93,4.628 9.974,3.703 7.018,2.777 -0.186,-0.062 0,0" /></g><g
           transform="translate(274.7231,291.5542)"
           id="g388"><path
             id="path390"
             style="fill:none;stroke:#1d1d1d;stroke-width:0.32600001;stroke-linecap:butt;stroke-linejoin:miter;stroke-miterlimit:4;stroke-dasharray:none;stroke-opacity:1"
             d="m 0,0 c 0,0 1.846,-1.729 2.339,-3.272 0.493,-1.543 1.231,-5.679 1.231,-5.679 0,0 19.335,5.371 28.817,4.939 9.482,-0.433 31.339,-5.247 31.339,-5.247 0,0 0.369,2.345 0.801,4.814 0.431,2.47 2.216,5.185 2.216,5.185 0,0 -20.872,6.543 -34.049,5.926 C 19.518,6.049 12.93,4.628 9.974,3.703 7.018,2.777 -0.186,-0.062 0,0 Z" /></g><g
           transform="translate(303.5615,369.9609)"
           id="g392"><path
             id="path394"
             style="fill:#ffcd20;fill-opacity:1;fill-rule:nonzero;stroke:none"
             d="m 0,0 8.317,0 c 0,0 -2.053,-1.423 -2.47,-2.78 -0.36,-1.166 -0.252,-3.081 -0.252,-3.081 0,0 2.267,0 3.275,0.859 1.008,0.858 3.125,2.375 3.125,2.375 l 0,-10.611 c 0,0 -2.042,1.979 -3.275,2.628 -1.484,0.779 -2.975,1.06 -2.975,1.06 0,0 0,-1.717 0.706,-2.728 0.706,-1.01 3.528,-4.85 3.528,-4.85 l -11.894,-0.455 c 0,0 2.82,2.982 3.982,5.154 0.755,1.414 0.453,2.879 0.453,2.879 0,0 -2.015,0 -3.023,-0.707 -1.009,-0.707 -2.773,-2.829 -2.773,-2.829 l 0,10.206 c 0,0 0.756,-1.971 2.42,-2.729 1.663,-0.757 3.225,-0.353 3.225,-0.353 0,0 0.322,2.03 -0.352,3.284 C 1.32,-1.386 -0.151,0.05 0,0" /></g><g
           transform="translate(303.5615,369.9609)"
           id="g396"><path
             id="path398"
             style="fill:none;stroke:#1d1d1d;stroke-width:0.73100001;stroke-linecap:butt;stroke-linejoin:miter;stroke-miterlimit:4;stroke-dasharray:none;stroke-opacity:1"
             d="m 0,0 8.317,0 c 0,0 -2.053,-1.423 -2.47,-2.78 -0.36,-1.166 -0.252,-3.081 -0.252,-3.081 0,0 2.267,0 3.275,0.859 1.008,0.858 3.125,2.375 3.125,2.375 l 0,-10.611 c 0,0 -2.042,1.979 -3.275,2.628 -1.484,0.779 -2.975,1.06 -2.975,1.06 0,0 0,-1.717 0.706,-2.728 0.706,-1.01 3.528,-4.85 3.528,-4.85 l -11.894,-0.455 c 0,0 2.82,2.982 3.982,5.154 0.755,1.414 0.453,2.879 0.453,2.879 0,0 -2.015,0 -3.023,-0.707 -1.009,-0.707 -2.773,-2.829 -2.773,-2.829 l 0,10.206 c 0,0 0.756,-1.971 2.42,-2.729 1.663,-0.757 3.225,-0.353 3.225,-0.353 0,0 0.322,2.03 -0.352,3.284 C 1.32,-1.386 -0.151,0.05 0,0 Z" /></g><g
           transform="translate(302.9102,336.293)"
           id="g400"><path
             id="path402"
             style="fill:#ffcd20;fill-opacity:1;fill-rule:nonzero;stroke:none"
             d="m 0,0 c 0,0 -5.915,0.072 -10.976,3.073 -5.06,3 -10.164,6.143 -17.675,4.358 -1.538,-0.366 -7.199,-2.858 -9.693,-10.932 -1.75,-5.666 0.284,-12.504 2.067,-15.577 1.781,-3.072 4.655,-6.187 4.655,-6.187 l 3.055,2.076 c 0,0 -7.782,6.612 -6.854,15.187 0.925,8.574 5.202,10.574 5.202,10.574 0,0 5.274,4.144 12.33,0.214 7.056,-3.93 13.97,-5.716 13.97,-5.716 0,0 6.484,-1.571 7.055,-1.5 C 3.706,-4.359 -0.143,0.072 0,0" /></g><g
           transform="translate(302.9102,336.293)"
           id="g404"><path
             id="path406"
             style="fill:none;stroke:#252427;stroke-width:0.73100001;stroke-linecap:butt;stroke-linejoin:miter;stroke-miterlimit:4;stroke-dasharray:none;stroke-opacity:1"
             d="m 0,0 c 0,0 -5.915,0.072 -10.976,3.073 -5.06,3 -10.164,6.143 -17.675,4.358 -1.538,-0.366 -7.199,-2.858 -9.693,-10.932 -1.75,-5.666 0.284,-12.504 2.067,-15.577 1.781,-3.072 4.655,-6.187 4.655,-6.187 l 3.055,2.076 c 0,0 -7.782,6.612 -6.854,15.187 0.925,8.574 5.202,10.574 5.202,10.574 0,0 5.274,4.144 12.33,0.214 7.056,-3.93 13.97,-5.716 13.97,-5.716 0,0 6.484,-1.571 7.055,-1.5 C 3.706,-4.359 -0.143,0.072 0,0 Z" /></g><g
           transform="translate(270.1909,304.1338)"
           id="g408"><path
             id="path410"
             style="fill:#ffcd20;fill-opacity:1;fill-rule:nonzero;stroke:none"
             d="m 0,0 -3.143,6.194 9.43,3.694 c 0,0 -2.277,-3.042 -2.819,-5.216 -0.661,-2.653 -0.433,-4.889 -0.433,-4.889 0,0 0.867,0.651 1.95,2.39 0.823,1.32 2.168,6.085 2.168,6.085 L 11.381,-5.324 C 11.413,-5.36 9.208,-3.145 7.657,-2.883 5.909,-2.586 3.793,-3.151 3.793,-3.151 L 1.3,-3.912 0,0 Z" /></g><g
           transform="translate(270.1909,304.1338)"
           id="g412"><path
             id="path414"
             style="fill:none;stroke:#1d1d1d;stroke-width:0.75;stroke-linecap:butt;stroke-linejoin:miter;stroke-miterlimit:4;stroke-dasharray:none;stroke-opacity:1"
             d="m 0,0 -3.143,6.194 9.43,3.694 c 0,0 -2.277,-3.042 -2.819,-5.216 -0.661,-2.653 -0.433,-4.889 -0.433,-4.889 0,0 0.867,0.651 1.95,2.39 0.823,1.32 2.168,6.085 2.168,6.085 L 11.381,-5.324 C 11.413,-5.36 9.208,-3.145 7.657,-2.883 5.909,-2.586 3.793,-3.151 3.793,-3.151 L 1.3,-3.912 0,0 Z" /></g><g
           transform="translate(313.5713,336.4048)"
           id="g416"><path
             id="path418"
             style="fill:#ffcd20;fill-opacity:1;fill-rule:nonzero;stroke:none"
             d="m 0,0 c 0,0 5.916,0.071 10.977,3.072 5.059,3.001 10.164,6.144 17.675,4.359 1.539,-0.366 7.199,-2.859 9.693,-10.932 1.751,-5.666 -0.285,-12.504 -2.067,-15.576 -1.782,-3.072 -2.993,-4.881 -2.993,-4.881 l -3.674,1.323 c 0,0 6.739,6.058 5.812,14.632 -0.927,8.575 -5.203,10.575 -5.203,10.575 0,0 -5.274,4.145 -12.329,0.215 -7.057,-3.93 -13.97,-5.716 -13.97,-5.716 0,0 -6.486,-1.572 -7.056,-1.501 C -3.706,-4.358 0.144,0.071 0,0" /></g><g
           transform="translate(313.5713,336.4048)"
           id="g420"><path
             id="path422"
             style="fill:none;stroke:#252427;stroke-width:0.73100001;stroke-linecap:butt;stroke-linejoin:miter;stroke-miterlimit:4;stroke-dasharray:none;stroke-opacity:1"
             d="m 0,0 c 0,0 5.916,0.071 10.977,3.072 5.059,3.001 10.164,6.144 17.675,4.359 1.539,-0.366 7.199,-2.859 9.693,-10.932 1.751,-5.666 -0.285,-12.504 -2.067,-15.576 -1.782,-3.072 -2.993,-4.881 -2.993,-4.881 l -3.674,1.323 c 0,0 6.739,6.058 5.812,14.632 -0.927,8.575 -5.203,10.575 -5.203,10.575 0,0 -5.274,4.145 -12.329,0.215 -7.057,-3.93 -13.97,-5.716 -13.97,-5.716 0,0 -6.486,-1.572 -7.056,-1.501 C -3.706,-4.358 0.144,0.071 0,0 Z" /></g><path
           id="path424"
           style="fill:#ffcd20;fill-opacity:1;fill-rule:nonzero;stroke:#252427;stroke-width:0.73100001;stroke-linecap:butt;stroke-linejoin:round;stroke-miterlimit:4;stroke-dasharray:none;stroke-opacity:1"
           d="m 310.518,342.273 2.468,0 0,-23.089 -2.468,0 0,23.089 z" /><path
           id="path426"
           style="fill:#ffcd20;fill-opacity:1;fill-rule:nonzero;stroke:#252427;stroke-width:0.73100001;stroke-linecap:butt;stroke-linejoin:round;stroke-miterlimit:4;stroke-dasharray:none;stroke-opacity:1"
           d="m 302.201,342.374 2.924,0 0,-23.089 -2.924,0 0,23.089 z" /><g
           transform="translate(315.6572,347.7295)"
           id="g428"><path
             id="path430"
             style="fill:#ffcd20;fill-opacity:1;fill-rule:nonzero;stroke:#252427;stroke-width:0.73100001;stroke-linecap:butt;stroke-linejoin:round;stroke-miterlimit:4;stroke-dasharray:none;stroke-opacity:1"
             d="m 0,0 c 0,-4.096 -3.6,-7.418 -8.047,-7.426 -4.448,-0.01 -8.062,3.3 -8.08,7.396 -0.017,4.097 3.568,7.433 8.017,7.456 C -3.665,7.452 -0.035,4.154 0,0.06" /></g><g
           transform="translate(300.4414,319.3774)"
           id="g432"><path
             id="path434"
             style="fill:#ffcd20;fill-opacity:1;fill-rule:nonzero;stroke:none"
             d="m 0,0 13.866,0.114 c 0,0 -1.626,-0.972 -3.023,-3.461 -1.399,-2.488 -1.198,-4.061 -1.198,-4.061 0,0 2.11,0.029 3.594,1.116 1.484,1.087 3.139,3.117 3.139,3.117 l -0.057,-12.814 c 0,0 -0.999,1.63 -2.656,2.602 -1.654,0.973 -3.992,0.973 -3.992,0.973 l -4.737,0 c 0,0 -2.165,-0.128 -3.139,-0.772 -1.372,-0.909 -3.08,-2.66 -3.08,-2.66 l -0.23,12.099 c 0,0 0.685,-2.117 2.911,-2.975 2.225,-0.858 3.481,-0.743 3.481,-0.743 0,0 0,2.717 -1.141,4.118 C 2.597,-1.946 0,-0.057 0,0" /></g><g
           transform="translate(300.4414,319.3774)"
           id="g436"><path
             id="path438"
             style="fill:none;stroke:#1d1d1d;stroke-width:0.61900002;stroke-linecap:butt;stroke-linejoin:miter;stroke-miterlimit:4;stroke-dasharray:none;stroke-opacity:1"
             d="m 0,0 13.866,0.114 c 0,0 -1.626,-0.972 -3.023,-3.461 -1.399,-2.488 -1.198,-4.061 -1.198,-4.061 0,0 2.11,0.029 3.594,1.116 1.484,1.087 3.139,3.117 3.139,3.117 l -0.057,-12.814 c 0,0 -0.999,1.63 -2.656,2.602 -1.654,0.973 -3.992,0.973 -3.992,0.973 l -4.737,0 c 0,0 -2.165,-0.128 -3.139,-0.772 -1.372,-0.909 -3.08,-2.66 -3.08,-2.66 l -0.23,12.099 c 0,0 0.685,-2.117 2.911,-2.975 2.225,-0.858 3.481,-0.743 3.481,-0.743 0,0 0,2.717 -1.141,4.118 C 2.597,-1.946 0,-0.057 0,0 Z" /></g><g
           transform="translate(308.168,309.3159)"
           id="g440"><path
             id="path442"
             style="fill:#f6cb2d;fill-opacity:1;fill-rule:nonzero;stroke:none"
             d="m 0,0 c 0,0 2.029,-4.746 4.387,-6.841 1.373,-1.219 5.503,-2.137 7.369,-1.66 4.194,1.074 7.078,4.439 7.078,4.439 0,0 -0.151,-3.686 2.476,-5.717 2.627,-2.032 4.727,-2.558 6.903,-1.956 2.176,0.602 8.329,5.191 8.329,5.191 l 1.275,-1.129 c 0,0 -3.528,-3.436 -7.236,-5.26 -1.911,-0.938 -7.707,-0.416 -9.583,1.089 -1.877,1.504 -2.99,5.149 -2.99,5.149 0,0 -1.154,-2.344 -3.632,-3.171 -2.476,-0.828 -5.879,-0.792 -9.037,0.134 -2.127,0.624 -4.889,3.564 -5.415,4.541 -0.525,0.978 -0.375,1.504 -0.375,1.504 0,0 -1.558,-4.477 -4.802,-5.698 -3.064,-1.154 -6.557,-1.162 -9.523,-0.308 -2.999,0.865 -3.233,2.546 -3.233,2.546 0,0 -0.226,-4.739 -6.753,-6.092 -6.529,-1.355 -11.706,3.46 -11.706,3.46 l 0.901,1.354 c 0,0 3.675,-4.138 9.303,-3.762 5.628,0.376 7.505,7.598 7.505,7.598 0,0 2.476,-3.761 9.079,-3.836 6.602,-0.076 8.479,8.575 8.479,8.575 L 0,0 Z" /></g><g
           transform="translate(308.168,309.3159)"
           id="g444"><path
             id="path446"
             style="fill:none;stroke:#1d1d1d;stroke-width:0.58700001;stroke-linecap:butt;stroke-linejoin:miter;stroke-miterlimit:4;stroke-dasharray:none;stroke-opacity:1"
             d="m 0,0 c 0,0 2.029,-4.746 4.387,-6.841 1.373,-1.219 5.503,-2.137 7.369,-1.66 4.194,1.074 7.078,4.439 7.078,4.439 0,0 -0.151,-3.686 2.476,-5.717 2.627,-2.032 4.727,-2.558 6.903,-1.956 2.176,0.602 8.329,5.191 8.329,5.191 l 1.275,-1.129 c 0,0 -3.528,-3.436 -7.236,-5.26 -1.911,-0.938 -7.707,-0.416 -9.583,1.089 -1.877,1.504 -2.99,5.149 -2.99,5.149 0,0 -1.154,-2.344 -3.632,-3.171 -2.476,-0.828 -5.879,-0.792 -9.037,0.134 -2.127,0.624 -4.889,3.564 -5.415,4.541 -0.525,0.978 -0.375,1.504 -0.375,1.504 0,0 -1.558,-4.477 -4.802,-5.698 -3.064,-1.154 -6.557,-1.162 -9.523,-0.308 -2.999,0.865 -3.233,2.546 -3.233,2.546 0,0 -0.226,-4.739 -6.753,-6.092 -6.529,-1.355 -11.706,3.46 -11.706,3.46 l 0.901,1.354 c 0,0 3.675,-4.138 9.303,-3.762 5.628,0.376 7.505,7.598 7.505,7.598 0,0 2.476,-3.761 9.079,-3.836 6.602,-0.076 8.479,8.575 8.479,8.575 L 0,0 Z" /></g><g
           transform="translate(291.8979,306.5547)"
           id="g448"><path
             id="path450"
             style="fill:#ffcd20;fill-opacity:1;fill-rule:nonzero;stroke:none"
             d="m 0,0 c 0,0 0.049,2.304 0.543,2.997 0.7,0.982 1.654,1.021 2.14,0.884 C 3.283,3.713 3.906,3.167 3.803,1.566 3.702,-0.034 3.26,-0.817 3.736,-1.43 4.211,-2.043 4.279,-2.451 5.196,-2.315 6.113,-2.179 6.52,-1.873 6.317,-1.021 6.113,-0.17 5.842,-1.089 5.672,-0.374 5.502,0.34 6.559,3.429 6.385,5.345 6.215,7.218 5.502,8.716 4.076,9.09 2.734,9.443 1.596,9.431 0.339,8.512 -0.866,7.631 -2.412,4.732 -2.412,4.732 L -2.445,-1.464 0.068,-1.327 0,0 Z" /></g><g
           transform="translate(291.8979,306.5547)"
           id="g452"><path
             id="path454"
             style="fill:none;stroke:#1d1d1d;stroke-width:2.20000005;stroke-linecap:butt;stroke-linejoin:miter;stroke-miterlimit:4;stroke-dasharray:none;stroke-opacity:1"
             d="m 0,0 c 0,0 0.049,2.304 0.543,2.997 0.7,0.982 1.654,1.021 2.14,0.884 C 3.283,3.713 3.906,3.167 3.803,1.566 3.702,-0.034 3.26,-0.817 3.736,-1.43 4.211,-2.043 4.279,-2.451 5.196,-2.315 6.113,-2.179 6.52,-1.873 6.317,-1.021 6.113,-0.17 5.842,-1.089 5.672,-0.374 5.502,0.34 6.559,3.429 6.385,5.345 6.215,7.218 5.502,8.716 4.076,9.09 2.734,9.443 1.596,9.431 0.339,8.512 -0.866,7.631 -2.412,4.732 -2.412,4.732 L -2.445,-1.464 0.068,-1.327 0,0 Z" /></g><g
           transform="translate(287.2163,304.8867)"
           id="g456"><path
             id="path458"
             style="fill:#ffcd20;fill-opacity:1;fill-rule:nonzero;stroke:none"
             d="m 0,0 c 0,0 -0.961,2.093 -1.69,2.531 -1.032,0.62 -1.922,0.277 -2.314,-0.043 -0.483,-0.394 -0.837,-1.144 -0.108,-2.571 0.731,-1.428 1.446,-1.969 1.254,-2.721 -0.193,-0.752 -0.093,-1.154 -0.987,-1.395 -0.895,-0.242 -1.39,-0.124 -1.543,0.738 -0.151,0.862 0.464,0.128 0.335,0.852 -0.128,0.723 -2.325,3.134 -2.928,4.961 -0.589,1.785 -0.53,3.444 0.629,4.356 1.09,0.86 2.139,1.304 3.656,0.962 C -2.24,7.344 0.33,5.304 0.33,5.304 L 2.825,-0.366 0.466,-1.245 0,0 Z" /></g><g
           transform="translate(287.2163,304.8867)"
           id="g460"><path
             id="path462"
             style="fill:none;stroke:#1d1d1d;stroke-width:2.20000005;stroke-linecap:butt;stroke-linejoin:miter;stroke-miterlimit:4;stroke-dasharray:none;stroke-opacity:1"
             d="m 0,0 c 0,0 -0.961,2.093 -1.69,2.531 -1.032,0.62 -1.922,0.277 -2.314,-0.043 -0.483,-0.394 -0.837,-1.144 -0.108,-2.571 0.731,-1.428 1.446,-1.969 1.254,-2.721 -0.193,-0.752 -0.093,-1.154 -0.987,-1.395 -0.895,-0.242 -1.39,-0.124 -1.543,0.738 -0.151,0.862 0.464,0.128 0.335,0.852 -0.128,0.723 -2.325,3.134 -2.928,4.961 -0.589,1.785 -0.53,3.444 0.629,4.356 1.09,0.86 2.139,1.304 3.656,0.962 C -2.24,7.344 0.33,5.304 0.33,5.304 L 2.825,-0.366 0.466,-1.245 0,0 Z" /></g><g
           transform="translate(286.7354,323.2378)"
           id="g464"><path
             id="path466"
             style="fill:#ffcd20;fill-opacity:1;fill-rule:nonzero;stroke:none"
             d="m 0,0 c 0,0 -2.445,-4.12 -1.902,-7.286 0.544,-3.167 3.804,-9.975 3.804,-9.975 l 0.034,-0.92 1.759,0.191 -0.4,0.933 c 0,0 0.878,8.151 0.339,10.724 C 3.234,-4.42 0.034,-0.034 0,0" /></g><g
           transform="translate(286.7354,323.2378)"
           id="g468"><path
             id="path470"
             style="fill:none;stroke:#1d1d1d;stroke-width:2.20000005;stroke-linecap:butt;stroke-linejoin:miter;stroke-miterlimit:4;stroke-dasharray:none;stroke-opacity:1"
             d="m 0,0 c 0,0 -2.445,-4.12 -1.902,-7.286 0.544,-3.167 3.804,-9.975 3.804,-9.975 l 0.034,-0.92 1.759,0.191 -0.4,0.933 c 0,0 0.878,8.151 0.339,10.724 C 3.234,-4.42 0.034,-0.034 0,0 Z" /></g><g
           transform="translate(290.6416,304.3755)"
           id="g472"><path
             id="path474"
             style="fill:#ffcd20;fill-opacity:1;fill-rule:nonzero;stroke:none"
             d="m 0,0 c 0,0 1.221,-1.465 2.682,-2.179 1.597,-0.779 2.254,-0.784 2.887,-0.306 0.465,0.35 0.306,1.839 -0.237,2.247 C 4.789,0.171 4.173,-0.037 4.076,-0.443 3.912,-1.126 3.689,-1.081 3.192,-0.817 2.466,-0.431 0.781,0.614 0.781,0.614 L 0,0 Z" /></g><g
           transform="translate(290.6416,304.3755)"
           id="g476"><path
             id="path478"
             style="fill:none;stroke:#1d1d1d;stroke-width:2.20000005;stroke-linecap:butt;stroke-linejoin:miter;stroke-miterlimit:4;stroke-dasharray:none;stroke-opacity:1"
             d="m 0,0 c 0,0 1.221,-1.465 2.682,-2.179 1.597,-0.779 2.254,-0.784 2.887,-0.306 0.465,0.35 0.306,1.839 -0.237,2.247 C 4.789,0.171 4.173,-0.037 4.076,-0.443 3.912,-1.126 3.689,-1.081 3.192,-0.817 2.466,-0.431 0.781,0.614 0.781,0.614 L 0,0 Z" /></g><g
           transform="translate(288.748,304.043)"
           id="g480"><path
             id="path482"
             style="fill:#ffcd20;fill-opacity:1;fill-rule:nonzero;stroke:none"
             d="m 0,0 c 0,0 -0.514,-1.839 -1.555,-3.09 -1.136,-1.368 -1.732,-1.642 -2.506,-1.468 -0.568,0.128 -1.031,1.551 -0.704,2.147 0.329,0.597 0.975,0.661 1.23,0.331 0.429,-0.557 0.614,-0.424 0.959,0.021 0.504,0.65 1.613,2.297 1.613,2.297 L 0,0 Z" /></g><g
           transform="translate(288.748,304.043)"
           id="g484"><path
             id="path486"
             style="fill:none;stroke:#1d1d1d;stroke-width:2.20000005;stroke-linecap:butt;stroke-linejoin:miter;stroke-miterlimit:4;stroke-dasharray:none;stroke-opacity:1"
             d="m 0,0 c 0,0 -0.514,-1.839 -1.555,-3.09 -1.136,-1.368 -1.732,-1.642 -2.506,-1.468 -0.568,0.128 -1.031,1.551 -0.704,2.147 0.329,0.597 0.975,0.661 1.23,0.331 0.429,-0.557 0.614,-0.424 0.959,0.021 0.504,0.65 1.613,2.297 1.613,2.297 L 0,0 Z" /></g><g
           transform="translate(293.4067,305.5234)"
           id="g488"><path
             id="path490"
             style="fill:#ffcd20;fill-opacity:1;fill-rule:nonzero;stroke:#1d1d1d;stroke-width:2.20000005;stroke-linecap:butt;stroke-linejoin:round;stroke-miterlimit:4;stroke-dasharray:none;stroke-opacity:1"
             d="m 0,0 c 0.09,-0.537 -1.528,-1.257 -3.614,-1.609 -2.088,-0.353 -3.856,-0.204 -3.955,0.332 -0.098,0.535 1.513,1.256 3.599,1.61 2.088,0.354 3.863,0.209 3.969,-0.326" /></g><g
           transform="translate(329.3096,305.6318)"
           id="g492"><path
             id="path494"
             style="fill:#ffcd20;fill-opacity:1;fill-rule:nonzero;stroke:none"
             d="M 0,0 C 0,0 0.853,2.141 1.557,2.614 2.556,3.288 3.463,2.991 3.871,2.692 4.374,2.324 4.767,1.592 4.111,0.13 3.455,-1.333 2.769,-1.912 2.999,-2.653 3.229,-3.394 3.149,-3.8 4.056,-3.996 4.963,-4.19 5.451,-4.046 5.558,-3.177 5.666,-2.308 5.091,-3.074 5.181,-2.344 5.271,-1.615 7.342,0.906 7.85,2.761 8.345,4.574 8.202,6.228 6.997,7.08 5.864,7.881 4.795,8.271 3.296,7.852 1.859,7.45 -0.602,5.28 -0.602,5.28 l -2.2,-5.792 2.401,-0.755 L 0,0 Z" /></g><g
           transform="translate(329.3096,305.6318)"
           id="g496"><path
             id="path498"
             style="fill:none;stroke:#1d1d1d;stroke-width:2.20000005;stroke-linecap:butt;stroke-linejoin:miter;stroke-miterlimit:4;stroke-dasharray:none;stroke-opacity:1"
             d="M 0,0 C 0,0 0.853,2.141 1.557,2.614 2.556,3.288 3.463,2.991 3.871,2.692 4.374,2.324 4.767,1.592 4.111,0.13 3.455,-1.333 2.769,-1.912 2.999,-2.653 3.229,-3.394 3.149,-3.8 4.056,-3.996 4.963,-4.19 5.451,-4.046 5.558,-3.177 5.666,-2.308 5.091,-3.074 5.181,-2.344 5.271,-1.615 7.342,0.906 7.85,2.761 8.345,4.574 8.202,6.228 6.997,7.08 5.864,7.881 4.795,8.271 3.296,7.852 1.859,7.45 -0.602,5.28 -0.602,5.28 l -2.2,-5.792 2.401,-0.755 L 0,0 Z" /></g><g
           transform="translate(324.3418,305.7153)"
           id="g500"><path
             id="path502"
             style="fill:#ffcd20;fill-opacity:1;fill-rule:nonzero;stroke:none"
             d="M 0,0 C 0,0 -0.17,2.298 -0.696,2.964 -1.447,3.908 -2.399,3.899 -2.88,3.737 -3.471,3.539 -4.063,2.96 -3.879,1.367 c 0.184,-1.592 0.666,-2.352 0.222,-2.988 -0.444,-0.636 -0.489,-1.048 -1.413,-0.96 -0.922,0.088 -1.346,0.373 -1.185,1.233 0.158,0.862 0.478,-0.042 0.61,0.681 0.133,0.723 -1.082,3.753 -1.006,5.675 0.073,1.879 0.707,3.411 2.113,3.86 1.32,0.421 2.458,0.468 3.762,-0.385 1.249,-0.818 2.94,-3.632 2.94,-3.632 L 2.518,-1.335 0,-1.33 0,0 Z" /></g><g
           transform="translate(324.3418,305.7153)"
           id="g504"><path
             id="path506"
             style="fill:none;stroke:#1d1d1d;stroke-width:2.20000005;stroke-linecap:butt;stroke-linejoin:miter;stroke-miterlimit:4;stroke-dasharray:none;stroke-opacity:1"
             d="M 0,0 C 0,0 -0.17,2.298 -0.696,2.964 -1.447,3.908 -2.399,3.899 -2.88,3.737 -3.471,3.539 -4.063,2.96 -3.879,1.367 c 0.184,-1.592 0.666,-2.352 0.222,-2.988 -0.444,-0.636 -0.489,-1.048 -1.413,-0.96 -0.922,0.088 -1.346,0.373 -1.185,1.233 0.158,0.862 0.478,-0.042 0.61,0.681 0.133,0.723 -1.082,3.753 -1.006,5.675 0.073,1.879 0.707,3.411 2.113,3.86 1.32,0.421 2.458,0.468 3.762,-0.385 1.249,-0.818 2.94,-3.632 2.94,-3.632 L 2.518,-1.335 0,-1.33 0,0 Z" /></g><g
           transform="translate(330.3105,323.0698)"
           id="g508"><path
             id="path510"
             style="fill:#ffcd20;fill-opacity:1;fill-rule:nonzero;stroke:none"
             d="m 0,0 c 0,0 -3.73,-2.998 -4.33,-6.154 -0.597,-3.157 0.073,-10.679 0.073,-10.679 l -0.29,-0.874 1.715,-0.439 -0.049,1.013 c 0,0 3.674,7.326 4.068,9.925 C 1.483,-5.276 0.021,-0.043 0,0" /></g><g
           transform="translate(330.3105,323.0698)"
           id="g512"><path
             id="path514"
             style="fill:none;stroke:#1d1d1d;stroke-width:2.20000005;stroke-linecap:butt;stroke-linejoin:miter;stroke-miterlimit:4;stroke-dasharray:none;stroke-opacity:1"
             d="m 0,0 c 0,0 -3.73,-2.998 -4.33,-6.154 -0.597,-3.157 0.073,-10.679 0.073,-10.679 l -0.29,-0.874 1.715,-0.439 -0.049,1.013 c 0,0 3.674,7.326 4.068,9.925 C 1.483,-5.276 0.021,-0.043 0,0 Z" /></g><g
           transform="translate(327.3711,304.0332)"
           id="g516"><path
             id="path518"
             style="fill:#ffcd20;fill-opacity:1;fill-rule:nonzero;stroke:none"
             d="m 0,0 c 0,0 0.631,-1.803 1.75,-2.985 1.222,-1.29 1.835,-1.525 2.595,-1.301 0.558,0.165 0.93,1.614 0.564,2.189 C 4.543,-1.524 3.894,-1.502 3.662,-1.848 3.27,-2.431 3.077,-2.31 2.703,-1.888 2.158,-1.272 0.944,0.299 0.944,0.299 L 0,0 Z" /></g><g
           transform="translate(327.3711,304.0332)"
           id="g520"><path
             id="path522"
             style="fill:none;stroke:#1d1d1d;stroke-width:2.20000005;stroke-linecap:butt;stroke-linejoin:miter;stroke-miterlimit:4;stroke-dasharray:none;stroke-opacity:1"
             d="m 0,0 c 0,0 0.631,-1.803 1.75,-2.985 1.222,-1.29 1.835,-1.525 2.595,-1.301 0.558,0.165 0.93,1.614 0.564,2.189 C 4.543,-1.524 3.894,-1.502 3.662,-1.848 3.27,-2.431 3.077,-2.31 2.703,-1.888 2.158,-1.272 0.944,0.299 0.944,0.299 L 0,0 Z" /></g><g
           transform="translate(325.4814,304.3867)"
           id="g524"><path
             id="path526"
             style="fill:#ffcd20;fill-opacity:1;fill-rule:nonzero;stroke:none"
             d="m 0,0 c 0,0 -1.124,-1.542 -2.536,-2.348 -1.544,-0.881 -2.198,-0.928 -2.861,-0.492 -0.487,0.319 -0.423,1.815 0.09,2.257 0.518,0.444 1.147,0.276 1.269,-0.122 0.208,-0.673 0.426,-0.612 0.906,-0.316 0.699,0.431 2.314,1.582 2.314,1.582 L 0,0 Z" /></g><g
           transform="translate(325.4814,304.3867)"
           id="g528"><path
             id="path530"
             style="fill:none;stroke:#1d1d1d;stroke-width:2.20000005;stroke-linecap:butt;stroke-linejoin:miter;stroke-miterlimit:4;stroke-dasharray:none;stroke-opacity:1"
             d="m 0,0 c 0,0 -1.124,-1.542 -2.536,-2.348 -1.544,-0.881 -2.198,-0.928 -2.861,-0.492 -0.487,0.319 -0.423,1.815 0.09,2.257 0.518,0.444 1.147,0.276 1.269,-0.122 0.208,-0.673 0.426,-0.612 0.906,-0.316 0.699,0.431 2.314,1.582 2.314,1.582 L 0,0 Z" /></g><g
           transform="translate(330.3633,304.1348)"
           id="g532"><path
             id="path534"
             style="fill:#ffcd20;fill-opacity:1;fill-rule:nonzero;stroke:#1d1d1d;stroke-width:2.20000005;stroke-linecap:butt;stroke-linejoin:round;stroke-miterlimit:4;stroke-dasharray:none;stroke-opacity:1"
             d="M 0,0 C -0.104,-0.535 -1.87,-0.64 -3.949,-0.236 -6.026,0.168 -7.633,0.93 -7.536,1.465 -7.44,2.001 -5.682,2.109 -3.604,1.708 -1.523,1.306 0.089,0.545 0,0.008" /></g><g
           transform="translate(273.9937,291.7739)"
           id="g536"><path
             id="path538"
             style="fill:#cda928;fill-opacity:1;fill-rule:nonzero;stroke:none"
             d="m 0,0 c 0,0 0.404,-1.703 1.375,-0.811 0.971,0.893 14.321,6.164 33.171,6.164 18.851,0 31.228,-5.19 31.957,-5.515 0.727,-0.324 1.052,-0.73 1.7,0 0.645,0.729 -0.648,1.865 -0.648,1.865 0,0 -13.107,5.596 -33.576,5.516 C 13.511,7.138 0.243,1.298 0.243,1.298 0.243,1.298 -0.647,0.649 0,0" /></g><g
           transform="translate(273.9937,291.7739)"
           id="g540"><path
             id="path542"
             style="fill:none;stroke:#1d1d1d;stroke-width:0.32600001;stroke-linecap:butt;stroke-linejoin:miter;stroke-miterlimit:4;stroke-dasharray:none;stroke-opacity:1"
             d="m 0,0 c 0,0 0.404,-1.703 1.375,-0.811 0.971,0.893 14.321,6.164 33.171,6.164 18.851,0 31.228,-5.19 31.957,-5.515 0.727,-0.324 1.052,-0.73 1.7,0 0.645,0.729 -0.648,1.865 -0.648,1.865 0,0 -13.107,5.596 -33.576,5.516 C 13.511,7.138 0.243,1.298 0.243,1.298 0.243,1.298 -0.647,0.649 0,0 Z" /></g><g
           transform="translate(297.897,283.9141)"
           id="g544"><path
             id="path546"
             style="fill:#1d1d1d;fill-opacity:1;fill-rule:nonzero;stroke:none"
             d="M 0,0 C 0,0 0.602,1.675 1.652,1.998 2.49,2.255 3.811,1.43 3.811,1.43 3.811,1.43 2.219,1.577 1.72,1.293 1.27,1.036 1.134,0.274 1.134,0.274 c 0,0 0.341,0.607 1.563,0.548 1.222,-0.058 1.359,-0.058 1.359,-0.058 0,0 -2.072,-0.157 -2.551,-0.755 -0.478,-0.597 1.954,-0.872 1.954,-0.872 0,0 -3.723,-0.019 -4.211,0.206 -0.489,0.225 -0.802,0.99 -1.633,0.754 -0.83,-0.235 -1.68,-0.979 -1.68,-0.979 0,0 0.948,1.597 1.544,1.607 0.596,0.009 0.948,0.039 1.484,-0.206 C -0.498,0.274 0,0 0,0" /></g><g
           transform="translate(283.9746,280.8896)"
           id="g548"><path
             id="path550"
             style="fill:#1d1d1d;fill-opacity:1;fill-rule:nonzero;stroke:none"
             d="M 0,0 C 0,0 0.282,1.759 1.254,2.271 2.029,2.679 3.481,2.113 3.481,2.113 3.481,2.113 1.889,1.962 1.451,1.59 1.056,1.255 1.062,0.48 1.062,0.48 c 0,0 0.226,0.661 1.436,0.83 1.212,0.168 1.346,0.193 1.346,0.193 0,0 -2.008,-0.538 -2.367,-1.213 -0.36,-0.677 2.081,-0.496 2.081,-0.496 0,0 -3.655,-0.709 -4.177,-0.579 -0.522,0.132 -0.97,0.825 -1.743,0.439 -0.772,-0.384 -1.471,-1.273 -1.471,-1.273 0,0 0.637,1.744 1.221,1.865 0.584,0.12 0.925,0.214 1.498,0.073 C -0.541,0.178 0,0 0,0" /></g><g
           transform="translate(309.6387,284.5332)"
           id="g552"><path
             id="path554"
             style="fill:#1d1d1d;fill-opacity:1;fill-rule:nonzero;stroke:none"
             d="M 0,0 C 0,0 0.698,1.639 1.766,1.899 2.617,2.108 3.89,1.207 3.89,1.207 3.89,1.207 2.307,1.446 1.792,1.192 1.328,0.961 1.149,0.209 1.149,0.209 c 0,0 0.376,0.586 1.592,0.456 1.216,-0.129 1.354,-0.138 1.354,-0.138 0,0 -2.078,-0.035 -2.59,-0.605 -0.513,-0.568 1.899,-0.984 1.899,-0.984 0,0 -3.717,0.197 -4.192,0.451 -0.476,0.253 -0.742,1.033 -1.586,0.847 -0.843,-0.186 -1.735,-0.88 -1.735,-0.88 0,0 1.039,1.54 1.634,1.514 C -1.879,0.846 -1.526,0.854 -1.003,0.579 -0.48,0.302 0,0 0,0" /></g><g
           transform="translate(321.3955,283.1997)"
           id="g556"><path
             id="path558"
             style="fill:#1d1d1d;fill-opacity:1;fill-rule:nonzero;stroke:none"
             d="m 0,0 c 0,0 0.884,1.546 1.975,1.681 0.867,0.106 2.027,-0.937 2.027,-0.937 0,0 -1.543,0.423 -2.083,0.23 C 1.432,0.8 1.164,0.073 1.164,0.073 c 0,0 0.443,0.538 1.635,0.267 1.194,-0.271 1.328,-0.295 1.328,-0.295 0,0 -2.067,0.207 -2.643,-0.298 -0.574,-0.505 1.775,-1.199 1.775,-1.199 0,0 -3.671,0.63 -4.113,0.937 -0.441,0.308 -0.618,1.115 -1.475,1.028 -0.859,-0.087 -1.826,-0.672 -1.826,-0.672 0,0 1.21,1.407 1.801,1.314 C -1.769,1.06 -1.415,1.027 -0.93,0.692 -0.442,0.357 0,0 0,0" /></g><g
           transform="translate(333.0703,281.1104)"
           id="g560"><path
             id="path562"
             style="fill:#1d1d1d;fill-opacity:1;fill-rule:nonzero;stroke:none"
             d="m 0,0 c 0,0 0.823,1.178 1.709,1.205 0.706,0.023 1.562,-0.901 1.562,-0.901 0,0 -1.209,0.453 -1.658,0.338 C 1.207,0.538 0.94,-0.027 0.94,-0.027 c 0,0 0.395,0.401 1.335,0.096 0.939,-0.306 1.044,-0.336 1.044,-0.336 0,0 -1.646,0.319 -2.145,-0.045 -0.498,-0.363 1.338,-1.094 1.338,-1.094 0,0 -2.904,0.777 -3.237,1.055 -0.332,0.28 -0.415,0.941 -1.11,0.934 -0.696,-0.007 -1.517,-0.405 -1.517,-0.405 0,0 1.077,1.042 1.542,0.923 C -1.343,0.981 -1.062,0.93 -0.696,0.625 -0.33,0.32 0,0 0,0" /></g><g
           transform="translate(295.5493,291.8984)"
           id="g564"><path
             id="path566"
             style="fill:#256a4c;fill-opacity:1;fill-rule:nonzero;stroke:none"
             d="m 0,0 c 0.28,-1.397 -1.358,-2.904 -3.658,-3.366 -2.301,-0.462 -4.393,0.296 -4.67,1.693 -0.281,1.396 1.357,2.903 3.658,3.365 C -2.369,2.155 -0.277,1.396 0,0" /></g><g
           transform="translate(295.5493,291.8984)"
           id="g568"><path
             id="path570"
             style="fill:none;stroke:#1d1d1d;stroke-width:0.435;stroke-linecap:butt;stroke-linejoin:round;stroke-miterlimit:4;stroke-dasharray:none;stroke-opacity:1"
             d="m 0,0 c 0.28,-1.397 -1.358,-2.904 -3.658,-3.366 -2.301,-0.462 -4.393,0.296 -4.67,1.693 -0.281,1.396 1.357,2.903 3.658,3.365 C -2.369,2.155 -0.277,1.396 0,0 Z" /></g><g
           transform="translate(290.3384,292.1265)"
           id="g572"><path
             id="path574"
             style="fill:#cfd0c2;fill-opacity:1;fill-rule:nonzero;stroke:none"
             d="m 0,0 c 0.067,-0.339 -0.288,-0.696 -0.795,-0.797 -0.506,-0.102 -0.971,0.09 -1.039,0.428 -0.068,0.339 0.288,0.696 0.795,0.797 C -0.533,0.53 -0.068,0.338 0,0" /></g><g
           transform="translate(328.0664,290.2085)"
           id="g576"><path
             id="path578"
             style="fill:#256a4c;fill-opacity:1;fill-rule:nonzero;stroke:none"
             d="M 0,0 C -0.424,-1.359 -2.585,-1.89 -4.823,-1.186 -7.062,-0.482 -8.53,1.192 -8.104,2.551 -7.68,3.91 -5.52,4.441 -3.28,3.737 -1.043,3.031 0.427,1.358 0,0" /></g><g
           transform="translate(328.0664,290.2085)"
           id="g580"><path
             id="path582"
             style="fill:none;stroke:#1d1d1d;stroke-width:0.435;stroke-linecap:butt;stroke-linejoin:round;stroke-miterlimit:4;stroke-dasharray:none;stroke-opacity:1"
             d="M 0,0 C -0.424,-1.359 -2.585,-1.89 -4.823,-1.186 -7.062,-0.482 -8.53,1.192 -8.104,2.551 -7.68,3.91 -5.52,4.441 -3.28,3.737 -1.043,3.031 0.427,1.358 0,0 Z" /></g><g
           transform="translate(323.6064,292.9229)"
           id="g584"><path
             id="path586"
             style="fill:#cfd0c2;fill-opacity:1;fill-rule:nonzero;stroke:none"
             d="m 0,0 c -0.103,-0.33 -0.586,-0.471 -1.077,-0.316 -0.494,0.154 -0.809,0.547 -0.707,0.877 0.103,0.329 0.587,0.471 1.08,0.315 C -0.214,0.722 0.104,0.329 0,0" /></g><path
           id="path588"
           style="fill:#323e7f;fill-opacity:1;fill-rule:nonzero;stroke:#1d1d1d;stroke-width:0.61900002;stroke-linecap:butt;stroke-linejoin:round;stroke-miterlimit:4;stroke-dasharray:none;stroke-opacity:1"
           d="m 303.514,295.047 8.43,0 0,-4.259 -8.43,0 0,4.259 z" /><g
           transform="translate(307.0664,294.1396)"
           id="g590"><path
             id="path592"
             style="fill:#747f8e;fill-opacity:1;fill-rule:nonzero;stroke:none"
             d="m 0,0 c 0,-0.193 -0.359,-0.35 -0.801,-0.35 -0.442,0 -0.801,0.157 -0.801,0.35 0,0.192 0.359,0.349 0.801,0.349 C -0.359,0.349 0,0.192 0,0" /></g><g
           transform="translate(279.6914,290.7881)"
           id="g594"><path
             id="path596"
             style="fill:#a12927;fill-opacity:1;fill-rule:nonzero;stroke:none"
             d="m 0,0 1.393,-4.121 -2.578,-1.396 c 0,0 -1.183,-0.838 -2.368,-0.21 -1.184,0.629 -1.883,2.511 -1.253,3.282 C -3.559,-0.915 0,0.069 0,0" /></g><g
           transform="translate(279.6914,290.7881)"
           id="g598"><path
             id="path600"
             style="fill:none;stroke:#1d1d1d;stroke-width:0.32600001;stroke-linecap:butt;stroke-linejoin:miter;stroke-miterlimit:4;stroke-dasharray:none;stroke-opacity:1"
             d="m 0,0 1.393,-4.121 -2.578,-1.396 c 0,0 -1.183,-0.838 -2.368,-0.21 -1.184,0.629 -1.883,2.511 -1.253,3.282 C -3.559,-0.915 0,0.069 0,0 Z" /></g><g
           transform="translate(277.5322,287.8545)"
           id="g602"><path
             id="path604"
             style="fill:#923b39;fill-opacity:1;fill-rule:nonzero;stroke:none"
             d="m 0,0 c 0,-0.694 -0.53,-1.259 -1.185,-1.259 -0.654,0 -1.184,0.565 -1.184,1.259 0,0.694 0.53,1.258 1.184,1.258 C -0.53,1.258 0,0.694 0,0" /></g><g
           transform="translate(276.4116,288.3467)"
           id="g606"><path
             id="path608"
             style="fill:#e2a696;fill-opacity:1;fill-rule:nonzero;stroke:none"
             d="m 0,0 c 0.036,-0.222 -0.015,-0.441 -0.135,-0.574 -0.121,-0.134 -0.292,-0.162 -0.448,-0.073 -0.156,0.087 -0.275,0.278 -0.312,0.501 -0.036,0.221 0.017,0.441 0.136,0.574 0.121,0.134 0.292,0.162 0.448,0.074 C -0.154,0.413 -0.036,0.222 0,0" /></g><g
           transform="translate(336.1631,290.251)"
           id="g610"><path
             id="path612"
             style="fill:#a12927;fill-opacity:1;fill-rule:nonzero;stroke:none"
             d="m 0,0 -1.384,-3.669 3.281,-1.723 c 0,0 1.449,-0.649 2.366,0.157 0.783,0.688 0.959,2.281 0.334,3.087 C 4.007,-1.385 -0.045,0.022 0,0" /></g><g
           transform="translate(336.1631,290.251)"
           id="g614"><path
             id="path616"
             style="fill:none;stroke:#1d1d1d;stroke-width:0.32600001;stroke-linecap:butt;stroke-linejoin:miter;stroke-miterlimit:4;stroke-dasharray:none;stroke-opacity:1"
             d="m 0,0 -1.384,-3.669 3.281,-1.723 c 0,0 1.449,-0.649 2.366,0.157 0.783,0.688 0.959,2.281 0.334,3.087 C 4.007,-1.385 -0.045,0.022 0,0 Z" /></g><g
           transform="translate(340.0918,287.3086)"
           id="g618"><path
             id="path620"
             style="fill:#ac6c63;fill-opacity:1;fill-rule:nonzero;stroke:none"
             d="M 0,0 C 0,-0.45 -0.47,-0.816 -1.051,-0.816 -1.629,-0.816 -2.1,-0.45 -2.1,0 c 0,0.451 0.471,0.817 1.049,0.817 C -0.47,0.817 0,0.451 0,0" /></g><g
           transform="translate(339.0869,287.4321)"
           id="g622"><path
             id="path624"
             style="fill:#e2a696;fill-opacity:1;fill-rule:nonzero;stroke:none"
             d="m 0,0 c 0,-0.216 -0.095,-0.416 -0.244,-0.524 -0.153,-0.108 -0.341,-0.108 -0.493,0 -0.153,0.108 -0.246,0.308 -0.246,0.524 0,0.216 0.093,0.416 0.246,0.524 0.152,0.108 0.34,0.108 0.493,0 C -0.095,0.416 0,0.216 0,0" /></g><g
           transform="translate(315.1064,294.6831)"
           id="g626"><path
             id="path628"
             style="fill:#f6d9bd;fill-opacity:1;fill-rule:nonzero;stroke:none"
             d="m 0,0 c 0,-0.314 -0.264,-0.568 -0.592,-0.568 -0.327,0 -0.594,0.254 -0.593,0.568 -10e-4,0.312 0.266,0.568 0.593,0.568 C -0.264,0.568 0,0.312 0,0" /></g><g
           transform="translate(318.6943,294.4756)"
           id="g630"><path
             id="path632"
             style="fill:#f6d9bd;fill-opacity:1;fill-rule:nonzero;stroke:none"
             d="m 0,0 c 0,-0.314 -0.266,-0.568 -0.593,-0.568 -0.329,0 -0.594,0.254 -0.594,0.568 0,0.313 0.265,0.567 0.594,0.567 C -0.266,0.567 0,0.313 0,0" /></g><g
           transform="translate(316.876,293.0791)"
           id="g634"><path
             id="path636"
             style="fill:#f6d9bd;fill-opacity:1;fill-rule:nonzero;stroke:none"
             d="m 0,0 c 0,-0.394 -0.333,-0.714 -0.746,-0.714 -0.413,0 -0.745,0.32 -0.745,0.714 0,0.394 0.332,0.713 0.745,0.713 C -0.333,0.713 0,0.394 0,0" /></g><g
           transform="translate(318.6064,290.7324)"
           id="g638"><path
             id="path640"
             style="fill:#f6d9bd;fill-opacity:1;fill-rule:nonzero;stroke:none"
             d="m 0,0 c 0,-0.313 -0.266,-0.567 -0.592,-0.567 -0.328,0 -0.594,0.254 -0.594,0.567 0,0.313 0.266,0.568 0.594,0.568 C -0.266,0.568 0,0.313 0,0" /></g><g
           transform="translate(315.1465,291.1797)"
           id="g642"><path
             id="path644"
             style="fill:#f6d9bd;fill-opacity:1;fill-rule:nonzero;stroke:none"
             d="m 0,0 c 0,-0.313 -0.268,-0.568 -0.594,-0.568 -0.329,0 -0.593,0.255 -0.593,0.568 0,0.313 0.264,0.568 0.593,0.568 C -0.268,0.568 0,0.313 0,0" /></g><g
           transform="translate(297.7998,294.0708)"
           id="g646"><path
             id="path648"
             style="fill:#f6d9bd;fill-opacity:1;fill-rule:nonzero;stroke:none"
             d="m 0,0 c 0.07,-0.306 -0.131,-0.614 -0.451,-0.688 -0.319,-0.073 -0.635,0.114 -0.705,0.419 -0.07,0.306 0.13,0.613 0.45,0.688 C -0.387,0.493 -0.071,0.306 0,0" /></g><g
           transform="translate(301.3408,294.6797)"
           id="g650"><path
             id="path652"
             style="fill:#f6d9bd;fill-opacity:1;fill-rule:nonzero;stroke:none"
             d="m 0,0 c 0.07,-0.305 -0.132,-0.613 -0.451,-0.687 -0.319,-0.075 -0.635,0.113 -0.706,0.418 -0.07,0.306 0.131,0.614 0.45,0.688 C -0.387,0.493 -0.071,0.305 0,0" /></g><g
           transform="translate(299.8838,292.9082)"
           id="g654"><path
             id="path656"
             style="fill:#f6d9bd;fill-opacity:1;fill-rule:nonzero;stroke:none"
             d="m 0,0 c 0.089,-0.384 -0.164,-0.771 -0.565,-0.864 -0.404,-0.094 -0.8,0.143 -0.887,0.527 -0.09,0.384 0.164,0.771 0.565,0.863 C -0.486,0.62 -0.088,0.384 0,0" /></g><g
           transform="translate(302.0977,291.0132)"
           id="g658"><path
             id="path660"
             style="fill:#f6d9bd;fill-opacity:1;fill-rule:nonzero;stroke:none"
             d="m 0,0 c 0.071,-0.305 -0.131,-0.613 -0.45,-0.687 -0.32,-0.075 -0.635,0.114 -0.706,0.419 -0.072,0.306 0.13,0.614 0.451,0.687 C -0.387,0.494 -0.07,0.307 0,0" /></g><g
           transform="translate(298.6245,290.667)"
           id="g662"><path
             id="path664"
             style="fill:#f6d9bd;fill-opacity:1;fill-rule:nonzero;stroke:none"
             d="m 0,0 c 0.072,-0.306 -0.13,-0.614 -0.45,-0.687 -0.319,-0.075 -0.635,0.113 -0.706,0.418 -0.07,0.306 0.131,0.614 0.45,0.687 C -0.386,0.493 -0.07,0.306 0,0" /></g><g
           transform="translate(282.6807,290.7988)"
           id="g666"><path
             id="path668"
             style="fill:#f6d9bd;fill-opacity:1;fill-rule:nonzero;stroke:none"
             d="m 0,0 c 0.113,-0.292 -0.042,-0.625 -0.348,-0.745 -0.306,-0.118 -0.645,0.022 -0.758,0.314 -0.113,0.293 0.043,0.626 0.348,0.745 C -0.452,0.434 -0.113,0.292 0,0" /></g><g
           transform="translate(286.0991,291.9072)"
           id="g670"><path
             id="path672"
             style="fill:#f6d9bd;fill-opacity:1;fill-rule:nonzero;stroke:none"
             d="m 0,0 c 0.113,-0.292 -0.043,-0.626 -0.348,-0.744 -0.306,-0.12 -0.645,0.021 -0.757,0.313 -0.114,0.293 0.042,0.626 0.347,0.745 C -0.453,0.434 -0.113,0.292 0,0" /></g><g
           transform="translate(284.9092,289.9453)"
           id="g674"><path
             id="path676"
             style="fill:#f6d9bd;fill-opacity:1;fill-rule:nonzero;stroke:none"
             d="m 0,0 c 0.142,-0.367 -0.054,-0.786 -0.437,-0.936 -0.385,-0.149 -0.811,0.028 -0.954,0.395 -0.142,0.368 0.054,0.787 0.438,0.937 C -0.569,0.545 -0.142,0.368 0,0" /></g><g
           transform="translate(287.3687,288.3867)"
           id="g678"><path
             id="path680"
             style="fill:#f6d9bd;fill-opacity:1;fill-rule:nonzero;stroke:none"
             d="m 0,0 c 0.113,-0.292 -0.042,-0.626 -0.347,-0.744 -0.306,-0.12 -0.646,0.021 -0.758,0.313 -0.114,0.292 0.042,0.626 0.348,0.745 C -0.452,0.433 -0.113,0.292 0,0" /></g><g
           transform="translate(283.981,287.5474)"
           id="g682"><path
             id="path684"
             style="fill:#f6d9bd;fill-opacity:1;fill-rule:nonzero;stroke:none"
             d="m 0,0 c 0.114,-0.292 -0.042,-0.625 -0.348,-0.745 -0.305,-0.118 -0.645,0.023 -0.758,0.315 -0.114,0.292 0.042,0.625 0.348,0.744 C -0.452,0.434 -0.113,0.292 0,0" /></g><g
           transform="translate(330.6797,292.4473)"
           id="g686"><path
             id="path688"
             style="fill:#f6d9bd;fill-opacity:1;fill-rule:nonzero;stroke:none"
             d="m 0,0 c -0.08,-0.328 -0.423,-0.526 -0.767,-0.441 -0.342,0.084 -0.555,0.418 -0.474,0.747 0.079,0.328 0.422,0.526 0.766,0.441 C -0.132,0.663 0.081,0.328 0,0" /></g><g
           transform="translate(334.3789,291.3086)"
           id="g690"><path
             id="path692"
             style="fill:#f6d9bd;fill-opacity:1;fill-rule:nonzero;stroke:none"
             d="m 0,0 c -0.08,-0.328 -0.423,-0.526 -0.766,-0.441 -0.343,0.084 -0.556,0.418 -0.475,0.747 0.08,0.328 0.424,0.526 0.766,0.442 C -0.133,0.663 0.081,0.328 0,0" /></g><g
           transform="translate(332.1191,290.3145)"
           id="g694"><path
             id="path696"
             style="fill:#f6d9bd;fill-opacity:1;fill-rule:nonzero;stroke:none"
             d="m 0,0 c -0.1,-0.413 -0.53,-0.662 -0.961,-0.555 -0.431,0.106 -0.698,0.526 -0.599,0.938 0.1,0.412 0.531,0.661 0.962,0.555 C -0.166,0.833 0.102,0.412 0,0" /></g><g
           transform="translate(333.3311,287.415)"
           id="g698"><path
             id="path700"
             style="fill:#f6d9bd;fill-opacity:1;fill-rule:nonzero;stroke:none"
             d="M 0,0 C -0.08,-0.329 -0.422,-0.526 -0.765,-0.442 -1.107,-0.358 -1.32,-0.024 -1.24,0.304 -1.16,0.632 -0.817,0.83 -0.476,0.746 -0.133,0.662 0.081,0.328 0,0" /></g><g
           transform="translate(329.8232,288.7725)"
           id="g702"><path
             id="path704"
             style="fill:#f6d9bd;fill-opacity:1;fill-rule:nonzero;stroke:none"
             d="m 0,0 c -0.08,-0.328 -0.423,-0.526 -0.765,-0.442 -0.343,0.084 -0.557,0.419 -0.477,0.747 0.081,0.328 0.424,0.526 0.766,0.442 C -0.134,0.663 0.08,0.328 0,0" /></g><g
           transform="translate(337.9033,325.8911)"
           id="g706"><path
             id="path708"
             style="fill:none;stroke:#1d1d1d;stroke-width:0.75;stroke-linecap:butt;stroke-linejoin:miter;stroke-miterlimit:4;stroke-dasharray:none;stroke-opacity:1"
             d="m 0,0 c 0,0 -1.706,-1.603 -3.73,-1.603 -2.026,0 -3.197,0.855 -3.836,1.283 -0.64,0.426 0.213,1.709 0.213,1.709" /></g><g
           transform="translate(302.0947,322.6855)"
           id="g710"><path
             id="path712"
             style="fill:none;stroke:#1d1d1d;stroke-width:0.685;stroke-linecap:butt;stroke-linejoin:miter;stroke-miterlimit:4;stroke-dasharray:none;stroke-opacity:1"
             d="M 0,0 C 0,0 -3.09,0.535 -4.37,0.961 -5.648,1.389 -5.328,2.244 -6.821,2.136 -8.313,2.03 -9.805,0.961 -9.485,-0.535 c 0.32,-1.495 1.386,-1.708 2.451,-1.388 1.066,0.32 0.747,2.136 -0.639,2.03 C -9.058,0 -7.886,-1.175 -7.886,-1.175" /></g><g
           transform="translate(280.7803,325.0361)"
           id="g714"><path
             id="path716"
             style="fill:none;stroke:#1d1d1d;stroke-width:0.65200001;stroke-linecap:butt;stroke-linejoin:miter;stroke-miterlimit:4;stroke-dasharray:none;stroke-opacity:1"
             d="m 0,0 c 0,0 0.853,-1.282 3.091,-1.068 2.238,0.213 3.091,1.389 3.197,1.923 0.107,0.534 0,1.495 -0.427,1.922 C 5.436,3.206 3.943,3.419 3.943,3.419" /></g></g></g></g></svg>