<?xml version="1.0" encoding="UTF-8" standalone="no"?>
<svg
   xmlns:dc="http://purl.org/dc/elements/1.1/"
   xmlns:cc="http://creativecommons.org/ns#"
   xmlns:rdf="http://www.w3.org/1999/02/22-rdf-syntax-ns#"
   xmlns:svg="http://www.w3.org/2000/svg"
   xmlns="http://www.w3.org/2000/svg"
   viewBox="0 0 800 533.33331"
   height="533.33331"
   width="800"
   xml:space="preserve"
   version="1.1"
   id="svg2"><metadata
     id="metadata8"><rdf:RDF><cc:Work
         rdf:about=""><dc:format>image/svg+xml</dc:format><dc:type
           rdf:resource="http://purl.org/dc/dcmitype/StillImage" /></cc:Work></rdf:RDF></metadata><defs
     id="defs6" /><g
     transform="matrix(1.3333333,0,0,-1.3333333,0,533.33333)"
     id="g10"><path
       id="path12"
       style="fill:#2a468f;fill-opacity:1;fill-rule:nonzero;stroke:none"
       d="M 0,0 600,0 600,400 0,400 0,0 Z" /><g
       transform="translate(168.0003,399.9996)"
       id="g14"><path
         id="path16"
         style="fill:#ffffff;fill-opacity:1;fill-rule:nonzero;stroke:none"
         d="m 0,0 0,-147.28 -168,0 0,-96 168,0 0,-156.72 95.999,0 0,156.72 336.001,0 0,96 -336.001,0 L 95.999,0 0,0 Z" /></g><g
       transform="translate(192.0006,399.9996)"
       id="g18"><path
         id="path20"
         style="fill:#d83434;fill-opacity:1;fill-rule:nonzero;stroke:none"
         d="m 0,0 0,-171.28 -192.001,0 0,-47.999 192.001,0 0,-180.721 48,0 0,180.721 360,0 0,47.999 -360,0 L 48,0 0,0 Z" /></g></g></svg>