<?xml version="1.0" encoding="UTF-8" standalone="no"?>
<svg
   xmlns:dc="http://purl.org/dc/elements/1.1/"
   xmlns:cc="http://creativecommons.org/ns#"
   xmlns:rdf="http://www.w3.org/1999/02/22-rdf-syntax-ns#"
   xmlns:svg="http://www.w3.org/2000/svg"
   xmlns="http://www.w3.org/2000/svg"
   viewBox="0 0 800 533.33331"
   height="533.33331"
   width="800"
   xml:space="preserve"
   version="1.1"
   id="svg2"><metadata
     id="metadata8"><rdf:RDF><cc:Work
         rdf:about=""><dc:format>image/svg+xml</dc:format><dc:type
           rdf:resource="http://purl.org/dc/dcmitype/StillImage" /></cc:Work></rdf:RDF></metadata><defs
     id="defs6"><clipPath
       id="clipPath22"
       clipPathUnits="userSpaceOnUse"><path
         id="path24"
         d="M 0,400 600,400 600,0 0,0 0,400 Z" /></clipPath></defs><g
     transform="matrix(1.3333333,0,0,-1.3333333,0,533.33333)"
     id="g10"><path
       id="path12"
       style="fill:#e63235;fill-opacity:1;fill-rule:nonzero;stroke:none"
       d="M 0,0 600,0 600,400 0,400 0,0 Z" /><path
       id="path14"
       style="fill:#2555a0;fill-opacity:1;fill-rule:nonzero;stroke:none"
       d="m 0,133.333 600,0 0,266.666 -600,0 0,-266.666 z" /><path
       id="path16"
       style="fill:#ffffff;fill-opacity:1;fill-rule:nonzero;stroke:none"
       d="m 0,266.666 600,0 0,133.333 -600,0 0,-133.333 z" /><g
       id="g18"><g
         clip-path="url(#clipPath22)"
         id="g20"><g
           transform="translate(210.8364,91)"
           id="g26"><path
             id="path28"
             style="fill:#ffffff;fill-opacity:1;fill-rule:nonzero;stroke:none"
             d="m 0,0 c -35.854,17.271 -87.14,51.549 -87.14,119.355 0,67.808 3.243,98.645 3.243,98.645 L 0,218 l 83.9,0 c 0,0 3.243,-30.837 3.243,-98.645 C 87.143,51.549 35.857,17.271 0,0" /></g><g
           transform="translate(210.8364,100)"
           id="g30"><path
             id="path32"
             style="fill:#e63235;fill-opacity:1;fill-rule:nonzero;stroke:none"
             d="m 0,0 c -32.893,15.844 -79.944,47.292 -79.944,109.5 0,62.209 2.974,90.5 2.974,90.5 l 76.971,0 76.972,0 c 0,0 2.975,-28.291 2.975,-90.5 C 79.948,47.292 32.896,15.844 0.001,0 L 0,0 Z" /></g><g
           transform="translate(217.8726,225.8105)"
           id="g34"><path
             id="path36"
             style="fill:#ffffff;fill-opacity:1;fill-rule:nonzero;stroke:none"
             d="m 0,0 c 8.906,-0.144 26.283,-0.493 41.756,4.685 0,0 -0.408,-5.537 -0.408,-11.987 0,-6.451 0.408,-11.988 0.408,-11.988 -14.193,4.75 -31.72,4.849 -41.756,4.722 l 0,-34.361 -14.069,0 0,34.361 c -10.036,0.127 -27.564,0.027 -41.757,-4.722 0,0 0.409,5.537 0.409,11.989 0,6.449 -0.409,11.987 -0.409,11.987 15.473,-5.179 32.85,-4.83 41.757,-4.686 l 0,21.579 c -8.118,0.071 -19.816,-0.315 -33.042,-4.742 0,0 0.408,5.538 0.408,11.988 0,6.45 -0.408,11.988 -0.408,11.988 13.207,-4.419 24.89,-4.813 33.006,-4.743 -0.417,13.666 -4.398,30.888 -4.398,30.888 0,0 8.192,-0.639 11.468,-0.639 3.278,0 11.469,0.639 11.469,0.639 0,0 -3.981,-17.223 -4.399,-30.886 8.116,-0.072 19.799,0.323 33.007,4.742 0,0 -0.409,-5.537 -0.409,-11.988 0,-6.451 0.409,-11.988 0.409,-11.988 C 19.815,21.265 8.117,21.652 0,21.58 L 0,0.002 0,0 Z" /></g><g
           transform="translate(210.8335,180.6045)"
           id="g38"><path
             id="path40"
             style="fill:#2555a0;fill-opacity:1;fill-rule:nonzero;stroke:none"
             d="m 0,0 c -16.565,0 -25.437,-22.979 -25.437,-22.979 0,0 -4.923,10.895 -18.438,10.895 -9.144,0 -15.883,-8.134 -20.167,-15.666 16.636,-26.471 43.179,-42.805 64.042,-52.854 20.866,10.049 47.426,26.38 64.063,52.854 -4.285,7.532 -11.023,15.666 -20.167,15.666 -13.516,0 -18.459,-10.895 -18.459,-10.895 C 25.437,-22.979 16.565,0 0,0" /></g></g></g></g></svg>