<?xml version="1.0" encoding="UTF-8" standalone="no"?>
<svg
   xmlns:dc="http://purl.org/dc/elements/1.1/"
   xmlns:cc="http://creativecommons.org/ns#"
   xmlns:rdf="http://www.w3.org/1999/02/22-rdf-syntax-ns#"
   xmlns:svg="http://www.w3.org/2000/svg"
   xmlns="http://www.w3.org/2000/svg"
   viewBox="0 0 800 533.33331"
   height="533.33331"
   width="800"
   xml:space="preserve"
   version="1.1"
   id="svg2"><metadata
     id="metadata8"><rdf:RDF><cc:Work
         rdf:about=""><dc:format>image/svg+xml</dc:format><dc:type
           rdf:resource="http://purl.org/dc/dcmitype/StillImage" /></cc:Work></rdf:RDF></metadata><defs
     id="defs6" /><g
     transform="matrix(1.3333333,0,0,-1.3333333,0,533.33333)"
     id="g10"><g
       transform="translate(187.6149,399.9996)"
       id="g12"><path
         id="path14"
         style="fill:#fec91f;fill-opacity:1;fill-rule:nonzero;stroke:none"
         d="m 0,0 0,-159.844 -187.615,0 0,-79.512 187.615,0 0,-159.844 74.669,0 0,159.844 337.716,0 0,79.512 -337.716,0 L 74.669,0 0,0 Z" /></g><path
       id="path16"
       style="fill:#1e71ac;fill-opacity:1;fill-rule:nonzero;stroke:none"
       d="m 262.665,239.761 337.335,0 0,159.439 -337.335,0 0,-159.439 z m -262.665,0 187.246,0 0,159.439 L 0,399.2 0,239.761 Z M 262.665,0 600,0 l 0,159.439 -337.335,0 0,-159.439 z M 0,0 l 187.246,0 0,159.439 L 0,159.439 0,0 Z" /></g></svg>