<?xml version="1.0" encoding="utf-8"?>
<!-- Generator: Adobe Illustrator 16.0.0, SVG Export Plug-In . SVG Version: 6.00 Build 0)  -->
<!DOCTYPE svg PUBLIC "-//W3C//DTD SVG 1.1//EN" "http://www.w3.org/Graphics/SVG/1.1/DTD/svg11.dtd">
<svg version="1.1" id="Capa_1" xmlns="http://www.w3.org/2000/svg" xmlns:xlink="http://www.w3.org/1999/xlink" x="0px" y="0px"
	 width="424px" height="426px" viewBox="0 0 424 426" enable-background="new 0 0 424 426" xml:space="preserve">
<g id="_x23_000000ff">
	<path fill="#FFFFFF" stroke="#FFFFFF" stroke-miterlimit="10" d="M201.969,7.117c29.93-1.35,60.2,3.52,87.938,14.97
		c31.473,12.83,59.683,33.59,81.25,59.86c18.91,22.9,32.771,49.95,40.29,78.68c11.271,43.36,8.263,90.439-9.13,131.791
		c-14.688,35.26-39.39,66.279-70.53,88.408c-29.867,21.441-65.6,34.611-102.247,37.58c-25.62,2.031-51.66-0.34-76.313-7.729
		c-31.13-9.209-59.979-25.969-83.46-48.391c-28.169-26.75-48.519-61.649-57.849-99.369c-8.05-32.631-8.04-67.231,0.01-99.861
		c9.73-39.3,31.44-75.52,61.46-102.67C108.349,28.427,154.629,9.187,201.969,7.117 M193.019,48.227
		c-38.79,4.28-75.71,23-102.24,51.58c-19.229,20.54-33.107,46.03-39.827,73.36c-6.46,26.33-6.4,54.25,0.22,80.549
		c7.93,31.642,25.55,60.74,49.81,82.531c22.71,20.51,51.183,34.59,81.32,39.979c31.87,5.729,65.42,2.119,95.16-10.771
		c37.77-16.109,69-46.799,85.79-84.26c9.96-22.1,15.06-46.42,14.52-70.67c-0.23-31.89-10.24-63.6-28.09-90.01
		c-19.54-29.22-48.65-51.91-81.78-63.7C244.049,48.187,218.199,45.437,193.019,48.227z"/>
</g>
<g id="Capa_2">
	<line fill="#FFFFFF" stroke="#FFFFFF" stroke-width="40" stroke-miterlimit="10" x1="212" y1="105.5" x2="211.999" y2="306.5"/>
	<line fill="#FFFFFF" stroke="#FFFFFF" stroke-width="40" stroke-miterlimit="10" x1="212" y1="202" x2="293.5" y2="202"/>
	<line fill="#FFFFFF" stroke="#FFFFFF" stroke-width="40" stroke-miterlimit="10" x1="131.5" y1="202" x2="211.25" y2="202"/>
</g>
</svg>
