<?xml version="1.0" encoding="utf-8"?>
<!-- Generator: Adobe Illustrator 16.0.0, SVG Export Plug-In . SVG Version: 6.00 Build 0)  -->
<!DOCTYPE svg PUBLIC "-//W3C//DTD SVG 1.1//EN" "http://www.w3.org/Graphics/SVG/1.1/DTD/svg11.dtd">
<svg version="1.1" id="Capa_1" xmlns="http://www.w3.org/2000/svg" xmlns:xlink="http://www.w3.org/1999/xlink" x="0px" y="0px"
	 width="424px" height="426px" viewBox="0 0 424 426" enable-background="new 0 0 424 426" xml:space="preserve">
<g id="_x23_000000ff">
	<path fill="#FFFFFF" d="M201.969,7.117c29.93-1.35,60.2,3.52,87.938,14.97c31.472,12.83,59.682,33.59,81.25,59.86
		c18.91,22.9,32.771,49.95,40.29,78.68c11.271,43.36,8.262,90.439-9.13,131.791c-14.688,35.26-39.39,66.279-70.53,88.408
		c-29.868,21.441-65.6,34.611-102.248,37.58c-25.62,2.031-51.66-0.34-76.312-7.729c-31.13-9.209-59.979-25.969-83.46-48.391
		c-28.169-26.75-48.519-61.65-57.849-99.369c-8.05-32.631-8.04-67.231,0.01-99.861c9.73-39.3,31.44-75.52,61.46-102.67
		C108.349,28.427,154.629,9.187,201.969,7.117 M193.019,48.227c-38.79,4.28-75.71,23-102.24,51.58
		c-19.229,20.54-33.108,46.03-39.828,73.36c-6.46,26.33-6.4,54.25,0.22,80.549c7.93,31.641,25.55,60.74,49.81,82.531
		c22.71,20.51,51.182,34.59,81.32,39.979c31.87,5.73,65.42,2.119,95.16-10.771c37.77-16.109,69-46.799,85.79-84.26
		c9.96-22.1,15.06-46.42,14.52-70.67c-0.23-31.89-10.24-63.6-28.09-90.01c-19.54-29.22-48.65-51.91-81.78-63.7
		C244.049,48.187,218.199,45.437,193.019,48.227z"/>
	<path fill="#FFFFFF" d="M115.629,214.027c40.07-40.28,80.05-80.63,120.28-120.75c10.75,10.82,21.568,21.57,32.328,32.38
		c-13.38,13.15-26.35,26.72-39.68,39.93c-16.16,16-32.06,32.26-48.16,48.321c20.48,21.078,41.4,41.738,62.182,62.539
		c8.34,8.85,17.1,17.301,25.658,25.93c-10.778,10.811-21.568,21.602-32.38,32.381c-32.52-32.359-64.648-65.09-97.188-97.43
		C131.189,229.367,123.319,221.797,115.629,214.027z"/>
</g>
</svg>
