<?xml version="1.0" encoding="utf-8"?>
<!-- Generator: Adobe Illustrator 16.0.0, SVG Export Plug-In . SVG Version: 6.00 Build 0)  -->
<!DOCTYPE svg PUBLIC "-//W3C//DTD SVG 1.1//EN" "http://www.w3.org/Graphics/SVG/1.1/DTD/svg11.dtd">
<svg version="1.1" id="Capa_1" xmlns="http://www.w3.org/2000/svg" xmlns:xlink="http://www.w3.org/1999/xlink" x="0px" y="0px"
	 width="256px" height="256px" viewBox="0 0 256 256" enable-background="new 0 0 256 256" xml:space="preserve">
<path fill="#FFFFFF" d="M78.293,75.698c0,0,7.946-3.67,5.811,6.72c0,0-13.756,13.759-13.756,17.733
	c0,3.974-1.227,16.507,3.667,17.428c0,0,1.22,1.833,5.5-2.145c4.283-3.969,9.481-10.392,9.481-10.392s4.278-0.307,2.443,3.667
	c-1.834,3.978-15.588,16.82-18.647,16.82c-3.06,0-3.975,0-4.589-1.536C67.596,122.467,56.281,101.99,78.293,75.698"/>
<path fill="#FFFFFF" d="M125.984,125.22h-5.501c-7.334-0.304-10.393-11.003-11.614-12.53c-1.224-1.531,0.603-1.836,0.603-1.836
	c10.094,0.31,11.011-8.564,11.011-12.228c0-3.67-3.362-6.728-10.087-6.425c-6.728,0.313-9.476,9.174-9.476,9.174
	c-3.368-0.61-3.974,2.142-3.368,3.975c0.615,1.83,3.98,3.672,3.98,3.672c0.606,7.636,6.417,14.062,8.864,17.42
	c2.448,3.364,10.395,3.976,14.372,3.058C128.735,128.579,125.984,125.22,125.984,125.22 M106.418,104.435
	c0,0,1.229-8.867,8.563-5.194C114.981,99.241,115.899,105.35,106.418,104.435"/>
<path fill="#FFFFFF" d="M146.16,105.657c0,0,3.668-5.197-0.913-12.537c0,0-11.011-1.524-16.21,8.562c0,0-5.803,10.394,2.146,11.008
	c7.947,0.603,8.866-1.224,8.866-1.224s13.142,5.805,13.45,18.034c0.306,12.227-6.423,33.32-16.816,38.82
	c-10.391,5.505-38.824,21.4-74.899-13.141c0,0-1.832,0.611-1.832,2.138c0,0,2.448,5.199,4.278,6.423
	c1.836,1.224,11.62,9.779,14.062,10.698c2.448,0.911,17.425,10.697,40.054,6.112c22.617-4.588,38.822-21.094,42.493-37.599
	C164.503,126.44,158.998,109.937,146.16,105.657 M135.769,106.262c-2.444,0-2.75-1.526-2.75-1.526s2.75-4.89,4.586-4.89
	C139.435,99.846,138.211,106.262,135.769,106.262"/>
<path fill="#FFFFFF" d="M168.907,109.345c0,0,2.231-5.887,6.159-1.969l1.12,1.122c0,0,9.242-9.518,16.238-8.677
	c0,0,8.406-1.684,7.279,5.878c-1.122,7.562-2.239,5.877-2.239,5.877l-2.797-0.555c0,0,1.123-5.882-4.487-3.921
	c-5.595,1.959-11.477,5.601-12.871,10.917c-1.409,5.322-2.526,8.125-2.526,8.125s-3.075,0.842-3.917-0.563
	C170.026,124.178,167.498,111.302,168.907,109.345"/>
<path fill="#FFFFFF" d="M213.426,113.261c0,0-3.356-1.119-4.474,1.679c-1.131,2.804-3.368,13.44-0.289,16.244
	c3.084,2.802,4.48,0.281,5.326-1.681C213.989,129.503,217.729,114.438,213.426,113.261"/>
<path fill="#FFFFFF" d="M208.802,105.757c0,0,2.702-13.101,11.231-13.101c0,0,2.496,0.624,1.662,2.491c0,0-3.748,5.412-4.571,6.031
	C216.289,101.809,209.841,110.959,208.802,105.757"/>
<path fill="#FFFFFF" d="M247.081,106.588c0,0-2.497-8.318-9.361-8.112c-6.869,0.209-6.45,6.659-4.787,7.491
	c0,0,2.282-0.418,3.535-0.21c1.252,0.21,3.117,1.247,3.117,3.954c0,2.708-0.418,4.785-0.418,4.785s-8.324-1.041-11.649,5.202
	c-3.325,6.242-0.41,9.363,0.21,9.566c0.621,0.207,7.908,0.621,8.53,0.207c0.62-0.41,4.372-1.25,4.986-0.41
	c0.636,0.824,1.256,1.662,2.919,2.277c1.666,0.63,6.444-0.201,5.828-3.74C249.364,124.063,245.646,110.278,247.081,106.588
	 M237.819,123.441c-2.249,0-4.06-0.794-4.06-1.769c0-0.979,1.811-1.769,4.06-1.769c2.242,0,4.061,0.79,4.061,1.769
	C241.88,122.647,240.062,123.441,237.819,123.441"/>
<path fill="#FFFFFF" d="M247.872,150.609c0,0-2.023-6.747-7.589-6.577c-5.576,0.169-5.229,5.398-3.882,6.077
	c0,0,1.858-0.339,2.869-0.171c1.013,0.171,2.531,1.013,2.531,3.2c0,2.203-0.341,3.892-0.341,3.892s-6.754-0.849-9.452,4.214
	c-2.702,5.064-0.338,7.591,0.17,7.766c0.508,0.16,6.411,0.504,6.921,0.16c0.509-0.335,3.542-1.006,4.047-0.335
	c0.508,0.679,1.017,1.35,2.364,1.856c1.349,0.508,5.229-0.162,4.728-3.034C249.73,164.788,246.717,153.606,247.872,150.609
	 M240.313,164.829c-2.003,0-3.64-0.829-3.64-1.865c0-1.039,1.637-1.872,3.64-1.872c2.012,0,3.643,0.833,3.643,1.872
	C243.955,164,242.324,164.829,240.313,164.829"/>
<path fill="#FFFFFF" d="M196.445,147.955c0,0,0.482-9.759-14.991-9.521c0,0-8.806,1.432-3.807,7.377
	c4.998,5.955,14.038,5.955,14.038,5.955s10.232,1.426,10.476,5.709c0.238,4.286,0,6.194-1.896,9.05
	c-1.914,2.847-7.626,7.85-10.475,7.85c-2.861,0-6.67,0.479-6.67,0.479s-0.95-4.29,0.232-4.526c1.192-0.235,7.86-1.192,10.478-3.803
	c2.615-2.622,6.188-7.857-2.145-10.002c0,0-14.521-3.331-17.132-5.477c-2.621-2.138-8.1-8.09-0.243-14.276
	c0,0,14.045-8.332,24.52,4.521l0.479,6.897L196.445,147.955z"/>
<path fill="#FFFFFF" d="M223.149,145.907c-2.49,0-7.281,4.787-7.281,4.787l-0.828-0.626v-1.669
	c-3.409-1.653-4.162,0.682-4.162,0.682l-0.206,2.444c-0.759,2.094-2.048,39.418-2.26,45.683c0.121,0.142,0.223,0.276,0.39,0.494
	c1.87,2.499,4.783,0.21,4.783,0.21l2.081-38.69l1.46,0.207c10.192,1.663,13.936-3.744,13.936-8.734
	C231.062,145.695,225.647,145.907,223.149,145.907 M222.844,155.685c-2.929,0-5.308-1.162-5.308-2.598
	c0-1.438,2.379-2.609,5.308-2.609c2.93,0,5.306,1.171,5.306,2.609C228.149,154.522,225.773,155.685,222.844,155.685"/>
<path fill="#FFFFFF" d="M49.869,58.271c-3.366-6.422-6.419-3.36-6.419-3.36l-16.21,25.674H10.125c-2.446,1.53,0,6.119,0,6.119
	l13.452,0.914l-6.425,12.228c2.444,6.119,5.807,1.836,5.807,1.836l7.646-14.371l15.898,0.307l-0.306,1.834
	c4.893,1.531-0.303,79.18,0.912,83.758c1.218,4.59,7.343,0.919,7.343,0.919s0.612-62.663,0.918-70.92
	C55.67,94.955,49.869,58.271,49.869,58.271 M36.692,76.463l4.91-5.615l2.107,7.72L36.692,76.463z"/>
</svg>
