<?xml version="1.0" encoding="utf-8"?>
<!-- Generator: Adobe Illustrator 16.0.0, SVG Export Plug-In . SVG Version: 6.00 Build 0)  -->
<!DOCTYPE svg PUBLIC "-//W3C//DTD SVG 1.1//EN" "http://www.w3.org/Graphics/SVG/1.1/DTD/svg11.dtd">
<svg version="1.1" id="Capa_1" xmlns="http://www.w3.org/2000/svg" xmlns:xlink="http://www.w3.org/1999/xlink" x="0px" y="0px"
	 width="256px" height="256px" viewBox="0 0 256 256" enable-background="new 0 0 256 256" xml:space="preserve">
<g id="Capa_3">
	
		<linearGradient id="SVGID_1_" gradientUnits="userSpaceOnUse" x1="368.8506" y1="-326.0659" x2="368.8506" y2="-294.7231" gradientTransform="matrix(1 0 0 -1 -247.5996 -113.9902)">
		<stop  offset="0" style="stop-color:#000000"/>
		<stop  offset="1" style="stop-color:#FFFFFF;stop-opacity:0"/>
	</linearGradient>
	<polyline fill="url(#SVGID_1_)" points="78.067,212.076 65.167,180.733 177.334,180.733 165.311,212.076 78.067,212.076 	"/>
</g>
<g>
	<g>
		<path fill="#FFFFFF" stroke="#FFFFFF" stroke-width="17" stroke-miterlimit="10" d="M209.082,36.854
			c-7.752-7.753-18.061-12.022-29.023-12.022c-10.965,0-21.272,4.269-29.024,12.022c-5.773,5.772-9.613,12.962-11.198,20.785h0.054
			c-0.476,1.125-0.657,2.393-0.69,3.597c-0.01,0.377-0.009,0.754-0.008,1.132H60.455v3.966l53.659,53.658v72.3H94.378l-4.245,11.585
			h62.394l-4.244-11.585h-19.735v-72.3l23.528-23.53c0.957,0.956,2.169,1.637,3.675,2.235c-1.241-0.494-0.18,0.106,0.375,0.593
			c0.544,0.477,1.091,0.807,1.67,1.05l-0.021,0.021c6.58,4.271,14.255,6.563,22.284,6.563c10.964,0,21.272-4.269,29.024-12.021
			c7.752-7.753,12.022-18.061,12.022-29.024C221.105,54.915,216.835,44.606,209.082,36.854z"/>
		<polygon fill="#FFFFFF" stroke="#FFFFFF" stroke-width="17" stroke-miterlimit="10" points="108.894,63.248 77.973,31.627 
			71.776,37.965 96.501,63.248 		"/>
	</g>
</g>
<g>
	<g>
		<path fill="#3A6393" d="M201.262,87.943c5.499-5.388,8.913-12.896,8.913-21.203c0-1.558-0.12-3.087-0.352-4.58l-18.144,5.203
			l-2.547,2.932L201.262,87.943z"/>
		<path fill="#3A6393" d="M185.069,37.406V58.5h4.275l17.685-5.07C202.804,45.022,194.703,38.899,185.069,37.406z"/>
		<path fill="#3A6393" d="M166.503,92.925c4.168,2.231,8.928,3.501,13.985,3.501c4.791,0,9.314-1.136,13.32-3.151l-11.265-16.39
			L166.503,92.925z"/>
		<path fill="#3A6393" d="M175.909,37.406c-9.195,1.425-16.994,7.068-21.358,14.89l18.543,6.204h2.815V37.406z"/>
		<path fill="#214F87" d="M209.514,37.716c-7.754-7.753-18.061-12.023-29.024-12.023s-21.271,4.27-29.024,12.023
			c-5.773,5.772-9.613,12.962-11.198,20.784h7.525c3.687-14.621,16.948-25.477,32.698-25.477c18.592,0,33.717,15.125,33.717,33.717
			s-15.125,33.718-33.717,33.718c-6.173,0-11.961-1.669-16.942-4.576l-5.343,5.343c6.58,4.271,14.256,6.563,22.285,6.563
			c10.963,0,21.271-4.269,29.023-12.021c7.753-7.753,12.022-18.061,12.022-29.024C221.535,55.776,217.266,45.468,209.514,37.716z"/>
		<polygon fill="#4879BD" points="128.977,193.155 128.977,120.855 182.635,67.197 182.635,63.23 60.886,63.23 60.886,67.197 
			114.545,120.855 114.545,193.155 94.809,193.155 90.564,204.74 152.957,204.74 148.713,193.155 		"/>
		<polygon fill="#7CACE5" points="103.432,58.5 77.421,32.489 72.207,37.702 93.005,58.5 		"/>
	</g>
</g>
</svg>
