<?xml version="1.0" encoding="utf-8"?>
<!-- Generator: Adobe Illustrator 16.0.0, SVG Export Plug-In . SVG Version: 6.00 Build 0)  -->
<!DOCTYPE svg PUBLIC "-//W3C//DTD SVG 1.1//EN" "http://www.w3.org/Graphics/SVG/1.1/DTD/svg11.dtd">
<svg version="1.1" id="Capa_1" xmlns="http://www.w3.org/2000/svg" xmlns:xlink="http://www.w3.org/1999/xlink" x="0px" y="0px"
	 width="50px" height="50px" viewBox="0 0 50 50" enable-background="new 0 0 50 50" xml:space="preserve">
<g>
	<g>
		<path fill="#E4002B" d="M41.526,4.503h-5.975V3.008c0-0.898-0.6-1.495-1.495-1.495c-0.896,0-1.495,0.597-1.495,1.495v1.495H17.623
			V3.008c0-0.898-0.597-1.495-1.495-1.495c-0.898,0-1.495,0.597-1.495,1.495v1.495H8.656c-4.183,0-7.471,3.286-7.471,7.47v26.899
			c0,4.186,3.288,7.47,7.471,7.47h32.872c4.188,0,7.472-3.285,7.472-7.47V11.973C48.998,7.791,45.709,4.503,41.526,4.503z
			 M4.17,11.973c0-2.39,2.092-4.483,4.484-4.483h5.978v1.495c0,0.895,0.598,1.493,1.494,1.493s1.495-0.598,1.495-1.493V7.49h14.941
			v1.495c0,0.895,0.599,1.493,1.495,1.493c0.895,0,1.495-0.598,1.495-1.493V7.49h5.973c2.393,0,4.482,2.093,4.482,4.483v4.484H4.17
			V11.973z M46.008,38.872c0,2.388-2.089,4.482-4.481,4.482H8.654c-2.391,0-4.484-2.095-4.484-4.482V19.446h41.837V38.872z"/>
		<path fill="#E4002B" d="M11.642,38.872c0.896,0,1.495-0.297,2.093-0.898c0.597-0.599,0.897-1.492,0.897-2.09
			c0-0.599-0.299-1.494-0.897-2.093c-1.196-1.196-2.989-1.196-4.184,0c-0.597,0.599-0.897,1.198-0.897,2.093
			c0,0.598,0.298,1.491,0.897,2.09C10.147,38.572,10.746,38.872,11.642,38.872z"/>
		<path fill="#E4002B" d="M11.642,29.904c0.896,0,1.495-0.298,2.093-0.896c0.597-0.598,0.897-1.494,0.897-2.092
			c0-0.599-0.299-1.495-0.897-2.091c-1.196-1.195-2.989-1.195-4.184,0c-0.597,0.599-0.897,1.196-0.897,2.091
			c0,0.896,0.298,1.494,0.897,2.092C10.147,29.606,10.746,29.904,11.642,29.904z"/>
		<path fill="#E4002B" d="M20.608,38.872c0.897,0,1.494-0.297,2.091-0.898c0.599-0.599,0.896-1.492,0.896-2.09
			c0-0.599-0.298-1.494-0.896-2.093c-1.194-1.196-2.989-1.196-4.184,0c-0.596,0.599-0.896,1.494-0.896,2.093
			c0,0.598,0.298,1.491,0.896,2.09C19.114,38.572,19.711,38.872,20.608,38.872z"/>
		<path fill="#E4002B" d="M20.608,29.904c0.897,0,1.494-0.298,2.091-0.896c0.599-0.598,0.896-1.494,0.896-2.092
			c0-0.599-0.298-1.495-0.896-2.091c-1.194-1.195-2.989-1.195-4.184,0c-0.596,0.599-0.896,1.497-0.896,2.091
			c0,0.598,0.298,1.494,0.896,2.092C19.114,29.606,19.711,29.904,20.608,29.904z"/>
		<path fill="#E4002B" d="M29.573,38.872c0.896,0,1.495-0.297,2.092-0.898c0.597-0.599,0.895-1.193,0.895-2.09
			c0-0.895-0.298-1.494-0.895-2.093c-1.195-1.196-2.989-1.196-4.185,0c-0.601,0.599-0.896,1.494-0.896,2.093
			c0,0.598,0.296,1.491,0.896,2.09C28.079,38.572,28.676,38.872,29.573,38.872z"/>
		<path fill="#E4002B" d="M29.573,29.904c0.896,0,1.495-0.298,2.092-0.896c0.597-0.598,0.895-1.195,0.895-2.092
			c0-0.599-0.298-1.495-0.895-2.091c-1.195-1.195-2.989-1.195-4.185,0c-0.601,0.599-0.896,1.497-0.896,2.091
			c0,0.598,0.296,1.494,0.896,2.092C28.079,29.606,28.676,29.904,29.573,29.904z"/>
		<path fill="#E4002B" d="M38.538,38.872c0.898,0,1.498-0.297,2.093-0.898c0.598-0.599,0.896-1.492,0.896-2.09
			c0-0.599-0.298-1.494-0.896-2.093c-1.194-1.196-2.989-1.196-4.184,0c-0.598,0.599-0.896,1.198-0.896,2.093
			c0,0.598,0.298,1.491,0.896,2.09C37.047,38.572,37.642,38.872,38.538,38.872z"/>
		<path fill="#E4002B" d="M38.538,29.904c0.898,0,1.498-0.298,2.093-0.896c0.598-0.598,0.896-1.195,0.896-2.092
			c0-0.599-0.298-1.495-0.896-2.091c-1.194-1.195-2.989-1.195-4.184,0c-0.598,0.599-0.896,1.497-0.896,2.091
			c0,0.598,0.298,1.494,0.896,2.092C37.047,29.606,37.642,29.904,38.538,29.904z"/>
	</g>
</g>
</svg>
