<?xml version="1.0" encoding="utf-8"?>
<!-- Generator: Adobe Illustrator 16.0.0, SVG Export Plug-In . SVG Version: 6.00 Build 0)  -->
<!DOCTYPE svg PUBLIC "-//W3C//DTD SVG 1.1//EN" "http://www.w3.org/Graphics/SVG/1.1/DTD/svg11.dtd">
<svg version="1.1" id="Capa_1" xmlns="http://www.w3.org/2000/svg" xmlns:xlink="http://www.w3.org/1999/xlink" x="0px" y="0px"
	 width="50px" height="50px" viewBox="0 0 50 50" enable-background="new 0 0 50 50" xml:space="preserve">
<g>
	<g>
		<path fill="#FFFFFF" d="M41.525,4.503h-5.975V3.008c0-0.898-0.6-1.495-1.494-1.495c-0.896,0-1.496,0.597-1.496,1.495v1.495H17.623
			V3.008c0-0.898-0.597-1.495-1.495-1.495s-1.495,0.597-1.495,1.495v1.495H8.656c-4.183,0-7.471,3.286-7.471,7.47v26.899
			c0,4.187,3.288,7.47,7.471,7.47h32.872c4.188,0,7.473-3.285,7.473-7.47V11.973C48.998,7.791,45.709,4.503,41.525,4.503z
			 M4.17,11.973c0-2.39,2.092-4.483,4.484-4.483h5.978v1.495c0,0.895,0.598,1.493,1.494,1.493s1.495-0.598,1.495-1.493V7.49h14.941
			v1.495c0,0.895,0.599,1.493,1.494,1.493s1.496-0.598,1.496-1.493V7.49h5.973c2.393,0,4.481,2.093,4.481,4.483v4.484H4.17V11.973z
			 M46.008,38.872c0,2.388-2.089,4.481-4.48,4.481H8.654c-2.391,0-4.484-2.095-4.484-4.481V19.446h41.837L46.008,38.872
			L46.008,38.872z"/>
		<path fill="#FFFFFF" d="M11.642,38.872c0.896,0,1.495-0.297,2.093-0.897c0.597-0.6,0.897-1.492,0.897-2.091
			s-0.299-1.493-0.897-2.093c-1.196-1.195-2.989-1.195-4.184,0c-0.597,0.6-0.897,1.198-0.897,2.093c0,0.599,0.298,1.491,0.897,2.091
			C10.147,38.572,10.746,38.872,11.642,38.872z"/>
		<path fill="#FFFFFF" d="M11.642,29.904c0.896,0,1.495-0.299,2.093-0.896c0.597-0.598,0.897-1.494,0.897-2.092
			c0-0.6-0.299-1.495-0.897-2.091c-1.196-1.195-2.989-1.195-4.184,0c-0.597,0.599-0.897,1.196-0.897,2.091
			c0,0.896,0.298,1.494,0.897,2.092C10.147,29.605,10.746,29.904,11.642,29.904z"/>
		<path fill="#FFFFFF" d="M20.608,38.872c0.897,0,1.494-0.297,2.091-0.897c0.599-0.6,0.896-1.492,0.896-2.091
			s-0.298-1.493-0.896-2.093c-1.194-1.195-2.989-1.195-4.184,0c-0.596,0.6-0.896,1.494-0.896,2.093s0.298,1.491,0.896,2.091
			C19.114,38.572,19.711,38.872,20.608,38.872z"/>
		<path fill="#FFFFFF" d="M20.608,29.904c0.897,0,1.494-0.299,2.091-0.896c0.599-0.598,0.896-1.494,0.896-2.092
			c0-0.6-0.298-1.495-0.896-2.091c-1.194-1.195-2.989-1.195-4.184,0c-0.596,0.599-0.896,1.497-0.896,2.091
			c0,0.598,0.298,1.494,0.896,2.092C19.114,29.605,19.711,29.904,20.608,29.904z"/>
		<path fill="#FFFFFF" d="M29.572,38.872c0.896,0,1.496-0.297,2.093-0.897c0.597-0.6,0.896-1.193,0.896-2.091
			c0-0.895-0.299-1.493-0.896-2.093c-1.194-1.195-2.989-1.195-4.185,0c-0.602,0.6-0.896,1.494-0.896,2.093s0.296,1.491,0.896,2.091
			C28.079,38.572,28.676,38.872,29.572,38.872z"/>
		<path fill="#FFFFFF" d="M29.572,29.904c0.896,0,1.496-0.299,2.093-0.896s0.896-1.195,0.896-2.092c0-0.6-0.299-1.495-0.896-2.091
			c-1.194-1.195-2.989-1.195-4.185,0c-0.602,0.599-0.896,1.497-0.896,2.091c0,0.598,0.296,1.494,0.896,2.092
			C28.079,29.605,28.676,29.904,29.572,29.904z"/>
		<path fill="#FFFFFF" d="M38.538,38.872c0.897,0,1.498-0.297,2.093-0.897c0.598-0.6,0.896-1.492,0.896-2.091
			s-0.299-1.493-0.896-2.093c-1.193-1.195-2.988-1.195-4.184,0c-0.598,0.6-0.896,1.198-0.896,2.093c0,0.599,0.299,1.491,0.896,2.091
			C37.047,38.572,37.643,38.872,38.538,38.872z"/>
		<path fill="#FFFFFF" d="M38.538,29.904c0.897,0,1.498-0.299,2.093-0.896c0.598-0.598,0.896-1.195,0.896-2.092
			c0-0.6-0.299-1.495-0.896-2.091c-1.193-1.195-2.988-1.195-4.184,0c-0.598,0.599-0.896,1.497-0.896,2.091
			c0,0.598,0.299,1.494,0.896,2.092C37.047,29.605,37.643,29.904,38.538,29.904z"/>
	</g>
</g>
</svg>
