<?xml version="1.0" encoding="iso-8859-1"?>
<!-- Generator: Adobe Illustrator 19.0.0, SVG Export Plug-In . SVG Version: 6.00 Build 0)  -->
<svg xmlns="http://www.w3.org/2000/svg" xmlns:xlink="http://www.w3.org/1999/xlink" version="1.1" id="Capa_1" x="0px" y="0px" viewBox="0 0 512 512" style="enable-background:new 0 0 512 512;" xml:space="preserve" width="512px" height="512px">
<g>
	<g>
		<path d="M472.423,407.687H39.577C17.755,407.687,0,425.442,0,447.264v48.094c0,4.15,3.365,7.515,7.515,7.515h496.971    c4.15,0,7.515-3.365,7.515-7.515v-48.094C512,425.441,494.245,407.687,472.423,407.687z M496.971,487.844H15.029v-33.065h389.594    c4.15,0,7.515-3.365,7.515-7.515c0-4.15-3.365-7.515-7.515-7.515H16.211c3.182-9.87,12.451-17.033,23.367-17.033h432.845    c10.915,0,20.185,7.163,23.367,17.033h-55.763c-4.15,0-7.515,3.365-7.515,7.515c0,4.15,3.365,7.515,7.515,7.515h56.944V487.844z" fill="#e4002b"/>
	</g>
</g>
<g>
	<g>
		<path d="M464.407,335.546c-20.487,0-27.314-19.153-37.617-53.005c-8.161-26.814-18.317-60.186-42.702-86.217    c-24.427-26.076-58.777-40.636-104.541-44.237v-20.491c4.981-5.582,8.016-12.935,8.016-20.987    c0-14.814-10.261-27.269-24.047-30.651V62.012h16.532c4.15,0,7.515-3.365,7.515-7.515s-3.365-7.515-7.515-7.515h-48.094    c-4.15,0-7.515,3.365-7.515,7.515s3.365,7.515,7.515,7.515h16.532v17.944c-13.786,3.381-24.047,15.837-24.047,30.651    c0,8.052,3.035,15.405,8.016,20.987v20.491c-45.764,3.601-80.115,18.161-104.541,44.237    c-24.386,26.032-34.542,59.403-42.702,86.217c-10.303,33.853-17.13,53.005-37.617,53.005c-4.15,0-7.515,3.365-7.515,7.515v48.094    c0,4.151,3.365,7.516,7.515,7.516h416.814c4.15,0,7.515-3.365,7.515-7.515v-48.094    C471.922,338.911,468.557,335.546,464.407,335.546z M256,94.075c9.116,0,16.532,7.416,16.532,16.532    c0,9.116-7.417,16.532-16.532,16.532s-16.532-7.417-16.532-16.532C239.468,101.491,246.884,94.075,256,94.075z M264.517,140.991    v10.195h-17.033v-10.195c2.711,0.761,5.566,1.177,8.517,1.177S261.805,141.753,264.517,140.991z M99.589,286.915    C115.955,233.14,136.324,166.215,256,166.215s140.044,66.925,156.411,120.701c5.65,18.566,11.128,36.54,20.757,48.63H78.831    C88.461,323.457,93.937,305.482,99.589,286.915z M456.892,383.64H55.108v-33.065h401.785V383.64z" fill="#e4002b"/>
	</g>
</g>
<g>
	<g>
		<path d="M206.399,33.712l-12.023-20.826c-2.076-3.595-6.672-4.826-10.265-2.75c-3.594,2.075-4.825,6.671-2.75,10.265    l12.022,20.826c2.208,3.826,7.402,4.914,10.967,2.292C207.394,41.281,208.286,36.981,206.399,33.712z" fill="#e4002b"/>
	</g>
</g>
<g>
	<g>
		<path d="M162.574,72.036l-20.826-12.024c-3.594-2.076-8.19-0.844-10.265,2.75c-2.076,3.595-0.845,8.191,2.75,10.266l20.826,12.023    c3.833,2.214,8.871,0.545,10.644-3.499C167.22,78.093,165.843,73.923,162.574,72.036z" fill="#e4002b"/>
	</g>
</g>
<g>
	<g>
		<path d="M143.781,127.139h-24.047c-4.15,0-7.515,3.365-7.515,7.515s3.365,7.515,7.515,7.515h24.047    c4.15,0,7.515-3.365,7.515-7.515S147.931,127.139,143.781,127.139z" fill="#e4002b"/>
	</g>
</g>
<g>
	<g>
		<path d="M327.89,10.136c-3.594-2.077-8.19-0.844-10.265,2.75l-12.023,20.826c-2.075,3.594-0.844,8.19,2.75,10.265    c3.55,2.05,8.219,0.794,10.265-2.75l12.023-20.826C332.716,16.807,331.484,12.211,327.89,10.136z" fill="#e4002b"/>
	</g>
</g>
<g>
	<g>
		<path d="M380.517,62.764c-2.075-3.594-6.672-4.825-10.265-2.75l-20.826,12.023c-2.795,1.614-4.271,4.94-3.589,8.095    c0.741,3.421,3.855,5.929,7.353,5.929c1.274,0,2.567-0.325,3.75-1.008l20.826-12.023    C381.361,70.954,382.592,66.358,380.517,62.764z" fill="#e4002b"/>
	</g>
</g>
<g>
	<g>
		<path d="M392.266,127.139h-24.047c-4.15,0-7.515,3.365-7.515,7.515s3.365,7.515,7.515,7.515h24.047    c4.15,0,7.515-3.365,7.515-7.515S396.416,127.139,392.266,127.139z" fill="#e4002b"/>
	</g>
</g>
<g>
</g>
<g>
</g>
<g>
</g>
<g>
</g>
<g>
</g>
<g>
</g>
<g>
</g>
<g>
</g>
<g>
</g>
<g>
</g>
<g>
</g>
<g>
</g>
<g>
</g>
<g>
</g>
<g>
</g>
</svg>
