<?xml version="1.0" encoding="utf-8"?>
<!-- Generator: Adobe Illustrator 16.0.0, SVG Export Plug-In . SVG Version: 6.00 Build 0)  -->
<!DOCTYPE svg PUBLIC "-//W3C//DTD SVG 1.1//EN" "http://www.w3.org/Graphics/SVG/1.1/DTD/svg11.dtd">
<svg version="1.1" id="Capa_1" xmlns="http://www.w3.org/2000/svg" xmlns:xlink="http://www.w3.org/1999/xlink" x="0px" y="0px"
	 width="50px" height="50px" viewBox="0 0 50 50" enable-background="new 0 0 50 50" xml:space="preserve">
<g>
	<g>
		<path fill="#E4002B" d="M47.284,17.629C43.452,5.387,30.374-1.455,18.13,2.375C5.887,6.208-0.956,19.286,2.875,31.529l1.505-0.472
			C0.808,19.646,7.187,7.453,18.601,3.879c5.53-1.729,11.402-1.204,16.535,1.481s8.914,7.21,10.643,12.739
			c1.73,5.528,1.205,11.399-1.48,16.533c-2.683,5.138-7.21,8.916-12.736,10.646c-9.254,2.898-19.402-0.764-24.676-8.896L5.563,37.24
			c4.362,6.727,11.826,10.602,19.565,10.602c2.299,0,4.625-0.342,6.902-1.059c5.932-1.857,10.782-5.911,13.665-11.416
			C48.574,29.857,49.14,23.56,47.284,17.629z"/>
	</g>
</g>
<g>
	<g>
		<path fill="#E4002B" d="M16.823,44.767c-5.612,2.662-10.016,3.006-12.078,0.943c-3.573-3.572,0.308-13.954,9.026-24.15
			l-1.198-1.025C3.011,31.719-0.667,42.526,3.63,46.824c1.201,1.201,2.896,1.799,4.999,1.799c2.452,0,5.456-0.813,8.871-2.429
			L16.823,44.767z"/>
	</g>
</g>
<g>
	<g>
		<path fill="#E4002B" d="M43.502,28.554c-0.136-0.255-0.404-0.412-0.694-0.412h-2.666l-2.148-4.296
			c-0.134-0.266-0.404-0.436-0.707-0.436h-7.879c-0.437,0-0.79,0.355-0.79,0.79v6.302c0,0.436,0.354,0.789,0.79,0.789h2.361v8.67
			c0,0.433,0.354,0.785,0.789,0.785h3.938c0.21,0,0.409-0.08,0.558-0.23l3.154-3.151c0.146-0.148,0.23-0.349,0.23-0.558v-2.914
			l3.02-4.527C43.624,29.122,43.638,28.813,43.502,28.554z M38.999,33.222c-0.088,0.129-0.134,0.281-0.134,0.436v2.828l-2.689,2.688
			h-2.829l0,0v-8.669c0-0.436-0.353-0.788-0.789-0.788h-2.361v-4.728H36.8l2.149,4.293c0.135,0.266,0.406,0.434,0.705,0.434h1.681
			L38.999,33.222z"/>
	</g>
</g>
<g>
	<g>
		<path fill="#E4002B" d="M44.05,21.835l-2.924-5.12c-0.138-0.246-0.401-0.397-0.686-0.397h-4.726c-0.265,0-0.511,0.131-0.659,0.351
			l-1.342,2.015h-1.945v-3.941h3.94c0.21,0,0.409-0.082,0.558-0.23l2.92-2.922h3.616v-1.576h-3.943c-0.205,0-0.406,0.083-0.554,0.23
			l-2.921,2.922h-4.399c-0.437,0-0.789,0.353-0.789,0.789v5.515c0,0.436,0.353,0.79,0.789,0.79h3.151
			c0.261,0,0.506-0.132,0.654-0.351l1.345-2.014h3.85l2.927,5.12c0.141,0.248,0.399,0.397,0.683,0.397h3.15v-1.576L44.05,21.835
			L44.05,21.835z"/>
	</g>
</g>
<g>
	<g>
		<path fill="#E4002B" d="M24.678,29.716h-4.4l-2.133-2.132c-0.148-0.149-0.347-0.231-0.558-0.231h-3.94
			c-0.435,0-0.789,0.352-0.789,0.789v5.516c0,0.434,0.354,0.786,0.789,0.786h3.152v7.883c0,0.299,0.17,0.57,0.436,0.705
			c0.111,0.055,0.231,0.083,0.352,0.083c0.167,0,0.333-0.052,0.473-0.158l3.151-2.364c0.198-0.145,0.314-0.383,0.314-0.629v-1.985
			l3.646-2.914c0.188-0.148,0.296-0.375,0.296-0.614V30.51C25.469,30.068,25.116,29.716,24.678,29.716z M23.894,34.066l-3.646,2.916
			c-0.188,0.146-0.295,0.374-0.295,0.612v1.972l-1.576,1.183v-7.092c0-0.435-0.354-0.787-0.79-0.787h-3.151v-3.942h2.826
			l2.133,2.133c0.147,0.148,0.349,0.232,0.558,0.232h3.941V34.066z"/>
	</g>
</g>
<g>
	<g>
		<path fill="#E4002B" d="M8.805,18.278l-2.364-3.941c-0.142-0.237-0.4-0.382-0.675-0.382H4.978v1.578h0.342l1.819,3.029
			l-1.929,1.93c-0.147,0.147-0.23,0.348-0.23,0.557v2.363H2.613v1.577h3.154c0.434,0,0.787-0.353,0.787-0.787v-2.827l2.133-2.133
			C8.942,18.983,8.99,18.588,8.805,18.278z"/>
	</g>
</g>
<g>
	<g>
		<path fill="#E4002B" d="M26.258,2.133v0.96l-2.557,0.638c-0.088,0.022-0.172,0.059-0.246,0.111l-1.983,1.321l-4.32-2.161
			l-0.705,1.41l4.729,2.363c0.111,0.057,0.23,0.084,0.352,0.084c0.153,0,0.306-0.045,0.438-0.132l2.251-1.501l3.02-0.753
			c0.351-0.087,0.598-0.403,0.598-0.766V2.133H26.258z"/>
	</g>
</g>
<path fill="#E4002B" d="M24.005,14.22l2.033-2.014c1.158-1.213,1.797-2.807,1.797-4.555c0-0.435-0.354-0.789-0.787-0.789
	c0,0,0,0-0.005,0c-1.732,0-3.362,0.676-4.588,1.901L20.517,10.7l-7.432-2.23c-0.276-0.084-0.579-0.008-0.783,0.197l-1.577,1.578
	c-0.185,0.183-0.265,0.447-0.217,0.702c0.046,0.255,0.217,0.471,0.455,0.576l6.044,2.687l-1.236,1.237l-2.72-0.681
	c-0.269-0.066-0.551,0.011-0.749,0.208l-1.576,1.577c-0.172,0.172-0.256,0.414-0.226,0.653s0.169,0.457,0.376,0.579l3.772,2.264
	l2.264,3.771c0.124,0.208,0.338,0.348,0.579,0.375c0.031,0.005,0.063,0.008,0.096,0.008c0.208,0,0.409-0.083,0.557-0.232
	l1.576-1.575c0.195-0.197,0.274-0.48,0.207-0.749l-0.68-2.718l1.231-1.219l2.593,6.014c0.101,0.232,0.306,0.402,0.551,0.458
	c0.058,0.012,0.114,0.02,0.174,0.02c0.188,0,0.375-0.069,0.518-0.197l1.672-1.474c0.232-0.203,0.318-0.521,0.234-0.816L24.005,14.22
	z"/>
</svg>
