<?xml version="1.0" encoding="utf-8"?>
<!-- Generator: Adobe Illustrator 16.0.0, SVG Export Plug-In . SVG Version: 6.00 Build 0)  -->
<!DOCTYPE svg PUBLIC "-//W3C//DTD SVG 1.1//EN" "http://www.w3.org/Graphics/SVG/1.1/DTD/svg11.dtd">
<svg version="1.1" id="Capa_1" xmlns="http://www.w3.org/2000/svg" xmlns:xlink="http://www.w3.org/1999/xlink" x="0px" y="0px"
	 width="50px" height="50px" viewBox="0 0 50 50" enable-background="new 0 0 50 50" xml:space="preserve">
<g>
	<path fill="#E4002B" stroke="#E4002B" stroke-width="0.5" stroke-miterlimit="10" d="M34.356,16.795
		c-0.334,0.255-0.397,0.731-0.145,1.064c1.427,1.866,2.181,4.096,2.181,6.449c0,5.863-4.771,10.632-10.634,10.632
		c-5.863,0-10.633-4.769-10.633-10.632c0-5.863,4.77-10.633,10.633-10.633c2.354,0,4.582,0.753,6.448,2.179
		c0.334,0.255,0.811,0.191,1.065-0.142c0.255-0.333,0.191-0.81-0.143-1.065c-2.133-1.629-4.682-2.491-7.371-2.491
		c-6.701,0-12.152,5.451-12.152,12.152c0,6.701,5.451,12.152,12.152,12.152c6.701,0,12.152-5.451,12.152-12.152
		c0-2.689-0.862-5.238-2.492-7.37C35.165,16.605,34.689,16.541,34.356,16.795z"/>
	<path fill="#E4002B" stroke="#E4002B" stroke-width="0.5" stroke-miterlimit="10" d="M25.759,8.106
		c-8.934,0-16.203,7.269-16.203,16.203c0,8.934,7.269,16.203,16.203,16.203c8.935,0,16.202-7.27,16.202-16.203
		C41.961,15.375,34.693,8.106,25.759,8.106z M25.759,38.991c-8.097,0-14.684-6.586-14.684-14.683S17.662,9.625,25.759,9.625
		c8.098,0,14.685,6.587,14.685,14.684S33.856,38.991,25.759,38.991z"/>
	<path fill="#E4002B" stroke="#E4002B" stroke-width="0.5" stroke-miterlimit="10" d="M8.037,8.106c-0.419,0-0.759,0.34-0.759,0.76
		v6.329H5.759V8.866c0-0.42-0.34-0.76-0.76-0.76s-0.76,0.34-0.76,0.76v6.329H2.72V8.866c0-0.42-0.339-0.76-0.759-0.76
		c-0.42,0-0.76,0.34-0.76,0.76v9.114c0,1.834,1.307,3.369,3.038,3.721v18.053c0,0.419,0.34,0.759,0.76,0.759s0.76-0.34,0.76-0.759
		V21.7c1.731-0.352,3.038-1.887,3.038-3.721V8.866C8.797,8.446,8.457,8.106,8.037,8.106z M4.999,20.258
		c-1.256,0-2.279-1.022-2.279-2.278v-1.266h4.558v1.266C7.278,19.236,6.255,20.258,4.999,20.258z"/>
	<path fill="#E4002B" stroke="#E4002B" stroke-width="0.5" stroke-miterlimit="10" d="M48.038,8.106
		c-2.094,0-3.798,1.704-3.798,3.798v13.923c0,0.42,0.34,0.76,0.76,0.76h2.278v13.166c0,0.419,0.341,0.759,0.76,0.759
		s0.759-0.34,0.759-0.759V8.866C48.797,8.446,48.457,8.106,48.038,8.106z M47.278,25.068H45.76V11.904
		c0-0.991,0.636-1.835,1.519-2.148V25.068z"/>
</g>
</svg>
