<?xml version="1.0" encoding="utf-8"?>
<!-- Generator: Adobe Illustrator 16.0.0, SVG Export Plug-In . SVG Version: 6.00 Build 0)  -->
<!DOCTYPE svg PUBLIC "-//W3C//DTD SVG 1.1//EN" "http://www.w3.org/Graphics/SVG/1.1/DTD/svg11.dtd">
<svg version="1.1" id="Capa_1" xmlns="http://www.w3.org/2000/svg" xmlns:xlink="http://www.w3.org/1999/xlink" x="0px" y="0px"
	 width="256px" height="256px" viewBox="0 0 256 256" enable-background="new 0 0 256 256" xml:space="preserve">
<g id="Capa_3">
	
		<linearGradient id="SVGID_1_" gradientUnits="userSpaceOnUse" x1="379.0176" y1="-326.0659" x2="379.0176" y2="-294.7231" gradientTransform="matrix(1 0 0 -1 -247.5996 -113.9902)">
		<stop  offset="0" style="stop-color:#000000"/>
		<stop  offset="1" style="stop-color:#FFFFFF;stop-opacity:0"/>
	</linearGradient>
	<polyline fill="url(#SVGID_1_)" points="88.619,212.076 75.833,180.733 187.001,180.733 175.085,212.076 88.619,212.076 	"/>
</g>
<g>
	<g>
		<rect x="88.75" y="164.75" fill="#FFFFFF" width="82.5" height="47.25"/>
		<g>
			<g>
				<path fill="#FFFFFF" stroke="#FFFFFF" stroke-width="18" stroke-miterlimit="10" d="M154.469,197.538
					c0-0.031-0.002-0.062-0.002-0.093c-1.533-4.066-3.146-8.113-5.22-11.857c-6.207-11.201-15.373-20.409-21.279-31.8
					c0.303,0.585,4.175,1.225,4.796,1.414c0.686,0.21,4.411,0.822,4.767,1.51c3.827,7.382,9.184,13.802,14.08,20.499
					c-0.301-1.962-0.539-3.933-0.643-5.923c0.018,0.327,0.923,0.615,2.168,0.893c-0.139-3.494-0.117-7.099-0.921-10.453
					c-0.827-3.453-2.214-6.725-2.997-10.189c0.35,1.548,9.184,1.248,9.563,2.924c0.895,3.956,2.793,7.698,3.25,11.75
					c0.073,0.646,0.128,1.295,0.177,1.944v-67.148c0-0.632-0.121-1.231-0.176-1.849V64.571c0.11-0.588,0.176-1.19,0.176-1.815
					c0-1.204-0.063-2.39-0.176-3.565V57.82c0-0.001-0.077-0.04-0.215-0.095c-2.326-16.738-15.992-29.639-32.508-29.639
					c-18.134,0-32.896,15.553-32.896,34.667c0,5.224,4.016,9.456,8.973,9.456c4.958,0,8.971-4.231,8.971-9.456
					c0-8.686,6.709-15.758,14.955-15.758c8.246,0,14.955,7.069,14.955,15.758c-0.193,13.162-30.911,18.306-30.911,18.306
					l0.014,0.032c-8.801,1.735-15.479,9.971-15.479,19.918v80.608c0,11.206,8.464,20.287,18.908,20.287h26.496
					c4.261,0,8.176-1.518,11.318-4.076c-0.012-0.031-0.023-0.062-0.035-0.093C154.507,197.669,154.469,197.604,154.469,197.538z"/>
			</g>
		</g>
		<path fill="#4879BD" d="M162.093,58.276c-2.323-16.738-15.992-29.638-32.507-29.638c-18.134,0-32.896,15.553-32.896,34.667
			c0,5.224,4.016,9.455,8.973,9.455c4.958,0,8.971-4.231,8.971-9.455c0-8.687,6.708-15.759,14.955-15.759
			c8.246,0,14.955,7.069,14.955,15.759c-0.193,13.163-30.912,18.306-30.912,18.306l0.015,0.032
			c-8.802,1.735-15.479,9.971-15.479,19.918v80.608c0,11.206,8.464,20.288,18.908,20.288h26.495c9.748,0,17.684-7.943,18.708-18.109
			l0.03,0.063v-0.396c0.055-0.615,0.176-1.213,0.176-1.845V101.56c0-0.633-0.121-1.23-0.176-1.849V65.123
			c0.11-0.588,0.176-1.191,0.176-1.816c0-1.204-0.063-2.389-0.176-3.565v-1.372C162.309,58.371,162.23,58.332,162.093,58.276z"/>
	</g>
</g>
<path fill="#AEBCCE" d="M130.472,132.479c1.98-4.694,6.505-7.974,11.767-7.974c7.088,0,12.194,6.063,12.835,13.289
	c0,0,0.346,1.795-0.415,5.025c-1.039,4.397-3.481,8.305-6.771,11.286l-17.415,15.539l-17.122-15.539
	c-3.29-2.981-5.73-6.889-6.768-11.288c-0.763-3.23-0.417-5.023-0.417-5.023c0.642-7.227,5.746-13.289,12.835-13.289
	C124.262,124.506,128.492,127.785,130.472,132.479z"/>
<path fill="#4879BD" d="M111.974,140.282c-0.542,0-0.981-0.438-0.981-0.98c0-5.412,4.402-9.814,9.813-9.814
	c0.543,0,0.981,0.438,0.981,0.981s-0.438,0.981-0.981,0.981c-4.328,0-7.851,3.521-7.851,7.852
	C112.956,139.845,112.518,140.282,111.974,140.282z"/>
</svg>
