<?xml version="1.0" encoding="utf-8"?>
<!-- Generator: Adobe Illustrator 16.0.0, SVG Export Plug-In . SVG Version: 6.00 Build 0)  -->
<!DOCTYPE svg PUBLIC "-//W3C//DTD SVG 1.1//EN" "http://www.w3.org/Graphics/SVG/1.1/DTD/svg11.dtd">
<svg version="1.1" id="Capa_1" xmlns="http://www.w3.org/2000/svg" xmlns:xlink="http://www.w3.org/1999/xlink" x="0px" y="0px"
	 width="50px" height="50px" viewBox="0 0 50 50" enable-background="new 0 0 50 50" xml:space="preserve">
<g>
	<path fill="#524E86" d="M26.033,40.149c-7.838-0.008-14.157-6.735-14.121-14.994c0.033-8.201,6.345-14.893,14.194-14.856
		c7.77,0.037,14.11,6.707,14.061,15.022C40.115,33.55,33.794,40.149,26.033,40.149 M38.747,25.227
		c0.015-7.322-5.585-13.386-12.628-13.431c-7.067-0.045-12.757,5.975-12.79,13.359c-0.033,7.427,5.628,13.466,12.647,13.495
		C33.096,38.684,38.758,32.583,38.747,25.227"/>
	<path fill="#524E86" d="M26.011,26.42c-0.453-0.027-0.799-0.256-1-0.707c-0.033-0.074-0.074-0.121-0.141-0.156
		c-1.463-0.822-2.925-1.643-4.388-2.463c-0.218-0.121-0.375-0.293-0.446-0.542c-0.104-0.375-0.016-0.703,0.258-0.965
		c0.26-0.247,0.636-0.292,0.949-0.118c0.391,0.215,0.778,0.435,1.166,0.653c1.111,0.624,2.221,1.245,3.331,1.871
		c0.064,0.038,0.127,0.046,0.204,0.045c0.122-0.002,0.248,0.006,0.367,0.031c0.073,0.015,0.129,0.008,0.189-0.032
		c0.877-0.55,1.754-1.098,2.631-1.648c1.88-1.177,3.766-2.354,5.645-3.533c0.25-0.157,0.512-0.194,0.778-0.078
		c0.326,0.14,0.512,0.405,0.538,0.773c0.028,0.363-0.113,0.653-0.411,0.844c-0.425,0.271-0.852,0.537-1.281,0.805
		c-2.428,1.52-4.857,3.039-7.286,4.559c-0.061,0.04-0.106,0.084-0.146,0.144C26.74,26.244,26.422,26.411,26.011,26.42"/>
	<path fill="#524E86" d="M35.433,31.501c-0.053-0.019-0.11-0.027-0.159-0.059c-0.606-0.368-1.21-0.737-1.817-1.108
		c-0.146-0.09-0.19-0.274-0.107-0.421c0.078-0.138,0.25-0.188,0.394-0.1c0.478,0.291,0.958,0.582,1.434,0.876
		c0.134,0.081,0.27,0.16,0.398,0.244c0.146,0.098,0.183,0.283,0.086,0.425C35.608,31.446,35.534,31.486,35.433,31.501"/>
	<path fill="#524E86" d="M31.18,35.691c-0.069-0.004-0.149-0.054-0.205-0.147c-0.042-0.075-0.081-0.152-0.123-0.229
		c-0.301-0.551-0.6-1.103-0.898-1.653c-0.03-0.052-0.056-0.107-0.068-0.165c-0.024-0.138,0.043-0.268,0.16-0.322
		c0.122-0.057,0.261-0.022,0.345,0.095c0.018,0.023,0.031,0.052,0.047,0.081c0.337,0.616,0.672,1.235,1.009,1.847
		c0.045,0.084,0.074,0.166,0.054,0.264C31.467,35.601,31.354,35.694,31.18,35.691"/>
	<path fill="#524E86" d="M20.107,15.54c0.014-0.144,0.089-0.25,0.212-0.292c0.114-0.038,0.239,0.006,0.311,0.108
		c0.016,0.023,0.028,0.047,0.041,0.072c0.338,0.619,0.676,1.239,1.012,1.856c0.047,0.084,0.08,0.172,0.053,0.271
		c-0.034,0.117-0.108,0.19-0.221,0.217c-0.109,0.024-0.2-0.014-0.271-0.102c-0.02-0.023-0.035-0.053-0.05-0.079
		c-0.34-0.623-0.68-1.245-1.018-1.868C20.145,15.667,20.13,15.601,20.107,15.54"/>
	<path fill="#524E86" d="M16.677,31.236c-0.158,0-0.266-0.077-0.304-0.196c-0.042-0.12-0.006-0.256,0.089-0.331
		c0.023-0.022,0.049-0.038,0.075-0.054c0.587-0.356,1.173-0.715,1.76-1.065c0.055-0.036,0.125-0.063,0.189-0.065
		c0.121-0.01,0.224,0.079,0.265,0.202c0.039,0.12,0.003,0.249-0.094,0.326c-0.026,0.023-0.057,0.041-0.087,0.06
		c-0.579,0.352-1.158,0.706-1.739,1.056C16.773,31.202,16.708,31.223,16.677,31.236"/>
	<path fill="#524E86" d="M21.972,33.446c-0.019,0.055-0.03,0.111-0.057,0.162c-0.346,0.636-0.694,1.274-1.042,1.906
		c-0.073,0.133-0.181,0.189-0.3,0.167c-0.126-0.023-0.215-0.121-0.236-0.254c-0.013-0.085,0.015-0.156,0.052-0.226
		c0.194-0.355,0.386-0.71,0.58-1.067c0.144-0.259,0.287-0.521,0.43-0.784c0.022-0.034,0.042-0.071,0.068-0.107
		c0.079-0.094,0.204-0.126,0.317-0.08C21.89,33.208,21.961,33.318,21.972,33.446"/>
	<path fill="#524E86" d="M30.424,17.785c-0.226-0.003-0.358-0.21-0.292-0.402c0.016-0.032,0.028-0.065,0.047-0.095
		c0.334-0.612,0.668-1.224,1.003-1.837c0.018-0.03,0.033-0.063,0.057-0.089c0.084-0.118,0.239-0.151,0.36-0.082
		c0.125,0.073,0.178,0.23,0.127,0.37c-0.013,0.03-0.027,0.058-0.04,0.084c-0.341,0.619-0.677,1.238-1.014,1.857
		C30.608,17.708,30.525,17.784,30.424,17.785"/>
	<path fill="#524E86" d="M18.768,20.856c0.001,0.214-0.194,0.356-0.384,0.281c-0.032-0.014-0.061-0.031-0.09-0.048
		c-0.581-0.355-1.161-0.709-1.742-1.062c-0.023-0.015-0.044-0.027-0.066-0.043c-0.12-0.091-0.156-0.261-0.084-0.393
		c0.071-0.135,0.224-0.19,0.361-0.128c0.022,0.01,0.046,0.025,0.069,0.04c0.586,0.357,1.173,0.715,1.76,1.07
		C18.695,20.637,18.768,20.72,18.768,20.856"/>
	<path fill="#524E86" d="M16.259,25.522c-0.353,0-0.707,0.003-1.062,0c-0.2-0.004-0.326-0.187-0.272-0.384
		c0.029-0.113,0.124-0.199,0.234-0.209c0.019-0.005,0.038-0.001,0.056-0.001c0.694,0,1.385-0.003,2.078,0
		c0.038,0,0.076,0.001,0.112,0.012c0.133,0.043,0.211,0.176,0.193,0.323c-0.018,0.147-0.126,0.252-0.267,0.26
		c-0.029,0.003-0.061,0-0.09,0C16.915,25.522,16.586,25.522,16.259,25.522"/>
	<path fill="#524E86" d="M26.323,35.574c0,0.344,0,0.684,0,1.024c0,0.038,0,0.074-0.001,0.107c-0.015,0.156-0.12,0.271-0.263,0.281
		c-0.145,0.007-0.264-0.085-0.298-0.237c-0.005-0.023-0.008-0.048-0.008-0.071c-0.001-0.74-0.002-1.481,0-2.22
		c0-0.151,0.074-0.254,0.2-0.302c0.164-0.054,0.337,0.057,0.363,0.235c0.006,0.045,0.006,0.089,0.006,0.132
		C26.323,34.875,26.323,35.223,26.323,35.574"/>
	<path fill="#524E86" d="M26.323,14.897c0,0.341,0,0.684,0,1.025c0,0.037,0.001,0.072-0.001,0.106
		c-0.013,0.169-0.124,0.283-0.277,0.286c-0.15,0.002-0.271-0.111-0.29-0.275c-0.004-0.032-0.002-0.064-0.002-0.096
		c0-0.699,0-1.399,0.002-2.101c0-0.056,0.002-0.111,0.018-0.164c0.038-0.137,0.164-0.219,0.296-0.205
		c0.136,0.017,0.235,0.121,0.25,0.263c0.005,0.047,0.005,0.096,0.005,0.143C26.323,14.221,26.323,14.559,26.323,14.897"/>
	<path fill="#524E86" d="M35.814,25.522c-0.346,0-0.691,0-1.039,0c-0.129,0.003-0.225-0.058-0.276-0.183
		c-0.078-0.192,0.047-0.401,0.244-0.413c0.021-0.003,0.043,0,0.068,0c0.674,0,1.347-0.003,2.02,0c0.046,0,0.094,0,0.135,0.012
		c0.135,0.041,0.216,0.179,0.197,0.332c-0.019,0.138-0.132,0.249-0.273,0.251C36.529,25.525,36.175,25.522,35.814,25.522"/>
	<path fill="#524E86" d="M48.346,24.643c0,4.799,0.002,9.601-0.003,14.407c0,0.986-0.61,1.792-1.464,1.955
		c-0.951,0.182-1.893-0.294-2.13-1.24c-0.151-0.602-0.1-1.279-0.049-1.914c0.195-2.416,0.424-4.826,0.641-7.243
		c0.087-0.95,0.161-1.902,0.269-2.852c0.074-0.671-0.067-1.256-0.487-1.758c-0.358-0.432-0.532-0.931-0.532-1.498
		c0.002-2.973-0.019-5.947,0.021-8.92c0.021-1.655,0.15-3.313,0.71-4.88c0.181-0.499,0.452-0.985,0.774-1.396
		c0.405-0.517,0.978-0.614,1.492-0.373c0.554,0.262,0.762,0.729,0.762,1.356C48.343,15.072,48.346,19.858,48.346,24.643"/>
	<path fill="#524E86" d="M4.363,13.648c0,1.366-0.001,2.734,0.002,4.101c0.001,0.293-0.084,0.698,0.358,0.688
		c0.438-0.009,0.344-0.421,0.345-0.707c0.006-2.751,0.003-5.503,0.004-8.254c0-0.104-0.033-0.229,0.011-0.303
		c0.082-0.137,0.208-0.245,0.317-0.364C5.485,8.93,5.638,9.049,5.647,9.177c0.041,0.664,0.056,1.333,0.066,1.999
		c0.035,2.169,0.063,4.339,0.094,6.509c0.002,0.119-0.033,0.261,0.016,0.354c0.083,0.156,0.217,0.282,0.331,0.419
		c0.123-0.146,0.342-0.285,0.351-0.439c0.037-0.681,0.017-1.365,0.011-2.05C6.5,13.816,6.485,11.664,6.467,9.51
		c0-0.051-0.02-0.111,0-0.151c0.09-0.188,0.19-0.369,0.286-0.549c0.109,0.18,0.27,0.347,0.314,0.544
		c0.069,0.311,0.063,0.643,0.09,0.966c0.173,2.092,0.344,4.184,0.519,6.273c0.062,0.73,0.128,1.461,0.191,2.192
		c0.071,0.832-0.128,1.584-0.563,2.282c-0.356,0.568-0.68,1.16-1.023,1.739c-0.411,0.69-0.543,1.43-0.488,2.246
		c0.161,2.403,0.28,4.81,0.418,7.209c0.121,2.116,0.237,4.229,0.374,6.34c0.067,1.041-0.328,1.855-1.131,2.221
		c-1.275,0.588-2.686-0.442-2.619-1.936c0.082-1.793,0.207-3.581,0.311-5.37c0.12-2.063,0.24-4.124,0.359-6.188
		c0.045-0.765,0.065-1.534,0.136-2.301c0.074-0.815-0.086-1.559-0.493-2.248c-0.307-0.521-0.606-1.049-0.935-1.555
		c-0.538-0.825-0.729-1.722-0.64-2.719c0.27-3.042,0.522-6.085,0.782-9.127c0.006-0.067-0.004-0.153,0.028-0.2
		c0.096-0.131,0.212-0.249,0.319-0.37C2.792,8.947,2.96,9.086,2.961,9.225c0.01,1.023-0.018,2.05-0.024,3.075
		c-0.013,1.844-0.019,3.692-0.024,5.537c0,0.134-0.018,0.307,0.052,0.393c0.089,0.11,0.347,0.236,0.374,0.205
		c0.125-0.146,0.268-0.341,0.271-0.522c0.05-2.102,0.074-4.204,0.108-6.304c0.013-0.734,0.031-1.47,0.059-2.205
		c0.009-0.233-0.097-0.586,0.276-0.588c0.361-0.005,0.304,0.332,0.304,0.577C4.365,10.812,4.363,12.229,4.363,13.648"/>
</g>
</svg>
