<?xml version="1.0" encoding="utf-8"?>
<!-- Generator: Adobe Illustrator 16.0.0, SVG Export Plug-In . SVG Version: 6.00 Build 0)  -->
<!DOCTYPE svg PUBLIC "-//W3C//DTD SVG 1.1//EN" "http://www.w3.org/Graphics/SVG/1.1/DTD/svg11.dtd">
<svg version="1.1" id="Capa_1" xmlns="http://www.w3.org/2000/svg" xmlns:xlink="http://www.w3.org/1999/xlink" x="0px" y="0px"
	 width="50px" height="50px" viewBox="0 0 50 50" enable-background="new 0 0 50 50" xml:space="preserve">
<g>
	<g>
		<path fill="#E4002B" d="M29.461,35.558h-7.766c-0.431,0-0.776,0.358-0.776,0.801v5.59c0,0.441,0.345,0.801,0.776,0.801h7.766
			c0.43,0,0.776-0.359,0.776-0.801v-5.59C30.237,35.916,29.889,35.558,29.461,35.558z M28.682,41.151h-6.211v-3.998h6.211V41.151z"
			/>
	</g>
</g>
<g>
	<g>
		<rect x="24.799" y="36.358" fill="#E4002B" width="1.555" height="5.59"/>
	</g>
</g>
<g>
	<g>
		<path fill="#E4002B" d="M33.344,4.403H17.808c-0.428,0-0.776,0.358-0.776,0.799v36.746c0,0.442,0.349,0.802,0.776,0.802h15.536
			c0.427,0,0.775-0.359,0.775-0.802V5.202C34.119,4.761,33.771,4.403,33.344,4.403z M32.567,41.151H18.584V6.001h13.983V41.151z"/>
	</g>
</g>
<g>
	<g>
		<path fill="#E4002B" d="M17.808,7.6h-6.213c-0.429,0-0.776,0.357-0.776,0.799V41.95c0,0.442,0.347,0.804,0.776,0.804h6.213
			c0.43,0,0.778-0.361,0.778-0.804V8.398C18.586,7.958,18.239,7.6,17.808,7.6z M17.032,41.151h-4.658V9.196h4.658V41.151z"/>
	</g>
</g>
<g>
	<g>
		<rect x="9.265" y="7.6" fill="#E4002B" width="2.33" height="1.596"/>
	</g>
</g>
<g>
	<g>
		<rect x="15.479" y="4.403" fill="#E4002B" width="20.195" height="1.598"/>
	</g>
</g>
<g>
	<g>
		<rect x="20.14" y="31.565" fill="#E4002B" width="1.553" height="2.396"/>
	</g>
</g>
<g>
	<g>
		<rect x="23.248" y="31.565" fill="#E4002B" width="1.553" height="2.396"/>
	</g>
</g>
<g>
	<g>
		<rect x="26.354" y="31.565" fill="#E4002B" width="1.555" height="2.396"/>
	</g>
</g>
<g>
	<g>
		<rect x="29.461" y="31.565" fill="#E4002B" width="1.552" height="2.396"/>
	</g>
</g>
<g>
	<g>
		<rect x="20.14" y="27.57" fill="#E4002B" width="1.553" height="2.396"/>
	</g>
</g>
<g>
	<g>
		<rect x="23.248" y="27.57" fill="#E4002B" width="1.553" height="2.396"/>
	</g>
</g>
<g>
	<g>
		<rect x="26.354" y="27.57" fill="#E4002B" width="1.555" height="2.396"/>
	</g>
</g>
<g>
	<g>
		<rect x="29.461" y="27.57" fill="#E4002B" width="1.552" height="2.396"/>
	</g>
</g>
<g>
	<g>
		<rect x="20.14" y="23.575" fill="#E4002B" width="1.553" height="2.396"/>
	</g>
</g>
<g>
	<g>
		<rect x="23.248" y="23.575" fill="#E4002B" width="1.553" height="2.396"/>
	</g>
</g>
<g>
	<g>
		<rect x="26.354" y="23.575" fill="#E4002B" width="1.555" height="2.396"/>
	</g>
</g>
<g>
	<g>
		<rect x="29.461" y="23.575" fill="#E4002B" width="1.552" height="2.396"/>
	</g>
</g>
<g>
	<g>
		<rect x="20.14" y="19.582" fill="#E4002B" width="1.553" height="2.396"/>
	</g>
</g>
<g>
	<g>
		<rect x="23.248" y="19.582" fill="#E4002B" width="1.553" height="2.396"/>
	</g>
</g>
<g>
	<g>
		<rect x="26.354" y="19.582" fill="#E4002B" width="1.555" height="2.396"/>
	</g>
</g>
<g>
	<g>
		<rect x="29.461" y="19.582" fill="#E4002B" width="1.552" height="2.396"/>
	</g>
</g>
<g>
	<g>
		<rect x="20.14" y="15.587" fill="#E4002B" width="1.553" height="2.397"/>
	</g>
</g>
<g>
	<g>
		<rect x="23.248" y="15.587" fill="#E4002B" width="1.553" height="2.397"/>
	</g>
</g>
<g>
	<g>
		<rect x="26.354" y="15.587" fill="#E4002B" width="1.555" height="2.397"/>
	</g>
</g>
<g>
	<g>
		<rect x="29.461" y="15.587" fill="#E4002B" width="1.552" height="2.397"/>
	</g>
</g>
<g>
	<g>
		<rect x="20.14" y="11.593" fill="#E4002B" width="1.553" height="2.396"/>
	</g>
</g>
<g>
	<g>
		<rect x="23.248" y="11.593" fill="#E4002B" width="1.553" height="2.396"/>
	</g>
</g>
<g>
	<g>
		<rect x="26.354" y="11.593" fill="#E4002B" width="1.555" height="2.396"/>
	</g>
</g>
<g>
	<g>
		<rect x="29.461" y="11.593" fill="#E4002B" width="1.552" height="2.396"/>
	</g>
</g>
<g>
	<g>
		<rect x="20.14" y="7.6" fill="#E4002B" width="1.553" height="2.396"/>
	</g>
</g>
<g>
	<g>
		<rect x="23.248" y="7.6" fill="#E4002B" width="1.553" height="2.396"/>
	</g>
</g>
<g>
	<g>
		<rect x="26.354" y="7.6" fill="#E4002B" width="1.555" height="2.396"/>
	</g>
</g>
<g>
	<g>
		<rect x="29.461" y="7.6" fill="#E4002B" width="1.552" height="2.396"/>
	</g>
</g>
<g>
	<g>
		<rect x="13.927" y="35.558" fill="#E4002B" width="1.552" height="2.397"/>
	</g>
</g>
<g>
	<g>
		<rect x="13.927" y="31.565" fill="#E4002B" width="1.552" height="2.396"/>
	</g>
</g>
<g>
	<g>
		<rect x="13.927" y="27.57" fill="#E4002B" width="1.552" height="2.396"/>
	</g>
</g>
<g>
	<g>
		<rect x="13.927" y="23.575" fill="#E4002B" width="1.552" height="2.396"/>
	</g>
</g>
<g>
	<g>
		<rect x="13.927" y="19.582" fill="#E4002B" width="1.552" height="2.396"/>
	</g>
</g>
<g>
	<g>
		<rect x="13.927" y="15.587" fill="#E4002B" width="1.552" height="2.397"/>
	</g>
</g>
<g>
	<g>
		<rect x="13.927" y="11.593" fill="#E4002B" width="1.552" height="2.396"/>
	</g>
</g>
<g>
	<g>
		<path fill="#E4002B" d="M39.557,7.6h-6.213c-0.431,0-0.776,0.357-0.776,0.799V41.95c0,0.442,0.346,0.804,0.776,0.804h6.213
			c0.43,0,0.777-0.361,0.777-0.804V8.398C40.334,7.958,39.986,7.6,39.557,7.6z M38.779,41.151h-4.66V9.196h4.66V41.151z"/>
	</g>
</g>
<g>
	<g>
		<rect x="39.557" y="7.6" fill="#E4002B" width="2.33" height="1.596"/>
	</g>
</g>
<g>
	<g>
		<rect x="35.674" y="35.558" fill="#E4002B" width="1.554" height="2.397"/>
	</g>
</g>
<g>
	<g>
		<rect x="35.674" y="31.565" fill="#E4002B" width="1.554" height="2.396"/>
	</g>
</g>
<g>
	<g>
		<rect x="35.674" y="27.57" fill="#E4002B" width="1.554" height="2.396"/>
	</g>
</g>
<g>
	<g>
		<rect x="35.674" y="23.575" fill="#E4002B" width="1.554" height="2.396"/>
	</g>
</g>
<g>
	<g>
		<rect x="35.674" y="19.582" fill="#E4002B" width="1.554" height="2.396"/>
	</g>
</g>
<g>
	<g>
		<rect x="35.674" y="15.587" fill="#E4002B" width="1.554" height="2.397"/>
	</g>
</g>
<g>
	<g>
		<rect x="35.674" y="11.593" fill="#E4002B" width="1.554" height="2.396"/>
	</g>
</g>
<g>
	<g>
		<rect x="2.276" y="41.151" fill="#E4002B" width="9.319" height="1.598"/>
	</g>
</g>
<g>
	<g>
		<rect x="39.557" y="41.151" fill="#E4002B" width="9.319" height="1.598"/>
	</g>
</g>
<g>
	<g>
		<rect x="5.385" y="25.174" fill="#E4002B" width="1.551" height="16.774"/>
	</g>
</g>
<g>
	<g>
		<polygon fill="#E4002B" points="2.586,27.411 3.519,26.131 9.731,30.925 8.801,32.201 		"/>
	</g>
</g>
<g>
	<g>
		<polygon fill="#E4002B" points="2.585,30.928 8.798,26.134 9.73,27.411 3.518,32.205 		"/>
	</g>
</g>
<g>
	<g>
		<rect x="44.216" y="25.174" fill="#E4002B" width="1.556" height="16.774"/>
	</g>
</g>
<g>
	<g>
		<polygon fill="#E4002B" points="41.421,27.411 42.352,26.134 48.564,30.928 47.631,32.201 		"/>
	</g>
</g>
<g>
	<g>
		<polygon fill="#E4002B" points="41.415,30.928 47.631,26.137 48.561,27.415 42.347,32.205 		"/>
	</g>
</g>
</svg>
