<?xml version="1.0" encoding="utf-8"?>
<!-- Generator: Adobe Illustrator 16.0.0, SVG Export Plug-In . SVG Version: 6.00 Build 0)  -->
<!DOCTYPE svg PUBLIC "-//W3C//DTD SVG 1.1//EN" "http://www.w3.org/Graphics/SVG/1.1/DTD/svg11.dtd">
<svg version="1.1" id="Capa_1" xmlns="http://www.w3.org/2000/svg" xmlns:xlink="http://www.w3.org/1999/xlink" x="0px" y="0px"
	 width="50px" height="50px" viewBox="0 0 50 50" enable-background="new 0 0 50 50" xml:space="preserve">
<g>
	<path fill="#FFFFFF" d="M23.326,3.576v13.085c0,0.697-2.16,2.398-3.603,3.458v3.859c0.743,0.256,1.28,0.953,1.28,1.783v20.482
		c0,1.046-0.848,1.896-1.896,1.896h-1.328c-1.046,0-1.896-0.851-1.896-1.896V25.762c0-0.83,0.538-1.528,1.281-1.785V20.16
		c-1.533-1.056-3.888-2.792-3.888-3.499V3.576c0-1.047,0.507-1.896,1.641-1.896h0.676v13.65c0,0.325,0.413,0.588,0.923,0.588
		c0.509,0,0.922-0.263,0.922-0.588V1.679h1.709v13.65c0,0.325,0.413,0.588,0.923,0.588c0.51,0,0.924-0.263,0.924-0.588V1.679h0.279
		C22.407,1.679,23.326,2.528,23.326,3.576z M33.902,2.013c0,0-5.047,3.299-5.047,12.033c0,0.726,0,1.29,0,1.728
		c0,8.619,1.895,12.416,3.166,14.612v16.354c0,0.774,0.627,1.399,1.4,1.399h0.98c0.775,0,1.402-0.625,1.402-1.399V29.563
		c0.023-0.121,0.038-0.248,0.038-0.377V3.954C35.843,2.881,35.423,1.398,33.902,2.013z"/>
</g>
</svg>
