<?xml version="1.0" encoding="utf-8"?>
<!-- Generator: Adobe Illustrator 16.0.0, SVG Export Plug-In . SVG Version: 6.00 Build 0)  -->
<!DOCTYPE svg PUBLIC "-//W3C//DTD SVG 1.1//EN" "http://www.w3.org/Graphics/SVG/1.1/DTD/svg11.dtd">
<svg version="1.1" id="Capa_1" xmlns="http://www.w3.org/2000/svg" xmlns:xlink="http://www.w3.org/1999/xlink" x="0px" y="0px"
	 width="50px" height="50px" viewBox="0 0 50 50" enable-background="new 0 0 50 50" xml:space="preserve">
<g>
	<g>
		<g>
			<path fill="#345067" d="M25.436,28.77c12.606,0,15.13-5.972,15.111-5.979C38.719-2.266,27.629,11.841,25.436,11.841
				c-2.194,0-13.284-14.107-15.111,10.948C10.305,22.797,12.828,28.77,25.436,28.77z"/>
			<path fill="#345067" d="M43.029,23.918c-0.842,1.922-2.584,3.641-5.102,4.992c-3.361,1.801-7.797,2.793-12.493,2.793
				c-4.697,0-9.133-0.992-12.491-2.793c-2.52-1.352-4.261-3.07-5.104-4.992c-3.411,1.809-5.469,4.145-5.469,6.696
				c0,5.721,10.327,10.358,23.064,10.358c12.738,0,23.064-4.639,23.064-10.358C48.5,28.063,46.441,25.727,43.029,23.918z"/>
		</g>
	</g>
</g>
</svg>
