<?xml version="1.0" encoding="utf-8"?>
<!-- Generator: Adobe Illustrator 16.0.0, SVG Export Plug-In . SVG Version: 6.00 Build 0)  -->
<!DOCTYPE svg PUBLIC "-//W3C//DTD SVG 1.1//EN" "http://www.w3.org/Graphics/SVG/1.1/DTD/svg11.dtd">
<svg version="1.1" xmlns="http://www.w3.org/2000/svg" xmlns:xlink="http://www.w3.org/1999/xlink" x="0px" y="0px" width="256px"
	 height="256px" viewBox="-78 -78 256 256" enable-background="new -78 -78 256 256" xml:space="preserve">
<g id="Capa_3">
	<linearGradient id="SVGID_1_" gradientUnits="userSpaceOnUse" x1="51.25" y1="133.167" x2="51.25" y2="102.2314">
		<stop  offset="0" style="stop-color:#000000"/>
		<stop  offset="1" style="stop-color:#FFFFFF;stop-opacity:0"/>
	</linearGradient>
	<polyline fill="url(#SVGID_1_)" points="-45.061,133.167 -73.834,102.231 176.335,102.231 149.52,133.167 -45.061,133.167 	"/>
	<g>
		<g>
			<path fill="#FFFFFF" stroke="#FFFFFF" stroke-width="16" stroke-miterlimit="10" d="M118.354,115.002
				c-4.405-5.361-12.108-10.09-22.07-13.624c-0.351-0.065-0.665-0.176-0.963-0.303c-0.558-0.123-1.086-0.294-1.559-0.527
				c0.008,0.013,0.012,0.027,0.02,0.039c-0.055-0.093-1.421-0.397-1.41-0.395c-0.253-0.074-0.504-0.152-0.756-0.228
				c-1.215-0.226-2.433-0.486-3.643-0.789c-0.898,0.214-1.657,0.887-1.915,1.84c-0.245,0.897,0.019,1.809,0.604,2.447
				c2.055,0.53,4.075,1.146,6.028,1.835c4.017,1.416,9.25,2.634,12.435,5.718c1.714,0.97,3.289,1.981,4.682,3.036H-4.876
				c4.565-3.446,10.946-6.512,18.589-8.878c11.315-3.506,24.711-5.357,38.745-5.357c8.062,0,15.907,0.63,23.366,1.838
				c0.671,0.045,1.346,0.101,2.02,0.173c1.078-0.164,1.983-0.99,2.179-2.126c0.242-1.417-0.712-2.764-2.13-3.005
				c-2.008-0.343-4.043-0.644-6.103-0.902c0-0.005,0-0.012,0.001-0.017c-0.478-0.034-0.927-0.119-1.36-0.251
				c-0.196-0.014-0.391-0.035-0.585-0.053c-0.286-0.005-0.576-0.005-0.852-0.027c-0.115-0.008-0.347-0.023-0.606-0.05
				c-0.551-0.037-1.096-0.097-1.622-0.228c-0.063-0.016-0.104-0.045-0.159-0.064c-0.002,0.046-0.003,0.09-0.005,0.137
				c-1.875-0.168-3.767-0.299-5.673-0.399c-1.819,0.011-4.187,0.008-5.746-0.007c-0.547,0.002-1.094,0.007-1.641,0.007
				c-1.034,0-2.068-0.004-3.102-0.013c-0.394,0.035-0.872-0.005-1.196-0.002c-1.179,0.012-2.357,0.015-3.536,0.015
				c-0.585,0-1.17-0.005-1.755-0.007c-11.442,0.605-22.297,2.425-31.781,5.364c-11.803,3.656-20.659,8.775-25.61,14.803
				c-0.639,0.778-0.772,1.855-0.342,2.767c0.431,0.909,1.348,1.492,2.354,1.492h127.767c1.006,0,1.922-0.583,2.353-1.492
				C119.127,116.857,118.993,115.78,118.354,115.002z"/>
			<path fill="#FFFFFF" stroke="#FFFFFF" stroke-width="16" stroke-miterlimit="10" d="M2.243,9.211
				c-0.478,7.181,2.806,14.143,9.761,20.7c0.494,0.463,1.136,0.709,1.787,0.709c0.329,0,0.663-0.064,0.979-0.192
				c0.944-0.383,1.578-1.28,1.621-2.299l0.821-18.917c7.715,9.802,24.431,36.413,26.951,85.208c0.863-0.006,1.725-0.011,2.588-0.011
				c0.876,0,1.752,0.005,2.628,0.011C47.664,60.6,39.218,37.3,32.33,23.597C25.836,10.677,19.577,3.709,17.54,1.624l0.214-4.93
				C20.932-0.561,28.272,7.43,35.24,19.854c8.076,14.399,17.983,38.908,20.017,74.559c0.429-0.001,0.856-0.005,1.285-0.005
				c1.179,0,2.357,0.003,3.535,0.015c0.041,0,0.201,0.016,0.397,0.032c-2.057-36.993-12.411-62.471-20.852-77.433
				c-3.418-6.063-6.781-10.911-9.698-14.653l16.341,8.521c0.379,0.198,0.791,0.295,1.204,0.295c0.568,0,1.133-0.185,1.6-0.549
				c0.803-0.626,1.168-1.663,0.936-2.654c-2.198-9.3-6.586-15.628-13.039-18.806c-0.663-0.326-1.328-0.609-1.999-0.856
				c13.938-3.301,25.81-4.057,25.979-4.068c0.993-0.06,1.866-0.679,2.247-1.597c0.382-0.917,0.209-1.973-0.446-2.72
				c-5.434-6.185-14.83-9.496-23.94-8.433c-5.662,0.66-10.885,2.869-15.422,6.438c5.88-11.75,12.688-17.516,12.777-17.591
				c0.872-0.717,1.182-1.912,0.77-2.962c-0.412-1.05-1.455-1.71-2.58-1.648c-10.361,0.62-17.935,4.325-21.906,10.715
				c-3.042,4.894-3.426,10.522-2.6,15.833c-4.186-3.371-9.251-5.857-15.009-5.671c-7.519,0.24-14.516,4.946-20.238,13.606
				c-0.621,0.939-0.565,2.169,0.135,3.052c0.7,0.882,1.89,1.214,2.945,0.823c0.112-0.041,8.512-3.057,21.634-2.267
				c-5.364,2.143-9.89,5.563-13.295,10.136c-5.477,7.355-7.313,17.148-4.677,24.946c0.318,0.94,1.146,1.62,2.132,1.748
				c0.112,0.014,0.223,0.021,0.335,0.021c0.865,0,1.686-0.433,2.172-1.167c0.094-0.144,6.688-10.045,16.521-20.458
				C2.381,7.757,2.292,8.477,2.243,9.211z M43.035,3.332L22.307-7.478c3.542-0.622,8.165-0.74,12.358,1.324
				C38.268-4.379,41.069-1.201,43.035,3.332z M39.412-23.327c0.946-0.111,1.896-0.165,2.841-0.165c4.316,0,8.537,1.124,11.997,3.139
				c-7.307,0.844-19.854,2.772-32.269,6.92C26.703-19.098,32.71-22.546,39.412-23.327z M16.869-30.799
				c2.094-3.369,5.662-5.772,10.488-7.112c-3.625,4.433-8.358,11.466-12.023,21.28C14.088-22.324,14.598-27.143,16.869-30.799z
				 M12.475-1.782L11.463,21.55C8.529,17.591,7.179,13.586,7.438,9.59C7.736,4.944,10.159,0.988,12.475-1.782z M-5.149-13.542
				c-4.449,0-8.247,0.393-11.25,0.882c3.574-3.507,7.44-5.394,11.404-5.521c4.299-0.138,8.729,1.833,13.037,5.758
				C3.199-13.236-1.227-13.542-5.149-13.542z M-14.654,19.413c-0.018-4.881,1.681-10.083,4.85-14.338
				c4.029-5.411,10.018-8.887,17.29-10.14C-2.319,3.607-10.266,13.506-14.654,19.413z"/>
			<path fill="#FFFFFF" stroke="#FFFFFF" stroke-miterlimit="10" d="M108.331,32.615c-4.316-8.558-16.021-12.649-24.487-15.71
				c-4.672-1.689-9.483-2.894-14.265-4.212c-0.35-0.097-0.697-0.191-1.043-0.283c0.099-0.82,0.203-1.638,0.362-2.444
				c0.139-1.046,0.498-2.027,1.058-2.95c0.561,0.205,1.146,0.367,1.776,0.455c5.398,0.752,9.162-0.602,12.422-5.055
				c5.534-7.561-0.408-16.005-7.73-18.857c-1.678-0.654-3.757-0.882-5.952-0.775c-2.179-0.664-4.448-1.105-6.604-1.871
				c-6.736-2.393-15.122-4.698-20.897,1.077c-2.84,2.84-3.796,6.382-4.041,10.11c-2.815-0.111-5.664,0.025-8.486,0.418
				c-0.217-0.166-0.432-0.333-0.648-0.499c-0.434-0.306-0.842-0.645-1.263-0.968c0.142-1.281,0.107-2.88,0.562-3.858
				c1.508-3.247,3.943-6.242,6.359-8.848c2.804-3.025,6.006-5.66,8.827-8.724c1.036-0.967,1.942-2.046,2.72-3.239
				c0.244-0.579,0.418-0.952,0.531-1.142c0.047-0.007,0.095-0.015,0.143-0.022c-0.005,0.086-0.022,0.208-0.06,0.391
				c-0.234,0.202,0.349-0.124,1.075-0.557C60.69-36.966,57.673-57.219,45.5-56.5c-1.042,0.062-1.997,0.195-2.893,0.381
				c1.811-0.679,1.136-0.675-2.031,0.012c-1.245,0.458-2.454,0.995-3.627,1.609c-2.474,1.237-4.668,3.761-5.893,5.22
				c-0.618,0.737-2.676,1.462-3.608,2.112c-2.187,1.524-4.701,4.459-5.737,5.703c1.162-1.395-2.536,1.676-3.408,2.444
				c0.592-0.627,0.396-0.558-0.588,0.206c-1.829,1.187-3.589,2.871-4.711,4.761c-1.977,3.33-2.614,5.676-5.03,8.238
				c-4.771,2.437-7.954,4.999-15.579,5.251c-7.476,0.247-15.008,0.206-22.495-0.075c-1.552-0.118-3.114-0.196-4.731-0.196
				c-14.266,0-14.081,21.271,0,22C-33.418,1.24-32,1.282-30.583,1.333c2.065,0.153,4.097,0.393,6.365,0.639
				c0.325,0.135,0.698,0.291,1.126,0.468c0.613,0.334,1.264,0.534,1.95,0.614c0,0.028,0.001,0.051,0.001,0.081
				c0.037,2.284-0.198,3.466-0.898,5.572c-0.696,2.095-1.326,4.17-2.016,6.228c-0.275,0.293-0.468,0.503-0.496,0.545
				c-1.427,2.151-2.46,4.621-3.182,7.097c-0.31,1.064-0.495,1.777-0.596,2.238c-0.141,0.194-0.33,0.487-0.587,0.925
				c-1.35,2.296-2.184,4.738-2.251,7.427c-0.192,7.657,9.78,14.63,16.552,9.498c4.056-3.073,6.041-6.28,7.401-11.142
				c-0.645,2.305,1.798-4.051,1.895-4.271c0.025-0.057,0.047-0.113,0.072-0.17c0.726-0.726,1.375-1.525,1.888-2.4
				c0.495-1.107,0.831-1.87,1.022-2.319c0.915-0.246,1.818-0.538,2.73-0.882c0.723-0.015,1.458-0.043,2.195-0.088
				c-0.011,0.063-0.017,0.119-0.028,0.183c-0.707,3.777-0.421,6.878,0.576,10.111c-0.06,1.941-0.178,3.883,0.031,5.813
				c0.533,4.942,2.973,9.204,8.076,10.607c1.843,0.507,3.764,0.479,5.57,0.021c0.148,0.611,0.3,1.253,0.456,1.963
				c0.049,0.225,0.091,0.414,0.128,0.581c-0.047-0.047-0.045,0.273,0.104,1.495c0.102,0.835,1,4.89,1,5.42
				c0,3.986,0.355,7.853,0.802,11.811c0.438,3.881,0.198,7.87,0.198,11.77c0-0.323-0.256,2.834-0.162,3.005
				c-0.354,0.352-0.7,0.712-1.071,1.046c-1.091,1.021-2.743,2.738-3.327,3.99c-0.228,0.477-0.439,0.96-0.652,1.442
				c-0.261,0.213-0.561,0.458-0.899,0.738c-1.839,1.525-3.154,3.643-5.106,4.947c-6.543,4.37-7.689,14.887,0,18.996
				c7.76,4.147,19.153,2.32,27.476,0.775c5.123-0.951,10.365-1.157,15.5-2.25c5.054-1.075,9.805-3.034,14.812-4.243
				c4.354-1.051,8.672-1.947,13.021-3.111c3.452-0.924,7.131,1.997,10.742,1.997c5.345,0,10.487-3.385,13.498-7.448
				c0.596-1.23,1.098-2.498,1.504-3.8c0.185-1.005,0.309-1.744,0.378-2.234c1.239-2.613,1.997-5.225,2.188-8.184
				c0.118-1.821,0.371-1.964,0.667-4.987c-0.232,2.375,0.677-2.889,0.718-3.089c1.095-5.271,2.16-9.298,2.548-14.758
				c0.365-5.16,0.211-10.359,0.465-15.532C112.082,42.693,110.939,37.786,108.331,32.615z M41.445,71.119
				C41.283,66.11,40.5,61.206,40.5,56.167c0-1.109-1.12-4.984-1.161-5.321c-0.333-2.736-0.059-5.697-0.899-7.937
				c-0.536-1.428-0.769-2.23-1.346-4.765c-0.28-1.233-0.928-3.528-0.928-4.311c0.045-1.104-0.024-2.2-0.205-3.288
				c0.358-0.007,0.717-0.014,1.08-0.004c0.858,0.024,1.426,0.12,2.143,0.299c0.142,0.247,0.318,0.582,0.526,1.044
				c1.988,4.423,7.364,7.104,12.2,6.921c0.525,1.237,1.055,2.472,1.538,3.711c0.071,0.184,0.144,0.368,0.215,0.552
				c-0.309,2.188-0.5,4.358-0.48,6.59c0.055,6.183,0.707,12.361,1.317,18.508c0.337,3.393,0.647,6.761,1.235,10.124
				c0.459,2.627,1.432,4.512,1.432,7.209c0,1.239,0.155,2.46,0.315,3.684c-1.221,0.342-2.439,0.712-3.668,1.141
				c-4.813,1.681-9.647,2.556-14.588,3.243C42.247,86.776,41.684,78.537,41.445,71.119z M63.542,94.792
				c0,0.056-5.522,0.07-8.359,0.043c-0.547,0.002-1.094,0.007-1.641,0.007c-1.034,0-2.068-0.004-3.102-0.013
				c-0.394,0.035-0.872-0.005-1.196-0.002c-1.179,0.012-2.357,0.015-3.536,0.015s-2.357-0.003-3.536-0.015
				c-0.328-0.003-1.107-0.123-1.464-0.035c0.356-0.088,0.698-0.206,1.042-0.334c0.338-0.126,1.157-0.032,1.464-0.035
				c1.179-0.012,2.357-0.015,3.536-0.015s2.357,0.003,3.536,0.015c0.428,0.003,0.857,0.01,1.286,0.021
				c0.004,0,0.008,0.001,0.012,0.001c0.301-0.112,1.224-0.021,1.424-0.022c1.178-0.012,2.356-0.015,3.535-0.015
				s2.357,0.003,3.535,0.015c0.124,0.001,1.274,0.135,1.465,0.035c-0.216,0.113-0.453,0.185-0.697,0.241
				c1.533,0.008,2.697,0.025,2.697,0.051V94.792z M77.445,38.693c0.047-0.239,0.081-0.475,0.116-0.711
				c0.145,0.046,0.289,0.092,0.434,0.138c1.323,0.42,6.32,2.694,8.866,3.978c0.034,0.017,1.514,0.884,2.278,1.349
				c0.109,0.238,0.242,0.518,0.42,0.88c0.077,0.196,0.164,0.389,0.243,0.584c-0.07,4.059-0.303,8.109-0.303,12.171
				c0,2.314-0.003,4.609-0.166,6.919c0.285,0.738,0.207,1.318-0.232,1.743c-0.119,0.388-1.247,6.355-0.542,3.833
				c-0.568,2.031-1.112,4.023-1.58,6.086c-0.083,0.76-0.224,1.509-0.42,2.248l-0.393,2.924c0.125-1.241,0.033-1.105-0.274,0.409
				c0.429-1.649-0.612,2.951-0.566,3.961c-0.687-0.121-1.37-0.226-2.055-0.312c0.575-4.12,0.481-8.445-0.519-12.374
				c-1.106-4.348-1.99-8.129-2.223-12.712c-0.291-5.725,0.299-11.332-2.282-16.655c-0.396-0.815-0.868-1.56-1.351-2.296
				C77.11,40.132,77.306,39.407,77.445,38.693z M92.372,100.192c-0.206-0.061-0.41-0.124-0.616-0.186
				c-2.182-0.401-4.378-0.958-6.502-1.549c-4.121-0.872-8.144-2.162-12.139-3.5c2.237,0.749,6.37,1.836,9.229,2.793
				c-5.003-1.676-7.313-2.399-7.959-2.598c-0.25-0.073-0.275-0.084,0,0c0.285,0.085,0.859,0.25,1.607,0.449
				c0.816,0.218,1.63,0.396,2.456,0.567c1.167,0.242,2.306,0.489,3.453,0.812c-0.22-0.059-0.439-0.117-0.66-0.176
				c0.648,0.129,1.284,0.287,1.919,0.457c0.201,0.03,0.4,0.06,0.601,0.088c0.113,0.017,0.224,0.047,0.336,0.067
				c-0.007-0.017-0.018-0.03-0.023-0.047c0.007,0.016,0.096,0.048,0.221,0.086c0.854,0.166,1.697,0.416,2.532,0.713
				c0.681,0.205,1.363,0.407,2.043,0.615c1.127,0.345,2.253,0.692,3.377,1.048c0.005,0.001,1.335,0.332,1.39,0.462
				c0.036,0.104,0.085,0.201,0.146,0.292C93.728,100.494,92.361,100.189,92.372,100.192z"/>
			<path fill="#FFFFFF" stroke="#FFFFFF" stroke-miterlimit="10" d="M90.292,99.227c0.651,0.201,1.304,0.4,1.954,0.606
				c0.005,0.001,1.335,0.332,1.39,0.462c0.036,0.104,0.085,0.201,0.146,0.292c-0.055-0.093-1.421-0.397-1.41-0.395
				c-0.237-0.069-0.473-0.144-0.71-0.214c-1.162-0.218-2.328-0.465-3.487-0.752H-44.338v33.523h193.777V99.227H90.292z"/>
		</g>
	</g>
	<g>
		<path fill="#FFFFFF" stroke="#FFFFFF" stroke-width="16" stroke-miterlimit="10" d="M93.754,100.53
			c0.011,0.019,0.017,0.039,0.028,0.057c-0.055-0.093-1.421-0.397-1.41-0.395c-0.21-0.062-0.419-0.127-0.629-0.189
			c-2.177-0.401-4.369-0.955-6.489-1.545c-1.339-0.283-2.665-0.62-3.985-0.979c-0.054-0.004-0.106-0.002-0.165-0.018
			c-0.85-0.219-1.862-0.244-2.676-0.642c-0.216,0.043-0.427,0.098-0.614,0.181c-0.388-0.039-0.782-0.082-1.143-0.089
			c-2.851-0.054-3.12,3.91-0.839,4.743c4.643,0.311,9.394,1.296,13.896,2.677c0.812-0.376,1.306-1.274,1.343-2.204
			c0.054-0.105,0.114-0.207,0.152-0.315l1.981,0.183c0.687,0.064,1.29-0.386,1.589-1.05
			C94.421,100.839,94.079,100.694,93.754,100.53z"/>
		<path fill="#FFFFFF" stroke="#FFFFFF" stroke-width="16" stroke-miterlimit="10" d="M129.066,15.321l-4.33-4.969
			c-1.506-1.728-4.369-3.235-6.517-3.437L100.515,5.28l0.173-1.857c0.281-3.071-1.673-5.773-4.357-6.023
			c-2.684-0.248-5.099,2.051-5.382,5.122L90.776,4.38L74.549,2.878c-2.684-0.249-5.099,2.051-5.384,5.123l-1.028,11.14
			c-0.286,3.073,1.668,5.774,4.352,6.022l16.229,1.501l-0.347,3.713l-17.701-1.637c-2.15-0.199-5.242,0.758-7.038,2.183l-5.17,4.089
			c-1.115,0.883-1.832,2.215-1.963,3.656c-0.133,1.44,0.325,2.881,1.26,3.952l4.331,4.969c1.505,1.728,4.37,3.238,6.517,3.438
			l17.706,1.635L82.21,97.022c0.317,0.074,0.635,0.156,0.95,0.24c0.201,0.03,0.4,0.06,0.601,0.088
			c0.112,0.017,0.224,0.047,0.336,0.067c-0.007-0.017-0.018-0.03-0.023-0.047c0.007,0.016,0.095,0.048,0.219,0.085
			c0.861,0.168,1.71,0.42,2.551,0.719c0.676,0.203,1.352,0.404,2.026,0.61c1.127,0.345,2.253,0.692,3.377,1.048
			c0.003,0.001,0.381,0.095,0.742,0.203c-0.54-0.455-0.929-1.059-1.041-1.899l-0.02-0.004l0.028-0.313
			c0.007-0.029,0-0.067,0.01-0.093l4.083-44.164l16.227,1.501c2.683,0.247,5.1-2.05,5.382-5.117l1.031-11.145
			c0.285-3.071-1.67-5.774-4.351-6.022l-16.229-1.501l0.343-3.715l17.706,1.639c2.148,0.198,5.242-0.759,7.035-2.182l5.171-4.091
			c1.116-0.882,1.828-2.213,1.963-3.655C130.46,17.833,130.001,16.392,129.066,15.321z M94.192,2.821
			c0.096-1.022,0.9-1.789,1.795-1.706c0.895,0.083,1.544,0.984,1.451,2.005L97.265,4.98l-3.242-0.3L94.192,2.821z M88.679,97.832
			l-3.243-0.302l4.122-44.567l3.245,0.299L88.679,97.832z M113.993,36.492c0.894,0.084,1.544,0.983,1.449,2.009l-1.028,11.146
			c-0.096,1.021-0.899,1.784-1.795,1.701L68.95,47.31c-1.419-0.129-3.526-1.243-4.521-2.38l-4.331-4.97
			c-0.263-0.302-0.387-0.651-0.355-0.992c0.032-0.342,0.221-0.666,0.531-0.91l5.17-4.092c1.186-0.935,3.462-1.645,4.88-1.512
			L113.993,36.492z M91.616,30.678l0.344-3.714l3.245,0.3l-0.343,3.714L91.616,30.678z M126.549,19.884l-5.168,4.091
			c-1.184,0.938-3.464,1.643-4.879,1.512l-43.67-4.038c-0.893-0.083-1.546-0.983-1.451-2.008l1.031-11.14
			c0.094-1.026,0.9-1.791,1.796-1.708l43.669,4.04c1.414,0.13,3.525,1.242,4.519,2.379l4.331,4.97
			c0.261,0.301,0.388,0.655,0.354,0.992C127.053,19.314,126.861,19.637,126.549,19.884z"/>
		<path fill="#FFFFFF" stroke="#FFFFFF" stroke-width="16" stroke-miterlimit="10" d="M80.679,42.776l27.588,2.55
			c0.897,0.083,1.696-0.679,1.792-1.705c0.094-1.027-0.552-1.924-1.449-2.006l-27.588-2.55c-0.896-0.083-1.697,0.679-1.792,1.707
			C79.135,41.796,79.781,42.693,80.679,42.776z"/>
		<path fill="#FFFFFF" stroke="#FFFFFF" stroke-width="16" stroke-miterlimit="10" d="M66.247,39.571
			c-0.097,1.025,0.555,1.92,1.454,2.005l6.487,0.6c0.897,0.082,1.699-0.68,1.794-1.706c0.095-1.028-0.554-1.925-1.449-2.008
			l-6.489-0.599C67.146,37.78,66.342,38.542,66.247,39.571z"/>
		<path fill="#FFFFFF" stroke="#FFFFFF" stroke-width="16" stroke-miterlimit="10" d="M119.125,16.366l-17.849-1.651
			c-0.896-0.083-1.7,0.682-1.792,1.707c-0.096,1.027,0.55,1.924,1.447,2.008l17.85,1.651c0.897,0.083,1.7-0.684,1.798-1.708
			C120.672,17.347,120.021,16.449,119.125,16.366z"/>
		<path fill="#FFFFFF" stroke="#FFFFFF" stroke-width="16" stroke-miterlimit="10" d="M94.785,14.115l-16.227-1.502
			c-0.894-0.083-1.7,0.684-1.796,1.709c-0.092,1.025,0.559,1.923,1.452,2.006l16.227,1.501c0.897,0.083,1.699-0.682,1.794-1.708
			C96.331,15.097,95.68,14.198,94.785,14.115z"/>
	</g>
	<polygon fill="#62A2CC" points="58.375,37.5 69.875,30.5 114.75,35.25 116.875,37.375 115,52.5 110.75,53.25 66.875,48.625 
		57.625,39.625 	"/>
	<g id="Capa_5">
		<polygon fill="#3588BC" points="24,99 74,98.25 105.25,107.5 113.25,115 110,116.75 -10.5,117.5 -8.5,111.5 		"/>
	</g>
	<polygon fill="#1B6D9B" points="13.75,-16.5 13.375,-31.125 24.25,-38.5 28.625,-39.125 17.5,-16.875 21.625,-15.75 35,-24.75 
		52.5,-22.5 54.75,-19.875 22.75,-11.875 20,-8.875 31.875,-8.5 42.875,-0.375 44.625,5 20,-6 14.875,-6.125 13.5,-2.5 
		12.375,22.875 10.125,23.25 4.375,7 7.5,-3 -14.75,20.125 -17.25,19.625 -12.75,3.5 6.125,-11.75 -18.5,-11.25 -17.25,-17.125 
		-5.5,-20.625 	"/>
	<g>
		<g>
			<path fill="#4879BD" d="M2.243,9.211c-0.478,7.181,2.806,14.143,9.761,20.7c0.494,0.463,1.136,0.709,1.787,0.709
				c0.329,0,0.663-0.064,0.979-0.192c0.944-0.383,1.578-1.28,1.621-2.299l0.821-18.917c7.715,9.802,24.431,36.413,26.951,85.208
				c0.863-0.006,1.725-0.011,2.588-0.011c0.876,0,1.752,0.005,2.628,0.011C47.664,60.6,39.218,37.3,32.33,23.597
				C25.836,10.677,19.577,3.709,17.54,1.624l0.214-4.93C20.932-0.561,28.272,7.43,35.24,19.854
				c8.076,14.399,17.983,38.908,20.017,74.559c0.429-0.001,0.856-0.005,1.285-0.005c1.179,0,2.357,0.003,3.535,0.015
				c0.041,0,0.201,0.016,0.397,0.032c-2.057-36.993-12.411-62.471-20.852-77.433c-3.418-6.063-6.781-10.911-9.698-14.653
				l16.341,8.521c0.379,0.198,0.791,0.295,1.204,0.295c0.568,0,1.133-0.185,1.6-0.549c0.803-0.626,1.168-1.663,0.936-2.654
				c-2.198-9.3-6.586-15.628-13.039-18.806c-0.663-0.326-1.328-0.609-1.999-0.856c13.938-3.301,25.81-4.057,25.979-4.068
				c0.993-0.06,1.866-0.679,2.247-1.597c0.382-0.917,0.209-1.973-0.446-2.72c-5.434-6.185-14.83-9.496-23.94-8.433
				c-5.662,0.66-10.885,2.869-15.422,6.438c5.88-11.75,12.688-17.516,12.777-17.591c0.872-0.717,1.182-1.912,0.77-2.962
				c-0.412-1.05-1.455-1.71-2.58-1.648c-10.361,0.62-17.935,4.325-21.906,10.715c-3.042,4.894-3.426,10.522-2.6,15.833
				c-4.186-3.371-9.251-5.857-15.009-5.671c-7.519,0.24-14.516,4.946-20.238,13.606c-0.621,0.939-0.565,2.169,0.135,3.052
				c0.7,0.882,1.89,1.214,2.945,0.823c0.112-0.041,8.512-3.057,21.634-2.267c-5.364,2.143-9.89,5.563-13.295,10.136
				c-5.477,7.355-7.313,17.148-4.677,24.946c0.318,0.94,1.146,1.62,2.132,1.748c0.112,0.014,0.223,0.021,0.335,0.021
				c0.865,0,1.686-0.433,2.172-1.167c0.094-0.144,6.688-10.045,16.521-20.458C2.381,7.757,2.292,8.477,2.243,9.211z M43.035,3.332
				L22.307-7.478c3.542-0.622,8.165-0.74,12.358,1.324C38.268-4.379,41.069-1.201,43.035,3.332z M39.412-23.327
				c0.946-0.111,1.896-0.165,2.841-0.165c4.316,0,8.537,1.124,11.997,3.139c-7.307,0.844-19.854,2.772-32.269,6.92
				C26.703-19.098,32.71-22.546,39.412-23.327z M16.869-30.799c2.094-3.369,5.662-5.772,10.488-7.112
				c-3.625,4.433-8.358,11.466-12.023,21.28C14.088-22.324,14.598-27.143,16.869-30.799z M12.475-1.782L11.463,21.55
				C8.529,17.591,7.179,13.586,7.438,9.59C7.736,4.944,10.159,0.988,12.475-1.782z M-5.149-13.542c-4.449,0-8.247,0.393-11.25,0.882
				c3.574-3.507,7.44-5.394,11.404-5.521c4.299-0.138,8.729,1.833,13.037,5.758C3.199-13.236-1.227-13.542-5.149-13.542z
				 M-14.654,19.413c-0.018-4.881,1.681-10.083,4.85-14.338c4.029-5.411,10.018-8.887,17.29-10.14
				C-2.319,3.607-10.266,13.506-14.654,19.413z"/>
			<path fill="#366EB2" d="M118.354,115.002c-4.405-5.361-12.108-10.09-22.07-13.624c-0.351-0.065-0.665-0.176-0.963-0.303
				c-0.558-0.123-1.086-0.294-1.559-0.527c0.008,0.013,0.012,0.027,0.02,0.039c-0.055-0.093-1.421-0.397-1.41-0.395
				c-0.253-0.074-0.504-0.152-0.756-0.228c-1.215-0.226-2.433-0.486-3.643-0.789c-0.898,0.214-1.657,0.887-1.915,1.84
				c-0.245,0.897,0.019,1.809,0.604,2.447c2.055,0.53,4.075,1.146,6.028,1.835c4.017,1.416,9.25,2.634,12.435,5.718
				c1.714,0.97,3.289,1.981,4.682,3.036H-4.876c4.565-3.446,10.946-6.512,18.589-8.878c11.315-3.506,24.711-5.357,38.745-5.357
				c8.062,0,15.907,0.63,23.366,1.838c0.671,0.045,1.346,0.101,2.02,0.173c1.078-0.164,1.983-0.99,2.179-2.126
				c0.242-1.417-0.712-2.764-2.13-3.005c-2.008-0.343-4.043-0.644-6.103-0.902c0-0.005,0-0.012,0.001-0.017
				c-0.478-0.034-0.927-0.119-1.36-0.251c-0.196-0.014-0.391-0.035-0.585-0.053c-0.286-0.005-0.576-0.005-0.852-0.027
				c-0.115-0.008-0.347-0.023-0.606-0.05c-0.551-0.037-1.096-0.097-1.622-0.228c-0.063-0.016-0.104-0.045-0.159-0.064
				c-0.002,0.046-0.003,0.09-0.005,0.137c-1.875-0.168-3.767-0.299-5.673-0.399c-1.819,0.011-4.187,0.008-5.746-0.007
				c-0.547,0.002-1.094,0.007-1.641,0.007c-1.034,0-2.068-0.004-3.102-0.013c-0.394,0.035-0.872-0.005-1.196-0.002
				c-1.179,0.012-2.357,0.015-3.536,0.015c-0.585,0-1.17-0.005-1.755-0.007c-11.442,0.605-22.297,2.425-31.781,5.364
				c-11.803,3.656-20.659,8.775-25.61,14.803c-0.639,0.778-0.772,1.855-0.342,2.767c0.431,0.909,1.348,1.492,2.354,1.492h127.767
				c1.006,0,1.922-0.583,2.353-1.492C119.127,116.857,118.993,115.78,118.354,115.002z"/>
		</g>
	</g>
	<polygon fill="#A7B8C6" points="70,20.5 72,5.125 119.875,9.75 128.125,17.25 127.875,20.875 122.125,25.375 117.875,27.625 
		72.375,23 	"/>
	<g>
		<path fill="#366EB2" d="M93.754,100.53c0.011,0.019,0.017,0.039,0.028,0.057c-0.055-0.093-1.421-0.397-1.41-0.395
			c-0.21-0.062-0.419-0.127-0.629-0.189c-2.177-0.401-4.369-0.955-6.489-1.545c-1.339-0.283-2.665-0.62-3.985-0.979
			c-0.054-0.004-0.106-0.002-0.165-0.018c-0.85-0.219-1.862-0.244-2.676-0.642c-0.216,0.043-0.427,0.098-0.614,0.181
			c-0.388-0.039-0.782-0.082-1.143-0.089c-2.851-0.054-3.12,3.91-0.839,4.743c4.643,0.311,9.394,1.296,13.896,2.677
			c0.812-0.376,1.306-1.274,1.343-2.204c0.054-0.105,0.114-0.207,0.152-0.315l1.981,0.183c0.687,0.064,1.29-0.386,1.589-1.05
			C94.421,100.839,94.079,100.694,93.754,100.53z"/>
		<path fill="#4879BD" d="M129.066,15.321l-4.33-4.969c-1.506-1.728-4.369-3.235-6.517-3.437L100.515,5.28l0.173-1.857
			c0.281-3.071-1.673-5.773-4.357-6.023c-2.684-0.248-5.099,2.051-5.382,5.122L90.776,4.38L74.549,2.878
			c-2.684-0.249-5.099,2.051-5.384,5.123l-1.028,11.14c-0.286,3.073,1.668,5.774,4.352,6.022l16.229,1.501l-0.347,3.713
			l-17.701-1.637c-2.15-0.199-5.242,0.758-7.038,2.183l-5.17,4.089c-1.115,0.883-1.832,2.215-1.963,3.656
			c-0.133,1.44,0.325,2.881,1.26,3.952l4.331,4.969c1.505,1.728,4.37,3.238,6.517,3.438l17.706,1.635L82.21,97.022
			c0.317,0.074,0.635,0.156,0.95,0.24c0.201,0.03,0.4,0.06,0.601,0.088c0.112,0.017,0.224,0.047,0.336,0.067
			c-0.007-0.017-0.018-0.03-0.023-0.047c0.007,0.016,0.095,0.048,0.219,0.085c0.861,0.168,1.71,0.42,2.551,0.719
			c0.676,0.203,1.352,0.404,2.026,0.61c1.127,0.345,2.253,0.692,3.377,1.048c0.003,0.001,0.381,0.095,0.742,0.203
			c-0.54-0.455-0.929-1.059-1.041-1.899l-0.02-0.004l0.028-0.313c0.007-0.029,0-0.067,0.01-0.093l4.083-44.164l16.227,1.501
			c2.683,0.247,5.1-2.05,5.382-5.117l1.031-11.145c0.285-3.071-1.67-5.774-4.351-6.022l-16.229-1.501l0.343-3.715l17.706,1.639
			c2.148,0.198,5.242-0.759,7.035-2.182l5.171-4.091c1.116-0.882,1.828-2.213,1.963-3.655
			C130.46,17.833,130.001,16.392,129.066,15.321z M94.192,2.821c0.096-1.022,0.9-1.789,1.795-1.706
			c0.895,0.083,1.544,0.984,1.451,2.005L97.265,4.98l-3.242-0.3L94.192,2.821z M88.679,97.832l-3.243-0.302l4.122-44.567
			l3.245,0.299L88.679,97.832z M113.993,36.492c0.894,0.084,1.544,0.983,1.449,2.009l-1.028,11.146
			c-0.096,1.021-0.899,1.784-1.795,1.701L68.95,47.31c-1.419-0.129-3.526-1.243-4.521-2.38l-4.331-4.97
			c-0.263-0.302-0.387-0.651-0.355-0.992c0.032-0.342,0.221-0.666,0.531-0.91l5.17-4.092c1.186-0.935,3.462-1.645,4.88-1.512
			L113.993,36.492z M91.616,30.678l0.344-3.714l3.245,0.3l-0.343,3.714L91.616,30.678z M126.549,19.884l-5.168,4.091
			c-1.184,0.938-3.464,1.643-4.879,1.512l-43.67-4.038c-0.893-0.083-1.546-0.983-1.451-2.008l1.031-11.14
			c0.094-1.026,0.9-1.791,1.796-1.708l43.669,4.04c1.414,0.13,3.525,1.242,4.519,2.379l4.331,4.97
			c0.261,0.301,0.388,0.655,0.354,0.992C127.053,19.314,126.861,19.637,126.549,19.884z"/>
		<path fill="#286BBC" d="M80.679,42.776l27.588,2.55c0.897,0.083,1.696-0.679,1.792-1.705c0.094-1.027-0.552-1.924-1.449-2.006
			l-27.588-2.55c-0.896-0.083-1.697,0.679-1.792,1.707C79.135,41.796,79.781,42.693,80.679,42.776z"/>
		<path fill="#286BBC" d="M66.247,39.571c-0.097,1.025,0.555,1.92,1.454,2.005l6.487,0.6c0.897,0.082,1.699-0.68,1.794-1.706
			c0.095-1.028-0.554-1.925-1.449-2.008l-6.489-0.599C67.146,37.78,66.342,38.542,66.247,39.571z"/>
		<path fill="#286BBC" d="M119.125,16.366l-17.849-1.651c-0.896-0.083-1.7,0.682-1.792,1.707c-0.096,1.027,0.55,1.924,1.447,2.008
			l17.85,1.651c0.897,0.083,1.7-0.684,1.798-1.708C120.672,17.347,120.021,16.449,119.125,16.366z"/>
		<path fill="#286BBC" d="M94.785,14.115l-16.227-1.502c-0.894-0.083-1.7,0.684-1.796,1.709c-0.092,1.025,0.559,1.923,1.452,2.006
			l16.227,1.501c0.897,0.083,1.699-0.682,1.794-1.708C96.331,15.097,95.68,14.198,94.785,14.115z"/>
	</g>
</g>
<g id="Layer_1">
	<g id="_x23_948d89ff">
	</g>
	<g id="Capa_4">
	</g>
</g>
</svg>
