<?xml version="1.0" encoding="utf-8"?>
<!-- Generator: Adobe Illustrator 16.0.0, SVG Export Plug-In . SVG Version: 6.00 Build 0)  -->
<!DOCTYPE svg PUBLIC "-//W3C//DTD SVG 1.1//EN" "http://www.w3.org/Graphics/SVG/1.1/DTD/svg11.dtd">
<svg version="1.1" id="Capa_1" xmlns="http://www.w3.org/2000/svg" xmlns:xlink="http://www.w3.org/1999/xlink" x="0px" y="0px"
	 width="512px" height="512px" viewBox="0 0 512 512" enable-background="new 0 0 512 512" xml:space="preserve">
<g>
	<path fill="#E4002B" stroke="#E4002B" stroke-miterlimit="10" d="M256.499,219.161c29.881,0,54.195-24.314,54.195-54.187
		c0-29.873-24.313-54.187-54.195-54.187c-29.873,0-54.187,24.314-54.187,54.187C202.312,194.846,226.618,219.161,256.499,219.161z
		 M256.499,126.269c21.35,0,38.712,17.363,38.712,38.705c0,21.342-17.362,38.705-38.712,38.705
		c-21.342,0-38.705-17.363-38.705-38.705C217.794,143.632,235.157,126.269,256.499,126.269z"/>
	<path fill="#E4002B" stroke="#E4002B" stroke-miterlimit="10" d="M405.738,304.317h-55.434l23.587-34.06
		c44.549-59.388,38.101-156.994-13.787-208.874c-28.029-28.038-65.311-43.481-104.975-43.481c-39.649,0-76.93,15.443-104.968,43.481
		c-51.887,51.88-58.335,149.494-13.964,208.642l23.749,34.301h-58.158L17.009,482.359h473.508L405.738,304.317z M148.76,260.964
		c-40.246-53.67-34.479-141.816,12.354-188.642c25.112-25.112,58.506-38.945,94.021-38.945c35.523,0,68.91,13.833,94.03,38.945
		c46.833,46.825,52.6,134.979,12.177,188.874L255.129,414.572l-76.35-110.255l0,0L148.76,260.964z M111.572,319.8h59.096
		l84.461,121.975L339.59,319.8h56.362l70.041,147.078H41.532L111.572,319.8z"/>
</g>
</svg>
