<?xml version="1.0" encoding="utf-8"?>
<!-- Generator: Adobe Illustrator 16.0.0, SVG Export Plug-In . SVG Version: 6.00 Build 0)  -->
<!DOCTYPE svg PUBLIC "-//W3C//DTD SVG 1.1//EN" "http://www.w3.org/Graphics/SVG/1.1/DTD/svg11.dtd">
<svg version="1.1" xmlns="http://www.w3.org/2000/svg" xmlns:xlink="http://www.w3.org/1999/xlink" x="0px" y="0px" width="256px"
	 height="256px" viewBox="-78 -78 256 256" enable-background="new -78 -78 256 256" xml:space="preserve">
<g id="Capa_3">
	<linearGradient id="SVGID_1_" gradientUnits="userSpaceOnUse" x1="51.25" y1="133.167" x2="51.25" y2="102.2314">
		<stop  offset="0" style="stop-color:#000000"/>
		<stop  offset="1" style="stop-color:#FFFFFF;stop-opacity:0"/>
	</linearGradient>
	<polyline fill="url(#SVGID_1_)" points="-45.061,133.167 -73.834,102.231 176.335,102.231 149.52,133.167 -45.061,133.167 	"/>
	<polygon fill="#FFFFFF" stroke="#FFFFFF" stroke-width="25" stroke-miterlimit="10" points="103.461,64.266 80.737,64.266 
		52.759,104.67 24.779,64.266 1.102,64.266 -25.834,120.832 130.396,120.832 	"/>
	<path fill="#FFFFFF" d="M72.5-5.167c-2.335-1.614-5.622-1.581-8.364-2.083c-3.28-0.601-6.454-0.917-9.796-0.917
		c-2.691,0-5.44-0.667-8.26-0.667c-3.831,0-7.453-0.393-11.247-0.667c0.591,0.042-1.133,35.918,0,36
		c3.269,0.236,6.365,0.667,9.667,0.667c2.891,0,5.936-0.406,8.667,0.667c0.886,0.348,2.703,0,3.666,0c1.978,0,4.075,0.232,6,0.667
		c3.107,0.701,7.003,0.491,9.667,2.333c-0.159-0.11,0.13-5.525,0.127-5.272c0.043-4.243,0.053-8.485,0.053-12.728
		s-0.01-8.485-0.053-12.728C72.628,0.19,72.852-4.924,72.5-5.167z"/>
	<path fill="#FFFFFF" stroke="#FFFFFF" stroke-width="35" stroke-miterlimit="10" d="M87.379-22.058L87.379-22.058
		c-19.119-19.119-50.119-19.119-69.242,0l0,0C0.908-4.829-1.031,27.61,13.589,47.104l39.169,56.565l39.168-56.565
		C106.548,27.61,104.608-4.829,87.379-22.058z M53.235,28.249c-8.928,0-16.162-7.236-16.162-16.162
		c0-8.927,7.234-16.162,16.162-16.162c8.927,0,16.161,7.235,16.161,16.162C69.396,21.013,62.158,28.249,53.235,28.249z"/>
	<polygon fill="#629ADD" points="103.461,62.495 80.737,62.495 52.759,102.9 24.779,62.495 1.102,62.495 -25.834,119.063 
		130.396,119.063 	"/>
	<path fill="#4879BD" d="M87.379-22.828L87.379-22.828c-19.119-19.119-50.119-19.119-69.242,0l0,0
		C0.908-5.599-1.031,26.841,13.589,46.335L52.759,102.9l39.168-56.565C106.548,26.841,104.608-5.599,87.379-22.828z M53.235,27.479
		c-8.928,0-16.162-7.236-16.162-16.162c0-8.927,7.234-16.162,16.162-16.162c8.927,0,16.161,7.235,16.161,16.162
		C69.396,20.243,62.158,27.479,53.235,27.479z"/>
</g>
<g id="Layer_1">
	<g id="_x23_948d89ff">
	</g>
	<g id="Capa_4">
	</g>
</g>
</svg>
