<?xml version="1.0" encoding="utf-8"?>
<!-- Generator: Adobe Illustrator 16.0.0, SVG Export Plug-In . SVG Version: 6.00 Build 0)  -->
<!DOCTYPE svg PUBLIC "-//W3C//DTD SVG 1.1//EN" "http://www.w3.org/Graphics/SVG/1.1/DTD/svg11.dtd">
<svg version="1.1" id="Capa_1" xmlns="http://www.w3.org/2000/svg" xmlns:xlink="http://www.w3.org/1999/xlink" x="0px" y="0px"
	 width="256px" height="256px" viewBox="0 0 256 256" enable-background="new 0 0 256 256" xml:space="preserve">
<g id="Capa_3">
	
		<linearGradient id="SVGID_1_" gradientUnits="userSpaceOnUse" x1="-55.5483" y1="1190.6875" x2="-55.5483" y2="1162.0195" gradientTransform="matrix(1 0 0 1 181.8057 -978.5195)">
		<stop  offset="0" style="stop-color:#000000"/>
		<stop  offset="1" style="stop-color:#FFFFFF;stop-opacity:0"/>
	</linearGradient>
	<polyline fill="url(#SVGID_1_)" points="64.464,212.167 46.005,183.5 206.51,183.5 189.305,212.167 64.464,212.167 	"/>
</g>
<rect x="65.5" y="178.501" fill="#FFFFFF" width="124" height="34.5"/>
<path fill="#FFFFFF" stroke="#FFFFFF" stroke-width="23" d="M128.892,30.75c-48.005,0-86.919,37.822-86.919,84.475
	c0,46.649,38.915,84.473,86.919,84.473c48.002,0,86.916-37.824,86.916-84.473C215.808,68.572,176.894,30.75,128.892,30.75"/>
<path fill="#2569BA" d="M128.892,40.356c-42.479,0-77.036,33.588-77.036,74.869c0,41.285,34.557,74.869,77.036,74.869
	c42.477,0,77.033-33.584,77.033-74.869C205.925,73.944,171.368,40.356,128.892,40.356 M72.161,120.044
	c-1.05-24.443,19.894-32.939,33.589-32.939c0.788,0,1.55,0.027,2.285,0.084c-2.574-1.805-8.312-10.046-3.27-19.225
	c3.57-6.501,9.911-8.85,15.522-8.85c3.657,0,7.007,0.997,9.075,2.496c10.174,7.363,5.633,20.775-3.68,21.337
	c-0.23,0.014-0.453,0.022-0.671,0.022c-3.133,0-5.215-1.385-4.847-3.402c0.215-1.198,1.208-1.671,2.212-1.671
	c0.612,0,1.228,0.175,1.675,0.47c0.717,0.467,1.443,0.68,2.148,0.68c3.196,0,5.903-4.332,4.595-8.584
	c-1.629-5.311-5.448-7.395-10.277-7.395c-0.734,0-1.49,0.047-2.264,0.139c-7.71,0.916-12.115,8.913-11.135,13.793
	c0.791,3.932,2.002,6.967,6.452,9.882c0.989-0.132,1.857-0.19,2.624-0.19c5.236,0,5.586,2.8,5.098,4.233
	c-0.264,0.774-1.165,1.477-2.512,1.677c-0.307,0.046-0.635,0.076-0.985,0.076c-1.537,0-3.473-0.515-5.625-2.212
	c-0.75-0.035-1.505-0.056-2.26-0.056c-15.496,0-31.155,7.65-32.753,26.554c-1.273,15.068,10.364,30.129,28.435,30.129
	c0.779,0,1.569-0.029,2.372-0.087c10.887-0.774,19.307-9.76,20.904-17.524c1.329-6.456,0.213-8.917-1.034-11.94
	c-1.104-2.684-0.551-3.772,0.555-4.366c0.415-0.209,0.82-0.297,1.202-0.297c1.472,0,2.64,1.334,3.089,2.521
	c1.58,4.155,1.899,8.015,0.857,12.81c-2.459,11.368-11.011,21.561-27.355,22.231c-0.484,0.021-0.97,0.031-1.458,0.031
	C89.665,150.474,73.059,140.973,72.161,120.044 M138.898,141.122c0.686-4.43,2.742-17.876,4.197-28.668
	c1.531,0.554,3.145,1.271,4.748,2.194c-1.508,10.433-3.417,22.443-4.006,26.043c-2.685,16.391-5.02,23.031-14.636,23.556
	c-3.849,0.209-9.48-1.872-11.708-7.155c-2.195-5.201,3.62-6.565,4.057-3.23c0.91,6.99,6.517,7.572,8.375,7.361
	C136.546,160.454,137.288,151.545,138.898,141.122 M159.234,160.335c-1.825,3.569-4.336,6.338-8.031,8.697
	c-4.069,2.798-9.828,5.39-17.057,5.391h-0.007c-17.803,0-29.208-9.339-34.079-21.192c1.558,0.184,3.118,0.274,4.662,0.274
	c0.364,0,0.728-0.011,1.088-0.021c4.602,9.483,13.68,16.743,25.789,17.501c0.55,0.036,1.085,0.052,1.607,0.052
	c4.869,0,8.933-1.397,12.175-3.215l-0.063-0.034c0.36-0.181,0.712-0.379,1.053-0.584c5.555-3.371,6.744-5.909,8.106-8.766
	c0.957-1.999,1.876-2.631,2.792-2.631c0.241,0,0.487,0.043,0.733,0.119C160.062,156.64,159.943,158.955,159.234,160.335
	 M166.909,115.903c-0.769,0.762-1.796,0.972-2.7,0.972c-1.109,0-2.023-0.319-2.023-0.319c2.658,2.835,1.602,5.928,1.228,6.624
	c-0.441,0.825-1.286,1.253-1.878,1.259h-0.012c-0.623,0-1.045-0.532-1.51-1.444c-6.845-13.373-22.232-15.459-25.755-15.459h-0.104
	c-11.309,0.141-24.119,6.673-29.315,19.19c-2.295,5.533-2.877,11.493-2.002,17.195c-1.835-0.182-3.613-0.557-5.32-1.096
	c-1.029-10.936,2.784-22.319,11.553-29.826c7.72-6.608,15.945-8.734,24.112-9.035c0.338-0.014,0.67-0.019,1.004-0.019
	c10.373,0,19.795,5.885,23.084,7.284c1.75,0.741,2.97,1.133,4.159,1.133c0.689,0,1.367-0.133,2.128-0.4
	c2.219-0.79,2.748-3.079,3.281-3.085h0.005C167.49,108.876,170.316,112.532,166.909,115.903 M174.809,98.469
	c-7.077,6.298-18.247,2.982-25.107,1.878c-0.096,1.035-0.241,2.326-0.422,3.798c-1.539-0.612-3.194-1.198-4.945-1.701
	c0.116-1.173,0.212-2.189,0.26-2.971c-0.006,0-9.616-2.689-22.222,0.009c-4.673,1.003-9.492,2.787-13.46,6.873
	c-1.63,1.676-2.396-1.695,0.714-4.855c3.529-3.586,9.597-6.443,20.533-7.121c17.889-1.109,32.285,6.961,40.208,2.155
	c6.623-4.012,7.281-12.88,3.164-17.268c-3.331-3.549-8.03-4.358-11.92-2.886c-3.889,1.474-5.425,3.972-5.647,9.086
	c-0.155,3.547-5.635,2.737-4.337-3.389c0.96-4.521,3.278-7.289,7.821-8.873c6.296-2.191,13.738-0.57,17.7,4.867
	C181.293,83.765,181.938,92.132,174.809,98.469"/>
<path fill="#2569BA" d="M128.892,30.75c-48.005,0-86.919,37.822-86.919,84.475c0,46.649,38.915,84.473,86.919,84.473
	c48.002,0,86.916-37.824,86.916-84.473C215.808,68.572,176.894,30.75,128.892,30.75 M128.892,191.998
	c-43.558,0-78.994-34.439-78.994-76.773c0-42.33,35.437-76.772,78.994-76.772c43.556,0,78.994,34.443,78.994,76.772
	C207.886,157.559,172.447,191.998,128.892,191.998"/>
</svg>
