<?xml version="1.0" encoding="utf-8"?>
<!-- Generator: Adobe Illustrator 16.0.0, SVG Export Plug-In . SVG Version: 6.00 Build 0)  -->
<!DOCTYPE svg PUBLIC "-//W3C//DTD SVG 1.1//EN" "http://www.w3.org/Graphics/SVG/1.1/DTD/svg11.dtd">
<svg version="1.1" id="Capa_1" xmlns="http://www.w3.org/2000/svg" xmlns:xlink="http://www.w3.org/1999/xlink" x="0px" y="0px"
	 width="256px" height="256px" viewBox="0 0 256 256" enable-background="new 0 0 256 256" xml:space="preserve">
<g id="Capa_3">
	
		<linearGradient id="SVGID_1_" gradientUnits="userSpaceOnUse" x1="374.0176" y1="-326.1567" x2="374.0176" y2="-294.6323" gradientTransform="matrix(1 0 0 -1 -247.5996 -113.9902)">
		<stop  offset="0" style="stop-color:#000000"/>
		<stop  offset="1" style="stop-color:#FFFFFF;stop-opacity:0"/>
	</linearGradient>
	<polyline fill="url(#SVGID_1_)" points="59.75,212.167 39.833,180.643 213.001,180.643 194.439,212.167 59.75,212.167 	"/>
	<path fill="#FFFFFF" d="M180.182,105.996l28.877-45.369c2.034-3.196,2.031-8.425-0.002-11.62l-13.72-21.525
		c-0.825-2.163-2.084-4.094-3.68-5.776l-0.138-0.218c-1.701-1.575-3.486-3.062-5.643-4.202c-0.053,0.011-0.109,0.007-0.164,0.021
		c-4.266-2.209-9.434-3.404-14.855-3.404c-0.941,0-1.861,0.075-2.765,0.188H80.816l0.237,0.37c-0.691-0.039-1.383-0.067-2.083-0.067
		c-4,0-7.693,1.069-10.863,2.833c-0.282-0.043-0.564-0.016-0.847,0.013c-2.309,2.999-4.634,5.99-6.973,8.973
		c-1.033,1.316-2.078,2.625-3.117,3.938L45.156,49.006c-2.036,3.195-2.037,8.424-0.002,11.62l28.789,45.235
		c0.035-0.024,0.069-0.046,0.104-0.072c0.876,3.609,2.879,6.659,5.648,9.087c-12.421,10.128-20.132,24.21-20.132,39.788
		c0,30.834,30.182,55.836,67.412,55.836c37.229,0,67.412-25.002,67.412-55.836c0-15.76-7.896-29.986-20.578-40.137
		c2.842-2.42,4.971-5.457,6.164-8.677C180.039,105.9,180.113,105.944,180.182,105.996z"/>
	<rect x="59.5" y="150.834" fill="#FFFFFF" width="135" height="61"/>
</g>
<g id="Layer_1">
	<g id="_x23_948d89ff">
	</g>
	<g id="Capa_4">
	</g>
	<g>
		<polygon fill="#326FB7" points="142.214,62.778 163.436,22.854 91.033,22.854 112.258,62.778 		"/>
		<path fill="#518ACE" d="M176.668,28.027c-1.591-3.018-4.193-3.016-5.779,0.004l-34.836,66.182
			c12.481,1.804,23.773,7.336,32.704,15.43L191.343,66.8c1.593-3.018,1.593-7.957-0.001-10.973L176.668,28.027z"/>
		<path fill="#518ACE" d="M118.415,94.188L83.596,28.031c-1.591-3.021-4.192-3.021-5.786-0.004l-14.669,27.8
			c-1.593,3.016-1.595,7.956-0.002,10.973l22.518,42.718C94.612,101.451,105.922,95.952,118.415,94.188z"/>
		<path fill="#4879BD" d="M127.139,102.875c-29.124,0-52.73,23.609-52.73,52.73c0,29.119,23.609,52.729,52.73,52.729
			c29.12,0,52.728-23.607,52.728-52.729C179.866,126.484,156.259,102.875,127.139,102.875z M127.139,193.23
			c-20.75,0-37.627-16.877-37.627-37.625s16.877-37.627,37.627-37.627c20.748,0,37.626,16.879,37.626,37.627
			S147.887,193.23,127.139,193.23z"/>
		<path fill="#2569BA" d="M127.139,127.282c-15.62,0-28.324,12.706-28.324,28.323c0,15.613,12.704,28.32,28.324,28.32
			c15.614,0,28.319-12.707,28.319-28.32C155.458,139.986,142.753,127.282,127.139,127.282z"/>
	</g>
</g>
</svg>
