<?xml version="1.0" encoding="utf-8"?>
<!-- Generator: Adobe Illustrator 16.0.0, SVG Export Plug-In . SVG Version: 6.00 Build 0)  -->
<!DOCTYPE svg PUBLIC "-//W3C//DTD SVG 1.1//EN" "http://www.w3.org/Graphics/SVG/1.1/DTD/svg11.dtd">
<svg version="1.1" xmlns="http://www.w3.org/2000/svg" xmlns:xlink="http://www.w3.org/1999/xlink" x="0px" y="0px" width="256px"
	 height="256px" viewBox="-78 -78 256 256" enable-background="new -78 -78 256 256" xml:space="preserve">
<g id="Capa_3">
	<linearGradient id="SVGID_1_" gradientUnits="userSpaceOnUse" x1="56.417" y1="133.167" x2="56.417" y2="101.6426">
		<stop  offset="0" style="stop-color:#000000"/>
		<stop  offset="1" style="stop-color:#FFFFFF;stop-opacity:0"/>
	</linearGradient>
	<polyline fill="url(#SVGID_1_)" points="-10.25,133.167 -30.167,101.643 143.001,101.643 124.439,133.167 -10.25,133.167 	"/>
	<path fill="#FFFFFF" d="M110.182,26.996l28.876-45.369c2.035-3.196,2.032-8.425-0.001-11.62l-13.72-21.525
		c-0.825-2.163-2.084-4.094-3.68-5.776l-0.138-0.218c-1.7-1.575-3.486-3.062-5.642-4.202c-0.053,0.011-0.11,0.007-0.164,0.021
		c-4.265-2.209-9.434-3.404-14.856-3.404c-0.941,0-1.861,0.075-2.764,0.188H10.816l0.237,0.37c-0.691-0.039-1.383-0.067-2.083-0.067
		c-4,0-7.693,1.069-10.863,2.833c-0.282-0.043-0.564-0.016-0.847,0.013c-2.309,2.999-4.634,5.99-6.973,8.973
		c-1.033,1.316-2.078,2.625-3.117,3.938l-12.014,18.855c-2.036,3.195-2.037,8.424-0.002,11.62L3.943,26.861
		c0.035-0.024,0.069-0.046,0.104-0.072c0.876,3.609,2.879,6.659,5.648,9.087C-2.726,46.004-10.437,60.086-10.437,75.664
		c0,30.834,30.182,55.836,67.412,55.836c37.229,0,67.411-25.002,67.411-55.836c0-15.759-7.896-29.986-20.577-40.137
		c2.842-2.42,4.97-5.457,6.164-8.677C110.039,26.9,110.113,26.944,110.182,26.996z"/>
	<rect x="-10.5" y="71.834" fill="#FFFFFF" width="135" height="61"/>
</g>
<g id="Layer_1">
	<g id="_x23_948d89ff">
	</g>
	<g id="Capa_4">
	</g>
	<g>
		<polygon fill="#326FB7" points="72.214,-16.222 93.435,-56.146 21.033,-56.146 42.258,-16.222 		"/>
		<path fill="#518ACE" d="M106.668-50.973c-1.591-3.018-4.194-3.016-5.78,0.004L66.053,15.213
			c12.481,1.804,23.773,7.336,32.704,15.43L121.343-12.2c1.593-3.018,1.592-7.957-0.001-10.973L106.668-50.973z"/>
		<path fill="#518ACE" d="M48.415,15.188L13.596-50.969c-1.591-3.02-4.192-3.021-5.786-0.004l-14.669,27.8
			c-1.593,3.016-1.595,7.956-0.002,10.973l22.518,42.718C24.612,22.451,35.922,16.952,48.415,15.188z"/>
		<path fill="#4879BD" d="M57.139,23.875c-29.124,0-52.73,23.609-52.73,52.731c0,29.119,23.609,52.728,52.73,52.728
			c29.12,0,52.728-23.608,52.728-52.728C109.866,47.484,86.259,23.875,57.139,23.875z M57.139,114.23
			c-20.75,0-37.627-16.877-37.627-37.625s16.877-37.627,37.627-37.627c20.748,0,37.626,16.879,37.626,37.627
			S77.887,114.23,57.139,114.23z"/>
		<path fill="#2569BA" d="M57.139,48.282c-15.62,0-28.324,12.706-28.324,28.324c0,15.613,12.704,28.32,28.324,28.32
			c15.614,0,28.319-12.707,28.319-28.32C85.458,60.987,72.753,48.282,57.139,48.282z"/>
	</g>
</g>
</svg>
