<?xml version="1.0" encoding="utf-8"?>
<!-- Generator: Adobe Illustrator 16.0.0, SVG Export Plug-In . SVG Version: 6.00 Build 0)  -->
<!DOCTYPE svg PUBLIC "-//W3C//DTD SVG 1.1//EN" "http://www.w3.org/Graphics/SVG/1.1/DTD/svg11.dtd">
<svg version="1.1" id="Capa_1" xmlns="http://www.w3.org/2000/svg" xmlns:xlink="http://www.w3.org/1999/xlink" x="0px" y="0px"
	 width="256px" height="256px" viewBox="0 0 256 256" enable-background="new 0 0 256 256" xml:space="preserve">
<g id="Capa_3">
	
		<linearGradient id="SVGID_1_" gradientUnits="userSpaceOnUse" x1="376.3506" y1="-326.0659" x2="376.3506" y2="-294.7231" gradientTransform="matrix(1 0 0 -1 -247.5996 -113.9902)">
		<stop  offset="0" style="stop-color:#000000"/>
		<stop  offset="1" style="stop-color:#FFFFFF;stop-opacity:0"/>
	</linearGradient>
	<polyline fill="url(#SVGID_1_)" points="40.523,212.076 14.167,180.733 243.334,180.733 218.769,212.076 40.523,212.076 	"/>
</g>
<rect x="40" y="124" fill="#FFFFFF" width="178" height="88"/>
<rect x="66.5" y="33.5" fill="#FFFFFF" width="121.5" height="91.5"/>
<g>
	<path fill="#4879BD" d="M112.391,127.069v-12.886h33.323v12.849c5.032-3.175,11.031-4.1,16.661-2.797V48.063
		c0-5.255-3.731-9.513-8.33-9.513c-4.601,0-8.331,4.258-8.331,9.513v15.381h-33.323V48.063c0-5.255-3.732-9.513-8.331-9.513
		c-4.6,0-8.33,4.258-8.33,9.513v76.226C101.359,123,107.363,123.922,112.391,127.069z M145.714,76.128v25.37h-33.323v-25.37H145.714
		z"/>
	<path fill="#629ADD" d="M69.169,147.155c1.693-1.927,4.633-1.93,6.326,0.005c5.891,6.72,16.146,6.71,22.024,0
		c1.66-1.909,4.66-1.905,6.318-0.013l0.331,0.366c2.908,3.142,6.688,4.862,10.695,4.862c4.166,0,8.075-1.85,11.028-5.229
		c1.676-1.915,4.637-1.913,6.311-0.004l0.334,0.362c5.904,6.397,15.922,6.249,21.713-0.346c1.703-1.941,4.636-1.941,6.325-0.007
		c5.892,6.73,16.152,6.73,22.044-0.01c1.668-1.906,4.632-1.92,6.322,0.018c6.073,6.923,15.963,6.914,22.036-0.001
		c2.171-2.479,2.171-6.493,0.007-8.971c-2.171-2.485-5.688-2.48-7.858-0.007c-1.748,1.994-4.596,1.988-6.332,0.007
		c-5.852-6.686-16.178-6.705-22.047,0.006c-1.681,1.92-4.622,1.92-6.313-0.006c-5.875-6.728-16.141-6.742-22.036,0
		c-1.691,1.926-4.631,1.926-6.323,0l-0.325-0.359c-5.891-6.356-15.945-6.228-21.732,0.371c-1.66,1.901-4.629,1.912-6.31-0.01
		l-0.32-0.354c-5.845-6.307-16.031-6.168-21.733,0.358c-1.658,1.9-4.625,1.907-6.306-0.006c-5.891-6.728-16.145-6.718-22.026-0.009
		c-1.763,1.996-4.611,1.986-6.341,0.003c-2.168-2.475-5.688-2.479-7.858,0.006c-2.162,2.478-2.162,6.491,0.005,8.971
		C53.203,154.082,63.086,154.084,69.169,147.155z"/>
	<path fill="#3B6596" d="M203.124,163.552c-1.748,1.996-4.596,1.991-6.33,0.007c-5.854-6.688-16.18-6.706-22.047,0.008
		c-1.683,1.92-4.621,1.92-6.315-0.008c-5.875-6.729-16.141-6.733-22.036,0c-1.689,1.928-4.631,1.928-6.322,0l-0.326-0.357
		c-5.891-6.353-15.945-6.231-21.732,0.369c-1.658,1.904-4.626,1.912-6.31-0.007l-0.32-0.354c-5.845-6.312-16.031-6.164-21.732,0.357
		c-1.659,1.901-4.625,1.908-6.307-0.008c-5.891-6.727-16.145-6.716-22.025-0.009c-1.762,2-4.61,1.985-6.342,0.004
		c-2.168-2.47-5.687-2.478-7.857,0.005c-2.164,2.48-2.164,6.495,0.004,8.971c6.076,6.926,15.959,6.928,22.042-0.003
		c1.693-1.927,4.633-1.929,6.326,0.003c5.891,6.72,16.146,6.715,22.024,0c1.66-1.908,4.66-1.904,6.318-0.008l0.331,0.363
		c2.908,3.142,6.688,4.863,10.695,4.863c4.166,0,8.075-1.853,11.028-5.227c1.676-1.919,4.637-1.915,6.311-0.005l0.334,0.361
		c5.904,6.396,15.922,6.25,21.713-0.349c1.703-1.94,4.636-1.94,6.325-0.006c5.892,6.73,16.152,6.73,22.044-0.007
		c1.668-1.909,4.632-1.923,6.322,0.014c6.073,6.929,15.963,6.914,22.036-0.001c2.171-2.476,2.171-6.49,0.007-8.971
		C208.812,161.076,205.294,161.082,203.124,163.552z"/>
	<path fill="#4879BD" d="M203.124,188.923c-1.748,1.996-4.596,1.99-6.33,0.009c-5.854-6.688-16.18-6.706-22.047,0.006
		c-1.683,1.919-4.621,1.919-6.315-0.006c-5.875-6.729-16.141-6.74-22.036,0c-1.689,1.925-4.631,1.925-6.322,0l-0.326-0.362
		c-5.891-6.351-15.945-6.23-21.732,0.372c-1.658,1.901-4.626,1.915-6.31-0.008l-0.32-0.354c-5.845-6.308-16.031-6.162-21.732,0.357
		c-1.659,1.899-4.625,1.91-6.307-0.006c-5.891-6.729-16.145-6.719-22.025-0.012c-1.762,1.999-4.61,1.99-6.342,0.003
		c-2.168-2.469-5.687-2.478-7.857,0.009c-2.164,2.476-2.164,6.491,0.004,8.968c6.076,6.925,15.959,6.929,22.042-0.004
		c1.693-1.925,4.633-1.928,6.326,0.004c5.891,6.723,16.146,6.713,22.024,0c1.66-1.906,4.66-1.905,6.318-0.008l0.331,0.366
		c2.908,3.138,6.688,4.859,10.695,4.859c4.166,0,8.075-1.854,11.028-5.227c1.676-1.915,4.637-1.919,6.311-0.004l0.334,0.358
		c5.904,6.396,15.922,6.255,21.713-0.346c1.703-1.938,4.636-1.938,6.325-0.006c5.892,6.738,16.152,6.729,22.044-0.007
		c1.668-1.911,4.632-1.919,6.322,0.017c6.073,6.927,15.963,6.91,22.036-0.004c2.171-2.477,2.171-6.492,0.007-8.968
		C208.812,186.445,205.294,186.454,203.124,188.923z"/>
</g>
</svg>
