<?xml version="1.0" encoding="utf-8"?>
<!-- Generator: Adobe Illustrator 16.0.0, SVG Export Plug-In . SVG Version: 6.00 Build 0)  -->
<!DOCTYPE svg PUBLIC "-//W3C//DTD SVG 1.1//EN" "http://www.w3.org/Graphics/SVG/1.1/DTD/svg11.dtd">
<svg version="1.1" xmlns="http://www.w3.org/2000/svg" xmlns:xlink="http://www.w3.org/1999/xlink" x="0px" y="0px" width="256px"
	 height="256px" viewBox="-78 -78 256 256" enable-background="new -78 -78 256 256" xml:space="preserve">
<g id="Capa_4">
	<linearGradient id="SVGID_1_" gradientUnits="userSpaceOnUse" x1="121" y1="132.833" x2="121" y2="57.833">
		<stop  offset="0" style="stop-color:#000000"/>
		<stop  offset="0.0087" style="stop-color:#060606;stop-opacity:0.9913"/>
		<stop  offset="0.0869" style="stop-color:#3A3A3A;stop-opacity:0.9131"/>
		<stop  offset="0.1704" style="stop-color:#696969;stop-opacity:0.8296"/>
		<stop  offset="0.2574" style="stop-color:#919191;stop-opacity:0.7426"/>
		<stop  offset="0.3486" style="stop-color:#B3B3B3;stop-opacity:0.6514"/>
		<stop  offset="0.4453" style="stop-color:#CFCFCF;stop-opacity:0.5547"/>
		<stop  offset="0.5493" style="stop-color:#E4E4E4;stop-opacity:0.4507"/>
		<stop  offset="0.6643" style="stop-color:#F3F3F3;stop-opacity:0.3357"/>
		<stop  offset="0.7988" style="stop-color:#FCFCFC;stop-opacity:0.2012"/>
		<stop  offset="1" style="stop-color:#FFFFFF;stop-opacity:0"/>
	</linearGradient>
	<polyline fill="url(#SVGID_1_)" points="120.429,132.833 121.914,130.555 137.167,107.167 137.167,92.5 151.5,82.833 
		120.833,57.833 95.833,90.5 90.5,121.167 105.167,127.5 120.429,132.833 	"/>
</g>
<g id="Capa_3">
	<linearGradient id="SVGID_2_" gradientUnits="userSpaceOnUse" x1="27.5073" y1="132.9922" x2="27.5073" y2="92.0195">
		<stop  offset="0" style="stop-color:#000000"/>
		<stop  offset="1" style="stop-color:#FFFFFF;stop-opacity:0"/>
	</linearGradient>
	<path fill="url(#SVGID_2_)" d="M120.552,131.438c-0.001-0.005-0.001-0.011-0.002-0.017c-0.024-0.383-0.038-0.77-0.043-1.157
		c0-0.009-0.001-0.019-0.001-0.027c-0.391-1.469-0.641-2.989-0.724-4.55c-2.152,0.682-4.429,1.063-6.782,1.063
		c-5.619,0-10.817-2.105-14.848-5.553c-1.191,0.196-2.411,0.303-3.652,0.303c-12.538,0-23-10.462-23-23
		c0-1.845,0.232-3.643,0.658-5.371L-65.643,92.02l19.56,40.973h166.559l0.18-0.393v-0.002
		C120.611,132.214,120.576,131.827,120.552,131.438z"/>
</g>
<g id="Layer_1">
	<rect x="-50.552" y="100.108" fill="#FFFFFF" width="170.98" height="32.725"/>
	<g id="_x23_fffffeff_2_">
		<path fill="#FFFFFF" d="M78.472-50.643c7.088-5.505,15.757-10.671,25.12-8.669c8.669,0.936,14.658,7.813,19.421,14.464
			c15.336,21.212,31.736,41.649,47.105,62.847c6.926,9.267,5.892,23.651-2.551,31.657c-6.408,5.505-13.607,10.01-20.083,15.434
			c-7.117,4.634-14.074,9.542-20.92,14.576c-2.276,1.987-5.489,3.813-5.619,7.202c-1.001,6.892-0.709,13.898-0.532,20.857
			c-0.759,8.007-0.905,16.046-1.098,24.085c-7.039-1.034-14.142-1.712-21.244-1.63c-31.755,0.306-63.493-0.113-95.247,0.241
			c-8.249,0.178-16.402-2.372-24.65-1.081c-8.96,1.259-18,1.922-27.04,2.486c-0.582-2.776-1.164-5.553-1.469-8.362
			c-0.211-4.02-0.373-8.024-0.437-12.044c1.389-27.057-0.274-54.175,0.308-81.249C-50.579,19.838-43.75,9.684-33.659,6.844
			c10.364-2.438,21.082-0.323,31.56-1.34c3.196-0.21,5.778-2.308,8.297-4.051C30.074-16.226,54.677-32.87,78.472-50.643
			 M92.356-30.351C77.844-19.551,62.813-9.477,48.316,1.338c-9.314,6.796-19.13,12.93-27.91,20.422l1.468-0.049
			c1.598,0.953,3.324,1.486,5.181,1.599c18.292,0.242,36.613-0.629,54.888,0.323c-0.016,1.274-0.031,3.84-0.047,5.133
			c-35.903,0.888-71.854,0.047-107.758,0.372l0.047,1.469c-0.08,26.879-0.047,53.756-0.016,80.619
			c4.166,0.373,8.346,0.518,12.527,0.484c36.55-0.226,73.114,0.179,109.662-0.226c0.825-1.695,1.261-3.471,1.324-5.345
			c0.13-17.726-0.662-35.483,0.274-53.208c1.244,0,3.699-0.033,4.941-0.049c0.371,3.957-0.099,8.217,2.033,11.771
			c11.606-7.023,22.021-15.791,33.191-23.442c4.166-2.792,8.248-5.715,11.881-9.17c-15.175-20.857-31.206-41.099-46.493-61.877
			c-1.324-1.485-2.228-3.599-4.182-4.358C96.633-33.742,94.536-31.82,92.356-30.351z"/>
	</g>
	<g id="_x23_fdfefdff_2_">
		<path fill="#FDFEFD" d="M82.636-9.865c4.926-3.31,9.171-8.508,15.096-9.799c5.167,5.376,9.072,11.849,13.48,17.838
			c-4.278,4.424-9.462,7.765-14.787,10.768C91.533,2.888,86.561-3.117,82.636-9.865z"/>
		<path fill="#EBEDEB" d="M-17.402,37.289c33.109-0.129,66.235-0.112,99.36-0.016c1.889,0.082,3.778,0.162,5.684,0.243
			c0.049,5.148,0.081,10.317,0.13,15.465c0.033,12.802,0.033,25.603,0.016,38.405c-0.711-0.033-2.131-0.064-2.842-0.08
			c-8.021-0.113-15.998-1.164-23.989-1.76c-12.93-0.388-25.877-0.178-38.824-0.403c-3.438,0.063-7.2-0.518-10.186,1.646
			c12.025,0.871,24.086-0.177,36.127,0.451c12.271,0.92,24.524,2.181,36.825,2.617c0.693,0.031,2.115,0.08,2.825,0.096
			c0.031,3.374,0.082,6.731,0.145,10.107c-26.329,0.127-52.676,0.224-79.005-0.051c-0.323-1.177-0.952-3.566-1.275-4.745
			c-3.762-0.227-7.507-0.517-11.236-0.937c-1.275,1.842-1.697,4.666-3.875,5.649c-3.293,0.404-6.633,0.177-9.96,0.13
			c0.064-3.471,0.082-6.941,0.098-10.396c4.003-1.453,9.524-0.485,12.269-4.294c-4.101-0.067-8.201,0.129-12.284,0.274
			c0.482-5.151-1.81-11.673,2.856-15.45c4.004-4.342,9.622-6.877,15.58-6.489c0.79,3.487,1.063,7.054,1.015,10.638
			c1.728-0.015,3.456-0.048,5.184-0.097c-0.501-4.036-2.245-8.347,0.032-12.155c7.265,0.306,11.817,5.956,16.208,10.944
			c-0.952-5.035-2.098-10.96-6.941-13.738c-2.97-1.163-6.199-1.404-9.298-2.064c7.731-4.263,16.579-2.535,24.811-1.099
			c-2.646-3.858-6.892-6.569-11.622-6.813c-5.829-0.791-10.897,2.614-16.144,4.472c2.485-5.796,7.7-9.542,11.655-14.206
			c-4.245,0.484-9.153,0.273-12.591,3.211c-3.423,2.922-2.6,7.814-2.874,11.801c-5.167-3.923-11.396-5.909-17.887-5.068
			C-17.402,48.139-17.42,42.715-17.402,37.289 M81.927,38c-0.227,4.924-0.21,9.865,0.08,14.788c1.244,0,3.747,0,5.006,0
			c0.533-4.892,0.533-9.831,0.063-14.723C85.786,38.049,83.218,38.018,81.927,38 M49.027,50.561
			c-2.132,3.55-4.535,6.926-6.683,10.461c1.646,0.71,3.308,1.419,4.973,2.114c-1.324,0.985-2.649,1.969-3.973,2.954
			c3.358,8.12,11.978,12.801,20.583,11.461c0.34-1.63,0.662-3.261,0.985-4.892c1.017,1.485,2.018,2.97,3.034,4.439
			c3.827-2.971,7.072-6.649,9.121-11.09c-1.484-1.034-2.953-2.051-4.439-3.066c1.13-0.21,3.374-0.632,4.487-0.823
			c-1.226-8.186-7.49-14.69-15.513-16.371C56.775,44.894,53.014,48.526,49.027,50.561 M1.468,80.425
			c-0.29,1.388-0.839,4.166-1.13,5.554c1.534,0.048,4.618,0.161,6.15,0.211c1.131-1.567,2.825-3.084,1.955-5.2
			C6.133,80.652,3.792,80.554,1.468,80.425 M-3.069,95.052c3.569,2.728,7.813,2.259,11.543,0.177
			c-0.047-2.582-0.098-5.167-0.129-7.749c-2.986,0-5.972,0.112-8.959,0.112C-1.421,90.08-2.277,92.564-3.069,95.052z"/>
	</g>
	<g id="_x23_dcdedfff_2_">
		<path fill="#FFFFFF" d="M116.49,11.977c2.453-0.87,4.94-1.678,7.457-2.389c-0.741,2.196-0.823,4.939-3.049,6.279
			c-5.23,4.085-10.897,7.57-16.323,11.414c-0.531,4.181-0.564,8.427-0.241,12.625c3.487-1.066,7.008-2.196,10.09-4.198
			c5.73-4.391,10.832-9.912,17.693-12.608c0.563,0.58,1.695,1.728,2.26,2.292c-6.974,10.556-20.761,13.867-28.865,23.393
			c-0.678,5.263-0.241,10.589-0.58,15.869c-2.132-3.554-1.662-7.813-2.033-11.771c-1.242,0.016-3.697,0.049-4.941,0.049
			c-0.937,17.725-0.145,35.482-0.274,53.208c-0.063,1.874-0.499,3.649-1.324,5.345c-0.808-15.223-0.161-30.479-0.386-45.719
			c-0.34-11.171,1.759-22.358-0.018-33.498c-9.104-3.891-19.017-1.42-28.557-1.646c-31.077-0.033-62.137,0-93.213-0.016
			l-0.047-1.469c35.904-0.325,71.854,0.516,107.758-0.372c0.016-1.293,0.031-3.859,0.047-5.133
			c-18.274-0.952-36.596-0.082-54.888-0.323c-1.857-0.113-3.583-0.646-5.181-1.599c24.989-0.727,50.029,0.404,75.018-0.452
			C104.688,21.646,111.275,17.336,116.49,11.977z"/>
	</g>
	<path fill="#0256B0" d="M103.511-29.835c-1.324-1.485-2.228-3.599-4.182-4.358c-2.696,0.452-4.793,2.373-6.973,3.842
		C77.844-19.551,62.813-9.477,48.316,1.338c-9.314,6.796-19.13,12.93-27.91,20.422l1.468-0.049
		c24.989-0.727,50.029,0.404,75.018-0.452c-3.049-0.019-6.09-0.221-9.123-0.498c0.011-0.004,0.021-0.009,0.03-0.013
		c3.023,0.284,6.054,0.491,9.093,0.51c7.673,0.394,14.171-3.904,19.346-9.304c0.084,0.008,0.169,0.015,0.253,0.023
		c2.453-0.87,4.94-1.678,7.457-2.389c-0.741,2.196-0.823,4.939-3.049,6.279c-5.23,4.085-10.897,7.57-16.323,11.414
		c-0.531,4.181-0.564,8.427-0.241,12.625c3.487-1.066,7.008-2.196,10.09-4.198c5.73-4.391,10.832-9.912,17.693-12.608
		c0.563,0.58,1.695,1.728,2.26,2.292c-6.974,10.556-20.761,13.867-28.865,23.393c-0.678,5.263-0.241,10.589-0.58,15.869
		c11.606-7.023,22.021-15.791,33.191-23.442c4.166-2.792,8.248-5.715,11.881-9.17C134.829,11.185,118.798-9.057,103.511-29.835z
		 M96.425,8.941C91.533,2.888,86.561-3.117,82.636-9.865c4.926-3.31,9.171-8.508,15.096-9.799
		c5.167,5.376,9.072,11.849,13.48,17.838C106.934,2.598,101.75,5.938,96.425,8.941z"/>
	<path fill="#088EE0" d="M95.973,65.767c-0.34-11.171,1.759-22.358-0.018-33.498c-9.104-3.891-19.017-1.42-28.557-1.646
		c-31.077-0.033-62.137,0-93.213-0.016c-0.08,26.879-0.047,53.756-0.016,80.619c4.166,0.373,8.346,0.518,12.527,0.484
		c36.55-0.226,73.114,0.179,109.662-0.226C95.551,96.263,96.197,81.006,95.973,65.767z M-16.338,58.712
		c6.279-1.081,12.786,0.292,17.662,4.504c-3.73,0.129-7.555-0.354-11.205,0.632c-2.921,1.691-5.246,4.195-7.65,6.535
		C-17.017,66.573-18.55,61.974-16.338,58.712z M8.862,104.01c-0.323-1.177-0.952-3.566-1.275-4.745
		c-3.762-0.227-7.507-0.517-11.236-0.937c-1.275,1.842-1.697,4.666-3.875,5.649c-3.293,0.404-6.633,0.177-9.96,0.13
		c0.064-3.471,0.082-6.941,0.098-10.396c4.003-1.453,9.524-0.485,12.269-4.294c-4.101-0.067-8.201,0.129-12.284,0.274
		c0.482-5.151-1.81-11.673,2.856-15.45c4.004-4.342,9.622-6.877,15.58-6.489c0.79,3.487,1.063,7.054,1.015,10.638
		c1.728-0.015,3.456-0.048,5.184-0.097c-0.501-4.036-2.245-8.347,0.032-12.155c7.265,0.306,11.817,5.956,16.208,10.944
		c-0.952-5.035-2.098-10.96-6.941-13.738c-2.97-1.163-6.199-1.404-9.298-2.064c7.731-4.263,16.579-2.535,24.811-1.099
		c-2.646-3.858-6.892-6.569-11.622-6.813c-5.829-0.791-10.897,2.614-16.144,4.472c2.485-5.796,7.7-9.542,11.655-14.206
		c-4.245,0.484-9.153,0.273-12.591,3.211c-3.423,2.922-2.6,7.814-2.874,11.801c-5.167-3.923-11.396-5.909-17.887-5.068
		c0.018-5.44,0-10.864,0.018-16.291c33.109-0.129,66.235-0.112,99.36-0.016c1.889,0.082,3.778,0.162,5.684,0.243
		c0.049,5.148,0.081,10.317,0.13,15.465c0.033,12.802,0.033,25.603,0.016,38.405c-0.711-0.033-2.131-0.064-2.842-0.08l-0.048,2.551
		c0.693,0.031,2.115,0.08,2.825,0.096c0.031,3.374,0.082,6.731,0.145,10.107C61.538,104.188,35.191,104.284,8.862,104.01z"/>
	<g id="_x23_d9dadbff_2_">
		<path fill="#EBEDEB" d="M81.927,38c1.291,0.018,3.859,0.049,5.149,0.065c0.47,4.892,0.47,9.831-0.063,14.723
			c-1.259,0-3.762,0-5.006,0C81.717,47.864,81.7,42.923,81.927,38z"/>
	</g>
	<g id="_x23_b4dcf3ff_2_">
		<path fill="#B4DCF3" d="M49.027,50.561c3.987-2.034,7.749-5.667,12.576-4.812c8.022,1.68,14.287,8.185,15.513,16.371
			c-1.113,0.191-3.357,0.613-4.487,0.823c1.486,1.016,2.955,2.032,4.439,3.066c-2.049,4.44-5.294,8.119-9.121,11.09
			c-1.017-1.47-2.018-2.954-3.034-4.439c-0.323,1.631-0.646,3.262-0.985,4.892c-8.605,1.34-17.226-3.341-20.583-11.461
			c1.324-0.985,2.649-1.969,3.973-2.954c-1.665-0.695-3.327-1.404-4.973-2.114C44.492,57.486,46.895,54.11,49.027,50.561
			 M56.661,53.208c-7.828,2.163-7.747,14.997-0.096,17.354c5.715,2.679,13.093-1.681,13.254-8.04
			C70.74,55.854,62.555,50.27,56.661,53.208z"/>
	</g>
	<g id="_x23_0a8fe1ff_2_">
		<path fill="#0A8FE1" d="M56.661,53.208c5.894-2.938,14.079,2.646,13.158,9.314c-0.161,6.359-7.539,10.719-13.254,8.04
			C48.914,68.205,48.833,55.371,56.661,53.208z"/>
		<path fill="#0A8FE1" d="M1.468,80.425c2.324,0.129,4.665,0.228,6.975,0.564c0.87,2.116-0.823,3.633-1.955,5.2
			c-1.533-0.05-4.616-0.163-6.15-0.211C0.629,84.591,1.178,81.813,1.468,80.425z"/>
		<path fill="#0A8FE1" d="M11.946,90.789c2.986-2.163,6.748-1.582,10.186-1.646c12.947,0.226,25.895,0.016,38.824,0.403
			c7.991,0.596,15.968,1.646,23.989,1.76l-0.048,2.551c-12.301-0.437-24.554-1.697-36.825-2.617
			C36.032,90.612,23.971,91.66,11.946,90.789z"/>
	</g>
	<g id="_x23_f8fcfcff_2_">
		<path fill="#F8FCFC" d="M-17.532,70.383c0.515-3.81-1.019-8.409,1.193-11.671c6.279-1.081,12.786,0.292,17.662,4.504
			c-3.73,0.129-7.555-0.354-11.205,0.632C-12.802,65.539-15.127,68.043-17.532,70.383z"/>
	</g>
	<g id="_x23_098ee0ff_2_">
		<path fill="#098EE0" d="M-3.069,95.052c0.792-2.487,1.647-4.972,2.455-7.46c2.987,0,5.974-0.112,8.959-0.112
			c0.031,2.582,0.082,5.167,0.129,7.749C4.745,97.311,0.5,97.779-3.069,95.052z"/>
	</g>
	<g id="_x23_948d89ff">
	</g>
</g>
</svg>
