<?xml version="1.0" encoding="utf-8"?>
<!-- Generator: Adobe Illustrator 16.0.0, SVG Export Plug-In . SVG Version: 6.00 Build 0)  -->
<!DOCTYPE svg PUBLIC "-//W3C//DTD SVG 1.1//EN" "http://www.w3.org/Graphics/SVG/1.1/DTD/svg11.dtd">
<svg version="1.1" id="Capa_1" xmlns="http://www.w3.org/2000/svg" xmlns:xlink="http://www.w3.org/1999/xlink" x="0px" y="0px"
	 width="256px" height="256px" viewBox="0 0 256 256" enable-background="new 0 0 256 256" xml:space="preserve">
<g id="Layer_1">
	<g id="_x23_948d89ff">
	</g>
	<g id="Capa_4">
		<g id="_x23_ffffffff">
			<path fill="#2A99D1" d="M104.083,116.824c3.479-2.476,7.388-4.292,11.462-5.564c0.182,0.532,0.373,1.06,0.555,1.598
				c-2.787,2.544-5.502,5.241-7.529,8.451c-1.638,2.551-3.621,4.868-5.648,7.111c-1.346,1.521-2.993,3.066-5.121,3.242
				c-1.823,0.021-3.199-1.331-4.631-2.255C95.362,124.173,99.531,120.077,104.083,116.824z"/>
			<path fill="#2A99D1" d="M134.625,186.131c2.125,1.31,3.947,3.155,4.682,5.597c-1.578,0.02-3.144,0.016-4.709-0.063
				C134.754,189.827,134.758,187.969,134.625,186.131z"/>
		</g>
		<g id="_x23_6c5f26ff">
			<path fill="#2A99D1" d="M120.066,26.792h3.668c4.162,0.349,8.132,3.126,9.045,7.349c1.352,6.691,0.617,14.285-3.664,19.852
				c2.391,0.291,4.82,0.712,6.961,1.864c2.887,1.415,4.873,4.04,6.744,6.553c2.975,4.08,2.559,9.55,1.396,14.193
				c-0.863,3.028-1.746,6.179-1.168,9.35c0.458,2.887,2.074,5.417,3.963,7.583c-3.431-0.298-7.304,0.569-10.299-1.563
				c-2.74-2.496-3.525-6.857-1.559-10.063c-3.315,1.943-7.7,2.951-11.208,0.887c-3.929-2.544-6.99-6.509-8.135-11.09
				c-2.164,4.201-2.875,9.045-2.271,13.717c0.833,6.561,1.907,13.381,5.624,19.015c1.836,0.178,3.821,0.171,5.422,1.222
				c1.57,1.03,2.406,2.783,3.125,4.458c10.957-0.628,22.164,2.328,31.24,8.531c7.083,5.057,10.936,13.363,13.084,21.574
				c1.607,5.53,1.716,11.349,1.561,17.063c-0.287,6.215-1.68,12.371-4.078,18.104c-2.576,6.182-6.013,12.184-11.121,16.621
				c2.482-0.521,5.252-1.034,7.615,0.191c3.133,1.787,4.762,5.33,5.139,8.804c-2.103-1.22-4.424-2.513-6.945-2.107
				c-3.766,0.327-6.273,3.585-9.777,4.616c-3.486,1.216-7.271,0.723-10.728-0.357c-1.062,3.213-3.701,5.92-7.22,6.159h-1.198
				c-3.613-0.416-7.09-1.81-10.103-3.825c-1.388-0.9-2.3-2.319-3.054-3.756c-7.803-1.57-15.729-4.636-21.168-10.668
				c0.966,2.424,1.829,5.221,0.675,7.735c-1.351,2.86-4.277,4.364-6.981,5.69c-1.937,0.895-2.937,2.887-3.554,4.822h-0.178
				c-1.634-2.275-3.501-4.635-3.575-7.572c-0.315-2.179,0.849-4.151,2.376-5.588c-2.617,0.08-5.729-0.019-7.505-2.254
				c-1.983-2.507-1.365-5.936-1.104-8.869c1.545,1.672,2.894,3.725,5.061,4.645c1.515,0.215,2.311-1.428,2.819-2.573
				c1.369-3.659-0.024-7.62-1.795-10.881c-2.594-4.505-4.877-9.271-5.897-14.408c-0.758-4.821-2.519-9.44-2.754-14.349v-5.746
				c0.792-9.822,5.573-19.071,12.524-25.946c5.34-5.318,12.508-8.631,19.962-9.568c-2.231-6.543-3.87-13.354-4.052-20.285
				c-0.186-3.085,0.148-6.392-1.412-9.199c-0.991-2.03-2.918-3.315-4.756-4.49c0.825-0.792,1.561-1.863,2.758-2.09
				c1.714-0.424,3.378,0.337,4.914,1.007c1.271-3.094,2.79-6.094,4.764-8.81c-0.861-1.124-1.726-2.316-2.98-3.031
				c-1.726-1.087-3.812-1.238-5.768-1.565c3.515-3.797,9.935-5.229,14.254-1.923c2.525-3.466,5.384-6.718,7.486-10.477
				c1.586-2.788,2.145-6.336,0.716-9.304c-1.058-2.392-4.132-3.167-6.486-2.539c-2.462,0.927-2.483,4.36-1.464,6.362
				c0.992,1.663,3.125,1.093,4.71,1.066c-1.101,1.678-2.252,3.759-4.458,4.048c-2.848,0.267-5.522-1.574-7.207-3.741
				c-2.119-2.939-0.886-6.861,0.918-9.631C114.479,29.041,117.146,27.32,120.066,26.792 M123.928,62.843
				c1.609-0.287,3.313-0.832,4.911-0.184c2.343,1.004,4.019,3.313,4.284,5.848c-1.834-0.672-4.754-1.878-5.771,0.575
				c-0.799,2.386-1.08,5.916,1.354,7.454c2.758,1.282,6.86,1.143,8.51-1.802c2.655-4.305,0.929-10.51-3.588-12.804
				C130.583,59.926,126.855,61.33,123.928,62.843 M99.64,118.729c-4.552,3.253-8.716,7.344-10.913,12.584
				c1.432,0.925,2.808,2.273,4.631,2.256c2.128-0.182,3.775-1.727,5.121-3.247c2.028-2.241,4.01-4.557,5.649-7.109
				c2.027-3.212,4.742-5.906,7.529-8.452c-0.183-0.539-0.373-1.064-0.554-1.599C107.028,114.438,103.118,116.252,99.64,118.729
				 M124.805,117.124c2.027,4.042,4.855,7.707,8.417,10.52c3,2.471,5.114,5.826,6.627,9.374c0.24-2.809,2.34-4.931,2.807-7.657
				c0.52-2.645,0.441-5.596-1.191-7.849c2.453,0.784,5.069,1.93,6.33,4.329c1.229,2.001,1.217,4.448,0.656,6.653
				c1.65-0.066,3.529-0.191,4.857,0.999c2.961,2.564,3.766,6.865,2.969,10.569c-1.531-1.638-3.344-3.512-5.799-3.303
				c-4.004,0.503-7.369,3.757-8.416,7.598c-0.355,2.56-0.646,5.179-1.737,7.562c-2.07,4.972-6.656,8.68-11.828,10.014
				c-3.724,0.938-7.646,0.398-11.22-0.877c3.535,2.277,7.145,4.72,9.501,8.283c2.26,3.545,3.012,7.801,3.33,11.925
				c5.06-0.099,9.394,3.278,11.717,7.571c3.324-1.493,5.939-4.819,6.047-8.529c-0.432-2.18-3.042-3.121-5.02-2.702
				c-0.75,0.377-1.18,1.147-1.728,1.743c-1.353-1.038-2.967-2.219-3.065-4.085c-0.248-3.558,2.551-6.652,5.852-7.595
				c-1.491-1.063-3.02-2.205-3.907-3.853c-1.428-2.582-1.458-6,0.108-8.526c1.343-2.084,3.799-2.892,6.068-3.492
				c-0.299,1.609-0.638,3.453,0.418,4.873c2.409,3.015,5.786,5.142,7.965,8.363c1.23,1.846,2.312,3.889,2.555,6.131
				c0.316,2.601-0.293,5.179-0.719,7.726c1.264-1.442,2.318-3.058,3.066-4.823c2.018-4.595,3.357-9.605,3.167-14.67
				c-0.146-3.133-1.601-6.705-4.745-7.87c-1.617-0.538-2.712,1.101-3.755,2.043c-0.495-1.965-1.176-4.079-0.388-6.063
				c1.074-2.721,4.135-4.192,6.936-4.268c2.041-0.047,3.346,1.645,4.506,3.068c-0.218-2.915-0.453-5.852-1.111-8.708
				c-1.082-5.284-3.801-10.072-6.961-14.38c-4.125-5.381-10.75-8.288-17.355-9.063C134.787,117.624,129.803,116.884,124.805,117.124
				 M110.629,125.662c-3.077,3.213-6.013,6.892-6.943,11.354c-1.108,6.456,1.219,13.691,6.71,17.549
				c3.141,2.457,7.663,3.395,11.326,1.577c2.178-1.116,3.954-3.06,4.84-5.344c1.449-3.517-4.165-7.132-6.651-4.134
				c-1.539,1.265-1.628,3.338-1.02,5.099c-1.284-0.122-2.845,0.166-3.809-0.908c-1.452-1.549-1.488-3.833-1.4-5.826
				c-1.923,0.732-4.377,1.628-6.158,0.108c-1.611-1.583-1.692-4.065-1.811-6.181c-0.091-2.253,0.848-4.403,2.437-5.978
				c1.042,1.442,1.979,3.611,4.022,3.687c4.033-0.587,7.574-3.189,11.742-3.088c1.796-0.2,3.481,0.493,5.047,1.3
				c-1.8-1.936-3.638-3.817-5.448-5.726c-2.517-2.701-4.108-6.106-5.292-9.563C115.415,121.242,112.865,123.299,110.629,125.662
				 M87.952,153.741c1.394,6.528,4.786,12.359,8.333,17.928c1.656,2.563,3.377,5.096,5.227,7.521
				c6.444,8.105,16.332,13.01,26.496,14.271c-0.768-0.299-1.516-0.771-2.365-0.756c-2.412-0.039-4.715-0.844-6.978-1.599
				c-0.32-2.536-0.351-5.139,0.441-7.593c-1.812,1.919-4.774,3.031-7.235,1.636c-2.517-1.082-3.4-3.965-3.331-6.5
				c2.032,0.543,4.5,0.505,6.042-1.123c0.975-1.467-0.033-3.173-0.746-4.515c-2.635-4.239-6.466-7.592-10.538-10.396
				c-1.964-1.297-3.356-3.271-4.217-5.429c-2.178-5.526-2.399-11.618-2.187-17.483c-2.321,0.838-5.237,1.163-7.175-0.684
				c-1.941-1.965-1.034-4.963-1.077-7.413C85.887,138.644,86.39,146.491,87.952,153.741 M130.182,188.036
				c0.133,1.838,0.129,3.694-0.025,5.535c1.564,0.074,3.13,0.079,4.707,0.063C134.131,191.189,132.307,189.345,130.182,188.036z"/>
		</g>
	</g>
</g>
</svg>
