<?xml version="1.0" encoding="utf-8"?>
<!-- Generator: Adobe Illustrator 16.0.0, SVG Export Plug-In . SVG Version: 6.00 Build 0)  -->
<!DOCTYPE svg PUBLIC "-//W3C//DTD SVG 1.1//EN" "http://www.w3.org/Graphics/SVG/1.1/DTD/svg11.dtd">
<svg version="1.1" xmlns="http://www.w3.org/2000/svg" xmlns:xlink="http://www.w3.org/1999/xlink" x="0px" y="0px" width="256px"
	 height="256px" viewBox="-78 -78 256 256" enable-background="new -78 -78 256 256" xml:space="preserve">
<g id="Capa_3">
	<linearGradient id="SVGID_1_" gradientUnits="userSpaceOnUse" x1="53.834" y1="133.167" x2="53.834" y2="101.6426">
		<stop  offset="0" style="stop-color:#000000"/>
		<stop  offset="1" style="stop-color:#FFFFFF;stop-opacity:0"/>
	</linearGradient>
	<polyline fill="url(#SVGID_1_)" points="-0.834,133.167 -17.167,101.643 124.834,101.643 109.613,133.167 -0.834,133.167 	"/>
</g>
<g id="Layer_1">
	<g id="_x23_948d89ff">
	</g>
	<rect x="-0.834" y="56.044" fill="#FFFFFF" width="110.447" height="77.123"/>
	<path fill="#FFFFFF" stroke="#FFFFFF" stroke-width="14" stroke-miterlimit="10" d="M99.116,90.136
		c2.456-5.871,3.883-12.178,4.176-18.543c0.161-5.855,0.05-11.813-1.599-17.475c-2.2-8.408-6.146-16.915-13.399-22.096
		c-9.3-6.354-20.778-9.382-32.003-8.738c-0.738-1.716-1.592-3.513-3.201-4.567c-1.641-1.076-3.672-1.07-5.554-1.252
		c-3.807-5.77-4.908-12.757-5.76-19.478c-0.621-4.786,0.107-9.748,2.327-14.051c1.172,4.692,4.308,8.754,8.333,11.361
		c3.593,2.114,8.083,1.082,11.481-0.909c-2.018,3.283-1.211,7.75,1.596,10.308c3.066,2.183,7.035,1.295,10.55,1.601
		c-1.935-2.219-3.591-4.812-4.058-7.769c-0.597-3.248,0.309-6.476,1.193-9.577c1.188-4.756,1.617-10.36-1.431-14.539
		c-1.917-2.574-3.952-5.263-6.908-6.712c-2.191-1.179-4.682-1.611-7.131-1.909c4.386-5.703,5.137-13.48,3.753-20.335
		c-0.936-4.326-5.002-7.171-9.265-7.528h-3.758c-2.99,0.541-5.722,2.303-7.27,4.932c-1.849,2.836-3.111,6.854-0.942,9.865
		c1.726,2.22,4.466,4.104,7.385,3.833c2.258-0.296,3.437-2.428,4.565-4.147c-1.623,0.027-3.808,0.61-4.825-1.092
		c-1.044-2.051-1.023-5.567,1.499-6.518c2.414-0.643,5.564,0.15,6.644,2.6c1.464,3.041,0.892,6.675-0.733,9.53
		c-2.151,3.851-5.081,7.183-7.667,10.732c-4.423-3.387-11-1.92-14.601,1.97c2.002,0.335,4.14,0.489,5.909,1.603
		c1.284,0.733,2.17,1.954,3.052,3.106c-2.022,2.781-3.579,5.853-4.88,9.024c-1.571-0.687-3.277-1.466-5.033-1.033
		c-1.227,0.233-1.98,1.33-2.825,2.141c1.883,1.204,3.856,2.521,4.872,4.6c1.598,2.875,1.256,6.262,1.447,9.422
		c0.186,7.1,1.864,14.078,4.149,20.779c-7.635,0.96-14.978,4.354-20.448,9.801C11.636,36.118,6.739,45.591,5.928,55.649v5.883
		c0.24,5.027,2.044,9.761,2.82,14.698c1.044,5.262,3.384,10.144,6.041,14.758c1.813,3.34,3.24,7.397,1.838,11.146
		c-0.521,1.174-1.336,2.857-2.888,2.636c-2.218-0.94-3.601-3.044-5.184-4.755c-0.266,3.004-0.9,6.518,1.131,9.085
		c1.82,2.288,5.007,2.393,7.688,2.307c-1.563,1.474-2.756,3.494-2.435,5.724c0.077,3.012,1.988,5.429,3.663,7.76h0.182
		c0.633-1.984,1.657-4.025,3.642-4.94c2.77-1.359,5.767-2.898,7.151-5.829c1.182-2.578,0.297-5.442-0.691-7.925
		c5.57,6.179,13.689,9.319,21.683,10.927c0.771,1.471,1.706,2.926,3.128,3.848c3.087,2.064,6.648,3.491,10.35,3.92h1.229
		c3.604-0.247,6.305-3.019,7.396-6.311c3.539,1.105,7.414,1.612,10.984,0.367c3.591-1.059,6.16-4.394,10.016-4.729
		c2.588-0.414,4.963,0.911,7.116,2.158c-0.388-3.556-2.055-7.186-5.263-9.018c-2.423-1.255-5.258-0.729-7.802-0.196
		C92.955,102.615,96.477,96.47,99.116,90.136z M27.537,32.104c3.563-2.537,7.567-4.396,11.741-5.702
		c0.187,0.546,0.38,1.086,0.568,1.636l0,0c-0.185-0.549-0.381-1.091-0.568-1.634C35.104,27.707,31.1,29.566,27.537,32.104
		c-4.234,3.025-8.125,6.771-10.491,11.444l0,0C19.415,38.871,23.303,35.129,27.537,32.104z"/>
	<g id="Capa_4">
		<g id="_x23_ffffffff">
			<path fill="#2A99D1" d="M32.083,30.816c3.479-2.476,7.388-4.292,11.462-5.564c0.182,0.532,0.373,1.06,0.555,1.598
				c-2.787,2.544-5.502,5.241-7.529,8.451c-1.638,2.551-3.621,4.868-5.648,7.111c-1.346,1.52-2.993,3.065-5.121,3.24
				c-1.823,0.021-3.199-1.33-4.631-2.253C23.362,38.165,27.531,34.069,32.083,30.816z"/>
			<path fill="#2A99D1" d="M62.625,100.114c2.125,1.31,3.948,3.155,4.682,5.597c-1.578,0.02-3.144,0.015-4.709-0.062
				C62.754,103.81,62.758,101.952,62.625,100.114z"/>
		</g>
		<g id="_x23_6c5f26ff">
			<path fill="#2A99D1" d="M48.066-59.216h3.668c4.162,0.349,8.132,3.126,9.045,7.349c1.352,6.691,0.617,14.285-3.664,19.852
				c2.391,0.291,4.821,0.712,6.961,1.864c2.887,1.415,4.873,4.04,6.745,6.553c2.974,4.08,2.558,9.55,1.396,14.193
				c-0.864,3.028-1.747,6.179-1.168,9.35c0.458,2.887,2.074,5.417,3.963,7.583c-3.431-0.298-7.304,0.569-10.299-1.563
				c-2.74-2.496-3.526-6.857-1.558-10.063c-3.316,1.943-7.701,2.951-11.209,0.887c-3.929-2.544-6.99-6.509-8.135-11.09
				C41.647-10.1,40.936-5.256,41.54-0.584c0.833,6.561,1.907,13.381,5.624,19.015c1.836,0.178,3.821,0.171,5.422,1.222
				c1.57,1.03,2.406,2.783,3.125,4.458c10.957-0.628,22.164,2.328,31.24,8.531c7.083,5.057,10.936,13.362,13.084,21.569
				c1.608,5.527,1.716,11.345,1.56,17.061c-0.287,6.214-1.679,12.371-4.078,18.103c-2.575,6.182-6.012,12.184-11.121,16.621
				c2.483-0.521,5.252-1.034,7.615,0.191c3.134,1.787,4.762,5.331,5.139,8.804c-2.102-1.219-4.423-2.513-6.945-2.107
				c-3.765,0.327-6.273,3.585-9.778,4.616c-3.485,1.216-7.27,0.722-10.727-0.357c-1.062,3.213-3.701,5.92-7.219,6.159h-1.199
				c-3.613-0.416-7.09-1.81-10.103-3.826c-1.388-0.9-2.3-2.319-3.054-3.756c-7.803-1.569-15.729-4.635-21.168-10.667
				c0.966,2.423,1.829,5.22,0.675,7.735c-1.351,2.861-4.277,4.364-6.981,5.691c-1.937,0.894-2.937,2.886-3.554,4.822h-0.178
				c-1.634-2.275-3.501-4.635-3.575-7.573c-0.315-2.178,0.849-4.151,2.376-5.588c-2.617,0.081-5.729-0.018-7.505-2.254
				c-1.983-2.506-1.365-5.935-1.104-8.868c1.545,1.672,2.894,3.724,5.061,4.644c1.515,0.215,2.311-1.428,2.819-2.573
				c1.369-3.66-0.024-7.62-1.795-10.881c-2.594-4.505-4.877-9.271-5.897-14.408c-0.758-4.821-2.519-9.44-2.754-14.349v-5.744
				c0.792-9.818,5.573-19.065,12.524-25.94c5.34-5.318,12.508-8.631,19.962-9.568c-2.231-6.543-3.87-13.354-4.052-20.285
				c-0.186-3.085,0.148-6.392-1.412-9.199c-0.991-2.03-2.918-3.315-4.756-4.49c0.825-0.792,1.561-1.863,2.758-2.09
				c1.714-0.424,3.378,0.337,4.914,1.007c1.271-3.094,2.79-6.094,4.764-8.81c-0.861-1.124-1.726-2.316-2.98-3.031
				c-1.726-1.087-3.812-1.238-5.768-1.565c3.515-3.797,9.935-5.229,14.254-1.923c2.525-3.466,5.384-6.718,7.486-10.477
				c1.586-2.788,2.145-6.336,0.716-9.304c-1.058-2.392-4.132-3.167-6.486-2.539c-2.462,0.927-2.483,4.36-1.464,6.362
				c0.992,1.663,3.125,1.093,4.71,1.066c-1.101,1.678-2.252,3.759-4.458,4.048c-2.848,0.267-5.522-1.574-7.207-3.741
				c-2.119-2.939-0.886-6.861,0.918-9.631C42.479-56.968,45.146-58.688,48.066-59.216 M51.928-23.165
				c1.609-0.287,3.313-0.832,4.911-0.184c2.343,1.004,4.019,3.313,4.284,5.848c-1.834-0.672-4.754-1.878-5.771,0.575
				c-0.799,2.386-1.08,5.916,1.354,7.454c2.758,1.282,6.86,1.143,8.51-1.802c2.655-4.305,0.928-10.51-3.588-12.804
				C58.583-26.082,54.855-24.678,51.928-23.165 M27.64,32.721c-4.552,3.253-8.716,7.344-10.913,12.583
				c1.432,0.924,2.808,2.272,4.631,2.254c2.128-0.181,3.775-1.725,5.121-3.245c2.028-2.24,4.01-4.556,5.649-7.108
				c2.027-3.212,4.742-5.906,7.529-8.452c-0.183-0.539-0.373-1.064-0.554-1.599C35.028,28.429,31.118,30.244,27.64,32.721
				 M52.805,31.115c2.027,4.042,4.855,7.707,8.418,10.52c3,2.47,5.114,5.823,6.627,9.369c0.24-2.807,2.339-4.928,2.806-7.653
				c0.52-2.645,0.441-5.596-1.191-7.849c2.453,0.784,5.069,1.93,6.33,4.329c1.229,2.001,1.216,4.447,0.656,6.651
				c1.651-0.066,3.529-0.191,4.857,0.999c2.961,2.563,3.766,6.862,2.97,10.564c-1.532-1.637-3.345-3.511-5.799-3.302
				c-4.004,0.503-7.369,3.756-8.416,7.596c-0.356,2.559-0.646,5.179-1.738,7.562c-2.07,4.971-6.656,8.679-11.828,10.013
				c-3.724,0.938-7.646,0.398-11.22-0.877c3.535,2.277,7.145,4.72,9.501,8.284c2.26,3.544,3.012,7.8,3.33,11.924
				c5.059-0.099,9.393,3.278,11.716,7.571c3.325-1.493,5.939-4.819,6.047-8.529c-0.431-2.179-3.042-3.121-5.019-2.702
				c-0.75,0.377-1.18,1.147-1.728,1.743c-1.353-1.038-2.967-2.218-3.065-4.085c-0.248-3.558,2.55-6.652,5.851-7.595
				c-1.491-1.063-3.019-2.204-3.907-3.852c-1.428-2.582-1.458-6,0.108-8.526c1.343-2.084,3.799-2.892,6.068-3.492
				c-0.298,1.609-0.637,3.453,0.419,4.873c2.409,3.014,5.786,5.141,7.964,8.363c1.231,1.846,2.312,3.889,2.555,6.131
				c0.316,2.6-0.293,5.178-0.718,7.725c1.263-1.442,2.318-3.058,3.066-4.823c2.018-4.595,3.357-9.605,3.167-14.67
				c-0.145-3.133-1.601-6.705-4.745-7.87c-1.618-0.538-2.712,1.101-3.755,2.043c-0.495-1.965-1.176-4.079-0.388-6.063
				c1.074-2.722,4.135-4.193,6.936-4.268c2.04-0.047,3.346,1.645,4.506,3.068c-0.218-2.915-0.454-5.851-1.112-8.706
				c-1.082-5.281-3.801-10.068-6.96-14.374c-4.125-5.381-10.75-8.288-17.356-9.063C62.787,31.615,57.803,30.876,52.805,31.115
				 M38.629,39.654c-3.077,3.212-6.013,6.889-6.943,11.35c-1.108,6.453,1.219,13.688,6.71,17.545
				c3.141,2.457,7.663,3.395,11.326,1.577c2.178-1.116,3.954-3.06,4.84-5.344c1.449-3.517-4.165-7.131-6.651-4.133
				c-1.539,1.264-1.628,3.338-1.02,5.098c-1.284-0.122-2.845,0.166-3.809-0.908c-1.452-1.549-1.488-3.833-1.4-5.826
				c-1.923,0.732-4.377,1.628-6.158,0.108c-1.611-1.582-1.692-4.063-1.811-6.177c-0.091-2.252,0.848-4.402,2.437-5.975
				c1.042,1.442,1.979,3.609,4.022,3.685c4.033-0.587,7.574-3.188,11.742-3.087c1.796-0.2,3.481,0.493,5.047,1.299
				c-1.8-1.934-3.638-3.815-5.448-5.722c-2.517-2.701-4.108-6.106-5.292-9.563C43.415,35.234,40.865,37.291,38.629,39.654
				 M15.952,67.724c1.394,6.529,4.786,12.36,8.333,17.928c1.656,2.563,3.377,5.096,5.227,7.522
				c6.444,8.105,16.332,13.01,26.496,14.272c-0.768-0.3-1.516-0.771-2.365-0.757c-2.412-0.039-4.715-0.844-6.978-1.598
				c-0.32-2.536-0.351-5.139,0.441-7.593c-1.812,1.919-4.774,3.032-7.235,1.636c-2.517-1.082-3.4-3.965-3.331-6.5
				c2.032,0.543,4.5,0.504,6.042-1.123c0.975-1.467-0.033-3.173-0.746-4.515c-2.635-4.239-6.466-7.592-10.538-10.397
				c-1.964-1.296-3.356-3.271-4.217-5.428c-2.178-5.527-2.399-11.618-2.187-17.481c-2.321,0.838-5.237,1.163-7.175-0.683
				c-1.941-1.964-1.034-4.96-1.077-7.41C13.887,52.63,14.39,60.475,15.952,67.724 M58.182,102.019
				c0.133,1.838,0.129,3.695-0.026,5.535c1.565,0.075,3.13,0.08,4.708,0.063C62.131,105.173,60.307,103.328,58.182,102.019z"/>
		</g>
	</g>
</g>
</svg>
