<?xml version="1.0" encoding="utf-8"?>
<!-- Generator: Adobe Illustrator 16.0.0, SVG Export Plug-In . SVG Version: 6.00 Build 0)  -->
<!DOCTYPE svg PUBLIC "-//W3C//DTD SVG 1.1//EN" "http://www.w3.org/Graphics/SVG/1.1/DTD/svg11.dtd">
<svg version="1.1" id="Capa_1" xmlns="http://www.w3.org/2000/svg" xmlns:xlink="http://www.w3.org/1999/xlink" x="0px" y="0px"
	 width="256px" height="256px" viewBox="0 0 256 256" enable-background="new 0 0 256 256" xml:space="preserve">
<g id="_x23_ffffffff">
	<path fill="#FFFFFF" d="M4.954,79.412c0.632-4.508,2.912-8.713,6.577-11.482c1.504,0.289,3.356,1.768,1.797,3.271
		c-2.589,3.402-4.047,7.382-4.96,11.512c-0.854-0.243-2.556-0.725-3.414-0.956V79.412z"/>
	<path fill="#FFFFFF" d="M12.939,79.906c6.43-2.975,14.222-2.505,21.067-1.119c6.347,1.249,11.194,7.126,11.454,13.553
		c1.634,7.595-4.684,13.941-4.57,21.206c6.363,20.024,12.002,40.312,19.107,60.115c-1.684,0.025-5.052,0.038-6.736,0.054
		c-6.82-16.543-14.427-32.805-20.192-49.763c-1.458-2.975-2.56-8.098-6.954-7.059c-2.25,1.521-0.469,4.503-0.335,6.623
		c4.08,16.874,3.737,34.426,7.415,51.368c-2.95,0.247-7.775,3.351-9.665,0.016c0.013-10.883-2.48-21.49-3.611-32.269
		c-2.217-15.907-3.741-31.901-6.498-47.74C12.876,89.985,10.555,84.631,12.939,79.906 M20.693,83.743
		c0.163,9.426,3.142,18.495,3.628,27.9c11.646-1.29,16.799-17.05,9.668-25.667C30.604,82.403,25.117,82.335,20.693,83.743z"/>
	<path fill="#FFFFFF" d="M203.515,95.649c1.763-11.562,13.443-20.226,24.824-20.351c8.049-0.071,12.32,8.236,12.605,15.299
		c1.542,26.911-5.467,53.241-10.603,79.444c-0.713,2.995-0.498,6.786-3.356,8.727c-6.492,0.599-13.019-1.748-18.406-5.262
		c-10.771-7.018-11.948-25.019-2.153-33.229c6.539-4.583,13.229,0.825,18.818,4.193c3.431-16.044,5.973-32.349,6.86-48.737
		c0.444-4.956-2.454-12.409-8.629-11.189c-6.423,1.018-8.014,8.387-9.476,13.695C210.313,98.322,206.769,97.384,203.515,95.649
		 M211.398,151.369c-4.756,7.173,1.021,17.52,9.458,18.073c2.578-4.161,1.957-9.188,2.511-13.829
		C225.52,148.873,214.536,146.154,211.398,151.369z"/>
	<path fill="#FFFFFF" d="M152.745,86.743c-1.132-5.391,6.107-11.419,10.322-6.883c-1.751,3.063-6.702,2.735-7.436,7.025
		C154.915,86.856,153.479,86.776,152.745,86.743z"/>
	<path fill="#FFFFFF" d="M69.564,82.503c3.849-1.395,8.336-2.966,12.371-1.408c0.138,0.821,0.448,2.505,0.616,3.352
		c-5.899-0.704-11.034,2.153-16.438,3.703C63.825,85.235,67.621,83.618,69.564,82.503z"/>
	<path fill="#FFFFFF" d="M158.497,87.794c2.995,0.23,6.287-0.583,9.116,0.599c2.266,11.68-0.729,25.052,5.667,35.839
		c1.605-1.328,3.645-2.547,3.905-4.826c3.045-10.201,2.487-20.92,3.087-31.398c2.835-0.034,5.65,0.034,8.491,0.193
		c0.16,13.045-0.778,26.442-6.125,38.532c4.989,8.814,6.075,19.01,7.206,28.889c0.377,3.032,0,6.058-1.048,8.906
		c-3.058-0.051-6.141-0.085-9.211-0.143c0.107-7.205,0.934-14.479-0.667-21.604c-1.114-4.168-1.021-9.689-5.621-11.725
		c-6.687,9.878-2.606,22.219-5.325,33.064c-2.962,0.021-5.928,0.038-8.885,0.071c1.047-12.128,0.838-25.182,7.381-35.897
		C157.768,116.813,158.945,101.414,158.497,87.794z"/>
	<path fill="#FFFFFF" d="M58.295,107.454c1.504-7.289,6.276-13.958,13.259-16.874c3.967-1.34,9.296-1.333,11.884,2.543
		c4.973,6.883,4.533,15.756,5.363,23.803c1.448,14.515-0.44,29.052-0.78,43.559c-0.18,2.425,0.126,5.053-1.197,7.227
		c-9.506,2.362-22.488-2.689-23.334-13.636c-0.402-4.78-0.528-10.67,4.021-13.636c4.499-3.029,9.518,0.205,13.833,1.927
		c0.079-13.184,1.148-26.543-1.378-39.546c-0.272-3.092-2.937-4.792-5.207-6.443c-6.405,1.106-6.699,7.532-8.14,12.534
		C63.737,109.541,60.838,108.862,58.295,107.454 M70.988,150.67c-1.114,5.982,4.407,11.738,10.448,10.754
		c0.227-4.143,0.227-8.315-0.36-12.43C79.295,144.566,71.106,145.895,70.988,150.67z"/>
	<path fill="#FFFFFF" d="M104.929,98.221c-1.96-4.595,3.888-5.169,6.842-5.249c2.508-0.649,3.9,1.503,5.341,3.096
		C113.183,97.459,109.027,97.785,104.929,98.221z"/>
	<path fill="#FFFFFF" d="M198.961,91.242c3.041,0.712,3.111,3.984,4.758,5.99c2.188,1.006,4.307,2.154,6.344,3.452
		C204.499,106.03,195.357,97.785,198.961,91.242z"/>
	<path fill="#FFFFFF" d="M136.768,98.288c2.426-1.068,7.992-3.59,8.228,0.821c0.495,11.873,1.161,23.778,0.319,35.629
		c-1.153,8.189-4.132,17.214-11.71,21.62c-4.001,2.622-9.07,2.557-13.619,1.937c-6.233-1.877-10.155-7.885-11.545-13.968
		c-4.097-14.397-2.182-29.508-1.78-44.229c2.429-0.679,4.889-1.051,7.386-1.131c0.406,12.434-0.712,24.888,0.284,37.309
		c0.746,4.915,2.07,10.373,6.272,13.515c4.37,2.464,10.946,1.843,13.443-2.982c2.932-5.748,3.124-12.417,3.041-18.751
		C136.683,118.141,137.597,108.2,136.768,98.288z"/>
	<path fill="#FFFFFF" d="M46.185,106.223c1.227,0.142,2.476,0.323,3.707,0.486c-1.328,4.214,2.48,11.37-3.243,12.744
		C44.898,115.188,44.953,110.596,46.185,106.223z"/>
	<path fill="#FFFFFF" d="M123.873,130.801c3.729-2.576,8.261,2.953,4.911,6.107C125.042,141.039,118.611,133.528,123.873,130.801z"
		/>
	<path fill="#FFFFFF" d="M242.922,134.315c4.113-2.313,3.335,3.033,2.932,5.396c-2.613,14.168-6.199,28.228-11.185,41.758
		c-0.272,2.819-6.301,1.057-3.703-1.504C236.471,165.181,239.721,149.715,242.922,134.315z"/>
	<path fill="#FFFFFF" d="M119.13,141.654c4.198,1.329,8.387,2.815,12.611,0.625c4.536,2.999-2.396,5.961-5.291,5.538
		C123.312,147.905,116.672,145.911,119.13,141.654z"/>
	<path fill="#FFFFFF" d="M92.685,145.575c0.863,0.034,2.576,0.109,3.436,0.144c0.389,6.51,0.582,13.104-0.097,19.593l-2.027,0.808
		l-1.24-0.984C92.378,158.621,92.496,152.082,92.685,145.575z"/>
	<path fill="#FFFFFF" d="M193.879,161.555c0.859,0.468,2.561,1.39,3.414,1.867c-0.713,1.97-1.424,3.946-2.136,5.939
		c-2.543,0.747-5.153,1.296-7.772,1.64c-0.925-3.843,1.891-4.487,4.843-4.847C192.651,165.005,193.473,162.709,193.879,161.555z"/>
</g>
</svg>
