<?xml version="1.0" encoding="utf-8"?>
<!-- Generator: Adobe Illustrator 16.0.0, SVG Export Plug-In . SVG Version: 6.00 Build 0)  -->
<!DOCTYPE svg PUBLIC "-//W3C//DTD SVG 1.1//EN" "http://www.w3.org/Graphics/SVG/1.1/DTD/svg11.dtd">
<svg version="1.1" xmlns="http://www.w3.org/2000/svg" xmlns:xlink="http://www.w3.org/1999/xlink" x="0px" y="0px" width="256px"
	 height="256px" viewBox="-78 -78 256 256" enable-background="new -78 -78 256 256" xml:space="preserve">
<g id="Capa_3">
	<linearGradient id="SVGID_1_" gradientUnits="userSpaceOnUse" x1="50.084" y1="133.167" x2="50.084" y2="102.2314">
		<stop  offset="0" style="stop-color:#000000"/>
		<stop  offset="1" style="stop-color:#FFFFFF;stop-opacity:0"/>
	</linearGradient>
	<polyline fill="url(#SVGID_1_)" points="-47.126,133.167 -76.167,102.231 176.335,102.231 149.27,133.167 -47.126,133.167 	"/>
	<path fill="#FFFFFF" d="M138.833-15.333c-6.098-0.444-12.215-0.292-18.32-0.581C117.319-16.065,114.115-16,110.92-16
		c-2.86,0-5.617-0.667-8.42-0.667c-14.079,0-28.133-0.563-42.162-1.052c-12.72-0.443-25.47,0.687-38.203,0.823
		c-3.429,0.037-6.412,1.162-9.736,1.787c-3.516,0.661-7.528,0.29-11.111,0.479c-3.83,0.202-7.629,0.25-11.455-0.036
		c-1.97-0.147-4.024,0-6,0c-1.168,0-2.797-1.088-4-1.333c0.248,0.05-0.135,12.756-0.135,13.5c0,0.798-0.425,13.386,0.135,13.5
		c2.91,0.593,4.915,1.333,8,1.333c3.858,0,7.679,0.264,11.545,0.126C3.2,12.324,7.008,12.046,10.833,12
		c3.268-0.039,6.244-1.546,9.476-1.82c7.149-0.607,14.59-0.521,21.774-0.765C48.122,9.21,54.321,8.81,60.338,9.281
		c26.104,2.045,52.37,0.482,78.495,2.386C138.384,11.634,139.688-15.271,138.833-15.333z"/>
	<path fill="#FFFFFF" d="M144.314,69.169c-0.472-3.284-0.644-6.685-1.089-10.018H-28.24c-2.659,4.16-7.498,11.517-7.556,11.478
		c-1.983-1.304-3.783-2.841-5.598-4.359c0.247,1.363,0.497,2.656,0.782,3.827c1.809,7.421,5.567,17.579,2.075,24.941
		c-0.666,1.404-7.386,12.414-8.962,14.051v23.674h196.944V85.85C147.016,80.528,145.13,74.856,144.314,69.169z"/>
	<path fill="#FFFFFF" d="M93.5,31c-12.533-1.446-25.2-1.259-37.795-1.385c-12.627-0.126-25.246-0.882-37.872-0.948
		c-0.157-0.001-0.251,26.999,0,27c12.625,0.066,25.246,0.779,37.872,0.948C68.305,56.783,80.959,56.554,93.5,58
		C92.678,57.905,94.726,31.142,93.5,31z"/>
	<path fill="#FFFFFF" d="M135.833,21c-0.474-2.077-3.004-1.032-3.803-3.206c0.251-4.869,0.401-10.305-1.068-14.747
		c0.083-2.499-0.052-5.039-1.181-6.896c-1.371-2.255-5.371-4.089-7.854-3.547c-1.083,0.236-2.226,1.414-3.094,2.063
		c-1.109,0.829-2.183,1.27-3.19,1.929c-0.422,0.039-0.811,0.066-1.143,0.071c-2.31,0.034-4.636,0.074-6.963,0.083
		c0.17-2.713,0.195-5.671-0.963-7.441c-1.23-1.882-5.658-2.939-7.579-3.616c-7.382-2.601-14.526-5.114-22.362-6.148
		c-7.289-0.962-14.524-0.363-21.466,2.123c-3.258,1.167-6.639,1.959-10.067,2.365c-3.375,0.399-5.801,2.568-8.784,3.958
		C30.166-9.146,23.1-7.711,17.179-4.481C13.951-2.72,11.381,1.02,8.5,3.333C8.13,3.63,7.775,4.008,7.427,4.413
		C7.243,2.466,6.829,0.585,5.82-1.21C2.476-7.164-8.2-0.14-11.846,1.667c-5.836,2.892-12.357,3.607-16.514,8.833
		c-1.7,2.137-3.261,4.179-3.78,6.722c-0.042-0.074-0.091-0.141-0.126-0.222v1.044c-0.028,0.264-0.063,0.524-0.068,0.799
		c-0.121,7.065-0.098,14.137-0.027,21.203c0.001,0.132,0.001,0.257,0.002,0.385c-0.007,0.024-0.013,0.053-0.02,0.078
		c-0.045-0.062-0.088-0.123-0.121-0.175v0.799c-0.039,0.304-0.062,0.647-0.068,1.044c-0.066,3.882-0.07,7.767-0.065,11.65
		c-0.517,0.998-0.266,4.146-0.121,5.968c-0.164,2.164-0.379,4.749,0.079,6.689c-0.003,2.716-0.016,5.432,0,8.147
		c0.008,1.427-0.611,5.306,0.117,6.687c0.071,0.134,0.152,0.252,0.23,0.375c0.047,0.814,0.096,1.475,0.094,1.82
		c-0.036,6.155-0.057,12.315,0.048,18.471c0.006,0.384,0.032,0.731,0.068,1.062v0.781c0.021-0.089,0.05-0.168,0.075-0.253
		c0.02,0.1,0.05,0.188,0.076,0.281c-0.135,2.964-0.334,5.825-0.334,6.312c0,1.171-0.939,12.944,0.135,13.5
		c8.999,4.657,19.802,2.472,29.333,1.222c6.316-0.828,12.606-1.683,18.864-2.889c2.703-0.521,13.38-1.486,14.42-4.444
		c0.333-0.948,0.086-3.081,0.095-3.954c0.028-2.844,0.034-5.688,0.035-8.532c0.85-0.183,1.687-0.392,2.504-0.639
		c1.522,1.171,3.913,2.125,5.086,2.7c9.41,4.617,20.37,6.144,30.688,7.012c2.311,0.194,4.636,0.242,6.95,0.383
		c2.678,0.162,3.694,0.639,4.849-1.965c1.325-2.987,1.749-8.463,1.879-11.709c0.016-0.386,0.027-0.787,0.039-1.194
		c0.013-0.007,0.026-0.012,0.039-0.018c1.644-0.789,3.154-1.809,4.606-2.926c2.404-0.417,4.787-0.831,7.106-1.31
		c4.928-1.017,9.698-2.542,14.576-3.753c2.321-0.576,11.071-1.373,11.873-4.439c0.013,0.036,0.032,0.061,0.045,0.098v-0.312
		c0.008-0.058,0.034-0.111,0.036-0.171c0.181-4.98,0.197-9.981,0.158-14.979c2.433-0.38,4.839,0.02,7.234-0.807
		c1.293-0.446,1.646-1.541,2.077-2.696c0.678-1.811,1.182-2.581,2.47-4.024c0.552-0.618,0.427-2.149,0.438-2.831
		c0.066-3.885,0.066-7.771,0.066-11.657c0-0.67-0.008-1.339-0.008-2.009c0.846,0.149,1.694,0.223,2.539,0.176
		C136.017,47.99,136.411,23.538,135.833,21z"/>
	<g>
		<g>
			<path fill="#FFFFFF" stroke="#FFFFFF" stroke-width="11" stroke-miterlimit="10" d="M50.23-24.845
				c-35.745,0-64.722,28.979-64.722,64.721c0,35.748,28.977,64.722,64.722,64.722c35.747,0,64.721-28.974,64.721-64.722
				C114.951,4.134,85.978-24.845,50.23-24.845z M50.23,88.986c-27.079,0-49.11-22.03-49.11-49.11
				c0-27.078,22.031-49.108,49.11-49.108c27.078,0,49.109,22.03,49.109,49.108C99.34,66.956,77.309,88.986,50.23,88.986z"/>
		</g>
	</g>
	<g>
		<g>
			<path fill="#FFFFFF" stroke="#FFFFFF" stroke-width="11" stroke-miterlimit="10" d="M50.23,3.931
				c-19.82,0-35.945,16.126-35.945,35.945c0,19.822,16.125,35.946,35.945,35.946c19.821,0,35.946-16.124,35.946-35.946
				C86.177,20.058,70.054,3.931,50.23,3.931z"/>
		</g>
	</g>
	<g>
		<g>
			<path fill="#FFFFFF" stroke="#FFFFFF" stroke-width="11" stroke-miterlimit="10" d="M140.746,45.304v-78.649
				c0-0.759-0.485-1.433-1.205-1.676c-0.719-0.242-1.511,0.004-1.97,0.608c-9.814,12.941-15.125,28.736-15.125,44.975v28.773
				c0,3.302,2.674,5.974,5.974,5.974h2.49c-2.454,25.364-4.074,60.832-4.074,64.989c0,6.542,4.025,11.844,8.992,11.844
				c4.97,0,8.996-5.302,8.996-11.844C144.824,106.14,143.202,70.665,140.746,45.304z"/>
		</g>
	</g>
	<g>
		<g>
			<path fill="#FFFFFF" stroke="#FFFFFF" stroke-width="11" stroke-miterlimit="10" d="M-24.491,29.712
				c4.977-3.016,8.304-8.482,8.304-14.727l-2.466-40.317c-0.093-1.536-1.369-2.734-2.907-2.734c-1.666,0-2.992,1.394-2.91,3.057
				l1.605,32.333c0,1.819-1.475,3.291-3.292,3.291c-1.817,0-3.29-1.473-3.29-3.291l-0.802-32.319
				c-0.041-1.708-1.439-3.07-3.147-3.07c-1.709,0-3.104,1.363-3.148,3.07l-0.802,32.319c0,1.819-1.473,3.291-3.29,3.291
				c-1.818,0-3.291-1.473-3.291-3.291l1.604-32.333c0.083-1.663-1.246-3.057-2.91-3.057c-1.54,0-2.813,1.198-2.907,2.734
				l-2.467,40.317c0,6.244,3.327,11.71,8.306,14.73c3.24,1.962,5.047,5.629,4.628,9.394c-2.81,25.329-4.719,66.684-4.719,71.188
				c0,6.542,4.026,11.844,8.996,11.844c4.967,0,8.996-5.302,8.996-11.844c0-4.504-1.911-45.858-4.72-71.188
				C-29.541,35.345-27.732,31.673-24.491,29.712z"/>
		</g>
	</g>
	<g>
		<g>
			<path fill="#2569BA" d="M50.23,4.583c-19.82,0-35.945,16.126-35.945,35.945c0,19.82,16.125,35.945,35.945,35.945
				c19.821,0,35.946-16.125,35.946-35.945C86.177,20.709,70.054,4.583,50.23,4.583z"/>
		</g>
	</g>
	<g>
		<g>
			<path fill="#417CB7" d="M50.23-24.193c-35.745,0-64.722,28.978-64.722,64.721c0,35.745,28.977,64.723,64.722,64.723
				c35.747,0,64.721-28.978,64.721-64.723C114.951,4.785,85.978-24.193,50.23-24.193z M50.23,89.639
				c-27.079,0-49.11-22.031-49.11-49.11c0-27.078,22.031-49.108,49.11-49.108c27.078,0,49.109,22.031,49.109,49.108
				C99.34,67.607,77.309,89.639,50.23,89.639z"/>
		</g>
	</g>
	<path fill="#2569BA" d="M140.746,45.957v-78.65c0-0.759-0.485-1.433-1.205-1.676c-0.719-0.242-1.511,0.004-1.97,0.607
		c-9.814,12.943-15.125,28.737-15.125,44.977v28.773c0,3.3,2.674,5.974,5.974,5.974h2.49c-2.454,25.361-4.074,60.832-4.074,64.986
		c0,6.542,4.025,11.848,8.992,11.848c4.97,0,8.996-5.306,8.996-11.848C144.824,106.793,143.202,71.316,140.746,45.957z"/>
	<path fill="#2569BA" d="M-24.491,30.364c4.977-3.015,8.304-8.48,8.304-14.726l-2.466-40.318c-0.093-1.537-1.369-2.734-2.907-2.734
		c-1.666,0-2.992,1.395-2.91,3.058l1.605,32.334c0,1.816-1.475,3.29-3.292,3.29c-1.817,0-3.29-1.474-3.29-3.29l-0.802-32.321
		c-0.041-1.708-1.439-3.07-3.147-3.07c-1.709,0-3.104,1.363-3.148,3.07l-0.802,32.321c0,1.816-1.473,3.29-3.29,3.29
		c-1.818,0-3.291-1.474-3.291-3.29l1.604-32.334c0.083-1.663-1.246-3.058-2.91-3.058c-1.54,0-2.813,1.198-2.907,2.734l-2.467,40.318
		c0,6.245,3.327,11.71,8.306,14.728c3.24,1.962,5.047,5.632,4.628,9.396c-2.81,25.329-4.719,66.681-4.719,71.185
		c0,6.544,4.026,11.848,8.996,11.848c4.967,0,8.996-5.306,8.996-11.848c0-4.504-1.911-45.856-4.72-71.185
		C-29.541,35.998-27.732,32.327-24.491,30.364z"/>
</g>
<g id="Layer_1">
	<g id="_x23_948d89ff">
	</g>
	<g id="Capa_4">
	</g>
</g>
</svg>
