<?xml version="1.0" encoding="utf-8"?>
<!-- Generator: Adobe Illustrator 16.0.0, SVG Export Plug-In . SVG Version: 6.00 Build 0)  -->
<!DOCTYPE svg PUBLIC "-//W3C//DTD SVG 1.1//EN" "http://www.w3.org/Graphics/SVG/1.1/DTD/svg11.dtd">
<svg version="1.1" id="Capa_1" xmlns="http://www.w3.org/2000/svg" xmlns:xlink="http://www.w3.org/1999/xlink" x="0px" y="0px"
	 width="50px" height="50px" viewBox="0 0 50 50" enable-background="new 0 0 50 50" xml:space="preserve">
<g id="_x23_e4002bff">
	<path fill="#E4002B" d="M1.604,15.01c2.902,0.001,5.801-0.001,8.703,0.001c1.708,0.042,3.472,0.375,4.92,1.329
		c1.052,0.687,1.839,1.763,2.158,2.979c0.394,1.499,0.317,3.166-0.432,4.545c-0.688,1.295-1.905,2.262-3.27,2.772
		c0.529,0.786,1.022,1.597,1.5,2.417c0.726,1.268,1.705,2.535,3.144,3.012c-0.145,0.727-0.548,1.432-1.199,1.811
		c-0.712,0.412-1.598,0.41-2.372,0.186c-0.96-0.291-1.677-1.055-2.233-1.855c-0.874-1.27-1.563-2.656-2.367-3.969
		c-0.386-0.626-1.063-1.087-1.808-1.124c-0.935-0.026-1.871-0.008-2.806-0.015c-0.003,2.27,0,4.537-0.002,6.807
		c-1.312,0.002-2.623,0-3.934,0C1.603,27.607,1.604,21.308,1.604,15.01 M5.54,24.035c1.585,0.001,3.17,0,4.755,0
		c0.979,0.027,2.041-0.278,2.661-1.081c0.499-0.629,0.634-1.479,0.517-2.258c-0.088-0.628-0.397-1.234-0.899-1.63
		c-0.589-0.477-1.364-0.655-2.108-0.662c-1.642-0.001-3.283,0-4.924,0C5.539,20.28,5.54,22.158,5.54,24.035z"/>
	<path fill="#E4002B" d="M22.992,15.009c1.05,0.015,2.163,0.215,3.01,0.874c0.604,0.464,0.934,1.226,0.924,1.98
		c0.004,5.349,0.002,10.695,0,16.041c-1.311,0-2.622,0-3.934,0C22.991,27.605,22.991,21.308,22.992,15.009z"/>
	<path fill="#E4002B" d="M32.723,15.009c1.039,0.013,2.133,0.212,2.979,0.849c0.621,0.46,0.969,1.231,0.957,1.999
		c0.002,2.492,0,4.982,0,7.473c0.002,0.948,0.031,1.913,0.318,2.825c0.23,0.752,0.686,1.463,1.369,1.875
		c0.891,0.545,1.982,0.619,2.996,0.533c0.969-0.086,1.955-0.492,2.545-1.295c0.734-0.98,0.889-2.255,0.912-3.446
		c0.006-3.604,0-7.207,0.002-10.811c1.313,0,2.623,0,3.936,0c0,3.523,0,7.045,0,10.568c0.061,2.249-0.475,4.643-2.039,6.332
		c-1.105,1.219-2.68,1.93-4.291,2.17c-1.482,0.217-3.014,0.172-4.471-0.195c-1.471-0.369-2.848-1.213-3.727-2.465
		c-1.105-1.545-1.469-3.493-1.484-5.36C32.721,22.376,32.725,18.692,32.723,15.009z"/>
</g>
</svg>
