<?xml version="1.0" encoding="utf-8"?>
<!-- Generator: Adobe Illustrator 16.0.0, SVG Export Plug-In . SVG Version: 6.00 Build 0)  -->
<!DOCTYPE svg PUBLIC "-//W3C//DTD SVG 1.1//EN" "http://www.w3.org/Graphics/SVG/1.1/DTD/svg11.dtd">
<svg version="1.1" id="Layer_1" xmlns="http://www.w3.org/2000/svg" xmlns:xlink="http://www.w3.org/1999/xlink" x="0px" y="0px"
	 width="256px" height="256px" viewBox="-78 -78 256 256" enable-background="new -78 -78 256 256" xml:space="preserve">
<linearGradient id="SVGID_1_" gradientUnits="userSpaceOnUse" x1="49.792" y1="132.9922" x2="49.792" y2="89.4053">
	<stop  offset="0" style="stop-color:#000000"/>
	<stop  offset="1" style="stop-color:#FFFFFF;stop-opacity:0"/>
</linearGradient>
<polygon fill="url(#SVGID_1_)" points="154.386,132.992 176.834,91.154 -77.25,89.405 -52.907,132.992 "/>
<rect x="-33.373" y="71.768" fill="#FFFFFF" width="187.758" height="61.225"/>
<rect x="-52.907" y="24.536" fill="#FFFFFF" width="172.597" height="108.456"/>
<g>
	<path fill="#FFFFFF" d="M85.49-34.027c-18.383,0-34.396,10.767-42.82,26.693C34.253-23.26,18.238-34.027-0.142-34.027
		c-32.263,0-53.638,23.437-53.638,52.344c0,28.906,16.295,46.397,53.637,72.78c32.626,23.054,42.814,39.229,42.814,39.229
		s10.192-16.175,42.82-39.229c37.336-26.383,53.631-43.875,53.631-72.78C139.121-10.591,117.75-34.027,85.49-34.027z"/>
	<path fill="#FFFFFF" d="M85.49-34.027c-18.383,0-34.396,10.767-42.82,26.693c0,27.719,0,137.66,0,137.66
		s10.192-16.175,42.82-39.229c37.336-26.383,53.631-43.874,53.631-72.78C139.121-10.591,117.75-34.027,85.49-34.027z"/>
	<path fill="#FFFFFF" d="M126.203,41.271c-9.957,0-18.635,5.833-23.199,14.466c-4.562-8.632-13.238-14.466-23.199-14.466
		c-17.48,0-29.062,12.697-29.062,28.362c0,15.663,8.829,25.141,29.062,39.436c17.679,12.492,23.199,21.257,23.199,21.257
		s5.521-8.765,23.199-21.257c20.232-14.295,29.063-23.772,29.063-39.436C155.267,53.969,143.687,41.271,126.203,41.271z"/>
	<path fill="#FFFFFF" d="M126.203,41.271c-9.957,0-18.635,5.833-23.199,14.466c0,8.676,0,74.588,0,74.588s5.521-8.764,23.199-21.256
		c20.232-14.295,29.063-23.772,29.063-39.436C155.267,53.969,143.687,41.271,126.203,41.271z"/>
</g>
<g>
	<path fill="#4879BD" d="M79.085-18.281c-15.382,0-28.781,9.009-35.828,22.336C36.21-9.273,22.811-18.281,7.428-18.281
		c-26.996,0-44.883,19.609-44.883,43.799c0,24.188,13.637,38.826,44.882,60.902c27.302,19.29,35.83,32.827,35.83,32.827
		s8.526-13.537,35.828-32.827c31.245-22.076,44.88-36.715,44.88-60.902C123.965,1.328,106.083-18.281,79.085-18.281z"/>
	<path fill="#2367B7" d="M79.085-18.281c-15.382,0-28.781,9.009-35.828,22.336c0,23.195,0,115.193,0,115.193
		s8.526-13.535,35.828-32.828c31.245-22.076,44.88-36.714,44.88-60.902C123.965,1.328,106.083-18.281,79.085-18.281z"/>
	<path fill="#4879BD" d="M113.156,44.729c-8.334,0-15.596,4.881-19.414,12.103C89.925,49.61,82.664,44.729,74.33,44.729
		c-14.629,0-24.319,10.625-24.319,23.732c0,13.106,7.387,21.039,24.319,32.999c14.793,10.453,19.412,17.789,19.412,17.789
		s4.62-7.336,19.414-17.789c16.932-11.96,24.318-19.893,24.318-32.999C137.475,55.354,127.784,44.729,113.156,44.729z"/>
	<path fill="#6088BA" d="M113.156,44.729c-8.334,0-15.596,4.881-19.414,12.103c0,7.262,0,62.417,0,62.417s4.62-7.335,19.414-17.788
		c16.932-11.96,24.318-19.893,24.318-32.999C137.475,55.354,127.784,44.729,113.156,44.729z"/>
</g>
</svg>
