<?xml version="1.0" encoding="utf-8"?>
<!-- Generator: Adobe Illustrator 16.0.0, SVG Export Plug-In . SVG Version: 6.00 Build 0)  -->
<!DOCTYPE svg PUBLIC "-//W3C//DTD SVG 1.1//EN" "http://www.w3.org/Graphics/SVG/1.1/DTD/svg11.dtd">
<svg version="1.1" xmlns="http://www.w3.org/2000/svg" xmlns:xlink="http://www.w3.org/1999/xlink" x="0px" y="0px" width="256px"
	 height="256px" viewBox="-78 -78 256 256" enable-background="new -78 -78 256 256" xml:space="preserve">
<g id="Capa_3">
	<linearGradient id="SVGID_1_" gradientUnits="userSpaceOnUse" x1="53.4727" y1="133.167" x2="53.4727" y2="102.2314">
		<stop  offset="0" style="stop-color:#000000"/>
		<stop  offset="1" style="stop-color:#FFFFFF;stop-opacity:0"/>
	</linearGradient>
	<polyline fill="url(#SVGID_1_)" points="-28.722,133.167 -53.278,102.231 160.224,102.231 137.338,133.167 -28.722,133.167 	"/>
	<g>
		<path fill="#FFFFFF" stroke="#FFFFFF" stroke-width="16" stroke-miterlimit="10" d="M93.754,100.53
			c0.011,0.019,0.017,0.039,0.028,0.057c-0.055-0.093-1.421-0.397-1.41-0.395c-0.21-0.062-0.419-0.127-0.629-0.189
			c-2.177-0.401-4.369-0.955-6.489-1.545c-1.339-0.283-2.665-0.62-3.985-0.979c-0.054-0.004-0.106-0.002-0.165-0.018
			c-0.85-0.219-1.862-0.244-2.676-0.642c-0.216,0.043-0.427,0.098-0.614,0.181c-0.388-0.039-0.782-0.082-1.143-0.089
			c-2.851-0.054-3.12,3.91-0.839,4.743c4.643,0.311,9.394,1.296,13.896,2.677c0.812-0.376,1.306-1.274,1.343-2.204
			c0.054-0.105,0.114-0.207,0.152-0.315l1.981,0.183c0.687,0.064,1.29-0.386,1.589-1.05
			C94.421,100.839,94.079,100.694,93.754,100.53z"/>
		<path fill="#FFFFFF" stroke="#FFFFFF" stroke-width="16" stroke-miterlimit="10" d="M129.066,15.321l-4.33-4.969
			c-1.506-1.728-4.369-3.235-6.517-3.437L100.515,5.28l0.173-1.857c0.281-3.071-1.673-5.773-4.357-6.023
			c-2.684-0.248-5.099,2.051-5.382,5.122L90.776,4.38L74.549,2.878c-2.684-0.249-5.099,2.051-5.384,5.123l-1.028,11.14
			c-0.286,3.073,1.668,5.774,4.352,6.022l16.229,1.501l-0.347,3.713l-17.701-1.637c-2.15-0.199-5.242,0.758-7.038,2.183l-5.17,4.089
			c-1.115,0.883-1.832,2.215-1.963,3.656c-0.133,1.44,0.325,2.881,1.26,3.952l4.331,4.969c1.505,1.728,4.37,3.238,6.517,3.438
			l17.706,1.635L82.21,97.022c0.317,0.074,0.635,0.156,0.95,0.24c0.201,0.03,0.4,0.06,0.601,0.088
			c0.112,0.017,0.224,0.047,0.336,0.067c-0.007-0.017-0.018-0.03-0.023-0.047c0.007,0.016,0.095,0.048,0.219,0.085
			c0.861,0.168,1.71,0.42,2.551,0.719c0.676,0.203,1.352,0.404,2.026,0.61c1.127,0.345,2.253,0.692,3.377,1.048
			c0.003,0.001,0.381,0.095,0.742,0.203c-0.54-0.455-0.929-1.059-1.041-1.899l-0.02-0.004l0.028-0.313
			c0.007-0.029,0-0.067,0.01-0.093l4.083-44.164l16.227,1.501c2.683,0.247,5.1-2.05,5.382-5.117l1.031-11.145
			c0.285-3.071-1.67-5.774-4.351-6.022l-16.229-1.501l0.343-3.715l17.706,1.639c2.148,0.198,5.242-0.759,7.035-2.182l5.171-4.091
			c1.116-0.882,1.828-2.213,1.963-3.655C130.46,17.833,130.001,16.392,129.066,15.321z M94.192,2.821
			c0.096-1.022,0.9-1.789,1.795-1.706c0.895,0.083,1.544,0.984,1.451,2.005L97.265,4.98l-3.242-0.3L94.192,2.821z M88.679,97.832
			l-3.243-0.302l4.122-44.567l3.245,0.299L88.679,97.832z M113.993,36.492c0.894,0.084,1.544,0.983,1.449,2.009l-1.028,11.146
			c-0.096,1.021-0.899,1.784-1.795,1.701L68.95,47.31c-1.419-0.129-3.526-1.243-4.521-2.38l-4.331-4.97
			c-0.263-0.302-0.387-0.651-0.355-0.992c0.032-0.342,0.221-0.666,0.531-0.91l5.17-4.092c1.186-0.935,3.462-1.645,4.88-1.512
			L113.993,36.492z M91.616,30.678l0.344-3.714l3.245,0.3l-0.343,3.714L91.616,30.678z M126.549,19.884l-5.168,4.091
			c-1.184,0.938-3.464,1.643-4.879,1.512l-43.67-4.038c-0.893-0.083-1.546-0.983-1.451-2.008l1.031-11.14
			c0.094-1.026,0.9-1.791,1.796-1.708l43.669,4.04c1.414,0.13,3.525,1.242,4.519,2.379l4.331,4.97
			c0.261,0.301,0.388,0.655,0.354,0.992C127.053,19.314,126.861,19.637,126.549,19.884z"/>
		<path fill="#FFFFFF" stroke="#FFFFFF" stroke-width="16" stroke-miterlimit="10" d="M80.679,42.776l27.588,2.55
			c0.897,0.083,1.696-0.679,1.792-1.705c0.094-1.027-0.552-1.924-1.449-2.006l-27.588-2.55c-0.896-0.083-1.697,0.679-1.792,1.707
			C79.135,41.796,79.781,42.693,80.679,42.776z"/>
		<path fill="#FFFFFF" stroke="#FFFFFF" stroke-width="16" stroke-miterlimit="10" d="M66.247,39.571
			c-0.097,1.025,0.555,1.92,1.454,2.005l6.487,0.6c0.897,0.082,1.699-0.68,1.794-1.706c0.095-1.028-0.554-1.925-1.449-2.008
			l-6.489-0.599C67.146,37.78,66.342,38.542,66.247,39.571z"/>
		<path fill="#FFFFFF" stroke="#FFFFFF" stroke-width="16" stroke-miterlimit="10" d="M119.125,16.366l-17.849-1.651
			c-0.896-0.083-1.7,0.682-1.792,1.707c-0.096,1.027,0.55,1.924,1.447,2.008l17.85,1.651c0.897,0.083,1.7-0.684,1.798-1.708
			C120.672,17.347,120.021,16.449,119.125,16.366z"/>
		<path fill="#FFFFFF" stroke="#FFFFFF" stroke-width="16" stroke-miterlimit="10" d="M94.785,14.115l-16.227-1.502
			c-0.894-0.083-1.7,0.684-1.796,1.709c-0.092,1.025,0.559,1.923,1.452,2.006l16.227,1.501c0.897,0.083,1.699-0.682,1.794-1.708
			C96.331,15.097,95.68,14.198,94.785,14.115z"/>
	</g>
	<g id="Capa_5">
	</g>
	<g id="_x23_ffffffff">
	</g>
	<rect x="-27.333" y="103.5" fill="#FFFFFF" stroke="#FFFFFF" stroke-miterlimit="10" width="164.723" height="29.167"/>
	<path fill="#FFFFFF" stroke="#FFFFFF" stroke-miterlimit="10" d="M5.163-2.002C17.317-9.28,6.262-28.306-5.94-20.998
		C-17.299-14.196-20.277-2.581-20.277,9.907c0,5.605-0.333,11.201-0.188,16.72c-0.789,4.045-0.368,8.518-0.368,12.429
		c0,5.1,0.155,10.562,1.782,15.414c1.335,3.981,2.495,9.638,5.884,12.364c5.667,4.558,13.096,4.157,17.276-2.227
		c3.365-5.138,2.212-13.36-0.442-18.921c0-0.846,0.016-1.691,0.061-2.536c0.074-2.087,0.102-4.44-0.455-6.463
		c-1.047-3.807-1.521-3.959-1.549-7.325C5.09,26,5.61,19.987,3.276,16.004c-0.458-0.782-0.983-1.461-1.554-2.062V9.907
		C1.723,5.487,0.793,0.615,5.163-2.002z"/>
	<path fill="#FFFFFF" stroke="#FFFFFF" stroke-width="30" stroke-miterlimit="10" d="M104.612,95.12c4.294,0,7.77,3.47,7.77,7.742
		c0,4.291-3.47,7.762-7.77,7.762c-4.27,0-7.747-3.471-7.747-7.762C96.865,98.59,100.337,95.12,104.612,95.12z M70.987,95.12
		c4.282,0,7.749,3.47,7.749,7.742c0,4.291-3.467,7.762-7.749,7.762c-4.292,0-7.765-3.471-7.765-7.762
		C63.223,98.59,66.695,95.12,70.987,95.12z M-3.108-47.756l20.663,1.039l-0.391,7.738l-20.667-1.039L-3.108-47.756z M39.259,20.708
		l4.556,0.235l0.122-2.442c-1.525,0.004-3.045-0.025-4.57-0.134L39.259,20.708z M19.66,48.566c-0.077-1.507-0.14-3.023-0.213-4.528
		l-23.284-1.251c0.104,1.907,0.192,5.062,0.285,6.98c0.144,2.969,1.197,5.358,2.756,7.163c0.018,0.023,0.018,0.05,0.038,0.07
		c1.848,2.843,1.698,5.852,3.177,8.89c-2.733,12.95-11.32,25.892-14.642,38.698c-2.446,9.419,12.075,13.407,14.521,3.992
		c3.355-12.905,13.621-25.95,16.368-39.009c0.143-0.672,0.195-1.28,0.188-1.911c9.035,9.348,15.115,24.541,16.252,37.806
		c0.827,9.601,15.891,9.68,15.058,0C48.255,83.347,36.973,61.867,19.66,48.566z M5.846-19.885c6.5,0.328,12.032-4.682,12.366-11.183
		c0.11-2.234-0.416-4.354-1.411-6.184L-3.31-38.267c-1.172,1.718-1.912,3.77-2.027,6.007C-5.662-25.748-0.662-20.217,5.846-19.885z
		 M95.252-19.344c0.27-0.642,0.438-1.346,0.438-2.098c0-2.906-2.354-5.259-5.259-5.259h-0.572v-3.711
		c0-0.699-0.565-1.265-1.275-1.265c-0.7,0-1.266,0.566-1.266,1.265v3.715h-0.339c-2.902,0-5.273,2.357-5.273,5.259
		c0,0.749,0.175,1.458,0.438,2.098C68.1-17.139,57.031-5.856,55.188,8.305c-1.254-3.057-4.217-5.515-8.36-4.99
		c-0.982,0.126-1.14,0.223-2.121,0.265l0.093-1.715l-4.574-0.231l-0.1,1.913c1.532,0.109,3.051,0.109,4.582,0.041l-0.76,14.918
		c2.334-0.021,3.843-0.196,6.148-0.482c2.327-0.291,3.881-1.392,4.79-2.846v74.156h67.649V12.492
		C122.512-3.602,110.67-16.934,95.252-19.344z M116.649,83.451H60.742V12.492c0-14.552,11.844-26.386,26.388-26.386h3.128
		c14.561,0,26.387,11.833,26.387,26.386v70.959H116.649z M18.699-5.191C18.317-11.51,14.644-17.08,7.751-17.479
		C1.996-17.811-4.923-12.872-4.547-6.527c0.938,15.4,0.902,30.841,0.853,46.273l23.242,1.161c0.027-9.001,0.042-18.005-0.131-27.008
		c6.417,2.458,13.176,4.003,19.95,4.457l0.745-14.821c-7.313-0.502-14.65-2.917-21.297-6.428C18.78-3.662,18.743-4.423,18.699-5.191
		z M103.263,33.943h-0.011H93.85v5.132h-9.839v21.713h27.959V39.076h-8.707V33.943L103.263,33.943z M101.587,39.083h-6.088v-3.47
		h6.088V39.083z M64.81,17.39h16.814v43.399H64.81V17.39z M66.079,66.325h45.891v12.183H66.079V66.325z"/>
	<path fill="#FFFFFF" stroke="#FFFFFF" stroke-miterlimit="10" d="M92.858-35.165c-4.847-3.415-9.214-5.418-15.314-5.072
		c-5.227,0.297-9.017,2.927-11.094,6.905c-2.493,1.577-4.31,4.225-5.224,6.962c-0.262,0.785-0.525,1.568-0.764,2.361
		c-0.055,0.205-0.08,0.41-0.124,0.615c-1.458,1.739-2.44,3.869-2.957,6.053c-1.104,4.661-0.456,10.27,1.898,14.447
		c0.29,0.514,0.602,1.008,0.93,1.485c-2.099,0.599-4.174,1.175-6.216,1.689c-5.656,1.426-10.183,5.335-12.667,10.537
		c-0.728,1.524-1.634,2.962-2.607,4.367c-2.771,2.018-5.061,4.561-6.478,7.905c-0.407,0.961-0.744,1.896-1.036,2.827
		c-0.461,0.741-0.373,0.728-0.151,0.504c-0.01,0.034-0.021,0.068-0.031,0.103c-0.01,0.012-0.015,0.018-0.024,0.03
		c-1.625,2.032-3.48,3.949-4.981,6.064c-0.718,1.013-2.795,4.541-3.768,6.872c-1.19,2.851-0.806,8.347,1.175,10.919
		c4.392,5.702,10.603,8.999,17.702,5.504c5.455-2.686,8.281-8.76,9.449-14.412c0.446-2.156,0.634-4.353,0.972-6.527
		c0.021-0.03,0.04-0.06,0.061-0.09c0.648-0.972,1.24-1.99,1.854-2.99c0.181-0.084,0.373-0.176,0.59-0.286
		c4.164-2.115,10.604-2.657,15.427-3.891c4.813-1.231,9.681-2.172,14.474-3.481c-0.024,0.327-0.043,0.651-0.07,0.979
		c-0.309,3.687-1.063,7.361-1.455,11.051c-0.288,2.717-0.373,5.587-1.201,8.197c-4.3,13.562,16.942,19.32,21.215,5.849
		c1.409-4.444,1.453-9.426,1.986-14.046c0.396-3.422,0.925-6.812,1.297-10.222c1.73-1.759,2.806-4.268,2.665-7.546
		c-0.104-2.421-0.443-5.035-1.049-7.639c1.465-6.434,3.857-12.668,4.533-19.332C112.924-18.821,100.366-29.876,92.858-35.165z
		 M80.543-11.562c0.178-0.244,0.35-0.5,0.511-0.775c0.557-0.95,0.928-1.967,1.169-3.017c2.313,2.028,4.514,4.159,6.729,6.657
		c0.259,0.292,0.458,0.55,0.612,0.765c-0.045,0.145-0.092,0.304-0.139,0.47c-0.17,0-0.335-0.009-0.508-0.005
		c-1.448,0.038-2.906,0.144-4.37,0.305C83.204-8.648,81.966-10.17,80.543-11.562z"/>
	<g id="_x23_4a13d3ff">
		<path fill="#4879BD" d="M-3.266-38.777c0.146-2.575,0.255-5.152,0.408-7.727c6.844,0.355,13.687,0.709,20.53,1.024
			c-0.097,2.572-0.287,5.143-0.359,7.717C10.451-38.036,3.593-38.417-3.266-38.777z"/>
		<path fill="#176BBF" d="M-4.604-27.139c-1.007-3.319-0.431-7.056,1.509-9.93c6.684,0.27,13.355,0.69,20.039,0.967
			c1.359,2.564,1.771,5.623,1.056,8.444c-0.822,3.41-3.292,6.368-6.486,7.814c-3.002,1.383-6.6,1.4-9.622,0.066
			C-1.206-21.126-3.656-23.89-4.604-27.139z"/>
		<path fill="#176BBF" d="M86.797-29.621c0.248-1.218,2.238-1.253,2.487-0.019c0.072,1.338,0.005,2.682,0.028,4.023
			c1.621-0.131,3.304,0.425,4.407,1.646c1.419,1.468,1.756,3.763,1.011,5.638c9.916,1.517,18.896,8.011,23.436,16.954
			c2.452,4.683,3.672,9.995,3.554,15.275c-0.003,25.174-0.003,50.347,0,75.518c-22.36,0.003-44.72,0.006-67.08,0
			c0.007-24.456-0.009-48.916,0.009-73.373c-0.592,0.824-1.336,1.546-2.255,1.989c-1.299,0.705-2.799,0.774-4.233,0.946
			c-1.438,0.171-2.885,0.238-4.329,0.289c-0.043,0.801-0.082,1.604-0.15,2.404c-1.52-0.079-3.04-0.186-4.56-0.217
			c0.038-0.791,0.07-1.579,0.115-2.364c-6.743-0.433-13.395-1.983-19.704-4.376c0.173,8.912,0.116,17.827,0.123,26.742
			C12,41.057,4.341,40.691-3.316,40.304c-0.252-0.219-0.061-0.675-0.128-0.977C-3.406,24.314-3.377,9.292-4.302-5.703
			c-0.167-2.851,1.296-5.579,3.375-7.452c2.483-2.216,5.832-3.587,9.187-3.308c2.99,0.195,5.89,1.677,7.712,4.068
			c2.295,2.915,2.957,6.728,2.938,10.352c6.516,3.46,13.688,5.831,21.07,6.39c0.053-0.621,0.07-1.249,0.074-1.872
			c1.541,0.025,3.079,0.16,4.619,0.196c-0.025,0.574-0.045,1.151-0.083,1.727c1.573-0.167,3.164-0.566,4.74-0.195
			c2.534,0.482,4.605,2.399,5.602,4.735C55.848,2,59.154-4.592,64.16-9.486c4.679-4.671,10.854-7.792,17.382-8.837
			c-0.32-1.15-0.523-2.384-0.137-3.546c0.63-2.293,2.961-3.914,5.329-3.758C86.771-26.958,86.646-28.297,86.797-29.621 M65.941-2.69
			c-3.391,4.356-5.345,9.821-5.448,15.346c0.006,23.636-0.006,47.272,0.004,70.911c18.433,0,36.869,0,55.303,0
			c0.004-21.707,0-43.411,0.003-65.117c-0.057-3.778,0.281-7.621-0.705-11.316c-1.984-8.452-8.487-15.655-16.689-18.504
			c-4.421-1.631-9.209-1.687-13.855-1.413C77.283-12.257,70.375-8.461,65.941-2.69 M40.045,4.423
			c-0.282,4.875-0.471,9.753-0.765,14.629c1.492,0.078,2.985,0.136,4.48,0.151c0.282-4.914,0.488-9.829,0.773-14.739
			C43.038,4.516,41.541,4.518,40.045,4.423z"/>
		<path fill="#1F8BE5" d="M64.459,61.165c0-14.369-0.007-28.737,0.001-43.105c5.58,0.008,11.157-0.002,16.738,0.005
			c-0.005,14.367,0,28.733-0.003,43.101C75.615,61.165,70.038,61.167,64.459,61.165z"/>
		<path fill="#6F99BC" d="M93.213,39.583c0.004-1.699-0.006-3.399,0.004-5.097c3.143,0,6.289,0,9.434,0c0,1.698-0.002,3.398,0,5.097
			c2.876,0,5.747-0.003,8.622,0c0,7.195,0.002,14.389-0.002,21.583c-9.271,0-18.538,0-27.809,0.002
			c-0.004-7.195-0.002-14.39-0.002-21.584C86.713,39.58,89.961,39.583,93.213,39.583 M94.91,36.187c0.002,1.13,0.002,2.263,0,3.393
			c1.992,0.004,3.985,0.003,5.979,0.003c0-1.133,0-2.266,0-3.399C98.896,36.184,96.902,36.182,94.91,36.187z"/>
		<path fill="#4879BD" d="M-3.575,43.234c7.708,0.456,15.426,0.811,23.135,1.273c0.056,1.486,0.136,2.971,0.196,4.456
			c17.375,13.442,28.286,34.52,30.234,56.305c0.289,2.25-0.529,4.733-2.462,6.037c-3.34,2.27-8.354,1.478-10.888-1.65
			c-0.878-1.095-1.425-2.441-1.587-3.833c-0.861-9.717-3.879-19.231-8.682-27.719c-2.066-3.611-4.496-7.037-7.382-10.042
			c-0.099,2.021-0.73,3.961-1.301,5.885C13.714,86.176,5.616,96.67,2.359,109.173c-0.602,1.862-2.013,3.474-3.855,4.174
			c-3.497,1.348-7.917-0.081-9.802-3.364c-1.016-1.714-1.097-3.848-0.541-5.728C-8.29,91.104-0.34,79.555,2.596,66.206
			c-1.243-2.549-1.349-5.481-2.663-8.001c-0.396-0.819-1.04-1.473-1.515-2.238c-1.098-1.736-1.648-3.777-1.729-5.822
			C-3.412,47.842-3.492,45.54-3.575,43.234z"/>
		<path fill="#4879BD" d="M65.716,66.576c15.186-0.002,30.37,0,45.555,0c0.004,4.048,0,8.094,0.002,12.143
			c-15.185,0.006-30.369,0-45.555,0.002C65.714,74.672,65.716,70.624,65.716,66.576z"/>
		<path fill="#4879BD" d="M68.983,95.281c2.405-0.501,5.033,0.162,6.839,1.848c2.879,2.521,3.329,7.256,1.003,10.286
			c-2.126,3.034-6.556,4.037-9.798,2.266c-2.968-1.457-4.658-4.978-4.038-8.212C63.488,98.443,65.975,95.874,68.983,95.281z"/>
		<path fill="#4879BD" d="M102.022,95.344c3.337-0.875,7.139,0.734,8.729,3.814c1.53,2.797,1.108,6.521-1.07,8.861
			c-2.402,2.742-6.815,3.351-9.867,1.352c-2.618-1.598-4.032-4.847-3.484-7.857C96.79,98.573,99.131,96.048,102.022,95.344z"/>
	</g>
</g>
<g id="Layer_1">
	<g id="_x23_948d89ff">
	</g>
	<g id="Capa_4">
	</g>
</g>
</svg>
