<?xml version="1.0" encoding="utf-8"?>
<!-- Generator: Adobe Illustrator 16.0.0, SVG Export Plug-In . SVG Version: 6.00 Build 0)  -->
<!DOCTYPE svg PUBLIC "-//W3C//DTD SVG 1.1//EN" "http://www.w3.org/Graphics/SVG/1.1/DTD/svg11.dtd">
<svg version="1.1" id="Capa_1" xmlns="http://www.w3.org/2000/svg" xmlns:xlink="http://www.w3.org/1999/xlink" x="0px" y="0px"
	 width="50px" height="50px" viewBox="0 0 50 50" enable-background="new 0 0 50 50" xml:space="preserve">
<g id="_x23_82b82aff">
	<path fill="#E4002B" d="M10.954,15.157c4.5-4.674,8.995-9.353,13.488-14.031c4.424,4.604,8.842,9.209,13.271,13.809
		c5.667,5.64,7.32,15.039,3.989,22.427c-2.599,6.016-8.271,10.458-14.557,11.317c-4.19,0.637-8.587-0.213-12.241-2.469
		c-5.593-3.299-9.342-9.775-9.415-16.492C5.264,24.348,7.32,18.962,10.954,15.157 M13.896,18.772
		c-3.01,3.062-4.514,7.587-4.148,11.936c0.357,6.381,5.029,12.114,10.959,13.651c4.298,1.182,9.106,0.225,12.622-2.633
		c3.591-2.765,5.838-7.348,5.843-12.008c0.111-4.035-1.429-8.111-4.195-10.946c-3.524-3.651-7.017-7.326-10.539-10.98
		C20.921,11.445,17.423,15.125,13.896,18.772z"/>
	<g>
		<path fill="#E4002B" d="M18.586,39.154c-4.547-3.811-6.58-7.499-6.21-11.265c0.721-4.816,4.677-8.27,7.634-10.461
			c3.555,2.445,5.996,5.301,7.257,8.49c-2.73,0.742-4.998,2.734-6.203,5.42c-0.14-2.951-0.472-5.87-0.814-8.602l-0.136-1.063
			l-0.174,1.058C19.038,28.171,18.769,33.819,18.586,39.154z"/>
		<path fill="#E4002B" d="M20.011,17.626c3.418,2.37,5.785,5.121,7.042,8.184c-2.508,0.732-4.618,2.512-5.864,4.91
			c-0.152-2.743-0.464-5.456-0.784-8.003l-0.267-2.127l-0.353,2.116c-0.887,5.337-1.161,10.875-1.347,16.121
			c-4.333-3.702-6.267-7.276-5.913-10.899C13.236,23.208,17.089,19.804,20.011,17.626 M20.005,17.23
			c-3.504,2.588-7.09,6.003-7.786,10.645c-0.482,4.887,3.107,8.811,6.511,11.609c0.191-5.591,0.451-11.222,1.364-16.727
			c0.389,3.09,0.731,6.194,0.842,9.304c1.102-2.997,3.537-5.279,6.542-6.032C26.063,22.305,23.172,19.39,20.005,17.23L20.005,17.23z
			"/>
	</g>
	<g>
		<path fill="#E4002B" d="M26.541,40.737c-0.7,0-1.393-0.031-2.094-0.073l0.229-0.27c1.989-2.342,4.045-4.766,5.773-7.402
			l0.421-0.647l-0.635,0.417c-2.021,1.325-3.842,2.979-5.604,4.576c-0.596,0.538-1.192,1.082-1.796,1.608
			c-0.225-3.44-0.067-6.873,2.238-9.002c1.454-1.207,3.367-1.795,5.844-1.795c1.31,0,2.608,0.157,3.619,0.311
			c0.483,3.274,0.726,7.354-1.571,10.119C31.156,40.491,28.582,40.737,26.541,40.737z"/>
		<path fill="#E4002B" d="M30.92,27.984v0.324c1.249,0,2.493,0.151,3.479,0.297c0.471,3.22,0.677,7.184-1.538,9.852
			c-1.777,1.878-4.312,2.116-6.321,2.116c-0.591,0-1.174-0.026-1.762-0.056l0.014-0.016c1.994-2.348,4.055-4.775,5.785-7.418
			l0.849-1.296l-1.271,0.831c-2.03,1.333-3.855,2.989-5.62,4.593c-0.51,0.459-1.033,0.934-1.558,1.396
			c-0.189-3.291,0.021-6.531,2.196-8.531c1.433-1.19,3.314-1.772,5.751-1.772v-0.319 M30.92,27.984
			c-2.138,0-4.246,0.425-5.948,1.841c-2.537,2.333-2.5,6.22-2.268,9.45c2.5-2.167,4.848-4.558,7.614-6.375
			c-1.844,2.822-4.037,5.359-6.201,7.91c0.785,0.045,1.602,0.093,2.424,0.093c2.386,0,4.809-0.382,6.542-2.216
			c2.346-2.828,2.113-6.914,1.593-10.372C33.465,28.137,32.188,27.984,30.92,27.984L30.92,27.984z"/>
	</g>
</g>
</svg>
