<?xml version="1.0" encoding="utf-8"?>
<!-- Generator: Adobe Illustrator 16.0.0, SVG Export Plug-In . SVG Version: 6.00 Build 0)  -->
<!DOCTYPE svg PUBLIC "-//W3C//DTD SVG 1.1//EN" "http://www.w3.org/Graphics/SVG/1.1/DTD/svg11.dtd">
<svg version="1.1" xmlns="http://www.w3.org/2000/svg" xmlns:xlink="http://www.w3.org/1999/xlink" x="0px" y="0px" width="256px"
	 height="256px" viewBox="-78 -78 256 256" enable-background="new -78 -78 256 256" xml:space="preserve">
<g id="Capa_2">
	<linearGradient id="SVGID_1_" gradientUnits="userSpaceOnUse" x1="48.895" y1="132.9922" x2="48.895" y2="92.0195">
		<stop  offset="0" style="stop-color:#000000"/>
		<stop  offset="1" style="stop-color:#FFFFFF;stop-opacity:0"/>
	</linearGradient>
	<polygon fill="url(#SVGID_1_)" points="129.607,132.992 146.932,93.663 -49.143,92.02 -30.357,132.992 	"/>
	<g>
		<g>
			<path fill="#FFFFFF" d="M140.23-34.734c-10.704,0-19.407,8.156-19.407,18.183V19.75c-1.577-0.394-3.214-0.607-4.891-0.625
				c-0.08,0-0.155,0-0.234,0c-5.324,0-10.301,1.959-14.032,5.531L75.064,50.12c-6.253,5.981-9.694,13.885-9.694,22.258v33.056h7.15
				l33.906,0.341l43.352-41.235c6.359-6.057,9.859-14.076,9.859-22.57v-58.52C159.641-26.578,150.933-34.734,140.23-34.734z"/>
			<path fill="#FFFFFF" d="M33.607,72.376c0-8.371-3.441-16.274-9.694-22.257l-26.6-25.463c-3.734-3.572-8.708-5.531-14.032-5.531
				c-0.08,0-0.156,0-0.235,0c-1.677,0.018-3.314,0.229-4.89,0.625v-36.301c0-10.027-8.706-18.184-19.408-18.184
				c-10.703,0-19.413,8.157-19.413,18.184v58.52c0,8.494,3.504,16.514,9.862,22.572l43.348,41.233l33.912-0.341h7.147L33.607,72.376
				L33.607,72.376z"/>
		</g>
		<path fill="#FFFFFF" d="M140.23-34.734c-3.622,0-7.012,0.935-9.914,2.559c5.678,3.175,9.493,8.989,9.493,15.624v58.52
			c0,8.494-3.5,16.514-9.858,22.572l-42.992,40.893l19.473,0.341l43.349-41.235c6.359-6.057,9.86-14.076,9.86-22.57v-58.52
			C159.641-26.578,150.933-34.734,140.23-34.734z"/>
		<rect x="55.442" y="93.897" fill="#FFFFFF" width="73.714" height="35.653"/>
		<rect x="92.297" y="93.897" fill="#FFFFFF" width="36.854" height="35.653"/>
		<rect x="52.458" y="93.897" fill="#FFFFFF" width="79.68" height="13.385"/>
		<rect x="92.297" y="93.897" fill="#FFFFFF" width="39.837" height="13.385"/>
		<path fill="#FFFFFF" d="M-41.252-34.734c3.621,0,7.012,0.935,9.915,2.559c-5.68,3.175-9.496,8.989-9.496,15.624v58.52
			c0,8.494,3.501,16.514,9.859,22.572l42.993,40.893l-19.472,0.341l-43.35-41.233c-6.356-6.059-9.86-14.078-9.86-22.572v-58.52
			C-60.662-26.578-51.953-34.734-41.252-34.734z"/>
		<rect x="-30.177" y="93.897" fill="#FFFFFF" width="73.713" height="35.653"/>
		<rect x="-30.177" y="93.897" fill="#FFFFFF" width="36.854" height="35.653"/>
		<rect x="-33.155" y="93.897" fill="#FFFFFF" width="79.679" height="13.385"/>
		<rect x="-33.155" y="93.897" fill="#FFFFFF" width="39.836" height="13.385"/>
	</g>
	<path fill="#FFFFFF" d="M141.797-35.108H-41.488V68.295h65.928c-0.027,4.813,0.002,9.79,1.151,14.481
		c-1.86,4.836-3.047,9.907-3.373,15.025c-0.49,7.712,8.817,12.702,14.518,8.365c1.092,0.399,2.28,0.553,3.538,0.418
		c0.021,4.127,0.047,8.247-0.003,12.385c-2.279,10.186,15.095,12.859,17.98,2.54c1.089-3.903,0.789-7.928,0.789-11.934v-0.134
		c1.706-0.123,3.344-0.685,4.677-1.827c7.261-6.222,11.117-17.36,11.41-26.368c0.129-3.972,0.963-8.617,0.781-12.952h65.89V-35.108z
		"/>
	<rect x="-29.95" y="69.548" fill="#FFFFFF" width="159.178" height="59.536"/>
	<rect x="-30.264" y="125.324" fill="#FFFFFF" width="159.491" height="7.362"/>
	<ellipse fill="#FFFFFF" cx="49.795" cy="-28.214" rx="44.417" ry="29.141"/>
</g>
<g id="Layer_1">
	<g>
		<path fill="#C5D3DD" d="M132.463-28.099c-9.449,0-17.137,7.686-17.137,17.136v34.212c-1.391-0.371-2.838-0.571-4.315-0.589
			c-0.069,0-0.138,0-0.205,0c-4.703,0-9.096,1.846-12.391,5.212l-23.486,24c-5.52,5.636-8.559,13.085-8.559,20.976v31.153h6.315
			l29.933,0.322l38.273-38.862c5.614-5.708,8.706-13.266,8.706-21.272v-55.152C149.6-20.413,141.911-28.099,132.463-28.099z"/>
		<path fill="#C5D3DD" d="M38.327,72.846c0-7.889-3.037-15.338-8.559-20.976L6.284,27.873C2.986,24.506-1.404,22.66-6.105,22.66
			c-0.071,0-0.137,0-0.208,0c-1.479,0.018-2.926,0.216-4.315,0.589v-34.212c0-9.45-7.687-17.138-17.136-17.138
			c-9.451,0-17.139,7.688-17.139,17.138v55.152c0,8.006,3.093,15.564,8.707,21.274l38.271,38.86l29.939-0.322h6.312L38.327,72.846
			L38.327,72.846z"/>
	</g>
	<path fill="#61A3E5" d="M132.463-28.099c-3.195,0-6.192,0.882-8.754,2.411c5.014,2.993,8.385,8.472,8.385,14.725v55.152
		c0,8.006-3.092,15.564-8.706,21.274l-37.959,38.538l17.191,0.322l38.273-38.862c5.617-5.708,8.706-13.266,8.706-21.272v-55.152
		C149.6-20.413,141.911-28.099,132.463-28.099z"/>
	<rect x="57.604" y="93.132" fill="#416EA3" width="65.081" height="33.601"/>
	<path fill="#61A3E5" d="M-27.764-28.099c3.195,0,6.19,0.882,8.752,2.411c-5.014,2.993-8.383,8.472-8.383,14.725v55.152
		c0,8.006,3.091,15.564,8.705,21.274l37.959,38.538l-17.192,0.322l-38.273-38.86c-5.611-5.71-8.705-13.268-8.705-21.274v-55.152
		C-44.901-20.413-37.212-28.099-27.764-28.099z"/>
	<g>
		<path fill="#4879BD" d="M96.997-7.065c-1.542-23.462-20.293-42.219-43.755-43.761v-0.106h-3.133h-3.135v0.106
			C23.512-49.284,4.756-30.527,3.213-7.065H3.107v3.134v3.134h0.106c1.542,23.462,20.298,42.213,43.761,43.754v0.113h3.135h3.133
			v-0.113c23.462-1.541,42.213-20.292,43.755-43.754h0.113v-3.134v-3.134H96.997z M32.53-40.686
			c-3.027,4.024-5.541,9.069-7.37,14.821h-9.388C19.858-32.238,25.661-37.396,32.53-40.686z M12.495-19.597h11.017
			c-0.84,3.96-1.373,8.165-1.542,12.532H9.492C9.825-11.477,10.866-15.694,12.495-19.597z M9.492-0.796H21.97
			c0.169,4.368,0.702,8.572,1.542,12.532H12.495C10.866,7.833,9.825,3.615,9.492-0.796z M15.771,18.004h9.382
			c1.83,5.752,4.343,10.797,7.376,14.82C25.661,29.534,19.858,24.383,15.771,18.004z M46.974,36.402
			c-6.442-1.723-11.987-8.642-15.352-18.398h15.352V36.402z M46.974,11.736H29.86c-0.885-3.903-1.442-8.121-1.623-12.532h18.737
			V11.736z M46.974-7.065H28.237c0.181-4.412,0.738-8.629,1.623-12.532h17.114V-7.065z M46.974-25.865H31.622
			c3.365-9.757,8.91-16.675,15.352-18.392V-25.865z M84.444-25.865h-9.376c-1.836-5.752-4.342-10.797-7.382-14.821
			C74.549-37.396,80.357-32.238,84.444-25.865z M53.242-44.257c6.435,1.717,11.987,8.635,15.353,18.392H53.242V-44.257z
			 M53.242-19.597h17.108c0.89,3.903,1.436,8.121,1.629,12.532H53.242V-19.597z M53.242-0.796h18.737
			c-0.183,4.412-0.739,8.629-1.629,12.532H53.242V-0.796z M53.242,36.402V18.004h15.353C65.229,27.76,59.677,34.679,53.242,36.402z
			 M67.687,32.824c3.027-4.029,5.546-9.068,7.382-14.82h9.376C80.357,24.383,74.549,29.534,67.687,32.824z M87.722,11.736H76.704
			c0.84-3.96,1.373-8.165,1.542-12.532h12.472C90.391,3.615,89.351,7.833,87.722,11.736z M78.246-7.065
			c-0.169-4.368-0.702-8.572-1.542-12.532h11.018c1.629,3.903,2.669,8.121,3.002,12.532H78.246z"/>
	</g>
	<rect x="-17.598" y="93.601" fill="#416EA3" width="65.082" height="33.602"/>
	<rect x="-21.49" y="92.11" fill="#629BD3" width="71.757" height="14.727"/>
	<rect x="54.652" y="91.797" fill="#629BD3" width="71.129" height="14.728"/>
	<ellipse fill="#FFFFFF" cx="-13.97" cy="99.631" rx="3.447" ry="3.604"/>
	<ellipse fill="#FFFFFF" cx="119.514" cy="99.317" rx="3.447" ry="3.603"/>
</g>
</svg>
