<?xml version="1.0" encoding="utf-8"?>
<!-- Generator: Adobe Illustrator 16.0.0, SVG Export Plug-In . SVG Version: 6.00 Build 0)  -->
<!DOCTYPE svg PUBLIC "-//W3C//DTD SVG 1.1//EN" "http://www.w3.org/Graphics/SVG/1.1/DTD/svg11.dtd">
<svg version="1.1" xmlns="http://www.w3.org/2000/svg" xmlns:xlink="http://www.w3.org/1999/xlink" x="0px" y="0px" width="256px"
	 height="256px" viewBox="-78 -78 256 256" enable-background="new -78 -78 256 256" xml:space="preserve">
<g id="Capa_3">
	<linearGradient id="SVGID_1_" gradientUnits="userSpaceOnUse" x1="50.084" y1="133.167" x2="50.084" y2="102.2314">
		<stop  offset="0" style="stop-color:#000000"/>
		<stop  offset="1" style="stop-color:#FFFFFF;stop-opacity:0"/>
	</linearGradient>
	<polyline fill="url(#SVGID_1_)" points="-47.126,133.167 -76.167,102.231 176.335,102.231 149.27,133.167 -47.126,133.167 	"/>
	<g>
		<g>
			<path fill="#FFFFFF" stroke="#FFFFFF" stroke-width="26" stroke-miterlimit="10" d="M86.444,120.058
				c16.646,0,33.297,0.023,49.943,0.06l-4.948-65.681c-0.028-0.392-0.354-0.695-0.74-0.695h-13.385v-3.754
				c0-12.004-9.673-21.771-21.561-21.771c-11.889,0-21.56,9.766-21.56,21.771v3.754H60.812c-0.388,0-0.712,0.304-0.741,0.695
				l-4.945,65.645C65.564,120.067,76.003,120.058,86.444,120.058z M114.341,70.258c1.641,0,2.974-1.347,2.974-3.002v-6.878
				c2.974,1.184,4.463,3.904,4.463,6.878c0,4.138-3.336,7.507-7.437,7.507c-4.1,0-7.434-3.369-7.434-7.507
				c0-2.998,1.486-5.697,4.462-6.882v6.882C111.369,68.911,112.701,70.258,114.341,70.258z M80.141,49.987
				c0-8.692,7.004-15.764,15.613-15.764s15.615,7.071,15.615,15.764v3.754H80.141V49.987z M74.194,60.374v6.882
				c0,1.655,1.335,3.002,2.972,3.002c1.642,0,2.975-1.347,2.975-3.002v-6.878c2.975,1.184,4.463,3.904,4.463,6.878
				c0,4.138-3.335,7.507-7.438,7.507c-4.098,0-7.433-3.369-7.433-7.507C69.733,64.258,71.22,61.559,74.194,60.374z"/>
		</g>
	</g>
	<path fill="#FFFFFF" stroke="#FFFFFF" stroke-miterlimit="10" d="M77.5-27.333h-0.333c-0.002,0-0.003,0.016-0.005,0.019
		c-18.76,0.998-37.61,2.526-56.329,2.314c-0.102-0.001-0.307,26.997,0,27C39.664,2.214,58.629,0.664,77.5-0.333
		C77.979-0.358,77.509-27.333,77.5-27.333z"/>
	<g>
		<g>
			<path fill="#FFFFFF" stroke="#FFFFFF" stroke-width="26" stroke-miterlimit="10" d="M86.444,120.058
				c7.434,0,14.869,0.01,22.305,0.017L99.762,0.802c-0.054-0.684-0.621-1.213-1.297-1.213H75.053v-6.567
				c0-21.004-16.926-38.089-37.722-38.089c-20.799,0-37.721,17.085-37.721,38.089v6.567h-23.414c-0.678,0-1.244,0.529-1.296,1.213
				l-9.015,119.638C6.071,120.146,46.26,120.058,86.444,120.058z M69.851,28.485c2.864,0,5.202-2.356,5.202-5.254V11.201
				c5.202,2.072,7.802,6.832,7.802,12.029c0,7.242-5.833,13.134-13.004,13.134c-7.178,0-13.011-5.892-13.011-13.134
				c0-5.243,2.601-9.965,7.804-12.037V23.23C64.644,26.128,66.98,28.485,69.851,28.485z M10.016-6.978
				c0-15.208,12.252-27.583,27.315-27.583c15.062,0,27.313,12.375,27.313,27.583v6.567H10.016V-6.978z M-0.391,11.193V23.23
				c0,2.898,2.335,5.254,5.203,5.254c2.868,0,5.203-2.356,5.203-5.254V11.201c5.203,2.072,7.804,6.832,7.804,12.029
				c0,7.242-5.833,13.134-13.007,13.134c-7.173,0-13.008-5.892-13.008-13.134C-8.195,17.988-5.593,13.265-0.391,11.193z"/>
		</g>
	</g>
	<g>
		<g>
			<path fill="#4879BD" d="M87.623,122.899c7.507,0,15.015,0.008,22.522,0.017L101.07,3.643c-0.054-0.685-0.627-1.213-1.31-1.213
				H76.119v-6.567c0-21.002-17.091-38.088-38.09-38.088c-21.001,0-38.09,17.086-38.09,38.088v6.567h-23.642
				c-0.685,0-1.257,0.529-1.309,1.213l-9.103,119.637C6.464,122.987,47.045,122.899,87.623,122.899z M70.866,31.325
				c2.894,0,5.253-2.356,5.253-5.254V14.042c5.254,2.072,7.88,6.832,7.88,12.029c0,7.242-5.892,13.134-13.133,13.134
				c-7.246,0-13.138-5.892-13.138-13.134c0-5.242,2.627-9.965,7.882-12.038v12.038C65.61,28.969,67.969,31.325,70.866,31.325z
				 M10.448-4.138c0-15.208,12.372-27.582,27.581-27.582c15.21,0,27.582,12.374,27.582,27.582v6.567H10.448V-4.138z M-0.061,14.033
				v12.038c0,2.898,2.358,5.254,5.254,5.254s5.254-2.356,5.254-5.254V14.042c5.253,2.072,7.879,6.832,7.879,12.029
				c0,7.242-5.891,13.134-13.134,13.134c-7.244,0-13.135-5.892-13.135-13.134C-7.941,20.829-5.314,16.106-0.061,14.033z"/>
		</g>
	</g>
	<g>
		<g>
			<path fill="#7AABE5" d="M87.623,122.899c16.81,0,33.622,0.022,50.432,0.058l-4.997-65.682c-0.028-0.39-0.357-0.694-0.747-0.694
				h-13.515v-3.752c0-12.005-9.768-21.772-21.772-21.772c-12.004,0-21.77,9.768-21.77,21.772v3.752H61.739
				c-0.391,0-0.72,0.305-0.749,0.694l-4.994,65.646C66.538,122.907,77.079,122.899,87.623,122.899z M115.793,73.099
				c1.655,0,3.003-1.346,3.003-3V63.22c3.003,1.184,4.505,3.904,4.505,6.879c0,4.136-3.368,7.505-7.508,7.505
				c-4.141,0-7.507-3.369-7.507-7.505c0-3,1.501-5.698,4.506-6.885v6.885C112.792,71.753,114.137,73.099,115.793,73.099z
				 M81.259,52.829c0-8.693,7.072-15.764,15.765-15.764c8.694,0,15.769,7.071,15.769,15.764v3.752H81.259V52.829z M75.254,63.214
				v6.885c0,1.654,1.347,3,3.001,3c1.656,0,3.004-1.346,3.004-3V63.22c3.003,1.184,4.506,3.904,4.506,6.879
				c0,4.136-3.368,7.505-7.51,7.505c-4.14,0-7.506-3.369-7.506-7.505C70.749,67.099,72.25,64.4,75.254,63.214z"/>
		</g>
	</g>
</g>
<g id="Layer_1">
	<g id="_x23_948d89ff">
	</g>
	<g id="Capa_4">
	</g>
</g>
</svg>
