<?xml version="1.0" encoding="utf-8"?>
<!-- Generator: Adobe Illustrator 16.0.0, SVG Export Plug-In . SVG Version: 6.00 Build 0)  -->
<!DOCTYPE svg PUBLIC "-//W3C//DTD SVG 1.1//EN" "http://www.w3.org/Graphics/SVG/1.1/DTD/svg11.dtd">
<svg version="1.1" xmlns="http://www.w3.org/2000/svg" xmlns:xlink="http://www.w3.org/1999/xlink" x="0px" y="0px" width="256px"
	 height="256px" viewBox="0 0 256 256" enable-background="new 0 0 256 256" xml:space="preserve">
<g id="Capa_2">
</g>
<g id="Capa_1">
	<g id="Capa_3">
		
			<linearGradient id="SVGID_1_" gradientUnits="userSpaceOnUse" x1="-50.7217" y1="1190.5957" x2="-50.7217" y2="1159.252" gradientTransform="matrix(1 0 0 1 181.8057 -978.5195)">
			<stop  offset="0" style="stop-color:#000000"/>
			<stop  offset="1" style="stop-color:#FFFFFF;stop-opacity:0"/>
		</linearGradient>
		<polyline fill="url(#SVGID_1_)" points="61.08,212.076 40.167,180.732 222.001,180.732 202.51,212.076 61.08,212.076 		"/>
	</g>
	<g>
		<g>
			<path fill="#FFFFFF" d="M100.278,164.393c-4.048-4.821-9.217-8.488-14.084-12.42c-4.714-3.808-10.441-7.766-13.327-13.166
				c-1.225-2.291-1.994-5.074-2.779-7.549c-0.494-1.558-0.926-3.132-1.425-4.688c-0.396-1.123-0.842-2.226-1.316-3.318
				c-0.004-0.249-0.022-0.607-0.055-1.08c-0.021-2.77,0.208-5.556,0.208-8.333c0-0.892,0.11-1.787,0.209-2.68
				c0.152,0.004,0.306,0.011,0.457,0.014c14.195,0.232,14.172-21.769,0-22c-5.605-0.091-10.929-0.109-16.021,2.551
				c-6.083,3.178-6.312,10.778-6.312,16.683c0,4.052-0.216,8.221-0.469,12.271c-0.339,5.42,1.553,9.817,3.05,14.87
				c1.454,4.906,3.315,9.718,5.457,14.364c2.11,4.579,6.187,7.889,9.515,11.54c6.363,6.98,15.225,11.219,21.336,18.498
				c3.859,4.597,11.595,3.962,15.557,0C104.792,175.436,104.13,168.98,100.278,164.393z"/>
			<path fill="#FFFFFF" d="M141.244,15.416c0.228,10.179,0.878,20.344,1.141,30.522c0.477,3.16,0.681,6.315,0.097,9.285
				c-1.023,5.208-4.285,9.028-7.197,13.308c-1.775,2.609-4.381,5.453-5.283,8.522c-0.385,1.31-0.655,2.649-1.023,3.95
				c0.283,2.496,0.339,5.001-0.144,7.501c-0.141,0.728-22.448,0.523-21.089,0.509c-14.998,0.15-29.997,0.191-44.995,0.201V212
				h139.167V15.416H141.244z"/>
		</g>
	</g>
	<g>
		<path fill="#4879BD" d="M120.746,117.14c0-7.974-1.971-15.69-5.747-22.314l-0.896-1.567H58.035l-0.877,1.567
			c-3.769,6.614-5.747,14.34-5.747,22.314c0,20.35,12.948,37.207,29.75,39.995v47.515c-9.693,0.388-16.913,1.864-16.913,3.608
			c0,2.071,9.841,3.731,21.988,3.731c12.156,0,22.018-1.66,22.018-3.731c0-1.744-7.222-3.221-16.914-3.608v-47.553
			C107.973,154.132,120.746,137.339,120.746,117.14z M86.067,151.341c-15.691,0-28.471-15.337-28.471-34.217
			c0-6.289,1.408-12.362,4.104-17.688h48.745c2.686,5.326,4.114,11.408,4.114,17.688C114.57,136.016,101.769,151.341,86.067,151.341
			z M180.105,40.894h-24.659v-21.38h24.659V40.894z M180.105,67.39V47.472h-24.659v19.925c-10.41,4.693-17.687,15.164-17.687,27.346
			v19.523v62.254V213.1h60.025v-36.579v-62.254V94.743C197.793,82.561,190.534,72.09,180.105,67.39z M192.485,182.923h-48.894
			v-58.664h48.894V182.923z M111.975,117.784c0,0-1.296,31.019-25.487,31.019c-24.191,0-27.455-31.019-27.455-31.019H111.975z"/>
	</g>
</g>
</svg>
