<?xml version="1.0" encoding="utf-8"?>
<!-- Generator: Adobe Illustrator 16.0.0, SVG Export Plug-In . SVG Version: 6.00 Build 0)  -->
<!DOCTYPE svg PUBLIC "-//W3C//DTD SVG 1.1//EN" "http://www.w3.org/Graphics/SVG/1.1/DTD/svg11.dtd">
<svg version="1.1" id="Capa_1" xmlns="http://www.w3.org/2000/svg" xmlns:xlink="http://www.w3.org/1999/xlink" x="0px" y="0px"
	 width="50px" height="50px" viewBox="0 0 50 50" enable-background="new 0 0 50 50" xml:space="preserve">
<g>
	<g>
		<path fill="#E4002B" d="M48.536,18.472c-6.516,0-12.641,2.537-17.248,7.144c-2.582,2.584-4.515,5.645-5.714,8.982V28.06
			c0.41-1.466,0.963-2.874,1.641-4.208h0.017c0.066-0.143,0.141-0.281,0.215-0.418c0.211-0.458,0.453-0.904,0.738-1.28
			c2.562-4.127,6.387-7.396,10.975-9.233c0.594,1.803,0.962,3.666,1.097,5.545l1.425-0.101c-0.16-2.251-0.637-4.478-1.416-6.619
			l-0.244-0.672l-0.672,0.244c-3.719,1.354-7.08,3.61-9.722,6.524c-2.059,2.272-3.684,4.943-4.768,7.817
			c-1.084-2.875-2.709-5.545-4.769-7.817c-2.641-2.915-6.002-5.17-9.722-6.524l-0.671-0.244l-0.244,0.672
			c-0.779,2.141-1.255,4.367-1.416,6.619l1.426,0.101c0.134-1.879,0.502-3.742,1.095-5.545c6.611,2.647,11.656,8.254,13.586,15.141
			v6.539c-1.199-3.338-3.132-6.398-5.715-8.982c-4.607-4.607-10.733-7.144-17.248-7.144H0.467v0.715
			c0,6.514,2.537,12.64,7.144,17.246c4.438,4.439,10.285,6.956,16.533,7.135v0.01h1.43v-0.01c6.247-0.179,12.095-2.695,16.532-7.135
			c4.606-4.606,7.144-10.732,7.144-17.247v-0.715H48.536z M8.622,35.424c-0.85-0.85-1.598-1.771-2.295-2.722
			C5.917,32.317,5.57,31.85,5.302,31.37c-0.147-0.264-0.271-0.52-0.385-0.782c-0.052-0.09-0.093-0.186-0.141-0.277H4.759
			c-1.754-3.158-2.737-6.703-2.851-10.398c12.086,0.377,21.848,10.14,22.225,22.225C18.272,41.957,12.787,39.59,8.622,35.424z
			 M25.585,42.138c0.181-5.861,2.549-11.347,6.713-15.511c4.165-4.166,9.65-6.534,15.512-6.714
			C47.433,31.999,37.672,41.762,25.585,42.138z"/>
	</g>
</g>
<g>
	<g>
		<path fill="#E4002B" d="M45.296,21.633c-0.054,0.456-0.124,0.916-0.207,1.366l1.406,0.262c0.089-0.481,0.163-0.973,0.221-1.461
			L45.296,21.633z"/>
	</g>
</g>
<g>
	<g>
		<path fill="#E4002B" d="M44.253,26.106c-1.024,2.877-2.653,5.443-4.841,7.634l1.01,1.01c2.34-2.34,4.082-5.086,5.178-8.164
			L44.253,26.106z"/>
	</g>
</g>
<g>
	<g>
		<path fill="#E4002B" d="M44.9,23.899c-0.104,0.447-0.226,0.896-0.359,1.333l1.367,0.417c0.144-0.468,0.272-0.948,0.385-1.426
			L44.9,23.899z"/>
	</g>
</g>
<g>
	<g>
		<path fill="#E4002B" d="M15.43,16.776l-0.87,1.135c0.365,0.279,0.724,0.574,1.068,0.875l0.943-1.073
			C16.204,17.39,15.82,17.075,15.43,16.776z"/>
	</g>
</g>
<g>
	<g>
		<path fill="#E4002B" d="M11.958,14.596l-0.645,1.275c0.865,0.438,1.708,0.94,2.504,1.496l0.817-1.172
			C13.785,15.602,12.884,15.064,11.958,14.596z"/>
	</g>
</g>
<g>
	<g>
		<path fill="#E4002B" d="M17.296,18.379l-0.991,1.03c0.332,0.318,0.655,0.651,0.962,0.99l1.059-0.959
			C17.997,19.077,17.651,18.72,17.296,18.379z"/>
	</g>
</g>
<g>
	<g>
		<path fill="#E4002B" d="M21.398,15.748l-1.034,0.986c0.899,0.944,1.734,1.967,2.478,3.04l1.174-0.814
			C23.23,17.826,22.349,16.746,21.398,15.748z"/>
	</g>
</g>
<g>
	<g>
		<path fill="#E4002B" d="M25.364,3.925L24.859,3.42l-0.506,0.505c-2.992,2.992-5.161,6.718-6.273,10.775l1.378,0.377
			c0.983-3.586,2.845-6.897,5.401-9.621c2.556,2.723,4.417,6.035,5.399,9.621l1.379-0.377C30.526,10.643,28.355,6.917,25.364,3.925z
			"/>
	</g>
</g>
</svg>
