<?xml version="1.0" encoding="utf-8"?>
<!-- Generator: Adobe Illustrator 16.0.0, SVG Export Plug-In . SVG Version: 6.00 Build 0)  -->
<!DOCTYPE svg PUBLIC "-//W3C//DTD SVG 1.1//EN" "http://www.w3.org/Graphics/SVG/1.1/DTD/svg11.dtd">
<svg version="1.1" id="Capa_1" xmlns="http://www.w3.org/2000/svg" xmlns:xlink="http://www.w3.org/1999/xlink" x="0px" y="0px"
	 width="512px" height="512px" viewBox="0 0 512 512" enable-background="new 0 0 512 512" xml:space="preserve">
<path fill="#E4002B" d="M435.573,410.352c37.253-41.982,59.946-97.174,59.946-157.594c0-62.856-24.563-120.047-64.537-162.605
	v-0.008c-0.032-0.049-0.081-0.065-0.107-0.107c-41.639-44.262-99.978-72.596-164.872-74.817l-0.008-0.008l-4.635-0.123
	c-1.197-0.042-2.395-0.082-3.6-0.082c-1.206,0-2.404,0.041-3.601,0.082l-4.615,0.123l-0.008,0.008
	C184.648,17.442,126.308,45.775,84.67,90.038c-0.033,0.042-0.083,0.058-0.107,0.107c0,0,0,0.008-0.008,0.016
	C44.572,132.71,20.01,189.901,20.01,252.757c0,60.42,22.693,115.611,59.945,157.594c0.049,0.075,0.049,0.156,0.107,0.229
	c0.146,0.205,0.36,0.304,0.516,0.493c41.861,46.795,101.921,76.94,168.951,79.235l0.008,0.008l4.615,0.124
	c1.205,0.032,2.403,0.073,3.609,0.073c1.205,0,2.402-0.041,3.6-0.081l4.618-0.124l0.009-0.008
	c67.107-2.304,127.233-32.506,169.095-79.401c0.105-0.14,0.278-0.18,0.376-0.327C435.525,410.508,435.525,410.427,435.573,410.352z
	 M36.612,260.958h98.404c0.927,34.758,7.714,68.526,19.798,100.163c-23.316,8.437-45.607,19.749-66.496,33.867
	C57.599,358.449,38.481,311.874,36.612,260.958z M92.794,105.377c20.397,13.264,42.115,23.89,64.767,31.825
	c-13.872,33.67-21.545,69.972-22.545,107.356H36.612C38.571,191.213,59.46,142.638,92.794,105.377z M478.918,244.559h-98.404
	c-1.001-37.384-8.675-73.686-22.545-107.356c22.651-7.936,44.369-18.561,64.766-31.825
	C456.07,142.638,476.958,191.213,478.918,244.559z M249.561,137.678c-23.701-0.672-46.968-4.206-69.448-10.519
	c16.619-34.088,40.082-64.856,69.448-90.476V137.678z M249.561,154.074v90.485h-98.15c1.009-35.646,8.486-70.219,21.857-102.273
	C197.913,149.426,223.499,153.378,249.561,154.074z M265.962,154.074c26.068-0.696,51.654-4.64,76.307-11.789
	c13.371,32.055,20.848,66.627,21.856,102.273h-98.163V154.074z M265.962,137.678V36.684c29.371,25.62,52.835,56.388,69.453,90.476
	C312.936,133.473,289.669,137.006,265.962,137.678z M351.304,122.175c-15.749-32.998-37.605-63.061-64.668-88.828
	c48.008,6.28,91.205,27.989,124.474,59.995C392.221,105.328,372.185,114.969,351.304,122.175z M164.226,122.175
	c-20.882-7.206-40.918-16.847-59.799-28.833c33.261-32.006,76.465-53.715,124.475-59.995
	C201.832,59.114,179.974,89.177,164.226,122.175z M151.411,260.958h98.15v82.3c-27.111,0.722-53.674,4.952-79.204,12.633
	C158.823,325.926,152.338,293.912,151.411,260.958z M249.561,359.653v109.186c-31.432-27.424-56.077-60.742-72.833-97.699
	C200.233,364.212,224.646,360.359,249.561,359.653z M265.962,468.839V359.653c24.92,0.696,49.334,4.559,72.839,11.479
	C322.044,408.097,297.4,441.415,265.962,468.839z M265.962,343.258v-82.3h98.155c-0.926,32.954-7.411,64.968-18.954,94.94
	C319.642,348.209,293.08,343.979,265.962,343.258z M380.514,260.958h98.404c-1.869,50.916-20.979,97.491-51.707,134.03
	c-20.89-14.118-43.181-25.431-66.496-33.867C372.808,329.484,379.588,295.716,380.514,260.958z M99.459,407.27
	c19.397-12.888,40.049-23.25,61.627-30.997c15.945,35.743,38.834,68.315,67.808,95.903
	C178.466,465.575,133.335,441.965,99.459,407.27z M286.636,472.176c28.972-27.58,51.862-60.152,67.808-95.903
	c21.577,7.747,42.222,18.109,61.626,30.997C382.194,441.965,337.063,465.575,286.636,472.176z"/>
</svg>
