<?xml version="1.0" encoding="UTF-8"?>
<!-- Generator: Adobe Illustrator 16.0.0, SVG Export Plug-In . SVG Version: 6.00 Build 0)  -->
<!DOCTYPE svg PUBLIC "-//W3C//DTD SVG 1.1//EN" "http://www.w3.org/Graphics/SVG/1.1/DTD/svg11.dtd">
<svg version="1.1" id="Capa_1" xmlns="http://www.w3.org/2000/svg" xmlns:xlink="http://www.w3.org/1999/xlink" x="0px" y="0px" width="30px" height="30px" viewBox="0 0 30 30" enable-background="new 0 0 30 30" xml:space="preserve">
<g>
	<g>
		<g>
			<defs>
				<path id="SVGID_1_" d="M30.961,27.758c0,1.823-1.482,3.306-3.306,3.306H2.242c-1.825,0-3.306-1.482-3.306-3.306V2.346      c0-1.826,1.481-3.306,3.306-3.306h25.413c1.823,0,3.306,1.479,3.306,3.306V27.758z"/>
			</defs>
			<clipPath id="SVGID_2_">
				<use xlink:href="#SVGID_1_" overflow="visible"/>
			</clipPath>
			<g clip-path="url(#SVGID_2_)">
				<rect x="-9.069" y="20.391" fill="#FFD900" width="48.035" height="10.672"/>
				<rect x="-9.069" y="9.714" fill="#ED1C24" width="48.035" height="10.674"/>
				<rect x="-9.069" y="-0.958" width="48.035" height="10.673"/>
			</g>
		</g>
	</g>
	
		<radialGradient id="SVGID_3_" cx="158.6729" cy="437.3926" r="21.0913" gradientTransform="matrix(0.3851 0.9229 1.2737 -0.5316 -611.5463 86.6134)" gradientUnits="userSpaceOnUse">
		<stop offset="0.2675" style="stop-color:#000000;stop-opacity:0.5"/>
		<stop offset="1" style="stop-color:#FFFFFF"/>
	</radialGradient>
	<path display="none" opacity="0.35" fill="url(#SVGID_3_)" enable-background="new    " d="M1.612,22.266   c11.707,0,21.996-5.844,27.92-14.666V3.468c0-1.657-1.345-3-3-3H3.468c-1.656,0-3,1.343-3,3v18.768   C0.849,22.249,1.228,22.266,1.612,22.266z"/>
</g>
</svg>