<?xml version="1.0" encoding="UTF-8"?>
<!-- Generator: Adobe Illustrator 16.0.0, SVG Export Plug-In . SVG Version: 6.00 Build 0)  -->
<!DOCTYPE svg PUBLIC "-//W3C//DTD SVG 1.1//EN" "http://www.w3.org/Graphics/SVG/1.1/DTD/svg11.dtd">
<svg version="1.1" id="Capa_1" xmlns="http://www.w3.org/2000/svg" xmlns:xlink="http://www.w3.org/1999/xlink" x="0px" y="0px" width="30px" height="30px" viewBox="0 0 30 30" enable-background="new 0 0 30 30" xml:space="preserve">
<g>
	<g>
		<g>
			<defs>
				<path id="SVGID_1_" d="M31.002,27.698c0,1.823-1.481,3.303-3.304,3.303H2.302c-1.823,0-3.303-1.479-3.303-3.303V2.303      c0-1.825,1.48-3.304,3.303-3.304h25.396c1.822,0,3.304,1.479,3.304,3.304V27.698z"/>
			</defs>
			<clipPath id="SVGID_2_">
				<use xlink:href="#SVGID_1_" overflow="visible"/>
			</clipPath>
			<g clip-path="url(#SVGID_2_)">
				<rect x="-9" y="-1" fill="#01247D" width="48.002" height="32"/>
				<polygon fill="#FFFFFF" points="39.002,10.2 19.798,10.2 19.798,-1 10.202,-1 10.202,10.2 -9,10.2 -9,19.803 10.202,19.803       10.202,30.998 19.798,30.998 19.798,19.803 39.002,19.803     "/>
				<polygon fill="#FFFFFF" points="39.002,27.322 -3.492,-1 -9,-1 -9,2.705 33.451,30.998 39.002,30.998     "/>
				<polygon fill="#FFFFFF" points="-9,27.322 33.492,-1 39.002,-1 39.002,2.705 -3.451,30.998 -9,30.998     "/>
				<polygon fill="#CF142B" points="39.002,12.201 17.801,12.201 17.801,-1 12.199,-1 12.199,12.201 -9,12.201 -9,17.797       12.199,17.797 12.199,30.998 17.801,30.998 17.801,17.797 39.002,17.797     "/>
				<polygon fill="#CF142B" points="39.002,30.906 39.002,28.379 26.1,19.803 22.299,19.803     "/>
				<polygon fill="#CF142B" points="39.002,-1 35.207,-1 19.798,9.243 19.798,10.2 22.167,10.2 39.002,-0.999     "/>
				<polygon fill="#CF142B" points="7.708,19.803 -9,30.908 -9,30.998 -5.333,30.998 10.202,20.666 10.202,19.803     "/>
				<polygon fill="#CF142B" points="-9,-0.98 -9,1.545 4.008,10.2 7.808,10.2     "/>
			</g>
		</g>
	</g>
	
		<radialGradient id="SVGID_3_" cx="158.6729" cy="437.3926" r="21.091" gradientTransform="matrix(0.3851 0.9229 1.2737 -0.5316 -611.5463 86.6134)" gradientUnits="userSpaceOnUse">
		<stop offset="0.2675" style="stop-color:#000000;stop-opacity:0.5"/>
		<stop offset="1" style="stop-color:#FFFFFF"/>
	</radialGradient>
	<path display="none" opacity="0.35" fill="url(#SVGID_3_)" enable-background="new    " d="M1.612,22.266   c11.708,0,21.996-5.844,27.92-14.666V3.468c0-1.657-1.345-3-3-3H3.468c-1.656,0-3,1.343-3,3v18.768   C0.849,22.249,1.229,22.266,1.612,22.266z"/>
</g>
</svg>